<?xml version="1.0" encoding="UTF-8"?>
<!-- Generator: Adobe Illustrator 21.0.0, SVG Export Plug-In . SVG Version: 6.00 Build 0) -->
<svg xmlns="http://www.w3.org/2000/svg" xmlns:xlink="http://www.w3.org/1999/xlink" id="Слой_1" x="0px" y="0px" viewBox="0 0 150 150" style="enable-background:new 0 0 150 150;" xml:space="preserve"> <style type="text/css"> .st0{fill:#303353;} .st1{fill:#898796;} .st2{display:none;opacity:0.1;fill:#231F20;enable-background:new ;} .st3{display:none;} .st4{display:inline;} .st5{fill:#EFF7FA;} .st6{display:inline;fill:none;stroke:#D9D7E2;stroke-miterlimit:10;} .st7{display:inline;opacity:0.1;fill:#231F20;enable-background:new ;} .st8{display:inline;fill:#EFF7FA;} .st9{display:inline;fill:#054A8F;} .st10{display:inline;fill:#C64747;} .st11{display:inline;fill:#898796;} .st12{display:inline;fill:#D9D7E2;} .st13{fill:#D9D7E2;} .st14{display:inline;fill:#9B5538;} .st15{display:inline;fill:#F5B67E;} .st16{display:inline;fill:#A95C40;} .st17{display:inline;fill:#934D33;} .st18{display:inline;fill:#F6C085;} .st19{display:inline;fill:#F8C997;} .st20{display:inline;fill:#BF9141;} .st21{fill:#3E3B3A;} .st22{fill:#BF9141;} .st23{display:inline;fill:#D6825B;} .st24{display:inline;fill:#E5B17D;} .st25{display:inline;fill:#D97B5A;} .st26{fill:#9F2025;} .st27{fill:#F5B67E;} .st28{fill:#841B21;} .st29{fill:#F6C085;} .st30{fill:#F8C997;} .st31{fill:#D6825B;} .st32{fill:#59341A;} .st33{fill:#402412;} .st34{fill:#5D331A;} .st35{fill:#E5B17D;} .st36{opacity:0.1;fill:#231F20;enable-background:new ;} .st37{display:none;fill:#D9D7E2;} .st38{display:none;fill:#898796;} .st39{display:none;fill:#C64747;} .st40{fill:none;stroke:#EFF7FA;stroke-miterlimit:10;} .st41{display:none;fill:none;stroke:#D9D7E2;stroke-miterlimit:10;} .st42{fill:#59C0D8;} .st43{opacity:0.1;fill:#303353;enable-background:new ;} .st44{opacity:0.1;fill:#3F3A4E;enable-background:new ;} .st45{opacity:0.7;} .st46{fill:#FFFFFF;} .st47{fill:#FCFBFF;} </style> <g id="Слой_9"> <rect class="st0" width="150" height="150"/> </g> <g id="Слой_7"> <g id="Слой_1_1_"> <g> <path class="st1" d="M115.3,215.1H35.4c-6.6,0-12-5.4-12-12v-86.7c0-6.6,5.4-12,12-12h79.9c6.6,0,12,5.4,12,12v86.7 C127.3,209.8,121.9,215.1,115.3,215.1z"/> <path class="st2" d="M108,215.2H42.6c-7.2,0-13-5.8-13-13v-66.9H121v66.9C121,209.3,115.2,215.2,108,215.2z"/> <g class="st3"> <g class="st4"> <path class="st5" d="M45.2,149.6c-0.1,0.8-0.2,1.6-0.3,2.3c-0.5,3-3.5,5.6-5.4,7.8c-4.8,5.3-10.2,10-16.3,13.6 C9.4,181.6-6.6,183-21.7,178c-5.5-1.8-3.7-3-3.4-9.2c0.1-2.7,1.5-5,3.8-6.4c2.7-1.6,6-1.5,9-1.3c6.2,0.5,12.5,0.3,18.3-1.9 c5.1-2,8.9-6.2,12.7-9.9c2-1.9,3.6-4.1,5.4-6.2c1.7-2,3.6-4.8,5.9-6.3c4.1-2.7,10.7-0.2,13.3,3.4 C45.3,143,45.5,146.3,45.2,149.6z"/> </g> <path class="st6" d="M-15.8,172.2c0,0,10,2.7,21.3,0.3c8-1.7,20.7-10,20.7-10"/> <path class="st7" d="M43.6,158.4c0.3-8.5-0.5-20.5-7.6-21.6c-11.6,6.3-19.1,17.3-30.4,22.5l14.3,15.9c0,0,5.2-2.8,6.3-3.9 c3.8-3.9,5.7-4.8,9.9-8C38.1,161.7,40.8,160.1,43.6,158.4z"/> <path class="st8" d="M6.4,152.7l20.7,18.5l16.4-6.1c0,0,12.8-30.7-2.3-31.3C26.3,133.3,15.4,135.3,6.4,152.7z"/> <path class="st7" d="M31.3,134.1v35.6l12.2-4.5c0,0,12.8-30.7-2.3-31.3C37.7,133.7,34.4,133.7,31.3,134.1z"/> <path class="st8" d="M-20.4,173.2l1.2-8.4c0.3-2.2-1.2-4.3-3.4-4.6l-8.4-1.5c-4.5-0.7-8.8,2.5-9.4,7l0,0c-0.7,4.5,2.5,8.8,7,9.4 l8.4,1.5C-22.8,176.9-20.8,175.4-20.4,173.2z"/> <path class="st8" d="M-21,164.5c0.2-0.3,0.4-0.6,0.5-1c0.2-1.1-0.3-2.2-0.9-3.1c-1.9-2.5-3.5-4.3-2.7-7.6 c0.6-2.6-1.2-3.8-3.6-3.1c-4,1.1-4.5,7.2-2.8,10.3c1.2,2.2,3.6,3.5,5.5,5C-23.8,165.9-21.9,165.6-21,164.5z"/> <path class="st7" d="M-21.5,160.4c0.1,0.1,0.1,0.1,0.2,0.2c1.4,0.8,2.3,2.4,2.1,4.1l-1.2,8.4c-0.3,2.2-2.4,3.8-4.6,3.4l-4.6-0.7 l6.6-17.7L-21.5,160.4z"/> <path class="st8" d="M-21.4,158.9l-3.4,18.8c-0.4,2.2,1.1,4.4,3.3,4.8l0,0c2.2,0.4,4.4-1.1,4.8-3.3l3.4-18.8 c0.4-2.2-1.1-4.4-3.3-4.8l0,0C-18.8,155.2-21,156.7-21.4,158.9z"/> <path class="st9" d="M26,135c-3.8,1-7.3,2.7-10.6,5.5l7.7,15.3l10.6-5.4L26,135z"/> </g> <g class="st3"> <g class="st4"> <path class="st5" d="M111.8,135c21.3,10.5,43.6,31.1,37.5,64.3c-1,5.7-2.4,4.1-8.6,4.7c-2.6,0.2-5.2-0.8-6.9-2.9 c-2-2.4-2.4-5.7-2.5-8.7c-0.4-6.2-1.4-12.4-4.5-17.8c-2.6-4.7-7.4-8-11.6-11.2c-6.7-5.1-20.9-10.1-18.1-21 C98.9,135.7,105.6,131.9,111.8,135z"/> </g> <path class="st6" d="M142.8,194.2c0,0,1.2-10.2-2.7-21.1c-2.8-7.7-12.8-19.1-12.8-19.1"/> <path class="st7" d="M107.5,158.4c-0.3-8.5,0.5-20.5,7.6-21.6c11.6,6.3,23,15.6,29.5,28.4l-18,9.3l0,0c-2.6-4.7-7.4-8-11.6-11.2 C113,161.7,110.3,160.1,107.5,158.4z"/> <path class="st8" d="M145.5,155.9l-21.8,17.2l-16-7c0,0-10.9-31.4,4.1-31.1C126.9,135.3,137.6,138,145.5,155.9z"/> <path class="st7" d="M121.8,135.8l-2.1,35.5l-11.9-5.2c0,0-10.9-31.4,4.1-31.1C115.5,135.1,118.8,135.3,121.8,135.8z"/> <path class="st8" d="M144.4,198.7h-8.5c-2.2,0-4.1,1.8-4.1,4l-0.1,16.6c0,4.6,3.7,8.3,8.3,8.3l0,0c4.6,0,8.3-3.7,8.3-8.3 l0.1-16.6C148.5,200.5,146.6,198.7,144.4,198.7z"/> <path class="st8" d="M135.8,200.5L135.8,200.5c-1.4-0.8-3.1-0.3-3.9,1l-5.2,8.9c-0.8,1.4-0.3,3.1,1,3.9l0,0 c1.4,0.8,3.1,0.3,3.9-1l5.2-8.9C137.7,203,137.2,201.3,135.8,200.5z"/> <path class="st7" d="M131.9,201.5c0.1-0.1,0.1-0.2,0.2-0.2c0.6-1.5,2.1-2.6,3.8-2.6h8.5c2.2,0,4.1,1.8,4,4.1v4.6l-17.6-3.9 L131.9,201.5z"/> <path class="st8" d="M130.4,201.6l19.1,0.7c2.3,0.1,4.2-1.7,4.3-4l0,0c0.1-2.3-1.7-4.2-4-4.3l-19.1-0.7c-2.3-0.1-4.2,1.7-4.3,4 l0,0C126.4,199.6,128.2,201.5,130.4,201.6z"/> <path class="st10" d="M127.1,137c3.8,1.2,7.1,3.1,10.2,6.1l-8.6,14.8l-10.3-6L127.1,137z"/> </g> <g class="st3"> <path class="st8" d="M63.4,272.1c0-0.4-0.1-0.8-0.1-1.2c-1.7-10.3-1.2-20.2,0.1-30.8c0.5-4.6,1.2-9.2,2.1-13.7 c0.2-0.8,0.3-1.6,0.5-2.4l0,0c0.3-1.1,0.6-2.3,1-3.4c4.9-14.6-17.6-23-22.5-8.3c-2.7,8.1-4,17.1-5,25.6 c-1.3,11.3-1.7,23-0.2,34.3"/> <path class="st11" d="M39.2,272.1H26.8c-5.4,0-9.9,4.4-9.9,9.9v9.9h46.4V274c0-0.6,0-1.2,0-1.8l0,0l0,0"/> <path class="st7" d="M52.6,204.8c6.6,1.3,12.5,7.5,9.7,15.7c-0.4,1.1-0.6,2.3-1,3.4l0,0c-0.2,0.8-0.3,1.6-0.5,2.4 c-0.9,4.5-1.6,9.1-2.1,13.7c-1.2,10.6-1.8,20.6-0.1,30.8c0.1,0.4,0.1,0.8,0.1,1.2l0,0l0,0c0,0.6,0,1.2,0,1.8v17.9v3.3h4.8v-3.3 V274c0-0.6,0-1.2,0-1.8l0,0l0,0c0-0.4-0.1-0.8-0.1-1.2c-1.7-10.3-1.2-20.2,0.1-30.8c0.5-4.6,1.2-9.2,2.1-13.7 c0.2-0.8,0.3-1.6,0.5-2.4l0,0c0.3-1.1,0.6-2.3,1-3.4C70.6,210.3,60.6,203.2,52.6,204.8z"/> <path class="st12" d="M62.6,272.1H40c-2.3,0-4.1-1.8-4.1-4.1l0,0c0-2.3,1.8-4.1,4.1-4.1h22.6c2.3,0,4.1,1.8,4.1,4.1l0,0 C66.7,270.3,64.9,272.1,62.6,272.1z"/> <rect x="17" y="291.9" class="st12" width="46.4" height="3.3"/> <line class="st6" x1="38.2" y1="257.1" x2="62.1" y2="257.1"/> <line class="st6" x1="38.4" y1="249.9" x2="62.1" y2="249.9"/> </g> <g class="st3"> <path class="st8" d="M87.4,272.1c0-0.4,0.1-0.8,0.1-1.2c1.7-10.3,1.2-20.2-0.1-30.8c-0.5-4.6-1.2-9.2-2.1-13.7 c-0.2-0.8-0.3-1.6-0.5-2.4l0,0c-0.3-1.1-0.6-2.3-1-3.4c-4.9-14.6,17.6-23,22.5-8.3c2.7,8.1,4,17.1,5,25.6 c1.3,11.3,1.7,23,0.2,34.3"/> <path class="st11" d="M111.6,272.1h12.3c5.4,0,9.9,4.4,9.9,9.9v9.9H87.4V274c0-0.6,0-1.2,0-1.8l0,0l0,0"/> <path class="st7" d="M98.2,204.8c-6.6,1.3-12.5,7.5-9.7,15.7c0.4,1.1,0.6,2.3,1,3.4l0,0c0.2,0.8,0.3,1.6,0.5,2.4 c0.9,4.5,1.6,9.1,2.1,13.7c1.2,10.6,1.8,20.6,0.1,30.8c-0.1,0.4-0.1,0.8-0.1,1.2l0,0l0,0c0,0.6,0,1.2,0,1.8v17.9v3.3h-4.8v-3.3 V274c0-0.6,0-1.2,0-1.8l0,0l0,0c0-0.4,0.1-0.8,0.1-1.2c1.7-10.3,1.2-20.2-0.1-30.8c-0.5-4.6-1.2-9.2-2.1-13.7 c-0.2-0.8-0.3-1.6-0.5-2.4l0,0c-0.3-1.1-0.6-2.3-1-3.4C80.2,210.3,90.2,203.2,98.2,204.8z"/> <path class="st12" d="M88.2,272.1h22.6c2.3,0,4.1-1.8,4.1-4.1l0,0c0-2.3-1.8-4.1-4.1-4.1H88.2c-2.3,0-4.1,1.8-4.1,4.1l0,0 C84.1,270.3,85.9,272.1,88.2,272.1z"/> <rect x="87.4" y="291.8" class="st12" width="46.4" height="3.3"/> <line class="st6" x1="112.6" y1="257.1" x2="88.6" y2="257.1"/> <line class="st6" x1="112.4" y1="249.9" x2="88.6" y2="249.9"/> </g> <path class="st13" d="M125,93H25.6c-6.6,0-12-5.4-12-12v-8.8c0-6.6,5.4-12,12-12H125c6.6,0,12,5.4,12,12V81 C137,87.6,131.6,93,125,93z"/> <path id="круг_1_" class="st1" d="M83.3,123.9h-16c-24.8,0-45-20.2-45-45v-8.2c0-28,22.9-51,51-51h4c28.1,0,51,22.9,51,51 v8.2C128.3,103.6,108.1,123.9,83.3,123.9z"/> </g> </g> <g id="Слой_5"> <g class="st3"> <path class="st14" d="M63.8,130.3c-0.6-0.5-14.1-6.8-14.1-6.8c-6,2-7.4,15.5-8,23.4H56L63.8,130.3z"/> <path class="st14" d="M87.7,130.3c0.6-0.5,14.1-6.8,14.1-6.8c6,2,7.4,15.5,8,23.4H95.4L87.7,130.3z"/> <path class="st15" d="M75.8,108.7h-6.3v4c0,2.5-0.4,2-2.7,3.3c0,0-2.2,1.8-2.9,2.1c2.8,9.1,4.8,20.7,10.3,28.9h1.6h1.6 c5.5-8.2,7.5-19.8,10.3-28.9c-0.7-0.2-2.9-2.1-2.9-2.1c-2.3-1.3-2.7-0.8-2.7-3.3v-4H75.8z"/> <path class="st16" d="M66.7,116c-3.4,1.5-15.7,6.4-17.1,7.6c1.1,2.4,2.8,12.5,4.3,23.3h21.8h21.8c1.5-10.8,3.2-20.9,4.3-23.3 c-1.4-1.2-13.7-6-17.1-7.6c4.3,3.4-6.7,12.7-9.1,15.4l-4.7-5.2C70.7,125.3,62.6,119.2,66.7,116z"/> <polygon class="st17" points="74.7,131 75.8,131.5 76.8,131 76.8,146.9 74.7,146.9 "/> <path class="st18" d="M92.7,79.8c-0.9,4.7,2.1,8.6,6.8,9.5c4.7,0.8,9.2-1.7,10.1-6.4c0.9-4.7-2.1-9.2-6.8-10.1 C98.1,71.9,93.6,75.1,92.7,79.8z"/> <path class="st18" d="M60.1,79.8c0.9,4.7-2.1,8.6-6.8,9.5c-4.7,0.8-9.2-1.7-10.1-6.4c-0.9-4.7,2.1-9.2,6.8-10.1 S59.2,75.1,60.1,79.8z"/> <path class="st19" d="M99.7,49.9C95.2,43.7,88,39.6,80.5,39.3c0,0-0.1,0-0.4,0V39c0,0-1.8,0.1-3.7,0.1C74.5,39,72.7,39,72.7,39 v0.3c-0.2,0-0.4,0-0.4,0c-7.6,0.3-14.7,4.4-19.2,10.6c-4.6,6.2-5.2,14-4.8,21.5c0.9,19.2,2.6,40.8,28.2,41 c25.7,0.2,27.2-21.9,28.1-41C104.9,63.9,104.3,56.1,99.7,49.9z"/> <path class="st20" d="M103.9,81.5c0-0.7,4-20.6,3.1-29.1c-1-8.5-6.5-8.9-7.7-9c-1.2-0.2-1.8-0.5-1.8-0.5s-4.9-3.9-14.8-6.3 c-9.9-2.4-23.9,4.9-31.5,0.8c-3.7,3.9-1.5,11.3-1.5,11.3s-2.8,1-3.5,4.8S49,81.7,49,81.7s1.5-18.8,3.8-21.5c0,0,16.3,3,45.8-8.2 C104.4,49.7,102.4,74.3,103.9,81.5z"/> <g class="st4"> <circle class="st21" cx="62.1" cy="82.5" r="2.2"/> <circle class="st21" cx="90.7" cy="82.5" r="2.2"/> </g> <g class="st4"> <path class="st22" d="M55.1,75.7c-0.7-1.2,3.1-1.8,6.9-1.8c6.5,0,9.9,3.2,6.8,3.1C66.5,76.9,55.3,76.1,55.1,75.7z"/> <path class="st22" d="M97.6,76c0.7-1.2-3-1.8-6.9-1.9c-6.5-0.1-10,3-6.9,2.9C86.2,77,97.4,76.3,97.6,76z"/> </g> <path class="st23" d="M84.7,97.4c-1.3,7.5-13.5,7.5-14.8,0C73.9,102.8,80.7,102.8,84.7,97.4z"/> <path class="st24" d="M72.3,93.5L72.3,93.5c0-0.2,0.1-0.3,0.2-0.4c0.9-1.7,2.7-6.8,3.5-12.3c0.9,0.1-0.9,9.5-1.6,11.7 c0.8-0.1,1.7-0.2,2.7-0.2c2.6,0,4.7,0.5,4.7,1.2c0,0.6-2.1,1.2-4.7,1.2C74.6,94.6,72.5,94.1,72.3,93.5z"/> <path class="st25" d="M63.7,123.5c5,6.3,12.3,8.5,12.1,8c-0.3-0.5-7.3-10-7.8-12.7c-0.5-2.6,1.1-4.1,1.1-4.1 c0.5-0.6,0.4-2.1,0.4-3C62.1,111.5,58.7,117.2,63.7,123.5z"/> <path class="st25" d="M87.8,123.5c-5,6.3-12.3,8.5-12.1,8c0.3-0.5,7.3-10,7.8-12.7c0.5-2.6-1.1-4.1-1.1-4.1 c-0.5-0.6-0.4-2.1-0.4-3C89.4,111.5,92.8,117.2,87.8,123.5z"/> </g> <g> <path class="st26" d="M63.7,128.5c-0.6-0.4-13.9-6.7-13.9-6.7c-5.9,2-7.2,15.2-7.8,23.1h14.1L63.7,128.5z"/> <path class="st26" d="M87.3,128.5c0.6-0.4,13.9-6.7,13.9-6.7c5.9,2,7.2,15.2,7.8,23.1H94.9L87.3,128.5z"/> <path class="st27" d="M75.5,107.2h-6.2v3.9c0,2.4-0.4,1.9-2.7,3.2c0,0-2.2,1.8-2.9,2c2.8,8.9,4.8,20.4,10.2,28.4h1.6h1.6 c5.4-8,7.4-19.5,10.2-28.4c-0.7-0.2-2.9-2-2.9-2c-2.3-1.3-2.7-0.8-2.7-3.2v-3.9H75.5z"/> <path class="st28" d="M71.6,123.2c-5.5-2-6.2-7.9-5.1-8.8c-3.3,1.5-15.4,6.3-16.8,7.4c1.1,2.4,2.8,12.3,4.2,23h21.5H97 c1.4-10.7,3.1-20.6,4.2-23c-1.4-1.2-13.5-5.9-16.8-7.4c1.1,0.9,0.4,6.7-5.1,8.8l0,0l-3.9,6.5L71.6,123.2L71.6,123.2z"/> <path class="st29" d="M92.2,78.7c-0.9,4.6,2.1,8.5,6.7,9.3s9.1-1.7,9.9-6.3c0.9-4.6-2.1-9.1-6.7-9.9C97.5,71,93.1,74.1,92.2,78.7 z"/> <path class="st29" d="M60.1,78.7c0.9,4.6-2.1,8.5-6.7,9.3s-9.1-1.7-9.9-6.3c-0.9-4.6,2.1-9.1,6.7-9.9 C54.7,71,59.2,74.1,60.1,78.7z"/> <path class="st30" d="M99.1,49.2c-4.5-6.1-11.5-10.1-18.9-10.4c0,0-0.1,0-0.4,0v-0.3c0,0-1.8,0.1-3.7,0.1 c-1.9-0.1-3.7-0.1-3.7-0.1v0.3c-0.2,0-0.4,0-0.4,0c-7.4,0.3-14.5,4.3-18.9,10.4C48.6,55.3,48,63,48.4,70.4 c0.9,18.9,2.6,40.2,27.8,40.4c25.3,0.2,26.7-21.6,27.7-40.4C104.2,63.1,103.6,55.4,99.1,49.2z"/> <path class="st31" d="M83.5,94.9c-1.3,7.4-13.3,7.4-14.6,0C72.5,95.7,79.2,95.7,83.5,94.9z"/> <path class="st32" d="M49.8,76.2c0.3-7,0.4-19.6,6.5-19.6c4.5,0,5.8,1,19.5,1c12.2,0,15.7-1.4,20.3-1.4c4.9,0,6.1,6.6,6.2,15.7 c0,1.9,0.1,3.8,0.3,5.6c0.1,1.1,0.1,2.2,0.2,3.3c0,0.4,0.1,1.6,0.7,1.5s0.7-2.5,0.8-3.1c0.5-3.6,0.6-7.4,0.6-11 c0-6.8,1.9-19.8-10.2-27.9c-7.5-5-22.9-5.5-31.5-2.7c-6,2-11.7,7.1-13.8,13.1c-2.3,6.6-2.3,11.7-1.5,24.7 c0.1,1.4,0.2,2.8,0.4,4.2c0.1,0.9,0.2,1.9,0.5,2.8c0.5,2,1.2,0.6,1.1-0.7C49.8,79.9,49.7,78,49.8,76.2z"/> <path class="st33" d="M64.5,95.3c-1.1,0.2-2.1,0.3-3.2,0.3c-3.8,0-7-1.4-9.1-4c-0.7-0.9-1.3-2.5-1.4-3.6c-0.1-1-0.6-3.4-0.7-4.2 c-0.5-4.7-1.5-1.3-1.5,2.3c0,0.8,0.2,1.8,0.4,2.7c-0.2,1.6-0.6,5.7-0.4,7.1c1.1,13.9,18.9,17.5,27.7,18.8 c4.3-0.6,16.1-3.5,18.9-5.4c7.1-4.9,9.4-10.4,8.3-20.5c0.2-0.9,0.4-1.8,0.4-2.7c0-3.7-1.1-7.1-1.5-2.3c-0.1,0.8-0.6,3.2-0.7,4.2 s-0.7,2.7-1.4,3.6c-2.1,2.5-5.3,4-9.1,4c-1.1,0-2.1-0.1-3.2-0.3c0.5,0.8,0.7,1.7,0.7,2.7c0,3.5-3.7,6.5-8.8,7.5 c-0.3-0.1-0.7-0.3-1-0.5c-1.2-0.8-2.1-1.9-2.6-2.6c-0.4,0.7-1.3,1.8-2.6,2.6c-0.4,0.3-0.8,0.4-1.1,0.5c-5.2-1-9-4-9-7.5 C63.8,97,64.1,96.1,64.5,95.3z"/> <path class="st34" d="M76.3,89.4c-2.9-2.3-9.7,3.5-11.2,4.1c-4.3,1.9-7-1.9-7-1.9s0.6,2.6,2.6,5c3.7,4.2,11.6,3.1,15.6-0.5 c4,3.6,11.9,4.7,15.6,0.5c2.1-2.3,2.6-5,2.6-5s-2.7,3.7-7,1.9C86,92.9,79.2,87.1,76.3,89.4z"/> <g> <circle class="st21" cx="61.8" cy="82.7" r="2.2"/> <circle class="st21" cx="90.4" cy="82.7" r="2.2"/> </g> <g> <path class="st32" d="M54.9,76.1c-0.7-1.2,3-1.8,6.8-1.8c6.4-0.1,9.8,3,6.7,2.9C66.2,77.2,55.1,76.5,54.9,76.1z"/> <path class="st32" d="M97.3,76c0.7-1.2-3-1.8-6.8-1.7c-6.4,0-9.8,3.1-6.7,3C86,77.1,97.1,76.3,97.3,76z"/> </g> <path class="st35" d="M73.3,88L73.3,88c0-0.1,0-0.2,0.1-0.3c0.7-1.4,2.2-5.5,2.8-10c0.7,0-0.7,7.7-1.3,9.5 c0.6-0.1,1.4-0.2,2.2-0.2c2.1,0,3.9,0.4,3.9,1c0,0.5-1.7,1-3.9,1C75.1,88.9,73.4,88.5,73.3,88z"/> </g> </g> <g id="Слой_2"> </g> <g id="Слой_4"> <path class="st36" d="M83.3,112.3h-16c-24.2,0-44.1-19.4-45-43.4c0,0.5,0,1.1,0,1.6v8.2c0,24.8,20.2,45,45,45h16 c24.8,0,45-20.2,45-45v-8.2c0-0.6,0-1.1,0-1.6C127.4,92.9,107.5,112.3,83.3,112.3z"/> <path class="st5" d="M115.8,125h-81c-2.8,0-5.1-2.3-5.1-5.1l0,0c0-2.8,2.3-5.1,5.1-5.1h81.1c2.8,0,5.1,2.3,5.1,5.1l0,0 C121,122.7,118.7,125,115.8,125z"/> <path class="st36" d="M115.8,121.3h-81c-2.2,0-4.1-1.4-4.8-3.3c-0.2,0.6-0.4,1.2-0.4,1.8l0,0c0,2.8,2.3,5.1,5.1,5.1h81.1 c2.8,0,5.1-2.3,5.1-5.1l0,0c0-0.6-0.1-1.3-0.4-1.8C119.9,120,118,121.3,115.8,121.3z"/> <path class="st13" d="M115.8,135.3h-81c-2.8,0-5.1-2.3-5.1-5.1l0,0c0-2.8,2.3-5.1,5.1-5.1h81.1c2.8,0,5.1,2.3,5.1,5.1l0,0 C121,133,118.7,135.3,115.8,135.3z"/> <path class="st37" d="M132,161.9H94.6c-7.2,0-13-5.8-13-13V82H145v66.9C145,156.1,139.2,161.9,132,161.9z"/> <path class="st2" d="M81.6,148.9c0,1.8,0.4,3.6,1.1,5.2h53.6c3.2,0,6.2-1.2,8.5-3.2c0.1-0.7,0.2-1.3,0.2-2V82H81.6V148.9z"/> <path class="st36" d="M115.8,131.6h-81c-2.2,0-4.1-1.4-4.8-3.3c-0.2,0.6-0.4,1.2-0.4,1.8l0,0c0,2.8,2.3,5.1,5.1,5.1h81.1 c2.8,0,5.1-2.3,5.1-5.1l0,0c0-0.6-0.1-1.3-0.4-1.8C119.9,130.2,118,131.6,115.8,131.6z"/> <path class="st5" d="M102.2,215.1H48.4c-7.2,0-13-5.8-13-13v-66.9h79.9v66.9C115.2,209.3,109.4,215.1,102.2,215.1z"/> <path class="st37" d="M132,129.5H94.6c-6.6,0-12-5.4-12-12v-10.6c0-6.6,5.4-12,12-12H132c6.6,0,12,5.4,12,12v10.6 C144,124.1,138.6,129.5,132,129.5z"/> <path class="st2" d="M137.3,96c1.4,2,2.2,4.3,2.2,6.9v10.6c0,6.6-5.4,12-12,12H90.2c-1.8,0-3.4-0.4-4.9-1.1 c2.2,3.1,5.8,5.1,9.8,5.1h37.3c6.6,0,12-5.4,12-12v-10.6C144.3,102.1,141.4,97.9,137.3,96z"/> <path class="st38" d="M132.4,108.2h-21.5c-1.3,0-2.4-1.1-2.4-2.4l0,0c0-1.3,1.1-2.4,2.4-2.4h21.5c1.3,0,2.4,1.1,2.4,2.4l0,0 C134.9,107.1,133.8,108.2,132.4,108.2z"/> <path class="st38" d="M132.4,119.7h-21.5c-1.3,0-2.4-1.1-2.4-2.4l0,0c0-1.3,1.1-2.4,2.4-2.4h21.5c1.3,0,2.4,1.1,2.4,2.4l0,0 C134.9,118.6,133.8,119.7,132.4,119.7z"/> <circle class="st39" cx="97.2" cy="105.1" r="4.6"/> <circle class="st38" cx="97.2" cy="117.2" r="3.3"/> <rect x="70.1" y="135.3" class="st13" width="10.3" height="24.6"/> <line class="st40" x1="75.3" y1="135.3" x2="75.3" y2="159.9"/> <line class="st41" x1="73.4" y1="137.1" x2="153.2" y2="137.1"/> <g class="st3"> <g class="st4"> <g> <path class="st42" d="M-94.8,14.6C-62.2,2.7-31.6,19.5,1,7.5c-1.4-19-2.8-37.9-4.2-56.9c-32.6,11.9-63.2-4.8-95.7,7.1 C-97.6-23.3-96.2-4.4-94.8,14.6z"/> </g> <path class="st36" d="M-26.8-44.9c7.8-0.3,15.6-1.5,23.6-4.4c1.4,19,2.8,37.9,4.2,56.9C-10.9,12-22.6,12.5-34.2,12 C-31.8-7.1-29.3-26-26.8-44.9z"/> </g> <g class="st4"> <g> <path class="st13" d="M-4.8-58c3.8,29.4,4.6,59.3,6,88.8c2.1,44.4,3.5,88.8,3.6,133.3c0.1,21.4-0.1,42.8-1.2,64.1 c-0.2,3.2,4.8,3.2,5,0c2.1-41,1.3-82.1,0.2-123.1c-1-41.2-2.6-82.4-5.3-123.5C2.6-31.6,1.9-44.9,0.2-58 C-0.2-61.1-5.3-61.2-4.8-58L-4.8-58z"/> </g> </g> </g> </g> <g id="Слой_3"> <path class="st43" d="M90,114.5H60.6c-17,0-31-14-31-31v-7.7c0-21.4,17.5-39,39-39H82c21.4,0,39,17.5,39,39v7.7 C121,100.6,107,114.5,90,114.5z"/> <path class="st44" d="M90,104.4H60.6c-16.7,0-30.3-13.3-31-29.8c0,0.4,0,0.8,0,1.2v7.7c0,17,14,31,31,31H90c17,0,31-14,31-31v-7.7 c0-0.4,0-0.8,0-1.2C120.3,91.1,106.6,104.4,90,104.4z"/> <g class="st45"> <path class="st46" d="M37,80.9c-2.3-5.1-2.4-10.9-1-16.4s4.4-10.6,8.4-14.7c4.1-4.1,9.2-7.1,14.7-8.5s11.3-1.3,16.4,1 c-5,2.3-9.2,4.4-13,6.9c-3.8,2.5-7.2,5.2-10.2,8.3c-3.1,3.1-5.8,6.4-8.3,10.2C41.4,71.6,39.3,75.8,37,80.9z"/> </g> </g> <g id="Слой_6"> <path class="st47" d="M77.3,19.6h-4c-28,0-51,23-51,51v8.2c0,24.8,20.2,45,45,45h16c24.8,0,45-20.2,45-45v-8.2 C128.3,42.6,105.4,19.6,77.3,19.6z M121,83.5c0,17-14,31-31,31H60.6c-17,0-31-14-31-31v-7.7c0-21.5,17.5-39,39-39H82 c21.4,0,39,17.5,39,39V83.5z"/> </g> <g id="Слой_8"> <path class="st46" d="M0,0v150h150V0H0z M75,143.5c-37.8,0-68.5-30.7-68.5-68.5S37.2,6.5,75,6.5s68.5,30.7,68.5,68.5 S112.8,143.5,75,143.5z"/> </g> </g> </svg>