<svg
              xmlns="http://www.w3.org/2000/svg"
              xmlns:xlink="http://www.w3.org/1999/xlink"
              id="Слой_1"
              x="0px"
              y="0px"
              viewBox="0 0 24 24"
                style="enable-background: new 0 0 24 24"
              xml:space="preserve"
            >
              <style type="text/css">
                .st0 {
                  fill: #d3d3d3;
                  stroke: #303353;
                  stroke-miterlimit: 10;
                }
                .st1 {
                  fill: #e6e6e6;
                  stroke: #303353;
                  stroke-miterlimit: 10;
                }
                .st2 {
                  fill: #999999;
                }
                .st3 {
                  fill: #d3d3d3;
                }
                .st4 {
                  fill: none;
                  stroke: #303353;
                  stroke-miterlimit: 10;
                }
                .st5 {
                  fill: none;
                  stroke: #303353;
                  stroke-linecap: round;
                  stroke-miterlimit: 10;
                }
                .st6 {
                  fill: #303353;
                }
              </style>
              <path
                class="st0"
                d="M21.5,23.5h-19c-1.1,0-2-0.9-2-2v-19c0-1.1,0.9-2,2-2h19c1.1,0,2,0.9,2,2v19C23.5,22.6,22.6,23.5,21.5,23.5z"
              ></path>
              <circle class="st1" cx="12" cy="12" r="9.5"></circle>
              <ellipse class="st2" cx="12" cy="8" rx="2.4" ry="4"></ellipse>
              <g>
                <path
                  class="st3"
                  d="M12,4v8c1.3,0,2.4-1.8,2.4-4S13.3,4,12,4z"
                ></path>
              </g>
              <path
                class="st2"
                d="M12,12c1.3,0,2.4,1.8,2.4,4s-1.1,4-2.4,4s-2.4-1.8-2.4-4S10.7,12,12,12"
              ></path>
              <path
                class="st3"
                d="M12,12c-1.3,0-2.4,1.8-2.4,4s1.1,4,2.4,4V12"
              ></path>
              <path
                class="st2"
                d="M12,12c0,1.3-1.8,2.4-4,2.4S4,13.3,4,12s1.8-2.4,4-2.4S12,10.7,12,12"
              ></path>
              <path
                class="st3"
                d="M12,12c0-1.3-1.8-2.4-4-2.4S4,10.7,4,12H12"
              ></path>
              <path
                class="st2"
                d="M12,12c0-1.3,1.8-2.4,4-2.4s4,1.1,4,2.4s-1.8,2.4-4,2.4S12,13.3,12,12"
              ></path>
              <path
                class="st3"
                d="M12,12c0,1.3,1.8,2.4,4,2.4s4-1.1,4-2.4H12"
              ></path>
              <circle class="st2" cx="12" cy="12" r="1.6"></circle>
              <circle class="st4" cx="12" cy="12" r="7.5"></circle>
              <circle class="st4" cx="12" cy="12" r="5.5"></circle>
              <circle class="st4" cx="12" cy="12" r="3.5"></circle>
              <circle class="st4" cx="12" cy="12" r="1.5"></circle>
              <g>
                <g>
                  <path
                    class="st5"
                    d="M3.3,21.3l8.2-8.2c0.3-0.3,0.7-0.3,1,0l8.2,8.2"
                  ></path>
                  <g>
                    <ellipse
                      transform="matrix(0.7071 -0.7071 0.7071 0.7071 -14.0876 8.5546)"
                      class="st6"
                      cx="3.3"
                      cy="21.3"
                      rx="0.9"
                      ry="0.9"
                    ></ellipse>
                  </g>
                  <g>
                    <ellipse
                      transform="matrix(0.7071 -0.7071 0.7071 0.7071 -8.981 20.883)"
                      class="st6"
                      cx="20.7"
                      cy="21.3"
                      rx="0.9"
                      ry="0.9"
                    ></ellipse>
                  </g>
                </g>
              </g>
              <g>
                <g>
                  <path
                    class="st5"
                    d="M20.7,2.8L12.5,11c-0.3,0.3-0.7,0.3-1,0L3.3,2.8"
                  ></path>
                  <g>
                    <ellipse
                      transform="matrix(0.7071 -0.7071 0.7071 0.7071 4.1006 15.4645)"
                      class="st6"
                      cx="20.7"
                      cy="2.8"
                      rx="0.9"
                      ry="0.9"
                    ></ellipse>
                  </g>
                  <g>
                    <ellipse
                      transform="matrix(0.7071 -0.7071 0.7071 0.7071 -1.006 3.136)"
                      class="st6"
                      cx="3.3"
                      cy="2.8"
                      rx="0.9"
                      ry="0.9"
                    ></ellipse>
                  </g>
                </g>
              </g>
            </svg>