<?xml version="1.0" encoding="UTF-8"?>
<svg xmlns="http://www.w3.org/2000/svg" viewBox="0 0 3318.01 489.09"> <defs> <style>.a{fill:#e9f8ff;}.b{fill:#fff;}</style> </defs> <path class="a" d="M3340.6,310.25c-4.17-9.56-10.95-17.78-18.51-25a133,133,0,0,0-88.15-36.18q-.17,3.38-.31,6.75l-.85,0A136.32,136.32,0,0,0,3073,122.92c-11.18-18.39-28.4-34.2-47.5-42.36A99.71,99.71,0,0,0,2947,81l.29,1.42c-4.94-13-13.87-24.63-24.77-33.56-25.09-20.57-57.05-36.07-89.49-36.2s-76.08,14-98.77,37.16-30.62,52.88-26,85l.19.27,0,0a54.22,54.22,0,0,0-85.8,10.06,20.84,20.84,0,0,1-3.94,5.5c-2.7,2.31-6.46,2.74-10,3.35a67.26,67.26,0,0,0-55.61,65.12,25.69,25.69,0,0,1,18.62,9.45l-.06.09c-15.87-11.17-38.14-11.18-55.32-2.15s-29.45,26.18-35.07,44.83c-1.12,3.7-2,7.56-1.57,11.39.13,1.2.29,2.33.48,3.42a51.27,51.27,0,0,0-10.06-13.07c-6.81-6.42-15.41-11.28-24.72-12.22a27.53,27.53,0,0,0-10.18,1,61.52,61.52,0,0,0-55.11-39.13,71.39,71.39,0,0,0-27.67-20.8,79.86,79.86,0,0,0-41.38-5.38,58,58,0,0,0-21,6.55,35.56,35.56,0,0,0-15.07,15.75,34,34,0,0,0-25.82,7.37,32.89,32.89,0,0,0-4.07,4c-4.78-9.57-13.67-16.87-23.69-20.76-10.85-4.21-22.9-4.69-34.42-2.94-11,1.68-22.58,6-28.62,15.39a33,33,0,0,0-29.33-8.19c-4.65,1-9.62,3.76-10.5,8.44a17,17,0,0,0-18.39,1.18l-1.87.22c-1.13-9.26-3.25-18.72-7.66-26.27-6.23-10.67-16.54-19.38-28.69-21.64-10.58-2-22.37,1.73-29.16,9.87-3-27.32-22.14-101.78-139.47-131.72-145-37-229.29,93.76-241.64,120.38-18.25-8.13-39.51-5.93-59.55-1.18-19,4.5-30.22,10.21-44.55,23.48-13.73,12.72-28.3,29.76-31.7,48.2-.2-.24-.4-.49-.61-.72a25,25,0,0,0-21.36-7.95c-14.51-18.09-40-26.53-62.45-20.67a58.54,58.54,0,0,0-19.67,9.37c-7.32-15.79-25-26-42.6-26.65-19.3-.76-38,8.29-52.41,21.14a76.89,76.89,0,0,0-72.45,6.48,78.75,78.75,0,0,0-22.27,23,57,57,0,0,0-12.83-20.63,72.49,72.49,0,0,0-23.31-15.91c-8.43-3.68-17.71-6-26.83-4.83-12.29-14.88-32.59-21.47-52-22.65-23.56-1.44-48,4.11-66.87,18.31-15.13,11.4-25.57,26.82-28,44.62-20.15.65-40.55,5.81-56.91,17.57s-28.37,30.95-28.67,51.26A18.78,18.78,0,0,0,910.42,331c-8.09,1.31-16.35,3.22-23,7.95-6.36,4.49-11,12-10.42,19.72,0,.41.07.83.14,1.24l2438.13.93.4-.4a6.19,6.19,0,0,0,8,1.55l-2.08-.48c10.18-2.26,18.34-10.81,21.51-20.75S3344.78,319.8,3340.6,310.25Z" transform="translate(-29.38 -8.95)"/> <path class="b" d="M981.18,315.15c0-.07,0-.15,0-.23l-.06.36Z" transform="translate(-29.38 -8.95)"/> <path class="b" d="M984.55,315.15c0-.07,0-.15,0-.23a2.57,2.57,0,0,0-.3-1.3,2.45,2.45,0,0,0-.69-1.08l-.69-.53a2.43,2.43,0,0,0-1.25-.4,1.72,1.72,0,0,0-.9,0,2.43,2.43,0,0,0-1.25.4l-.69.53a3.44,3.44,0,0,0-.86,1.49c0,.12,0,.24-.07.35a2.58,2.58,0,0,0-.06,1.35,2.51,2.51,0,0,0,.41,1.26l.52.68a2.59,2.59,0,0,0,1.09.7,1.69,1.69,0,0,0,.85.23,2.58,2.58,0,0,0,1.35-.06l.8-.34A3.42,3.42,0,0,0,984,317l.08-.13a2.5,2.5,0,0,0,.4-1.26,2.55,2.55,0,0,0-.06-1.34,2.45,2.45,0,0,0-.6-1.15,2.56,2.56,0,0,0-1-.87l-.8-.34a3.44,3.44,0,0,0-1.8,0l-.81.34a3.42,3.42,0,0,0-1.21,1.21l-.07.13,6.16,2.6c0-.12,0-.24.06-.36l-6.62-.9c0,.08,0,.16,0,.23a3.26,3.26,0,0,0,2.08,3.09,2.51,2.51,0,0,0,1.3.29l.9-.12a3.33,3.33,0,0,0,1.48-.87l.53-.68A3.32,3.32,0,0,0,984.55,315.15Z" transform="translate(-29.38 -8.95)"/> <path class="b" d="M1038.84,266.58A28.13,28.13,0,0,0,1019.4,283a30,30,0,0,0-38.24,31.88c1.29-8.52,7.27-16,14.92-20s17-4.77,25.56-3.05c2.33.47,4.78,1.21,6.3,3,2.3,2.78,1.87,7.37,4.74,9.55-3.13-8.27-.24-18.18,6.19-24.25s15.86-8.44,24.61-7.19A28.11,28.11,0,0,0,1038.84,266.58Z" transform="translate(-29.38 -8.95)"/> <path class="b" d="M1037.94,263.33a32,32,0,0,0-21.45,18l3.81-1.55c-22.5-5.88-44.26,11.78-42.51,35.13.26,3.54,5.9,4.89,6.62.9,2-11.11,10.93-18.71,21.8-20.84,5.07-1,12-1.3,16.88.8,4.25,1.86,3.9,7.9,7.2,11.07,2.32,2.23,6.75,0,5.64-3.28a20,20,0,0,1,5.33-21c6-5.62,14.31-7.13,22.22-6.21,2.86.34,4.51-3.95,2.39-5.76a32.48,32.48,0,0,0-27.93-7.31c-4.26.83-2.46,7.34,1.79,6.51a25.18,25.18,0,0,1,21.36,5.57l2.39-5.76c-10.07-1.18-21,1.64-28,9.23a26.71,26.71,0,0,0-6,26.48l5.64-3.28c-2.12-2-2.1-5.38-3.54-7.88a11.35,11.35,0,0,0-6.2-4.83c-6.48-2.29-14.26-2.2-20.92-.9-13,2.54-24.09,12.33-26.5,25.56l6.63.89c-1.42-18.91,15.41-33.47,34-28.62a3.43,3.43,0,0,0,3.82-1.55,25.5,25.5,0,0,1,17.41-14.91C1043.94,268.75,1042.16,262.24,1037.94,263.33Z" transform="translate(-29.38 -8.95)"/> <path class="b" d="M1187.49,266.13c-2.41-.68-5-.84-7.27-1.84-3-1.3-5.16-3.85-7.43-6.16a47.07,47.07,0,0,0-16.91-11.55c-6.45-2.39-13.77-2.83-20.2-.38s-11.8,8-13.23,14.74a22.16,22.16,0,0,0-25.12,10.27l1-1.08a30.93,30.93,0,0,1,31.12-2.5c.78-6.87,6.27-12.71,12.84-14.87s14-1,20.1,2.22,11.15,8.23,15.28,13.79a16.14,16.14,0,0,0-2.7,12.83,14.09,14.09,0,0,1,24-5.19A17.8,17.8,0,0,0,1187.49,266.13Z" transform="translate(-29.38 -8.95)"/> <path class="b" d="M1188.39,262.88c-4.29-1.05-7.63-1.69-10.94-4.8-2.74-2.58-5.22-5.31-8.19-7.64a41.68,41.68,0,0,0-19.16-8.82c-13.42-2.09-27.38,4.69-30.9,18.42l4.15-2.35a25.87,25.87,0,0,0-28.94,11.82c-1.91,3.23,2.7,7,5.3,4.09,6.49-7.25,19.94-6.79,28-3.05,1.76.81,4.59.33,5-2,1.48-9.22,10-14.33,19-13.38,9.7,1,17.37,7.87,23,15.32v-3.41a20.67,20.67,0,0,0-3,15.44c.6,3.59,5.49,2.8,6.51,0,2.93-8.08,12.53-9.66,18.41-3.71,2.84,2.89,6.82-.75,5.3-4.09a21.85,21.85,0,0,0-13.51-11.82c-4.14-1.36-5.91,5.15-1.8,6.5a15.36,15.36,0,0,1,9.48,8.73l5.3-4.09c-9.65-9.78-25.08-6-29.69,6.69h6.51a13.68,13.68,0,0,1,2.36-10.24,3.29,3.29,0,0,0,0-3.41c-7.47-9.79-17.54-18.41-30.47-18.76-11.21-.3-22.09,7-23.93,18.44l5-2c-10.7-5-27.56-5.52-36.17,4.1l5.3,4.09a19,19,0,0,1,21.32-8.72,3.42,3.42,0,0,0,4.15-2.35c3.77-14.72,21.07-16.44,32.8-10.41,5.59,2.87,9.71,7.14,14.17,11.42,4.25,4.08,8.33,5.18,13.91,6.53C1190.81,270.41,1192.61,263.9,1188.39,262.88Z" transform="translate(-29.38 -8.95)"/> <path class="b" d="M1698.38,241.71a81.65,81.65,0,0,1,125.16-11.86,37.16,37.16,0,0,1,61.41-4.77,41.26,41.26,0,0,1,70.87,9.83c-7.94-12-24.84-15.65-38.52-11.28s-24.4,15.24-32.33,27.21a42.28,42.28,0,0,0-63.93,1.61c-5.27-15.16-18.68-26.73-33.9-31.79s-32-4.1-47.38.58-29.42,12.86-42.54,22.09" transform="translate(-29.38 -8.95)"/> <path class="b" d="M1701.3,243.42c12.83-18.47,33.67-31.2,56.11-33.6a79.87,79.87,0,0,1,63.74,22.42,3.42,3.42,0,0,0,5.3-.69c12.33-20.68,40.84-22.46,56.11-4.08a3.4,3.4,0,0,0,4.78,0c8.64-10.72,22.62-16.9,36.42-14.5,13.17,2.28,24,11.48,29.14,23.65l5.83-3.41c-8.59-12.25-24.06-16.75-38.4-13.85-16.54,3.34-29.21,16.31-38.28,29.78l5.3-.69a46.26,46.26,0,0,0-68.69,1.61l5.64,1.49c-8.18-22.29-29.74-35.49-52.8-37.41-27.84-2.3-53.82,10.79-76,26.28-3.53,2.47-.16,8.32,3.41,5.83,19.86-13.88,42.38-25.85,67.25-25.6,21.69.23,43.83,11.47,51.62,32.69.8,2.18,3.85,3.58,5.64,1.49a39.51,39.51,0,0,1,59.15-1.6,3.42,3.42,0,0,0,5.3-.69c7.65-11.36,18-22.27,31.61-26,11.82-3.27,26.09-.33,33.41,10.12,2.55,3.62,7.51.54,5.83-3.41a44.6,44.6,0,0,0-76.17-10.52h4.78c-18.11-21.78-52.32-18.7-66.72,5.46l5.31-.69c-18.34-17.91-44.46-27.33-70-24.21A86.87,86.87,0,0,0,1695.47,240c-2.49,3.58,3.36,7,5.83,3.41Z" transform="translate(-29.38 -8.95)"/> <path class="b" d="M2186.94,283.69c1.79-8,7.9-14.61,15.35-18s16.06-3.6,24-1.64,15.22,6,21.74,10.93a31.49,31.49,0,0,1,37.92-.68,30.41,30.41,0,0,0-37.39,12.38c-7.38-9.35-18.44-16.09-30.33-16.78s-25.74,3-31.32,13.48" transform="translate(-29.38 -8.95)"/> <path class="b" d="M2190.19,284.59c2.85-11,12.9-17.6,23.91-18.3,12-.77,22.86,4.73,32.22,11.63a3.25,3.25,0,0,0,3.4,0c10.55-7.79,23.68-8.1,34.52-.68l2.6-6.17a34.37,34.37,0,0,0-41.2,13.93l5.3-.68c-8.91-10.9-21.8-18-36.07-17.84-11.95.14-24.66,4.36-30.88,15.23-2.16,3.77,3.67,7.18,5.83,3.4,5.25-9.18,16.46-12,26.4-11.87,12.07.19,22.47,6.7,29.94,15.85,1.45,1.77,4.23,1,5.3-.68,7.38-11.43,20.95-15.53,33.58-10.83,3.78,1.41,5.57-4.13,2.6-6.17a35.4,35.4,0,0,0-41.32.68h3.4c-11.49-8.48-25.44-14.47-40-12.07-12.3,2-22.87,10.52-26.05,22.77-1.09,4.21,5.42,6,6.51,1.8Z" transform="translate(-29.38 -8.95)"/> <path class="b" d="M1136.31,221.5c.09-.17.2-.34.29-.51-.12.14-.24.27-.36.42Z" transform="translate(-29.38 -8.95)"/> <path class="b" d="M1139.23,223.2l.28-.51a2.43,2.43,0,0,0,.4-1.25,2.58,2.58,0,0,0-.06-1.35l-.34-.8a2.49,2.49,0,0,0-.87-.95,1.68,1.68,0,0,0-.74-.43,2.53,2.53,0,0,0-1.3-.29l-.9.12a3.36,3.36,0,0,0-1.49.87c-.3.36-.59.72-.88,1.1l-.34.81a2.54,2.54,0,0,0-.06,1.34,1.67,1.67,0,0,0,.23.85,2.59,2.59,0,0,0,.7,1.09l.07.08a2.47,2.47,0,0,0,1.08.7,3.08,3.08,0,0,0,2.61,0,2.47,2.47,0,0,0,1.08-.7l.53-.68a3.36,3.36,0,0,0,.46-1.7l-.12-.9a3.36,3.36,0,0,0-.87-1.49l-.07-.08.53,4.09,0,0-.53.68c.11-.13.23-.26.33-.39l-5.3-4.09c-.09.17-.19.33-.28.51a2.43,2.43,0,0,0-.4,1.25,3.45,3.45,0,0,0,1.61,3.36l.81.34a3.4,3.4,0,0,0,1.79,0l.81-.34A3.34,3.34,0,0,0,1139.23,223.2Z" transform="translate(-29.38 -8.95)"/> <path class="b" d="M2516,226.14c-17.24,9.06-29.45,26.17-35.07,44.83-1.11,3.69-2,7.55-1.57,11.38.14,1.2.3,2.33.48,3.43a51.23,51.23,0,0,0-10-13.07c-6.82-6.42-15.41-11.29-24.73-12.22a27.27,27.27,0,0,0-10.17,1,61.52,61.52,0,0,0-55.11-39.13,71.34,71.34,0,0,0-27.68-20.81,79.91,79.91,0,0,0-41.37-5.38,58.13,58.13,0,0,0-21,6.55,35.53,35.53,0,0,0-15.08,15.75,34,34,0,0,0-25.82,7.38,32.72,32.72,0,0,0-4.06,4c-4.78-9.56-13.68-16.87-23.69-20.75-10.86-4.22-22.91-4.7-34.42-2.94-11,1.68-22.59,6-28.62,15.38a33,33,0,0,0-29.33-8.18c-4.66,1-9.63,3.75-10.51,8.44a17,17,0,0,0-18.39,1.18l.76,4a18.1,18.1,0,0,1,21,9.79,21.65,21.65,0,0,1,15.1-12.08c4.19-.86,9-.25,11.95,2.86,3.7,3.93,3.16,10.09,2.38,15.43,5.45-8.53,11.14-17.72,20.26-22.1,19.7-9.46,41.16-4.05,50.21-1.7A55.7,55.7,0,0,1,2244,230.66a34,34,0,0,0-7.39,19.1l-.15,1.13a44.48,44.48,0,0,1,40.19-25.14,14.85,14.85,0,0,0-1.19,7.67c2.14-7.23,7.29-13.34,13.53-17.56s13.56-6.65,21-8.07a88.16,88.16,0,0,1,71.5,18.27,28.55,28.55,0,0,1,1.94,2.68,36.28,36.28,0,0,0-37.49,18.58c11.85-11.46,29.95-15.21,46-11.53,15.9,3.64,29.78,13.89,39.89,26.7a28.12,28.12,0,0,0-11.93,8.92l.16.31c3.75-3.92,9.17-6,14.58-6.4a42.55,42.55,0,0,1,16,2.32c9,2.83,17.53,7.41,24,14.28s10.51,16.17,10,25.55c.07-.75.11-1.5.14-2.25l.19,2.19c-.93-21.92,9.81-44.34,25.9-59.26a77.12,77.12,0,0,1,60.66-19.75C2555.58,217.11,2533.22,217.07,2516,226.14Zm-32.2,70.06a2.39,2.39,0,0,1,.13.21l.07.68C2483.9,296.79,2483.84,296.49,2483.77,296.2Z" transform="translate(-29.38 -8.95)"/> <path class="b" d="M2514.27,223.22a73.75,73.75,0,0,0-27.36,26.21c-6.83,11-12.37,24.15-10.35,37.24l6.16-2.6c-9.41-16.9-28.71-30.93-48.76-25.87l4.15,2.36c-6.2-15.27-17.43-28.09-32.44-35.21a67.81,67.81,0,0,0-11.8-4.33,64,64,0,0,0-6.56-1.33c-1.48-.23-4.66.07-5.89-.65s-2.46-2.79-3.49-3.86c-1.47-1.52-3-3-4.62-4.35a78,78,0,0,0-9.66-7.11c-26.09-16.17-76.12-19.33-92,13l2.91-1.67a37.57,37.57,0,0,0-32.27,12.38l5.3.68c-8.83-16.81-26.87-25.35-45.31-26.24-16.89-.82-37.11,3.09-47.25,17.93l5.3-.69a37.11,37.11,0,0,0-25.74-9.88c-8,.19-17.38,3.07-19.73,11.63l5-2a20.88,20.88,0,0,0-21.8,1.18,3.54,3.54,0,0,0-1.55,3.81l.76,4a3.41,3.41,0,0,0,4.15,2.35,14.93,14.93,0,0,1,17.19,8.24,3.39,3.39,0,0,0,5.83,0c2.75-5.56,7.72-9.91,14.06-10.64,9.28-1.07,10.19,7.09,9.2,14.25-.5,3.62,4,6.06,6.17,2.6,4.51-7.07,9.12-14.86,16.41-19.43,7.86-4.92,17.87-6.47,27-6.37,15.26.17,32.51,4.23,44.36,14.18l-.53-4.09c-5.09,6.69-6.91,13.77-8,21.93-.44,3.33,4.89,4.59,6.29,1.71a41.55,41.55,0,0,1,37.28-23.48l-3.25-4.27a19.88,19.88,0,0,0-1.32,8.57,3.39,3.39,0,0,0,6.63.9c6.5-19.86,31-25.11,49.39-24.61a86.19,86.19,0,0,1,27,5.21c8.26,3,20.24,8,25.34,15.52l2.91-5.08a40.21,40.21,0,0,0-40.4,20.26c-1.92,3.37,2.5,6.7,5.3,4.09,11.33-10.57,27.78-14.07,42.73-10.66,15.57,3.54,28.55,13.57,38.4,25.83l.69-5.3a32.23,32.23,0,0,0-12.61,9.44,3.57,3.57,0,0,0-.53,4.09l.16.32c1,2,3.83,2.1,5.3.68,10.43-10.08,27.65-4.53,38.71,1.66,11.67,6.53,20.47,17.87,20,31.7-.14,4.38,6.42,4.28,6.75,0,.07-.75.11-1.5.13-2.25h-6.75l.2,2.19c.39,4.25,6.88,4.41,6.75,0-.64-21.22,9-41.86,24.34-56.33,15.68-14.83,37.51-21.6,58.84-19.31,3.62.39,4.17-4.59,1.7-6.29-17.47-12-40.37-11.66-58.89-2.26-3.88,2-.46,7.79,3.41,5.83,16.47-8.37,36.61-8.33,52.07,2.26l1.71-6.29c-47.15-5.06-91.38,34.5-89.93,82.39h6.75l-.2-2.19c-.39-4.27-6.56-4.4-6.75,0,0,.75-.06,1.5-.13,2.25H2488c.52-16.77-10.48-30.79-24.84-38.32-13.77-7.22-33-11.85-45.44.19l5.3.68-.15-.31-.53,4.09a28.25,28.25,0,0,1,11.24-8.39c2.2-1,1.88-3.82.69-5.3-11.12-13.83-26.54-25.1-44.33-28.16-16.57-2.85-33.94,1.41-46.35,13l5.3,4.09c7.14-12.53,20.33-18.78,34.57-16.92,2.51.33,4.25-3.12,2.91-5.08-5.9-8.67-17.63-14-27.14-17.78a91.65,91.65,0,0,0-32.64-6.32c-21.33-.19-47,7.18-54.31,29.59l6.62.9a15.37,15.37,0,0,1,1.08-6.78c.8-2.08-1.24-4.27-3.26-4.27a48.27,48.27,0,0,0-43.11,26.82l6.29,1.7c.94-7,2.74-12.82,7.08-18.53a3.37,3.37,0,0,0-.53-4.09c-13.65-11.46-33-16.33-50.68-16.15-9.8.1-20.44,2-28.86,7.29s-13.68,13.78-18.83,21.86l6.17,2.6c1.33-9.67.3-20.89-11.4-22.69-10.08-1.55-19.85,5.1-24.2,13.88h5.83a21.71,21.71,0,0,0-24.82-11.34l4.16,2.35-.76-4-1.55,3.81a14.16,14.16,0,0,1,15-1.18,3.42,3.42,0,0,0,5-2c1.74-6.34,10.86-7,16.24-6.6a30,30,0,0,1,18,7.84,3.43,3.43,0,0,0,5.3-.69c8.67-12.69,27.23-15.27,41.42-14.58,16.15.78,31.76,8.2,39.48,22.9a3.4,3.4,0,0,0,5.3.68,31.32,31.32,0,0,1,27.5-10.4,3.28,3.28,0,0,0,2.92-1.67c7.42-15.14,24.4-20.51,40.2-21.25a74,74,0,0,1,45.2,12.39,65.9,65.9,0,0,1,9.13,7.54c1.93,1.9,3.7,5,6,6.41,2.51,1.48,7.87.95,10.76,1.54a58,58,0,0,1,42.79,35.57,3.47,3.47,0,0,0,4.15,2.36c17.08-4.31,33.26,8.6,41.15,22.77,2,3.58,6.71.95,6.17-2.6-1.77-11.47,4.37-23.88,10.47-33.31a66.45,66.45,0,0,1,24.14-22.52C2521.5,227,2518.09,221.15,2514.27,223.22Z" transform="translate(-29.38 -8.95)"/> <path class="b" d="M2480.86,297.9a2.39,2.39,0,0,0,.13.21l-.46-1.7.06.68,6.63-.89c-.06-.3-.13-.6-.2-.9a3.73,3.73,0,0,0-1.55-2,2.43,2.43,0,0,0-1.25-.4,2.58,2.58,0,0,0-1.35.06,3.43,3.43,0,0,0-2,1.55l-.34.81a3.21,3.21,0,0,0,0,1.79c.06.3.13.6.19.9a2.62,2.62,0,0,0,.61,1.15,2.46,2.46,0,0,0,.94.87l.81.34a2.58,2.58,0,0,0,1.35.06,1.72,1.72,0,0,0,.85-.23,2.5,2.5,0,0,0,1.08-.7l.53-.68a3.32,3.32,0,0,0,.46-1.71l0-.44c0-.07,0-.15,0-.22a7.24,7.24,0,0,0-.12-.92,3.18,3.18,0,0,0-.48-1,3.51,3.51,0,0,0-2-1.55,2.58,2.58,0,0,0-1.35-.06,2.43,2.43,0,0,0-1.25.4,3.41,3.41,0,0,0-1.55,2l-.12.9A3.32,3.32,0,0,0,2480.86,297.9Z" transform="translate(-29.38 -8.95)"/> <path class="b" d="M2662.65,118.45a55.1,55.1,0,0,0-40.41,26.32c-1.15,2-2.21,4-3.94,5.5-2.69,2.31-6.46,2.75-10,3.36a67.24,67.24,0,0,0-55.61,65.12,25.65,25.65,0,0,1,18.61,9.45c1.2-14.91,4.75-30.12,13.75-42s24.37-19.89,39-16.87c1.33-20.19,16.45-38.74,36-44.12s42,2.81,53.49,19.47l-5.52-9.91A55.1,55.1,0,0,0,2662.65,118.45Z" transform="translate(-29.38 -8.95)"/> <path class="b" d="M2662.65,115.07a59.65,59.65,0,0,0-34.44,16.61,58.68,58.68,0,0,0-6.41,7.58c-1.89,2.66-3.2,6.22-5.67,8.33-2.75,2.35-6.83,2.39-10.25,3.08a66.68,66.68,0,0,0-10.74,3.12,71.63,71.63,0,0,0-45.78,65,3.45,3.45,0,0,0,3.38,3.37,23.23,23.23,0,0,1,16.22,8.46c2.08,2.43,5.54.26,5.77-2.38,1.23-14.3,4.52-29.38,13.68-40.84,8.22-10.28,21.47-17.24,34.8-14.82a3.44,3.44,0,0,0,4.27-3.26c1.52-18.48,14.92-35.43,32.82-40.66,18.37-5.38,39.29,2.21,50.35,17.71,2.49,3.48,8,.46,5.83-3.41-1.6-2.88-3.13-5.82-4.82-8.66-2.37-4-6.45-6.91-10.24-9.48a58.85,58.85,0,0,0-38.77-9.71c-4.28.44-4.32,7.19,0,6.75a52.93,52.93,0,0,1,35.36,8.79c3.45,2.35,6.54,4.76,8.56,8.38l4.08,7.34,5.83-3.41c-12.81-17.94-36.53-27.09-58-20.81-20.94,6.13-36,25.64-37.77,47.17L2625,166c-15.21-2.77-30.42,3.84-40.4,15.4-11.19,13-15.19,30.11-16.62,46.77l5.76-2.39a30.06,30.06,0,0,0-21-10.44l3.37,3.38c.83-28.1,19.7-52.87,46.9-60.45,5.59-1.56,12.24-1.43,17-5.11,4.33-3.36,6.37-9.26,9.89-13.41a52.27,52.27,0,0,1,32.75-18C2666.89,121.26,2667,114.5,2662.65,115.07Z" transform="translate(-29.38 -8.95)"/> <path class="b" d="M3183.12,151.8a138.29,138.29,0,0,0-110.46-29.3c-11.17-18.39-28.4-34.2-47.49-42.36a99.69,99.69,0,0,0-78.53.46l.3,1.42c-5-13-13.88-24.64-24.77-33.57-25.1-20.57-57.05-36.07-89.5-36.2s-76.07,14-98.77,37.16-30.62,52.89-26,85l7.14,10.06c-4.39-26.46,5.26-54.28,23.1-74.3s43.22-32.52,69.59-37.38c27.67-5.09,56.9-2,82.57,9.48s47.57,31.54,60.58,56.48a63.2,63.2,0,0,0-1.33-8.13,102.67,102.67,0,0,1,73.58-2.32c23.94,8.47,46,28.59,57.77,51.11-.15-.42-.32-.84-.48-1.26l.61,1.15c15.39-7.09,33.3-7.6,49.74-3.52s31.54,12.51,45.16,22.59c15.43,11.42,29.3,25.19,39.51,41.45s16.63,35.12,16.9,54.31l.12,1.27A138.3,138.3,0,0,0,3183.12,151.8Z" transform="translate(-29.38 -8.95)"/> <path class="b" d="M3185.5,149.41a142.81,142.81,0,0,0-113.74-30.17l3.82,1.55c-12.83-20.75-31.94-37.88-55.11-46.09-24.54-8.69-51.73-7.3-75.53,3-1.41.61-1.83,2.47-1.55,3.81l.29,1.42,6.51-1.79c-9.81-25-31.47-42.09-54.47-54.63S2846.9,7,2820.56,9.43c-46,4.26-95,27.17-111.5,73.18a104.24,104.24,0,0,0-5.64,40.48c.25,4.83-.09,10.69,2.79,14.75l5.92,8.33a3.39,3.39,0,0,0,6.17-2.6c-6.63-42.72,22.14-81,59.65-98,39.27-17.83,87.52-15.38,124.48,6.91a124,124,0,0,1,45.53,48c1.5,2.82,6.65,1.68,6.29-1.7a88.82,88.82,0,0,0-1.44-9l-2.36,4.16c24.24-10,52.39-10.87,76.68-.41,21.66,9.32,39.85,26.92,50.86,47.64,1.76,3.31,7.57,1,6.17-2.6l-.49-1.26-6.17,2.6.62,1.16c.92,1.73,3,1.92,4.61,1.21,34.75-15.41,72.61,2.91,99.48,25.35,13,10.88,24.59,23.65,33,38.45A108.9,108.9,0,0,1,3225.6,231c2.22,8.11,2.71,16.14,3.49,24.45.39,4.24,6.82,4.42,6.75,0a142.4,142.4,0,0,0-50.34-106c-3.3-2.77-8.1,2-4.77,4.77a135.84,135.84,0,0,1,48.36,101.22h6.75c-1.35-14.4-3.2-27.59-9-41A130.54,130.54,0,0,0,3202.93,178c-19.48-21.31-46-40.3-74.69-46.23-16.49-3.41-33.46-2.22-48.91,4.64l4.62,1.21-.62-1.16c-1.76-3.3-7.56-1-6.17,2.61l.49,1.26,6.17-2.6c-11.8-22.19-31.47-40.89-54.7-50.67-25.46-10.73-55.06-10.21-80.47.33a3.48,3.48,0,0,0-2.35,4.15,67.7,67.7,0,0,1,1.2,7.23l6.29-1.71c-21-39.58-61.54-64.86-105.77-69.29-44-4.41-92.24,11.65-118.85,48.25-14.49,19.92-21.17,45-17.38,69.37l6.17-2.61-4.41-6.2a22.58,22.58,0,0,1-2.25-3.18c-.87-1.9-.76-4.93-.92-7.08a102.34,102.34,0,0,1,2.91-34.64,90.8,90.8,0,0,1,38.79-52.5c18.23-11.68,39.58-18.88,60.94-22.07,24.15-3.6,48,.3,70.13,10.6,24.62,11.46,50.26,29.05,60.53,55.22,1.57,4,7.4,2.54,6.51-1.79l-.29-1.42-1.55,3.81a97,97,0,0,1,70.32-2.3c21.47,7.61,39.22,23.8,51.08,43a3.51,3.51,0,0,0,3.81,1.55,135.5,135.5,0,0,1,107.17,28.43C3184.07,156.91,3188.87,152.16,3185.5,149.41Z" transform="translate(-29.38 -8.95)"/> <path class="b" d="M3340.29,309.82c-4.18-9.56-11-17.77-18.52-25a132.93,132.93,0,0,0-88.15-36.17q-.2,4.32-.4,8.64a115.71,115.71,0,0,1,75.48,26.29c7.84,6.49,14.89,14.14,19.55,23.19s6.81,19.61,4.76,29.58-8.6,19.2-17.92,23.31a6.18,6.18,0,0,0,8.17,1.87l-2.08-.48c10.18-2.27,18.33-10.82,21.51-20.75S3344.46,319.38,3340.29,309.82Z" transform="translate(-29.38 -8.95)"/> <path class="b" d="M3343.2,308.12c-9.06-19.94-27.71-35.37-46.54-45.76a137.8,137.8,0,0,0-63-17.05,3.43,3.43,0,0,0-3.37,3.38q-.21,4.32-.4,8.64a3.4,3.4,0,0,0,3.37,3.37c27.51-.37,55,9.24,75.68,27.51,10.69,9.44,19.87,21.8,21.32,36.4,1.32,13.22-4.54,26.35-16.83,32.18-2.16,1-1.91,3.76-.68,5.3,3.08,3.86,8,4.45,12.25,2.39,2.61-1.26,1.91-5.54-.81-6.17l-2.07-.48v6.51c24.61-6.21,30.15-34.59,21.46-55.42-1.65-3.95-8.18-2.21-6.51,1.8,7.23,17.34,4.45,41.76-16.75,47.11-3.17.8-3.26,5.75,0,6.51l2.08.48-.81-6.17c-1.75.85-3,0-4.07-1.34l-.68,5.3c12.62-6,20-19.2,20.35-32.93.43-15.87-7.72-30.49-18.54-41.56-22.07-22.57-54.05-34.59-85.39-34.17l3.38,3.38q.2-4.32.4-8.64l-3.38,3.37a130.35,130.35,0,0,1,59.64,16.13c17.92,9.89,35.49,24.36,44.11,43.33C3339.17,315.47,3345,312.05,3343.2,308.12Z" transform="translate(-29.38 -8.95)"/> <path class="b" d="M896.08,336.36a34.88,34.88,0,0,1,29.24,1L918,333.79a31.08,31.08,0,0,1,18.88-14c1.68-18.12,12-34.81,26.23-46.21,13.73-11.05,30.77-17.42,48.17-20.34a61.45,61.45,0,0,0,.18,7.53,49.45,49.45,0,0,0,1.44,8.85c2.23-21,14.79-40.18,31.78-52.72s38-18.84,59.12-20.32c18.42-1.3,37.72,1.19,53.5,10.6-8.48,1.46-16.57,6.29-20.65,13.81,4.69-5.72,12-6.32,19.47-7.28,7.65-1,15.45.45,22.76,2.91a82.52,82.52,0,0,1,42.2,32.66c-7.54,12.24-11.81,26.46-11.42,40.69l.06,10.33a120.73,120.73,0,0,1,38.91-53.92c10.08-7.9,21.8-14.28,34.53-15.65s26.54,3,34.24,13.26c5.8-19.3,23.29-34.55,43.2-37.66,18.31-2.86,37.81,4.68,49.7,18.83-12,9.22-20.36,22.92-21.35,38.25-.1,1.59.23,6.35.23,6.35a60.69,60.69,0,0,1,57.47-44.94c15.39-.29,31.64,6.24,39.54,19.45a31,31,0,0,0-19.67,19.55c6.61-9.09,17.07-15.81,28.32-16a27.52,27.52,0,0,1,23,11.8,12.41,12.41,0,0,0,1.63,2l1.15,4a23.92,23.92,0,0,0,.49-3.05c1.39.11,2.33-1.9,3.33-5a103.77,103.77,0,0,1,5.37-13.38,115.07,115.07,0,0,1,37.34-43.53q3.09-2.17,6.31-4.14c22.75-13.9,49.79-20.05,76.48-19.22-9.6,26.28,5.52,59.9,16.05,30.2,11-31,66-144,171-147,134.34-2.92,191,94.59,192.95,128.37,0,.08-.1.16-.15.25a27.53,27.53,0,0,0-36.93,12.75c5.2-5.8,14-7.64,21.46-5.37s13.46,8.2,16.89,15.18c1.86-9.56,4.79-19.76,12.56-25.64s19-5.83,27.74-1.42,15,12.56,19.13,21.43,6.13,18.5,8.14,28l.21.4c-.78-12.33-2.45-26.84-8.68-37.51s-16.53-19.38-28.68-21.64c-10.58-2-22.37,1.73-29.17,9.88-3-27.33-22.13-101.79-139.47-131.73-145-37-229.28,93.76-241.64,120.38-18.25-8.13-39.51-5.92-59.54-1.18-19,4.5-30.22,10.22-44.55,23.49-13.73,12.71-28.3,29.76-31.7,48.2-.2-.25-.4-.49-.61-.73a25,25,0,0,0-21.37-7.95c-14.5-18.09-40-26.53-62.45-20.66a58.73,58.73,0,0,0-19.67,9.37c-7.31-15.8-25-26-42.6-26.66-19.29-.75-38,8.3-52.4,21.15a76.86,76.86,0,0,0-72.45,6.48,78.88,78.88,0,0,0-22.28,23,57,57,0,0,0-12.82-20.62,72.44,72.44,0,0,0-23.31-15.91c-8.43-3.69-17.71-6-26.84-4.83-12.28-14.89-32.58-21.47-52-22.66-23.55-1.44-48,4.12-66.86,18.32-15.13,11.39-25.58,26.82-28.06,44.62-20.14.64-40.54,5.81-56.91,17.56s-28.36,31-28.66,51.26a18.77,18.77,0,0,0-16.07,14.51c-8.1,1.31-16.35,3.23-23.05,8s-11.56,12.85-10.28,21l2438.12.93L876.66,358.25A34.86,34.86,0,0,1,896.08,336.36Z" transform="translate(-29.38 -8.95)"/> <path class="b" d="M897,339.61c9.2-3.33,17.62-3.32,26.64.67,3.9,1.73,7.36-3.91,3.41-5.83l-7.38-3.57,1.21,4.62A29.83,29.83,0,0,1,937.72,323a3.52,3.52,0,0,0,2.48-3.25c4.62-36.94,38.18-57.1,71.93-63.3l-4.27-3.25a66.11,66.11,0,0,0,1.73,17.28c.79,3,6,3.43,6.51,0,8.26-60.9,89.12-88.44,139.44-60.43l.81-6.17c-9.77,2.26-17.17,6.9-22.67,15.37-2.13,3.28,2.6,6.7,5.3,4.09,11.48-11,32.35-6.72,45.26-1A79.11,79.11,0,0,1,1201.68,233c3.5,2.81,13.44,10.5,14.38,15s-3.34,9.71-4.91,13.89a75.3,75.3,0,0,0-4,15.33c-1.15,7.65-.86,15.37-.82,23.08,0,4,5.33,4.34,6.63.9,8.1-21.43,21.81-40.68,40.44-54.23,18.28-13.29,44.87-20.32,61.6-.6,1.75,2.07,4.89.72,5.64-1.49,12.93-38.26,60.54-46.91,87.27-17.33v-4.77c-14.35,11.73-23.3,28.17-22.11,47,.23,3.73,5.49,4.65,6.63.89,5.62-18.66,19-33.58,37.82-39.66s41.41-2.3,53,15l2-5c-10.73,4.2-17.77,11.21-22,21.92-1.22,3.07,3.58,5.87,5.64,3.28,7.55-9.47,18.93-17.39,31.73-14.45,7.48,1.72,14.54,7.25,16.69,14.68.86,3,6,3.46,6.51,0,.34-2.1,1.92-3.29,2.83-5.36,2.71-6.21,4.58-12.7,7.78-18.73a110.81,110.81,0,0,1,27.41-33.51c24.8-20.4,56.34-28.81,88-28.26l-3.25-4.27c-3.26,10.13-7.95,42.44,8.34,45.87,11.48,2.41,15.19-17,18.51-24.64,13.59-31.28,33.06-60.84,57.35-84.83,34.32-33.89,76.79-51.12,125.12-48.66,45.25,2.31,89.74,17.94,123.79,48.35a168.82,168.82,0,0,1,34,41.34,118.69,118.69,0,0,1,9,19c.92,2.56,4.7,13.55,4.09,14.54l3.81-1.55c-16-6.54-32.26-.59-40.74,14.31-1.93,3.38,2.49,6.67,5.3,4.09,12.06-11.12,26.36-2.9,33,9.13,1.35,2.44,5.56,2.06,6.16-.81,2.19-10.42,5.3-22.55,16.6-26.61,10.19-3.66,21.14,1.4,28.11,8.75,6.35,6.7,9.87,15.28,12.5,24,1.67,5.54,1.73,12.41,4.41,17.5,1.52,2.89,6.53,1.65,6.29-1.7-1.44-20.4-5.19-41.26-22.48-54.4-15.37-11.68-36.21-11.45-49.82,2.74l5.77,2.39C2028.33,120.79,1975.24,77,1917,57c-43-14.74-88.87-18.59-132.54-4.37-33.9,11-64.13,31.43-89.23,56.51-18.18,18.16-35.79,39.49-46.83,62.91l3.81-1.55c-53-21.4-127.34,16.82-140,72.86l5.64-1.49c-6.13-7.28-13-6.86-21-9.84-4.63-1.74-7.67-6.07-11.59-9a66.36,66.36,0,0,0-15.47-8.65c-20.26-8-42.27-5.2-60.14,7l4.62,1.21a53.08,53.08,0,0,0-41.1-27.94c-20.12-2.42-36.49,6.25-52.88,16.56-5,3.17-6.17,2.8-12,1.13a78,78,0,0,0-13.89-2.68,81.3,81.3,0,0,0-29.09,2.32c-19.73,5.23-35.38,17.84-46.65,34.61l6.17.81a70.89,70.89,0,0,0-49.72-42.71c-5.27-1.25-11.78-.19-16.52-2.84-4.16-2.34-7.64-6.86-11.88-9.45-9.78-6-21.07-9.22-32.35-10.74-44.45-6-97.7,16.36-105.93,64.65l3.25-2.48c-42.09,2-86.7,25.43-89,72.2l2.48-3.25c-6.22,1.25-11.34,4.07-15,9.32-4.86,6.91-8.79,6-16.92,9.27-11.92,4.84-20.62,14.76-19.92,28.08a3.44,3.44,0,0,0,3.38,3.38l65.65,0,177.09.07,262.53.1,320.31.12,349.6.14,355.3.13,329,.13,279,.1,200.61.08c31.6,0,63.23.41,94.83,0,1.38,0,2.76,0,4.14,0,4.35,0,4.35-6.75,0-6.75l-65.57-.06-176.88-.16-263.26-.23-319-.29L2138.41,356l-352.68-.31-331.09-.29-277.91-.25L975.51,355l-62.15,0c-10.47,0-22.16-1.48-32.56,0a31.78,31.78,0,0,1-4.14,0l3.25,4.28a33.9,33.9,0,0,1,17.87-19.88c3.9-1.91.48-7.73-3.4-5.82-10.35,5.08-17.17,13.05-21,23.9a3.4,3.4,0,0,0,3.26,4.27l65.57.06,176.88.16,263.27.23,319,.28,351.77.32,352.68.31,331.09.29,277.91.25,201.23.18,62.14.05c10.43,0,22.22,1.57,32.56,0a30.11,30.11,0,0,1,4.14,0V357l-65.65,0-177.08-.07-262.54-.1-320.31-.12-349.6-.13-355.3-.14-329-.12-279-.11-200.61-.07-62.22,0c-10.54,0-22.14-1.37-32.61,0a33.64,33.64,0,0,1-4.14,0l3.37,3.37c-.93-17.64,16.64-23.14,30.85-25.65a3.35,3.35,0,0,0,2.36-2.36c2.12-6.83,7-10.8,13.72-12.16a3.41,3.41,0,0,0,2.47-3.25c2.07-42.93,44-63.65,82.2-65.45a3.42,3.42,0,0,0,3.26-2.48c7.68-45.1,57.11-65.26,98.52-59.74,10.39,1.38,20.88,4.28,29.85,9.87,5.32,3.32,9.71,10,15.29,12.07,5.06,1.84,12.82.24,18.53,1.94a67.57,67.57,0,0,1,13.87,6c12.55,7.08,22,17.45,27.32,30.9a3.43,3.43,0,0,0,6.17.81c20.33-30.26,57.08-41.74,90.91-28a3.36,3.36,0,0,0,3.29-.87c25.93-22.22,70.83-31.56,89.7,4.83a3.4,3.4,0,0,0,4.62,1.21c17.61-12,39.09-14.15,58.48-4.72a57.82,57.82,0,0,1,12.32,8c2.14,1.83,5.15,6.66,7.57,7.73,7.74,3.44,14.94.47,21.63,8.41,1.62,1.93,5.11.87,5.64-1.49,11.87-52.72,82-88.2,131.64-68.14a3.38,3.38,0,0,0,3.82-1.56C1676,129.19,1720,88.14,1766,67.06c38.47-17.61,81.32-21,122.39-11.28C1929.3,65.47,1970.1,84,1998,116.35c16.61,19.25,28.09,43.42,31,68.79.31,2.72,3.55,4.69,5.76,2.38,13.59-14.18,33.73-10.57,46.43,2.82,11.22,11.83,13.24,28.54,14.34,44.07l6.29-1.7c-2.86-5.43-3-14-5-19.88a71.47,71.47,0,0,0-6.87-15c-5.28-8.44-13.08-15.7-22.8-18.47-22.92-6.51-35.15,11.53-39.31,31.38l6.16-.81c-9-16.18-28.66-24.31-43.65-10.5l5.31,4.09c7.12-12.51,20-16.55,33.12-11.2a3.38,3.38,0,0,0,3.81-1.55c3.54-5.76-3.44-20.19-5.68-25.52a150.42,150.42,0,0,0-20.37-34c-22.33-28.59-53.09-49.82-87.23-61.83-42.57-15-93.06-18.55-135.34-1-36.29,15.08-65.45,43.32-87.78,75.11A296.19,296.19,0,0,0,1670,188.87c-2.38,5.12-4.47,10.34-6.59,15.58-.88,2.2-1.89,6.62-3.24,7.61-6.66,4.87-7.69-1.86-8.73-5.76-2.48-9.31-1.22-19.18,1.68-28.2a3.41,3.41,0,0,0-3.26-4.27c-31.42-.54-63,7.39-88.29,26.63a119.7,119.7,0,0,0-29.15,31.79,109.76,109.76,0,0,0-8.86,17.55c-2,5-5.44,9.66-6.28,14.85h6.51c-8.46-29.22-44.81-21.9-59.7-3.21l5.64,3.28a29.07,29.07,0,0,1,17.32-17.2c1.88-.73,3.34-3,2-5-12.52-18.64-35.72-24.47-56.89-19.16-22.79,5.72-39.6,23.24-46.29,45.45l6.63.9c-1.09-17.22,7-31.51,20.13-42.21,1.46-1.2,1.12-3.53,0-4.77-30.33-33.56-84.08-22.5-98.55,20.31l5.64-1.49c-16.44-19.38-43.29-16.79-63.35-4.74-23.45,14.08-40.42,37.26-50,62.55l6.63.89c-.09-17.78,1.69-33.43,10.91-49.31a3.36,3.36,0,0,0,0-3.41c-10.19-14.78-24-26.49-40.82-33-14.92-5.73-36.46-8-48.92,4l5.3,4.08c4.57-7,10.61-10.4,18.64-12.26,2.82-.65,3.29-4.78.8-6.17-53.72-29.9-140.49-.92-149.36,64.46h6.51a58.8,58.8,0,0,1-1.49-15.48,3.44,3.44,0,0,0-4.28-3.26c-37.16,6.83-71.88,29.87-76.88,69.81l2.48-3.26A37.78,37.78,0,0,0,915,332.09a3.4,3.4,0,0,0,1.21,4.62l7.38,3.57,3.41-5.83c-10.59-4.68-20.88-5.32-31.85-1.34C891.13,334.57,892.88,341.1,897,339.61Z" transform="translate(-29.38 -8.95)"/> <path class="a" d="M840.78,434.18q-.93-.66-1.89-1.29a65.95,65.95,0,0,0-48-70.82,34.14,34.14,0,0,0-36.6-42.8c-7.17-20.2-29.06-34.09-50.39-32-10-14.06-26.33-24.14-43.57-24.1-16.4,0-32.86,10.45-38.24,25.8l-.38-.13c7.49-21.57,4.65-46.21-6.16-66.35-11.09-20.64-30.07-36.57-51.66-45.68s-45.66-11.63-69-9.13c-20.26,2.19-40.33,8.21-57.45,19.28-13.56,8.77-25.67,20.7-33,35-21.48-6.52-44.8-7.92-66.22-1.38-12.63,3.86-25,12.34-35,20.94s-17.6,21.57-19,34.71l-.19.51c-.47-.17-.94-.32-1.41-.47A156.91,156.91,0,0,0,237,269.21c-16.18-.08-32.71,2.47-47,10.14-19.28,10.38-32.81,29.33-40.91,49.66s-11.36,42.23-14.53,63.9l-.39,2.09-.53-.06c.42-3.47.85-6.94,1.27-10.41a167.57,167.57,0,0,0-63.81,23c-9.82,6-19.11,13.17-26.24,22.23s-12,20.18-12.19,31.7,4.62,23.36,13.82,30.31L859,491.41h.93v0l12.56,3.3A76.18,76.18,0,0,0,840.78,434.18Z" transform="translate(-29.38 -8.95)"/> <path class="b" d="M670.6,421.61A37.39,37.39,0,0,0,625,377.22c-1.1-10-9.87-17.18-18.54-22.18-6.37-3.68-13.28-6.83-20.62-7.18s-15.19,2.62-19,8.9a7,7,0,0,0,5.32-1.16l.54-1.06a40.16,40.16,0,0,1,42.57,38.85c6.2-5.6,15.79-6.69,23.49-3.45s13.44,10.36,15.9,18.34,1.85,16.72-.74,24.66c17.5-4.3,37.24,2.65,48.17,17A40.59,40.59,0,0,0,670.6,421.61Z" transform="translate(-29.38 -8.95)"/> <path class="b" d="M673.86,422.5c2.74-13.7-1.15-28.34-11.29-38.2S637.73,370.85,624.09,374l4.16,2.36c-2.14-14.17-16.29-23.28-28.48-28.43-12.36-5.21-27.73-5-35.87,7.15-1.55,2.3.55,4.88,2.91,5.08,3.45.29,7.11-.64,8.77-3.88l-2.91,1.67a37.36,37.36,0,0,1,39.19,35.47,3.42,3.42,0,0,0,5.76,2.38c8.66-7.21,21-4.58,28.15,3.39,8.08,9,8.25,21.85,4.86,32.89-.78,2.56,1.74,4.7,4.16,4.15a44.82,44.82,0,0,1,44.89,16.11c2.14,2.71,6.57-.24,5.64-3.29a44.43,44.43,0,0,0-33.82-30.67c-4.24-.82-6.06,5.69-1.79,6.51a37.67,37.67,0,0,1,29.1,26l5.64-3.29C692.34,432.21,672,425.37,653,429.69l4.15,4.15c4.38-14.27,2.94-31-8.66-41.54-10.07-9.16-25.06-10.11-35.63-1.3l5.76,2.39a44.18,44.18,0,0,0-45.94-42.22,3.39,3.39,0,0,0-2.92,1.67c-.51,1-2,.63-2.94.54l2.91,5.08c7-10.39,21-7.66,30.53-2.94s19.8,11.42,21.49,22.6c.28,1.86,2.55,2.72,4.15,2.36,24.25-5.54,46.35,15.77,41.46,40.23C666.5,425,673,426.77,673.86,422.5Z" transform="translate(-29.38 -8.95)"/> <path class="b" d="M134.17,395c7.73-34.59,18.37-72.48,48.59-92.73s70.82-24,104.25-9.66c2.11-4.56,4-10.63.3-14.05a11.72,11.72,0,0,0-4.61-2.27A156.91,156.91,0,0,0,237,269.21c-16.19-.08-32.71,2.48-47,10.14-19.28,10.38-32.82,29.33-40.92,49.67s-11.35,42.22-14.52,63.89Z" transform="translate(-29.38 -8.95)"/> <path class="b" d="M137.43,395.9c5.68-25.32,12.36-51.87,28.33-72.9,17.11-22.52,45.67-34.32,73.44-35.54a108.69,108.69,0,0,1,46.91,8.41,3.35,3.35,0,0,0,3.81-1.55c2.49-5.61,4.94-13.2-.23-18.15-2.54-2.44-6.39-3.26-9.66-4.19-4.76-1.36-9.59-2.5-14.46-3.4-18.16-3.35-37.28-4.06-55.4-.1-34,7.41-56,34.79-66.86,66.47-6.62,19.29-8.65,39.25-12.39,59.16-.8,4.24,5.7,6.06,6.51,1.79,5.56-29.58,8.29-59.68,25-85.65,7.55-11.7,17.59-21.9,30-28.38,14.46-7.56,31.16-9.61,47.27-9.24A151.76,151.76,0,0,1,268.33,276a113.53,113.53,0,0,1,13.47,3.54c5.64,2,4.29,6.86,2.29,11.36l3.81-1.55a115.22,115.22,0,0,0-87.24-.32c-13.23,5.4-25.52,13.1-35.15,23.76-9,10-15.66,21.87-20.79,34.31-6.23,15.13-10.22,31.06-13.8,47C130,398.34,136.48,400.14,137.43,395.9Z" transform="translate(-29.38 -8.95)"/> <path class="b" d="M615.56,222.51c-11.09-20.64-30.07-36.57-51.66-45.68S518.25,165.2,495,167.71c-20.27,2.18-40.34,8.2-57.45,19.27-13.57,8.77-25.68,20.7-33,35-21.48-6.52-44.8-7.92-66.21-1.38-12.64,3.86-25,12.34-35,20.94s-17.6,21.57-19,34.71l2.2-.49a83,83,0,0,1,105.9-49.71c2.23.8,6.67,3.78,8.83,2.86a2,2,0,0,0,.25-.14c-.61,1.61-1.19,3.25-1.68,4.91a152.84,152.84,0,0,0-3.9,17.73c17.8-28.63,49.17-55.92,81.91-63.95s68.93-1.88,96.52,17.48,45.83,51.85,46.81,85.55C629.35,268.54,626.65,243.16,615.56,222.51Z" transform="translate(-29.38 -8.95)"/> <path class="b" d="M618.48,220.81C585,159.74,497.31,148.22,440.26,181.33c-16,9.28-30,22.49-38.66,38.95l3.81-1.55c-25.33-7.51-54.29-8.86-78.61,2.84-22.17,10.66-42.73,29.18-45.88,54.68-.28,2.31,2.37,3.68,4.27,3.26,4.94-1.11,5.07-4.66,7.1-9a80.07,80.07,0,0,1,9.17-15,81.2,81.2,0,0,1,27.83-22.9,79.46,79.46,0,0,1,41.47-7.77c7.26.57,15,2,21.7,4.93,3.32,1.47,7.09,3.92,10.73,1.93l-5-3.81a106.43,106.43,0,0,0-5.7,23.54c-.45,3.54,4.67,4.28,6.29,1.7C419.68,220,454,192.26,493.87,188.06c39.2-4.14,79.55,11.61,103.1,43.72a106.18,106.18,0,0,1,20.79,58.71,3.39,3.39,0,0,0,6.63.89c8.39-23.22,5.46-48.89-5.91-70.57-2-3.85-7.85-.44-5.83,3.41,10.57,20.16,13,43.83,5.23,65.37l6.63.9c-1.5-40.67-26.09-78.56-62.45-96.8-37.7-18.91-83.54-17.12-119.17,5.51A162.64,162.64,0,0,0,393,249.71l6.29,1.7a98.69,98.69,0,0,1,5.46-21.74c1.08-2.91-2.56-5.12-5-3.81-.55.3-4.72-2.33-5.66-2.72a61.41,61.41,0,0,0-8.8-2.74,88,88,0,0,0-20.05-2.57,86.19,86.19,0,0,0-38,8.28c-20.44,9.7-36.18,27.64-44,48.75l2.36-2.36-2.2.5,4.27,3.25c2.89-23.42,23.88-40.42,44.15-49.61,22.28-10.1,48.9-8.19,71.79-1.41a3.4,3.4,0,0,0,3.81-1.55c15-28.58,45.46-45.16,76.31-50.94,32.12-6,67.16-2,95.09,15.71a98.76,98.76,0,0,1,33.83,35.77C614.74,228,620.57,224.63,618.48,220.81Z" transform="translate(-29.38 -8.95)"/> <path class="b" d="M838.89,432.89a65.95,65.95,0,0,0-48-70.82,34.13,34.13,0,0,0-36.59-42.8c-7.17-20.2-29.06-34.09-50.4-32-10-14.06-26.32-24.14-43.57-24.1s-34.56,11.55-39,28.22a41.74,41.74,0,0,1,72.95,7,31.39,31.39,0,0,1,44,18.88,25.07,25.07,0,0,0-36.1,15.68,27.36,27.36,0,0,1,46.07-1,25.19,25.19,0,0,1,31.65,32.57,74.53,74.53,0,0,1,54.36,82.81l1.82-1.15a64.63,64.63,0,0,0,2.4-10.18A87.07,87.07,0,0,1,859,491.12l13.5,3.55A76.11,76.11,0,0,0,838.89,432.89Z" transform="translate(-29.38 -8.95)"/> <path class="b" d="M842.27,432.89a70.33,70.33,0,0,0-50.47-74.08l2.36,4.15c6.09-25.13-13.86-49.23-39.85-47.06l3.25,2.47c-8.11-21.72-30.38-36.37-53.65-34.45l2.92,1.67c-11.28-15.45-29.54-27.11-49.28-25.67-17.84,1.31-34.41,13.15-39.45,30.59-1.11,3.86,4,5.61,6.17,2.6,8.13-11.52,22.53-18.23,36.61-16.36,13.55,1.8,25,11,30.51,23.33.8,1.77,3.12,1.91,4.62,1.21a28.42,28.42,0,0,1,39,16.87l5-3.81c-16.5-8.17-35.81-.05-41.06,17.69-1.11,3.78,4.14,5.74,6.17,2.6a24.31,24.31,0,0,1,40.25-1,3.48,3.48,0,0,0,3.81,1.55,22.1,22.1,0,0,1,27.49,28.42,3.43,3.43,0,0,0,2.36,4.15c34.26,9.61,56.8,43.2,52,78.66-.36,2.66,2.2,5.56,5,3.81,4.6-2.91,4.92-8.22,5.77-13.35l-5.64,1.49a84.67,84.67,0,0,1,19.5,52.74,3.46,3.46,0,0,0,2.48,3.26l13.5,3.55a3.41,3.41,0,0,0,4.27-3.26A80.26,80.26,0,0,0,840.6,430c-3.61-2.44-7,3.41-3.41,5.83a73.18,73.18,0,0,1,31.91,58.87l4.27-3.25-13.49-3.55,2.47,3.25a92.06,92.06,0,0,0-21.47-57.51c-1.55-1.86-5.24-.93-5.65,1.48s-1.43,5.18-1.65,7.68c-.15,1.83.24.09.21.87,0,.14-1.07.67-1.23.77l5,3.81a79,79,0,0,0-56.72-87l2.36,4.15c7.38-22.26-13.4-43.44-35.8-36.72l3.81,1.55a31.16,31.16,0,0,0-51.9,1l6.17,2.6a22,22,0,0,1,31.14-13.66c2.45,1.21,6-.83,5-3.81-6.86-20.55-29.34-30-48.94-20.9l4.62,1.21A46.16,46.16,0,0,0,660.62,270c-16.52-1.82-32.73,6.36-42.18,19.76l6.17,2.6c3.76-13,15.24-22.22,28.29-25,13.6-2.85,27.9,2.35,38.3,11.12a60.53,60.53,0,0,1,7,7c1.78,2.1,2.83,4.71,5.67,5.2,3.29.56,7-.29,10.45.21a47.16,47.16,0,0,1,8.27,2.05,46.51,46.51,0,0,1,28.42,27.24,3.46,3.46,0,0,0,3.26,2.48c21.47-1.79,38.47,17.34,33.34,38.52a3.43,3.43,0,0,0,2.36,4.15c29.75,8.63,48.32,36.89,45.51,67.57C835.12,437.21,841.87,437.18,842.27,432.89Z" transform="translate(-29.38 -8.95)"/> <path class="b" d="M41.29,473.79c-.73-6.9.74-13.87,3-20.42a82.82,82.82,0,0,1,88.87-54.75q.87-7,1.73-14.08a167.32,167.32,0,0,0-63.81,23c-9.83,6-19.12,13.17-26.24,22.23s-12,20.18-12.19,31.7,4.62,23.36,13.81,30.31l813.41-.34-809.13.24C45.19,487.52,42,480.68,41.29,473.79Z" transform="translate(-29.38 -8.95)"/> <path class="b" d="M44.67,473.79c-1.66-20.61,12-41.56,27.23-54.3,17-14.2,39.47-20.11,61.29-17.5,2,.24,3.18-1.75,3.38-3.37q.85-7,1.72-14.08c.3-2.43-2.38-3.54-4.27-3.26a172.68,172.68,0,0,0-53.94,17.3c-15.44,8-30.6,18.28-40.57,32.78-9.4,13.68-13.43,31.4-7,47.16,2.23,5.46,7.74,15.91,14.38,16.61a98.47,98.47,0,0,0,9.87,0H78.6l74.14,0,104.64,0L380.11,495,510,494.93l124.68-.05,107.56,0,78.52,0c12.49,0,25,.22,37.51,0,.55,0,1.1,0,1.64,0,4.35,0,4.36-6.75,0-6.75h-22l-59.76,0-88.27,0-107.54,0-117.53,0-118.26,0-109.74,0-92,0-64.91,0H60.6c-3,0-6.29.41-9.24,0-.17,0-.39.06-.55,0,2.41.8-.93-2-1.54-2.83a24.1,24.1,0,0,1-4.6-11.65c-.56-4.25-7.32-4.3-6.75,0C39,482.18,43.4,495,53.41,495H66.49l55,0,85.38,0,106.3,0,117.73,0,119.65,0,111.66,0,95.12,0,68.61,0h21.46c3.6,0,7.56.46,11.13,0a11.06,11.06,0,0,1,1.41,0V488H834.77l-67.81,0-99.1,0-119,.05-127.57.05-124.74,0-110.14.05-85.33,0-47.88,0c-1.66,0-3.31,0-5,0-1,0-1.8-.43-1.09,0,1.45.94-.77-1.19-1.06-1.47-.54-.52-1.06-1.05-1.56-1.61A30.54,30.54,0,0,1,40.66,480,35.88,35.88,0,0,1,36.36,467c-1.21-9.19,1.18-18.53,5.53-26.61,8.77-16.26,24.82-27.22,40.82-35.59a167.25,167.25,0,0,1,53.11-17l-4.28-3.25q-.85,7-1.72,14.08l3.37-3.38a87.14,87.14,0,0,0-66.06,19.48c-16.48,13.79-31,36.84-29.21,59.07C38.26,478.09,45,478.12,44.67,473.79Z" transform="translate(-29.38 -8.95)"/> </svg>