<?xml version="1.0" encoding="UTF-8"?>
<!-- Generator: Adobe Illustrator 25.3.0, SVG Export Plug-In . SVG Version: 6.00 Build 0) -->
<svg xmlns="http://www.w3.org/2000/svg" xmlns:xlink="http://www.w3.org/1999/xlink" id="Слой_1" x="0px" y="0px" viewBox="0 0 238.6 350.7" style="enable-background:new 0 0 238.6 350.7;" xml:space="preserve"> <style type="text/css"> .st0{fill:#A1A1A1;} .st1{fill:#FFDD61;} .st2{fill:#EDEDED;} .st3{fill:#FFFFFF;} .st4{fill:#22243B;} .st5{fill:#2B2E53;} .st6{fill:#EED395;} .st7{fill:#62512C;} .st8{opacity:0.32;fill:#010101;enable-background:new ;} .st9{fill:#2B2F50;} </style> <path class="st0" d="M88.9,143.3c1.2,2.4,1.4,5.1,0.6,7.6s-2.4,4.7-4.6,6.2l-0.2,0.5c-1.6-0.5-3.2-1-4.8-1.7 c-7-3.3-13-8.4-17.2-14.9c-1.5-2.2-2.8-4.4-3.9-6.8l1-0.5c2.1-1.4,4.5-2.4,7-2.8c3.1-0.3,6.2,0.8,9,2.2l1.2,0.6 c1.9,1,3.8,2.2,5.5,3.4c0.4,0.3,0.9,0.6,1.3,1c1.8,1.3,3.4,2.9,4.6,4.7C88.8,142.9,88.8,143.1,88.9,143.3z"/> <path class="st1" d="M95.6,134.7l-0.3,0.4c-1.3,3-3.5,5.6-6.2,7.3l-0.5,0.3c-1.2-1.9-2.8-3.5-4.6-4.7c-0.4-0.3-0.9-0.6-1.3-1 l0.2-0.3c2.9-1.7,5.2-4.1,6.8-7.1l0.3-0.2c0.8,1.1,1.7,2.1,2.7,3C93.6,133.3,94.6,134.1,95.6,134.7z"/> <path class="st1" d="M90,129.6l-0.3,0.2c-1.5,3-3.9,5.4-6.8,7.1l-0.2,0.3c-1.8-1.3-3.6-2.4-5.5-3.4l0.2-0.5c3.7-2.6,6.8-6,8.9-10 l0.2-0.1C87.4,125.5,88.6,127.6,90,129.6z"/> <path class="st2" d="M55,86c4,2.5,8.5,4.1,13.2,4.4c5.7,0.4,11.5-0.5,16.8-2.7v-0.5c0.4,0,0.8,0,1.2,0v0.3c2.3,2.2,1.6,7.2,0.4,10 c-0.6,1-1.3,1.9-2.1,2.8l-0.3-0.1c-3.8,2.2-8.4,2.5-12.8,2.2c-2.2-0.1-4.5-0.4-6.7-1c-2.6-0.8-5.2-1.9-7.5-3.3 c-2.4-1.2-4.5-3.1-6-5.3H51c0-0.1,0-0.3-0.1-0.3c-0.8-2.9-1-9,0.8-9.1l0.5-0.5c1,1,2,1.8,3.2,2.6L55,86z"/> <path class="st2" d="M58.9,45.4c-0.1,1.6-0.2,3.2-0.3,4.9C58.7,48.6,58.8,47,58.9,45.4z M58.9,45.4c0.6-7,2.2-13.9,4.6-20.5 c1-2.8,2.2-5.4,3.8-7.9c1.4-2.1,3.7-4.2,6.1-3.4c1.8,0.6,2.7,2.8,2.7,4.7c-0.2,1.9-0.8,3.8-1.6,5.5c-2.6,7.5-2,15.9-4.4,23.5 c2.5-8.4,5-16.8,7.7-25.1c0.8-2.5,1.7-5.1,3.7-6.7s5.6-1.6,6.8,0.6c0.5,1.2,0.7,2.5,0.4,3.8c-0.4,2.8-0.9,5.6-1.6,8.4 c-1.8,7.6-3.5,15.1-5.3,22.7c3-8.3,6-16.8,10.7-24.2c0.9-1.7,2.2-3.1,3.8-4.2c1.6-1.1,3.8-1.1,5.4,0.1c1.4,1.1,1.7,3.1,1.6,4.9 c-0.2,2-0.6,3.9-1.3,5.8c-1.9,5.6-5,10.8-7.4,16.2S90.3,61,91.1,66.9h0.2c0.3-6.1,2.6-11.9,6.5-16.5c2.1-2.4,4.9-4.6,8.1-4.4 c0.7,0,1.3,0.2,1.8,0.5c1.1,0.9,1.5,2.3,1.2,3.6c-0.4,1.3-1,2.5-1.7,3.6c-3.2,5.4-5.1,11.4-5.6,17.7c0,1.1-0.2,2.3-0.7,3.3 c-0.4,0.8-1,1.5-1.6,2.1c-2.9,3-6,5.9-9.2,8.6c-0.7,0.6-1.4,1.1-2.2,1.5c-0.5,0.2-1.1,0.3-1.6,0.3c-0.4,0-0.8,0-1.2,0v0.5 c-5.3,2.2-11.1,3.1-16.8,2.7C63.5,90,59,88.5,55.1,86l0.4-0.5c-1.1-0.8-2.2-1.7-3.1-2.7c-4.1-4.2-6.6-9.8-7-15.7 C44.9,58.3,49.2,50,50,41.3c0.5-5.3-0.2-10.7,1.3-15.8c0.4-1.8,1.4-3.4,2.8-4.6c1.5-1.1,3.8-1.1,5.1,0.2c1,1.2,1,2.9,0.9,4.5 C59.7,32.2,59.3,38.8,58.9,45.4L58.9,45.4z"/> <path class="st2" d="M88.9,143.3c-0.1-0.2-0.2-0.3-0.3-0.5l0.5-0.3c2.8-1.8,4.9-4.3,6.2-7.3l0.3-0.4c4.5,2.6,9.7,3.7,14.9,3.3 c6.3-0.4,12.4-2.8,18.2-5.5c2.9-1.4,6-2.9,9.1-2.1c3.5,0.9,5.6,4.8,5.3,8.4s-2.2,6.8-4.7,9.5c-5.4,5.9-13,9.6-20.9,11.2 s-16.1,1.2-24,0c-2.9-0.4-5.8-1.1-8.6-1.9l0.2-0.5c2.2-1.5,3.8-3.7,4.6-6.2C90.3,148.4,90.1,145.6,88.9,143.3z"/> <path class="st2" d="M76,133.1c-2.8-1.4-5.9-2.5-9-2.2c-2.5,0.4-4.9,1.4-7,2.8l-1,0.5c-2.2-4.6-3.9-9.4-5.1-14.3 c-2-7.8-2.8-15.9-2.3-23.9c-0.1-1.1-0.3-2.2-0.5-3.2h0.2c1.5,2.2,3.6,4.1,6,5.3c2.3,1.4,4.9,2.6,7.5,3.3c2.2,0.6,4.4,0.9,6.7,1 c4.4,0.3,9,0,12.8-2.2l0.3,0.1c-0.4,0.5-0.7,1.2-0.7,1.8c-0.3,5.5,0.1,11.1,1.3,16.5c0.4,1.5,0.9,3,1.4,4.5l-0.2,0.1 c-2.1,4-5.2,7.4-8.9,10l-0.2,0.5L76,133.1z"/> <path class="st3" d="M80.4,88.6c2.2-0.4,4.4-1.1,6.6-1.9c2-0.9,3.9-2.2,5.6-3.7c3.3-2.8,6.9-6.2,8.3-10.3c0.8-2.2,1.1-4.5,1.7-6.7 s1.3-4.6,2.1-6.8s1.6-4.5,2.5-6.7s1.3-4.2,0.2-6.3c-1.2-2.3-4.6-0.3-3.4,2c0.7,1.4-0.9,4-1.4,5.2c-0.8,2-1.5,4-2.1,6 c-1.2,3.9-2,7.9-3.2,11.7c-1.1,3.5-4.4,6.4-7.1,8.7c-1.4,1.3-3,2.4-4.7,3.2c-1.9,0.7-4,1.3-6,1.7C76.8,85.2,77.9,89.1,80.4,88.6 L80.4,88.6z"/> <path class="st3" d="M93.3,57c1-6.6,4-12.5,6.4-18.6c2-5.2,5.4-13.6-0.2-17.7c-1-0.6-2.2-0.2-2.7,0.7c-0.6,1-0.2,2.2,0.7,2.7 c1.9,1.4,1,5.1,0.5,6.8c-0.8,2.9-1.8,5.6-3,8.4c-2.2,5.4-4.7,10.8-5.6,16.6c-0.3,1.1,0.3,2.1,1.4,2.5C91.9,58.7,93,58.1,93.3,57 L93.3,57z"/> <path class="st3" d="M85.7,41.1c1-5.3,1.9-10.7,2.7-16c0.3-2.4,0.8-5,0.1-7.4c-0.6-2.1-2.3-3.8-4.4-4.4c-2.5-0.6-3.6,3.2-1.1,3.9 c1.6,0.4,1.9,2.2,1.9,3.6c-0.1,2.1-0.4,4.1-0.7,6.2c-0.7,4.4-1.4,8.8-2.3,13.2C81.3,42.6,85.2,43.6,85.7,41.1z"/> <path class="st3" d="M74.3,33c0.3-3.7,1.4-7.2,1.7-10.8c0.3-3.3-0.1-8.7-4.6-8.7c-2.6,0-2.6,4,0,4c0.1,0,0.3,0.1,0.4,0.4 c0.2,0.6,0.3,1.1,0.2,1.7c0,1.4,0,2.9-0.3,4.3C71.2,27,70.4,30,70.2,33c0,1.1,0.9,2,2,2S74.3,34.1,74.3,33L74.3,33z"/> <path class="st3" d="M82.7,90.4C82.8,90.6,82.7,90.6,82.7,90.4S82.7,90.3,82.7,90.4C82.7,90.6,82.7,90.7,82.7,90.4 c0,0.2,0,0.4,0,0.5c0,0.5,0,1,0,1.6c0,0,0,0.4,0,0.2s0,0.3,0,0.3c0,0.2-0.1,0.5-0.2,0.8c-0.1,0.5-0.3,1.1-0.5,1.6 c0,0-0.1,0.4-0.1,0.2l-0.1,0.2c-0.1,0.2-0.2,0.5-0.3,0.7c-0.3,0.5-0.5,1-0.9,1.4l-0.2,0.3c0.1-0.2,0,0,0,0l-0.5,0.6 c-0.4,0.4-0.8,0.8-1.3,1.2c-0.8,0.8-0.8,2,0,2.8s2,0.8,2.8,0c3.2-2.7,5.2-6.7,5.4-10.9c0.2-1.6-0.3-3.1-1.3-4.3 c-0.7-0.8-2-0.9-2.8-0.2s-0.9,2-0.2,2.8C82.5,90.3,82.6,90.4,82.7,90.4L82.7,90.4z"/> <path class="st3" d="M78.7,102.7c0.2,5,0.9,10,2,14.9c0.5,2.4,1.2,4.8,2,7.1c0.7,1.9,2.5,2.8,3,4.7c0.1,0.9,0.4,1.7,0.8,2.5 c0.7,1,1.7,1.1,2.7,1.7c1.8,1.1,2.2,3.2,3.8,4.5c1.7,1.4,4.2,2,6.3,2.7c2.4,0.8,4.9,1.4,7.3,1.7c2.7,0.4,5.4,0.3,8.1-0.4 c2.6-0.7,4.8-2.2,7.4-2.9s1.4-4.5-1.1-3.9c-2,0.7-4,1.5-5.9,2.4c-2,0.7-4.1,1.1-6.3,0.9c-2.2-0.1-4.3-0.6-6.4-1.2 c-2.1-0.5-4.1-1.2-6-2c-1.7-0.8-2.2-2.9-3.5-4.1c-0.7-0.6-1.5-1.2-2.3-1.6c-0.2-0.1-0.4-0.2-0.7-0.3c-1.2-0.3,0.3,0.3,0,0.4 c0,0-0.3-1.2-0.3-1.4c-0.2-0.9-0.5-1.7-1-2.5c-0.5-0.9-1.3-1.3-1.9-2.1c-0.5-0.8-0.8-1.7-1-2.7c-0.3-1.1-0.7-2.2-1-3.4 c-1.3-5-2-10.1-2.2-15.2C82.5,100.2,78.5,100.1,78.7,102.7L78.7,102.7z"/> <path class="st3" d="M53.8,51.9c0,0.1,0,0.2,0,0.3l0.1-0.4C53.9,51.9,53.9,52,53.8,51.9l0.2-0.3C53.9,51.8,53.9,51.9,53.8,51.9 l0.2-0.3C54,51.8,53.9,51.8,53.8,51.9l0.2-0.2c-0.2,0.1-0.4,0.2-0.6,0.3L53.8,51.9c-0.4,0.2-0.8,0.3-1.2,0.4H53c-0.3,0-0.5,0-0.8,0 c-0.4,0-0.8,0.2-1.1,0.4c-0.6,0.6-0.6,1.5,0,2.1c0.3,0.3,0.7,0.4,1.1,0.4c0.5,0,1,0,1.4-0.1c0.3-0.1,0.6-0.2,0.8-0.3 c0.6-0.2,1.2-0.5,1.6-1c0.5-0.5,0.8-1.2,0.7-1.9c0-0.2,0-0.4-0.1-0.6c-0.1-0.2-0.2-0.4-0.3-0.5c-0.3-0.3-0.7-0.4-1.1-0.4 c-0.4,0-0.8,0.2-1.1,0.4C54,51.1,53.8,51.5,53.8,51.9L53.8,51.9z"/> <path class="st3" d="M56.2,63.2c4.4,3.2,6.9,8.3,7,13.7c0,0.8,0.7,1.5,1.5,1.5s1.5-0.7,1.5-1.5c-0.1-6.4-3.2-12.5-8.5-16.2 c-0.7-0.4-1.6-0.2-2.1,0.5C55.2,61.9,55.5,62.8,56.2,63.2L56.2,63.2z"/> <path class="st3" d="M62.3,52.8c0.3,0.2,0.7,0.3,1,0.4c0.4,0.1,0.7,0.1,1.1,0.1c0.7,0,1.5-0.2,2.1-0.6c0.3-0.2,0.6-0.5,0.7-0.9 c0.2-0.8-0.2-1.6-1-1.8c-0.4-0.1-0.8,0-1.2,0.2c-0.1,0.1-0.3,0.2-0.4,0.2l0.4-0.2c-0.2,0.1-0.4,0.1-0.7,0.2l0.4-0.1 c-0.2,0-0.5,0-0.7,0h0.4c-0.2,0-0.4-0.1-0.7-0.2l0.4,0.2l-0.3-0.1C63.5,50,63,49.9,62.7,50c-0.4,0.1-0.7,0.4-0.9,0.7 s-0.3,0.8-0.2,1.2C61.7,52.2,62,52.5,62.3,52.8L62.3,52.8z"/> <path class="st3" d="M72.5,53c0.3,0.2,0.5,0.4,0.8,0.6c0.3,0.2,0.6,0.3,0.9,0.4c0.2,0.1,0.4,0.1,0.7,0.2c0.4,0.1,0.7,0.1,1.1,0.1 s0.8-0.2,1.1-0.4c0.3-0.3,0.4-0.7,0.4-1.1c0-0.4-0.2-0.8-0.4-1.1c-0.3-0.3-0.7-0.4-1.1-0.4c-0.2,0-0.4,0-0.6,0h0.4 c-0.3,0-0.6-0.1-0.8-0.2l0.4,0.2c-0.3-0.1-0.5-0.3-0.8-0.4l0.3,0.2l-0.2-0.2c-0.3-0.3-0.7-0.4-1.1-0.4s-0.8,0.2-1.1,0.4 c-0.3,0.3-0.4,0.7-0.4,1.1C72.1,52.3,72.2,52.7,72.5,53L72.5,53z"/> <path class="st3" d="M86,58l0.5-0.2c0.2,0,0.4-0.1,0.5-0.3c0.2-0.1,0.3-0.2,0.4-0.4s0.2-0.4,0.2-0.5c0.1-0.2,0.1-0.4,0-0.6l-0.1-0.4 c-0.1-0.2-0.3-0.4-0.5-0.5L86.5,55c-0.3-0.1-0.5-0.1-0.8,0l-0.5,0.2c-0.2,0-0.4,0.1-0.5,0.3c-0.2,0.1-0.3,0.3-0.4,0.4 c-0.1,0.2-0.2,0.4-0.2,0.6c-0.1,0.2-0.1,0.4,0,0.6l0.2,0.4c0.1,0.2,0.3,0.4,0.5,0.5l0.3,0.2C85.5,58.1,85.8,58.1,86,58L86,58z"/> <path class="st4" d="M83.4,137.7c3-1.7,5.5-4.3,7.1-7.4c0.3-0.5,0.1-1.1-0.4-1.4l0,0c-0.5-0.3-1.1-0.1-1.4,0.4l0,0 c-1.4,2.8-3.6,5.2-6.4,6.7c-0.5,0.3-0.7,0.9-0.4,1.3C82.3,137.8,82.9,138,83.4,137.7L83.4,137.7z"/> <path class="st4" d="M140.5,130.1c-4.1-3-9-0.6-13,1.3c-8.5,4-18.2,7.1-27.4,3.8c-8.8-3.1-12.9-12-14.2-20.6 c-0.3-2.4-0.6-4.8-0.6-7.2c0-1.1,0-2.3,0-3.4c-0.1-1,0.1-1.9,0.5-2.8c0.5-0.7,1.2-1.3,1.7-2c0.4-0.7,0.8-1.5,1-2.3 c0.6-1.8,0.9-3.7,0.7-5.7c-0.1-1.1-0.4-2.1-0.9-3.1c0.1,0,0.1,0,0.2,0c1.3-0.7,2.5-1.6,3.6-2.6c1.3-1.1,2.6-2.3,3.8-3.4 c1.1-1.1,2.2-2.2,3.3-3.3c1.2-1,2.3-2.3,3-3.8c0.5-1.3,0.7-2.8,0.7-4.2c0.2-1.7,0.4-3.4,0.8-5.1c0.7-3.1,1.8-6.1,3.3-9 c1.3-2.5,3.5-5.1,3.3-8.1c-0.2-3-2.8-4.6-5.7-4.3c-2.9,0.3-5.5,2.1-7.4,4.2c-0.5,0.6-1,1.1-1.4,1.7c2.7-6,6.2-11.9,8-18.1 c0.8-2.6,1.4-5.5,0.6-8.2c-0.7-2.4-2.9-4-5.4-4c-2.7,0-4.8,1.7-6.4,3.7c-1.7,2.4-3.3,4.9-4.5,7.6c-0.1,0.3-0.3,0.6-0.4,0.9 c0.6-2.4,1.1-4.9,1.7-7.3c0.5-2.5,1.3-5.3,0.9-7.8c-0.7-4.4-5.9-5.6-9.3-3.3c-1.6,1.2-2.9,2.9-3.6,4.8c0.1-1,0-1.9-0.3-2.9 c-0.6-2.2-2.6-3.8-4.9-3.9c-2.3,0-4.3,1.7-5.7,3.4c-2.3,3-3.9,6.7-5.1,10.4c0-0.1,0-0.2,0-0.3c0.2-3.1-0.8-6.4-4.4-6.8 c-3.3-0.4-5.7,2.1-6.8,4.9c-1.4,3.4-1.5,7.3-1.6,11c0,3.9-0.3,7.8-1.1,11.7c-1.6,7.2-4.5,14.4-3.8,21.9c0.6,5.5,2.8,10.5,6.3,14.6 c-1.5,1.6-1.2,5.2-1,6.9c0.1,1.4,0.5,2.8,0.7,4.2c0.3,1.7,0.3,3.5,0.2,5.2c-0.2,10.1,1.5,20.2,5,29.8c3.2,8.7,8.1,16.9,15.2,22.8 c3.5,2.9,7.4,5.2,11.7,6.8c4.9,1.7,9.9,2.8,15,3.2c9.8,1.2,20.1,0.8,29.3-3c4-1.6,7.7-3.9,11-6.8c3.3-2.9,6.4-6.7,7.2-11.2 C145.1,136.5,143.6,132.5,140.5,130.1z M85.9,125.8c1.1,2.3,2.4,4.4,4.1,6.3c1.2,1.4,2.5,2.5,4,3.5c-1.2,2.4-2.9,4.3-5.1,5.8 c-1.1-1.5-2.5-2.9-4-4.1c-1.9-1.5-3.8-2.8-5.9-4C81.7,131.2,84,128.7,85.9,125.8z M49.6,50.9c0.9-3.1,1.5-6.4,1.8-9.6 c0.3-3.5,0.2-7,0.4-10.5c0.2-2.7,0.5-6.8,3-8.6c0.8-0.6,1.9-0.8,2.8-0.4c1.2,0.7,1,2.6,0.9,3.8c-0.3,5.6-0.6,11.1-0.9,16.7 c-0.3,2.6-0.5,5.1-0.6,7.7c-0.1,1.8,2.7,1.9,3,0.2h0.1c0.3-9.9,2.3-20.3,6.6-29.3c0.9-2,2.1-4.2,3.9-5.5c1.8-1.3,3.4-0.2,3.8,1.8 c0.4,2.2-0.9,4.5-1.6,6.5c-0.7,2.3-1.3,4.6-1.6,7c-0.8,5.2-1.1,10.3-2.4,15.4c-0.1,0.2-0.1,0.4-0.2,0.6c-0.6,1.9,2.2,2.7,2.9,0.9 l0,0c1.5-5,3-10,4.5-15c0.8-2.5,1.6-5,2.4-7.6c0.6-2.2,1.3-4.3,2.2-6.3c0.8-1.6,2.1-3,3.9-3.1c1.8-0.1,2.7,0.9,2.7,2.7 c-0.2,2.4-0.6,4.9-1.2,7.2c-0.6,2.5-1.1,5-1.7,7.4l-4,17.4c-0.2,0.8,0.3,1.6,1.1,1.8c0.8,0.2,1.6-0.3,1.8-1c0,0,0-0.1,0-0.1l0.1,0 l0.1-0.5c1.7-5,3.6-10,5.8-14.8c1.1-2.4,2.3-4.8,3.7-7.1c1.2-2,2.5-4.6,4.9-5.4c2.4-0.8,3.8,0.7,3.9,3c0,2.7-0.6,5.3-1.7,7.8 c-1.9,5.1-4.7,9.8-6.9,14.8c-2.3,5.2-4,10.8-3.7,16.5c-3.3-0.1-6.7,0.4-9.8,1.5c-3.9,1.6-6.6,4.6-8.8,8.1c-1,1.6,1.6,3.2,2.6,1.5 c1.9-3.1,4.2-5.8,7.7-7c3.2-1,6.7-1.4,10.1-1.1c0.8,0,1.5-0.7,1.5-1.5c0.2-5.2,2-10.2,5.1-14.4c1.5-2,3.4-4.1,5.8-5 c1-0.4,2.1-0.5,3.2-0.1c0.9,0.6,0.8,1.9,0.4,2.8c-0.5,1.1-1.1,2.2-1.8,3.3c-2,3.6-3.5,7.5-4.5,11.5c-0.3,1.3-0.5,2.6-0.7,3.9 c-0.1,1.4-0.3,2.8-0.5,4.2c-0.4,1.1-1.1,2.2-2.1,2.9c-1,1.1-2.1,2.1-3.2,3.1c-1.2,1.1-2.4,2.2-3.6,3.3c-1,1.1-2.2,2-3.5,2.8 c-1.4,0.6-3.1,0.2-4.6,0.3c-1.7,0-3.5,0.2-5.2,0.5c-1.4,0.4-1.1,2.4,0,3c-7.1,1.3-14.5,0.6-20.8-3c0.2-0.6,0-1.2-0.5-1.6 c-4.7-3.5-7.9-8.6-9-14.4C46,63.4,48,57,49.6,50.9z M52.1,87.1c0-0.6,0.1-1.3,0.2-1.9c0,0,0,0,0,0c9.4,7.5,22.1,7.7,33,3.5 c1,1.2,1.1,2.8,0.9,4.3c-0.1,1.6-0.5,3.2-1.4,4.6c-0.5,0.7-1,1.3-1.5,1.9c-4.9,2.6-11.3,2.3-16.7,1.3c-2.9-0.7-5.7-1.8-8.3-3.3 c-2-1.1-3.9-2.4-5.4-4.1C52.6,91.3,52.1,89.3,52.1,87.1z M53.6,108.7c-0.3-2.4-0.4-4.9-0.5-7.3c0-1.6,0.2-3.3,0.2-4.9 c1,0.9,2.2,1.7,3.4,2.4c2.9,1.8,6.1,3.1,9.4,3.8c5.1,1.1,11,1.3,16.1-0.5c-0.1,2.1-0.1,4.2,0,6.3c0.2,5,1,10.3,2.8,15.1 c-2,3.4-4.7,6.5-8,8.8c-1.5-0.7-3-1.3-4.5-1.8c-2.1-0.7-4.4-0.9-6.7-0.5c-2.1,0.5-4,1.3-5.8,2.4C56.5,124.9,54.4,116.9,53.6,108.7z M84.8,156c-2-0.7-3.9-1.4-5.8-2.4c-7.6-3.9-13.4-10.5-17.4-17.9c-0.2-0.4-0.4-0.9-0.7-1.4c1.6-1,3.2-1.7,5-2.2c2-0.4,4.1-0.3,6,0.4 c3.8,1.3,7.3,3.2,10.5,5.6c3,2.2,6.1,4.8,6.5,8.7C89.2,150.4,87.6,153.9,84.8,156z M140.7,142.5c-1.7,3.8-5,7-8.4,9.3 c-7.3,5.1-16.2,7.2-25,7.3c-5,0-10-0.4-14.9-1.3c-1.8-0.3-3.6-0.7-5.4-1.1c2.5-2.3,4-5.6,4-9.2c0-1.6-0.4-3-1-4.3 c2.5-1.7,4.5-3.9,5.8-6.5c5.1,2.7,11.4,3.5,17.1,2.7c4.5-0.7,9-2,13.2-3.9c2.3-1,4.4-2.2,6.8-3c1.9-0.7,4.1-1,5.9,0.2 C142,134.8,142.1,139.2,140.7,142.5z"/> <path class="st0" d="M175.2,132.9c2.3,1.3,4.1,2.4,5.4,3.2c2.1,14.3,9.7,26.3,16.7,32l0.8,0.1c-0.4,3.2-1.1,6.4-2.1,9.5l-0.4-0.1 c-10.4-6.8-23.4-30.1-20.6-43.7L175.2,132.9z"/> <path class="st1" d="M172.2,213.6l0.7,0.5c-1.9,1.5-4.3,3.1-6.8,4.8c-8.8-8.1-19.4-14-30.5-18.7c-4.5-1.9-9.1-3.7-13.9-4 c0.8-1.8,1.8-3.5,3-5.1c0.6-1,1.7-1.5,2.8-1.3c3.8,0.3,7.5,1.2,11.1,2.6C151.3,196.9,162.7,204.1,172.2,213.6z"/> <path class="st1" d="M105.5,157.1c4.8,1.4,9.2,3.8,12.9,7.2c-7.3,5.1-13.1,12-17.2,19.9c-4.7-3.4-10.1-7-15.8-6.4 c4.2-8,10.5-14.7,18.1-19.6C104.1,157.7,104.8,157.3,105.5,157.1L105.5,157.1z"/> <path class="st0" d="M152.7,124c2,0.2,4.1,0.7,6,1.4c-6.3,0.3-16.4,7.7-23.3,13c-3.5,2.7-10.7,11.1-12.4,15.1l-2,0.1 c-2.6-0.4-5.3-0.3-7.9,0.4l-0.1-0.3c4.8-11.3,13.5-20.5,24.5-26c3-1.6,6.1-2.9,9.4-3.7C148.8,123.7,150.7,123.7,152.7,124z"/> <path class="st0" d="M165.4,128.1c2,0.9,3.9,1.7,5.6,2.6c-10.2,6.1-20.2,25-22.2,29.9c-0.5,2-2.2,3.4-4.2,3.6 c-7,2.1-13.4,5.7-18.7,10.5c-5.4,4.9-9.2,11.2-11.1,18.3c-1.4-0.9-3.9-1.9-4.9-3.3s-0.3-2.9,0.2-4.4c1.2-4,3.1-7.8,5.6-11.2 c2.1-2.5,4.6-4.6,7.3-6.5c5.9-4.3,12.3-8,19.3-9.9c0.5-0.1,0.9-0.3,1.3-0.6c0.3-0.3,0.5-0.7,0.7-1.1 C145.8,152.6,156.9,132.3,165.4,128.1z"/> <path class="st2" d="M197.4,221.2c-1.1,1.8-2.3,3.6-3.6,5.3c-3,4-6.8,7.8-11.6,9.2c-3.3,0.8-6.8,0.9-10.2,0.3v-0.3 c4.8-2.3,8.9-6,11.6-10.6c2.5,0.3,5.1,0.3,7.6-0.1c2.4-0.5,4.5-1.9,5.8-3.9L197.4,221.2z"/> <path class="st2" d="M197.1,221c-1.3,2-3.4,3.5-5.8,3.9c-2.5,0.4-5.1,0.5-7.6,0.1c-2.7,4.6-6.8,8.3-11.6,10.6v0.3 c-0.2,0-0.3,0-0.5-0.1c-3.2-0.4-6.2-1.3-9.2-2.7l0.4-0.8c9.7-2.9,17.8-10,23.6-18.4c2.1-3.1,4-6.4,5.7-9.8c1.7,1.2,3.6,2.1,5.6,2.7 c2,0.5,4,0.8,6,1l0.3,0.1c-1.9,4.5-4.1,8.8-6.6,13L197.1,221z"/> <path class="st2" d="M162.8,232.5l-0.4,0.8c-2.9-1.3-5.4-3.3-7.1-6l1.5-1.5c2.9-2.6,6.1-4.9,9.4-7c2.4-1.6,4.9-3.3,6.8-4.8 c0.7-0.5,1.3-1,1.8-1.5c4.2-3.8,7.8-8.2,10.9-13l0.6,0.4c1.9,1.6,3.8,3.1,5.9,4.4c-1.6,3.4-3.5,6.6-5.7,9.8 C180.6,222.5,172.5,229.6,162.8,232.5z"/> <path class="st2" d="M222.9,139.7c-1.4-1.5-3.2-2.7-5.2-3.4c-1.6-0.5-3.3-0.8-5-1c-1.1-0.1-2.2-0.2-3.4-0.2 c-3.4-0.2-6.8,0.1-10.1,0.9c-2.7,0.7-5.1,2-7.2,3.9c-1,0.9-1.7,1.9-2.4,3.1l-0.2,0.2c-2.2-2-4.6-3.9-6.9-5.7 c-0.6-0.5-1.2-0.9-1.9-1.3c-1.3-0.8-3.1-1.9-5.4-3.2c-1.3-0.7-2.7-1.4-4.2-2.2s-3.6-1.7-5.6-2.6c-2-0.9-4.3-1.8-6.7-2.7 c-1.9-0.7-4-1.1-6-1.4l0.3-2c2.5-5.2,8.2-8.4,14-9.2c6-0.7,12,0.8,17.6,2.8c3.3,1.1,22.3,8.3,28,11.4c4.1,2.3,8.2,4.8,9.6,9.6 C222.6,137.6,222.8,138.7,222.9,139.7L222.9,139.7z"/> <path class="st2" d="M209.3,135v0.5c-0.1,17.4-4.6,34.6-10.2,51.1c-2,6.1-4.3,12-7.1,17.8c-2-1.4-4-2.8-5.9-4.4l-0.6-0.4 c3.1-4.9,5.7-10.1,7.9-15.5c0.9-2.1,1.7-4.3,2.4-6.5c1-3.1,1.7-6.3,2.1-9.5c0.2-1.8,0.3-3.6,0.3-5.4c-0.1-5.1-1.5-10-4.3-14.3 c-1.3-1.9-2.9-3.7-4.6-5.3l0.2-0.2c0.6-1.2,1.4-2.2,2.4-3.1c2-1.9,4.5-3.2,7.2-3.9C202.5,135.2,205.9,134.9,209.3,135z"/> <path class="st2" d="M222.9,139.7c0.4,3.8-0.2,7.6-1,11.4c-3.8,19.2-9.6,38-17.4,56c-0.2,0.4-0.3,0.8-0.5,1.1l-0.3-0.1 c-2-0.2-4-0.5-6-1c-2-0.6-3.9-1.5-5.6-2.7c2.7-5.8,5.1-11.7,7.1-17.8c5.6-16.5,10-33.6,10.2-51.1V135c1.1,0,2.3,0.1,3.4,0.2 c1.7,0.2,3.4,0.5,5,1c2,0.7,3.8,1.8,5.2,3.4L222.9,139.7z"/> <path class="st2" d="M198.3,162.7c0,1.8,0,3.6-0.3,5.4l-0.8-0.1c-7-5.6-14.5-17.7-16.7-32c0.6,0.4,1.3,0.8,1.9,1.3 c2.3,1.9,4.7,3.7,6.9,5.7c1.7,1.6,3.3,3.4,4.6,5.3C196.7,152.7,198.2,157.6,198.3,162.7z"/> <path class="st3" d="M170.8,166.3c-0.8-0.3-1.7-0.6-2.4-1.1l-4.4-2.3c-0.1-0.1-0.3-0.2-0.3-0.3s0-0.2,0.1-0.4c0.2-0.3,0.4-0.7,0.6-1 c1.5-2.4,3-4.7,4.6-6.9l0.1-0.1c1.9,1.4,4,2.5,6.2,3.4c-1.1,2.4-2.3,4.9-3.4,7.3c-0.2,0.4-0.4,0.8-0.6,1.2c0,0.1-0.1,0.2-0.2,0.2 C171,166.3,170.9,166.4,170.8,166.3z"/> <path class="st3" d="M163.7,162.3c-0.1,0.1-0.1,0.2-0.1,0.4c0,0.1,0.2,0.2,0.3,0.3l4.4,2.3c0.8,0.4,1.6,0.8,2.4,1.1 c0.1,0,0.2,0,0.3,0c0.1-0.1,0.1-0.1,0.2-0.2c0.2-0.4,0.4-0.8,0.6-1.2c3.8,1.7,7.4,3.8,10.8,6.3c0.4,0.2,0.7,0.6,0.9,1.1 c0.1,0.6,0,1.2-0.4,1.7l-10,19.6c-9.9-6.1-20.1-12.4-31.4-15c-0.3-0.1-0.6-0.2-0.7-0.5c0-0.2,0-0.4,0.1-0.5 c3.6-6.9,7.6-13.4,11.8-20c0.2-0.4,0.7-0.7,1.1-0.5c0.1,0,0.1,0.1,0.2,0.1c3.4,1.1,6.7,2.5,9.9,4l0.3,0.2 C164.1,161.6,163.9,162,163.7,162.3z"/> <path class="st2" d="M154.2,157.2c-0.4-0.3-0.9-0.2-1.2,0.2c0,0.1-0.1,0.1-0.1,0.2c-4.1,6.6-8.1,13.1-11.8,20 c-0.1,0.2-0.1,0.3-0.1,0.5c0.1,0.3,0.4,0.4,0.7,0.5c11.4,2.6,21.5,8.9,31.4,15l10-19.6c0.3-0.5,0.5-1.1,0.4-1.7 c-0.2-0.4-0.5-0.8-0.9-1.1c-3.3-2.5-6.9-4.6-10.8-6.3c1.1-2.4,2.3-4.9,3.4-7.3c-2.2-0.8-4.3-2-6.2-3.4l-0.1,0.1 c-1.6,2.3-3.1,4.6-4.6,6.9L164,161C160.9,159.6,157.6,158.3,154.2,157.2z M148.7,160.6c2-4.9,12-23.8,22.2-29.9 c1.6,0.8,3,1.5,4.2,2.2l-0.4,0.9c-2.8,13.6,10.3,37,20.6,43.7l0.4,0.1c-0.7,2.2-1.5,4.4-2.4,6.5c-2.2,5.4-4.8,10.6-7.9,15.5 c-3,4.8-6.7,9.2-10.9,13c-0.5,0.5-1.1,1-1.8,1.5l-0.7-0.5c-9.5-9.5-21-16.8-33.6-21.3c-3.5-1.4-7.3-2.2-11.1-2.6 c-1.1-0.2-2.3,0.3-2.8,1.3c-1.2,1.6-2.2,3.3-3,5.1c4.8,0.4,9.5,2.1,13.9,4c11,4.7,21.6,10.6,30.5,18.7c-3.3,2.1-6.4,4.4-9.4,7 l-1.5,1.5c-3.4,3.5-5.2,5.8-7.6,8.6c-4.3,5.2-41.7-10-53.8-19.1c-6.7-5.1-13-12.1-13.2-20.4c-0.2-4.7,0.6-9.4,2.5-13.8 c0.7-1.7,1.4-3.3,2.3-4.9c5.8-0.6,11.1,3,15.8,6.4c4-7.9,9.9-14.7,17.1-19.9c-3.7-3.4-8.1-5.8-12.9-7.2v0c2.4-1.3,4.9-2.4,7.5-3.1 c2.6-0.7,5.3-0.8,7.9-0.4l2-0.1c1.8-4,9-12.4,12.4-15.1c6.9-5.3,17-12.7,23.3-13c2.4,0.9,4.6,1.8,6.7,2.7 c-8.5,4.2-19.6,24.6-21.2,28c-0.1,0.4-0.4,0.8-0.7,1.1c-0.4,0.3-0.8,0.5-1.3,0.6c-7,1.9-13.4,5.7-19.3,9.9c-2.7,1.8-5.1,4-7.3,6.5 c-2.5,3.4-4.4,7.1-5.6,11.2c-0.5,1.5-1.3,3-0.2,4.4s3.5,2.4,4.9,3.3c1.9-7,5.7-13.4,11.1-18.3c5.4-4.9,11.8-8.5,18.7-10.5 C146.6,163.9,148.3,162.5,148.7,160.6L148.7,160.6z"/> <path class="st3" d="M190.6,233.2c9.6-13.4,15.8-29.2,21-44.7c4.4-12.8,7.8-25.8,10.1-39.1c0.7-3.4,0.9-6.8,0.5-10.2 c-0.8-5.6-4.8-9.9-9.8-12.3c-2.3-1.1-4.3,2.3-2,3.5c4,1.9,7.3,5.2,7.9,9.8c0.2,1.9,0.1,3.8-0.1,5.7c0,0.1-0.1,0.7,0,0.1 c0,0.2,0,0.4-0.1,0.6c-0.1,0.5-0.1,1-0.2,1.5c-0.9,5.3-2.1,10.6-3.4,15.9c-3.6,15.2-8.6,30.1-14.8,44.4c-3.4,8-7.6,15.7-12.6,22.9 c-0.6,1-0.2,2.2,0.7,2.7C188.9,234.5,190.1,234.2,190.6,233.2L190.6,233.2z"/> <path class="st3" d="M156,228.4c4.2,4.5,10.2,6.7,16.2,7.5c6.6,0.8,13.3-0.1,19.5-2.6c1-0.3,1.7-1.4,1.4-2.5s-1.4-1.7-2.5-1.4l0,0 c-5.5,2.3-11.5,3.2-17.5,2.6c-5.3-0.6-10.6-2.4-14.3-6.4C157.1,223.7,154.3,226.6,156,228.4L156,228.4z"/> <path class="st4" d="M193.3,145.7c-2.3-2.7-4.9-5.1-7.7-7.2c-1.4-1.1-2.8-2.3-4.4-3.3c-4.2-2.7-8.7-5.1-13.2-7.2 c-6.2-2.8-12.8-5.8-19.7-5.5c-3.6,0.2-7,1.7-10.2,3.2c-3.1,1.5-6,3.2-8.8,5.1c-5.4,3.8-10,8.5-13.7,14c-1.7,2.6-3.2,5.3-4.3,8.2 c-3.1,0.9-6.1,2.3-8.8,4c-5.7,3.6-10.6,8.3-14.6,13.7c-4,5.5-7.5,12.1-8.5,18.8c-0.6,3.4-0.6,7,0,10.4c0.7,3.2,2.1,6.2,4,8.8 c6,8.4,15.2,13.6,24.3,18c8.9,4.3,18.3,8.3,28,10.6c3.1,0.8,6.6,1.6,9.8,1.1c1.1-0.1,2.1-0.7,2.9-1.5c1.9-2.2,3.8-4.4,5.8-6.5 c2-2.2,4.2-4.2,6.6-6.1c2.5-1.8,5-3.5,7.5-5.2c2.3-1.5,4.6-3.2,6.7-4.9c2.6-2.3,4.9-4.7,7-7.4c4.4-5.7,8.1-11.9,11-18.5 c3.1-7,5.8-14.3,6.3-22C199.8,158.9,198,151.5,193.3,145.7z M193.8,178.7c-2.3,6.6-5.2,12.9-8.9,18.9c-3.3,5.6-7.5,10.6-12.4,14.8 c-4.3,3.5-9.1,6.2-13.5,9.5c-4.4,3.5-8.3,7.5-11.9,11.9c-0.3,0.4-0.6,0.8-1,1.2c0,0,0,0-0.1,0.1c0,0,0,0-0.1,0 c-0.1,0.1-0.1,0.1-0.1,0.1c0,0,0,0-0.1,0c-0.3,0.1-0.5,0.1-0.8,0.2c0,0-0.2,0-0.5,0s-0.6,0-0.9,0c-0.7,0-1.4-0.1-2.1-0.1 c-3.7-0.5-7.3-1.4-10.9-2.6c-4.6-1.5-9.1-3.2-13.5-5.1c-4.4-1.9-8.8-3.9-13-6.2c-3.4-1.7-6.7-3.8-9.8-6.1 c-4.8-3.7-9.5-8.5-11.4-14.4c-2-6.3-0.4-13.4,2.2-19.2c2.6-5.8,6.2-11.1,10.8-15.5c4.6-4.5,10.2-8.6,16.4-10.4 c3.2-1,6.6-1.1,9.8-0.2c0.8,0.2,1.6-0.3,1.8-1.1c0.2-0.8-0.3-1.6-1-1.8c-2.5-0.7-5.1-0.8-7.6-0.5c5.2-11,14.5-19.3,25.4-24.4 c2.9-1.6,6.2-2.4,9.5-2.5c2.9,0.1,5.8,0.7,8.6,1.7c5.9,2.2,11.7,4.8,17.1,8c1.6,0.9,3.1,1.8,4.6,2.8c0.4,0.2,0.8,0.5,1.1,0.8 c-0.5-0.4,0.6,0.5,0.8,0.6c0.8,0.6,1.5,1.2,2.3,1.8c2.6,2,5,4.3,7.1,6.8c2.1,2.8,3.6,5.9,4.3,9.3 C197.7,164.3,196.2,171.8,193.8,178.7z"/> <path class="st4" d="M173.8,133.5c-1.3,6.5,0.5,13.4,2.9,19.4c2.7,6.8,6.4,13.1,11,18.7c2.1,2.6,4.5,4.9,7.2,6.8 c1.1,0.7,2.1-1,1-1.7c-5-3.3-8.8-8.6-11.9-13.6c-3.7-5.8-6.4-12.3-7.9-19c-0.8-3.2-0.9-6.6-0.3-9.9 C176,132.8,174.1,132.3,173.8,133.5L173.8,133.5z"/> <path class="st4" d="M179.6,136.3c1,6.8,3.3,13.4,6.6,19.5c2.6,4.9,6.1,9.3,10.3,12.9c1,0.8,2.4-0.6,1.4-1.4 c-9.3-7.6-14.6-19.9-16.4-31.5C181.3,134.5,179.4,135.1,179.6,136.3z"/> <path class="st4" d="M123.8,153.9c1.2-2.3,2.6-4.4,4.3-6.4c1.8-2.3,3.8-4.5,5.9-6.6c2.1-1.9,4.3-3.7,6.7-5.3c2.8-2.1,5.8-4,8.8-5.8 c2.8-1.6,6-3.3,9.3-3.5c1.3-0.1,1.3-2.1,0-2c-2.9,0.3-5.7,1.2-8.2,2.6c-3.2,1.7-6.4,3.6-9.3,5.8c-2.7,1.8-5.3,3.7-7.7,5.8 c-2.2,2-4.2,4.2-6.1,6.6c-2.1,2.3-3.9,4.9-5.3,7.7C121.5,154.1,123.2,155.1,123.8,153.9L123.8,153.9z"/> <path class="st4" d="M164.9,127.2c-4.4,2.2-7.8,6.6-10.6,10.5c-3.2,4.3-6,8.8-8.6,13.5c-0.8,1.4-1.5,2.7-2.2,4.1 c-0.2,0.6-0.6,1-1.1,1.3c-1,0.4-2.1,0.6-3.1,0.9c-1.9,0.7-3.7,1.4-5.5,2.3c-3.6,1.8-7.1,3.8-10.3,6.1c-3.4,2.2-6.4,4.8-9,7.9 c-2.7,3.6-4.3,7.8-5.8,12c-0.6,1.8-0.6,3.5,0.8,4.9s3.1,2,4.7,2.9c0.5,0.3,1.1,0.1,1.4-0.4c0-0.1,0.1-0.2,0.1-0.2 c3.5-13.6,14.9-23.4,27.9-27.7c1.3-0.3,2.6-0.8,3.8-1.4c1.1-0.8,2-2,2.4-3.4c0.6-1.4,1.2-2.7,1.9-4.1c2.3-4.4,4.8-8.6,7.6-12.6 c3.3-4.7,7.1-9.5,12.1-12.5c0.5-0.3,0.6-0.9,0.3-1.4c-0.3-0.4-0.8-0.6-1.3-0.3c-4.5,2.7-8.1,6.8-11.2,11c-3.1,4.2-6,8.6-8.4,13.3 c-0.9,1.6-1.7,3.3-2.5,5c-0.3,0.7-0.6,1.4-0.9,2.1c-0.9,1.7-2.8,1.9-4.4,2.5c-6.5,2.1-12.5,5.5-17.6,10.1c-5.6,5.1-9.7,11.7-11.7,19 l1.5-0.6c-1.4-0.7-2.7-1.5-4-2.4c-1.7-1.4-0.4-3.5,0.2-5.2c1.2-3.7,3-7.2,5.4-10.2c2.7-2.9,5.8-5.5,9.1-7.6 c3.2-2.2,6.6-4.1,10.1-5.7c1.8-0.8,3.6-1.5,5.5-2.1c1.5-0.5,2.8-0.7,3.5-2.2c0.6-1.2,1.2-2.4,1.9-3.6c2.3-4.3,4.9-8.5,7.7-12.5 c1.7-2.5,3.6-4.8,5.6-7.1c1.6-1.9,3.5-3.4,5.7-4.6C167.1,128.3,166.1,126.6,164.9,127.2L164.9,127.2z"/> <path class="st4" d="M85.4,178.7c5.8-0.5,10.9,3,15.4,6.3c0.5,0.3,1.1,0.1,1.4-0.4l0,0c4-7.8,9.7-14.5,16.8-19.5 c0.5-0.3,0.6-0.9,0.4-1.4c0-0.1-0.1-0.1-0.2-0.2c-3.8-3.5-8.4-6-13.4-7.4c-0.5-0.1-1.1,0.2-1.2,0.7s0.2,1.1,0.7,1.2l0,0 c4.6,1.3,8.9,3.7,12.5,6.9l0.2-1.6c-7.4,5.2-13.4,12.2-17.6,20.2l1.4-0.4c-4.8-3.5-10.2-7.1-16.4-6.6 C84.1,176.8,84.1,178.8,85.4,178.7L85.4,178.7z"/> <path class="st4" d="M167.2,218.5c-6.3-5.7-13.4-10.6-21-14.5c-3.8-2-7.6-3.7-11.5-5.4c-4.1-1.9-8.5-3-12.9-3.5l0.9,1.5 c0.7-1.9,1.8-3.6,3.1-5.2c1.3-1.4,4.4-0.5,6.1-0.1c3.7,0.9,7.4,2.1,10.9,3.6c10.8,4.5,20.6,11.1,28.9,19.4c0.4,0.4,1,0.4,1.4,0 s0.4-1,0-1.4c-8.6-8.6-18.7-15.4-29.9-20c-3.8-1.7-7.9-3-12-3.8c-1.9-0.3-4.6-1-6.3,0.4s-2.9,4-3.8,6c-0.3,0.5-0.1,1.1,0.4,1.4 c0.2,0.1,0.3,0.1,0.5,0.1c4.3,0.5,8.5,1.7,12.4,3.5c3.9,1.6,7.7,3.4,11.4,5.4c7.3,3.7,14.1,8.4,20.2,13.9 C166.8,220.7,168.2,219.3,167.2,218.5L167.2,218.5z"/> <path class="st4" d="M183.9,170.9c-1.1-0.9-2.3-1.8-3.5-2.5c-2.3-1.5-4.7-2.9-7.2-4l2.9-6.2c0.3-0.5,0.1-1.1-0.4-1.4 c-0.1,0-0.2-0.1-0.2-0.1c-2.1-0.8-4.1-1.9-5.9-3.3c-0.4-0.2-0.9-0.1-1.1,0.2c-0.1,0.1-0.3,0.2-0.4,0.3c-1.2,1.6-2.3,3.3-3.4,5 c-0.3,0.4-0.5,0.7-0.7,1.1c-1.8-0.9-3.7-1.7-5.6-2.4c-1.1-0.4-2.2-0.8-3.3-1.2c-0.8-0.3-1.7-0.6-2.5,0c-0.8,0.8-1.4,1.8-1.9,2.9 l-2.1,3.4c-1.4,2.3-2.8,4.6-4.1,6.9s-2.7,4.7-3.9,7.1c-0.4,0.8-0.8,1.5-0.1,2.3s1.9,0.8,2.8,1c5,1.4,9.9,3.3,14.5,5.8 c5.1,2.6,10.1,5.7,15,8.7c0.5,0.3,1.1,0.1,1.4-0.4l5-9.8c1.7-3.3,3.5-6.6,5.1-10C185,173.2,184.8,171.8,183.9,170.9z M169.3,155.6 c1.5,1,3,1.8,4.6,2.6l-1.5,3.4l-1,2.1l-0.5,1.1c-0.1,0.2-0.1,0.4-0.2,0.5c-1-0.3-1.9-0.7-2.9-1.3l-1.7-0.9l-1-0.5l-0.3-0.2 c0.7-1.2,1.5-2.3,2.2-3.4C167.7,157.7,168.5,156.7,169.3,155.6z M182.6,173.5c-0.4,0.8-0.8,1.5-1.1,2.2l-8.3,16.4 c-7.3-4.5-14.8-9.1-22.9-12.1c-2.1-0.8-4.2-1.5-6.4-2.1c-0.4-0.2-0.8-0.3-1.3-0.4c0.2-0.3,0.3-0.5,0.4-0.7c0.6-1.1,1.1-2.1,1.7-3.1 c2.4-4.2,4.8-8.3,7.4-12.4c0.3-0.5,0.7-1.1,1-1.6c0.2-0.3,0.7-1.5,1-1.6c0.3-0.1,1.4,0.5,1.6,0.6l1.5,0.6c1.9,0.7,3.8,1.5,5.7,2.4 c-0.2,0.3-0.3,0.7-0.3,1.1c0.1,0.5,0.4,0.8,0.8,1.1c0.9,0.5,1.8,1,2.7,1.4c0.9,0.4,1.8,1,2.7,1.4c0.9,0.4,2,1.1,2.9,0.5 c0.3-0.3,0.6-0.6,0.7-1c2.1,1,4.2,2.1,6.1,3.3c1.1,0.7,2.1,1.4,3.2,2.1C182.5,172.2,183.1,172.5,182.6,173.5z"/> <path class="st4" d="M221.5,132c-3.4-4.5-9.1-6.9-14.2-9.1c-5.2-2.2-10.6-4.3-15.9-6.3s-10.4-4-15.9-4.9c-7.6-1.2-16,0-21.4,5.9 c-1.2,1.3-2.1,2.7-2.8,4.2c-0.8,1.8,1.8,3.3,2.6,1.5c2.9-6.6,10.2-9.3,16.9-9.1c5.9,0.2,11.5,2.2,17,4.3c4.8,1.8,9.5,3.6,14.3,5.6 c4.5,1.7,8.9,3.8,13,6.3c2.4,1.6,4.4,3.6,5.4,6.2c-4.2-2.4-9.3-2.8-14.1-2.6c-6.8,0.2-14.1,1.9-17.7,8.3c-0.6,1.2,1.1,2.2,1.7,1 c3.3-5.9,10.1-7.2,16.4-7.3c0.5,0,0.9,0,1.4,0c-0.3,15.5-3.8,30.7-8.5,45.4c-2.3,7.2-4.8,14.6-8.1,21.6c-1.7-1.1-3.2-2.3-4.8-3.7 c-0.9-0.9-2.4,0.5-1.4,1.4c1.7,1.5,3.5,2.8,5.3,4c-2.7,5.4-6,10.5-10.1,15c-4.9,5.5-11.2,9.7-18.2,12c-0.1,0-0.3,0.1-0.3,0.2 c-0.8-0.4-1.7-0.9-2.5-1.5c-1.3-1-2.3-2.1-3.1-3.5c-1-1.9-3.6-0.4-2.6,1.2c3.8,6.2,11.2,8.4,17.9,9.4c4.2,0.6,8.6,0.7,12.6-1 c3.4-1.6,6.5-4,8.8-6.9c5.6-6.6,9.3-14.4,12.7-22.2c3.5-8.2,6.7-16.5,9.4-25c2.8-8.6,5.1-17.3,7-26.1 C223.9,148.7,226.7,138.9,221.5,132z M164.5,233c12.5-4.4,21.7-15,27.6-26.6c0.1-0.2,0.2-0.4,0.3-0.6c0.4,0.2,0.8,0.5,1.2,0.7 c2.7,1.3,5.5,2.1,8.5,2.4c-1.8,4-3.8,8-6.1,11.8c-0.1,0.1-0.2,0.3-0.3,0.4c-2.7,3.6-8.1,3.3-12.1,3c-0.4,0-0.7,0.2-0.9,0.5 c-2.7,4.3-6.5,7.9-11,10.2c-1.1-0.2-2.3-0.4-3.4-0.7C167,233.8,165.7,233.5,164.5,233z M179.7,235c-1.5,0.2-3,0.2-4.5,0.1 c3.6-2.3,6.7-5.4,8.9-9c2.9,0.2,6.1,0.2,8.8-0.7C189.6,230,185.4,234.2,179.7,235z M220.5,150.4c-1.6,8.1-3.5,16.2-5.9,24.2 c-2.3,8-5.1,15.9-8.1,23.8c-1.1,2.9-2.3,5.8-3.5,8.6c-3-0.3-5.9-1-8.6-2.3c-0.4-0.2-0.8-0.5-1.2-0.7c2.8-6,5.2-12.2,7.3-18.5 c2.6-7.6,4.8-15.3,6.5-23.1c2-8.7,3.1-17.5,3.2-26.4c4,0.2,8.1,0.9,11.1,3.5C221.8,143.2,221.2,146.9,220.5,150.4z"/> <path class="st3" d="M100.6,179.4c0.6,0,1-0.4,1-1s-0.4-1-1-1s-1,0.4-1,1S100.1,179.4,100.6,179.4z"/> <path class="st3" d="M112.7,165.4c0.6,0,1-0.4,1-1s-0.4-1-1-1s-1,0.4-1,1S112.1,165.4,112.7,165.4z"/> <g> <path class="st5" d="M165.5,181.1l0.1-0.3l0.4-1l0.9-2c0.1-0.3,0.2-0.6,0.1-0.9s-0.3-0.5-0.5-0.7c-0.5-0.3-1.2-0.1-1.5,0.5 c-0.2,0.4-0.4,0.8-0.5,1.2l2.6-6.4c0.1-0.5-0.1-1-0.5-1.3c-0.4-0.2-1-0.2-1.4,0.2l-3.4,3l0.8-4.1c0.1-0.6-0.3-1.2-1-1.3 c-0.4-0.1-0.8,0.1-1,0.4c-0.1,0.1-0.1,0.2-0.2,0.3l0,0l0,0c-1.5,2.5-3.1,4.9-4.6,7.4c0-0.2,0-0.5-0.1-0.7c-0.3-0.5-1-0.7-1.5-0.4 l-0.1,0.1h0h0h-0.1c-0.1,0-0.1,0-0.1,0l-0.2-0.1c0-0.1-0.1-0.1-0.1-0.1l0,0l-0.1-0.1c-0.1-0.1-0.2-0.4-0.1-0.1 c0-0.1-0.1-0.2-0.1-0.3c0-0.1,0-0.1,0-0.1c0,0,0,0,0-0.1c0-0.1,0-0.3,0-0.4c0-0.1,0-0.1,0-0.1l0,0l1.5,0.8c0.5,0.3,1.1,0.4,1.6,0.1 c0.4-0.3,0.6-0.6,0.8-1.1c0.4-0.8,0.6-1.6,0.4-2.5c-0.2-0.7-0.7-1.4-1.4-1.7c-0.7-0.3-1.5-0.3-2.2-0.1c0.2-0.3,0.4-0.6,0.4-0.9 c0.3-1.6-0.7-3.2-2.3-3.5c-0.3-0.1-0.6-0.1-0.9,0c-0.4,0-0.8,0.2-1,0.6c-1.3,2.6-2.7,5.1-4.2,7.6c-0.1,0.2-0.1,0.4-0.1,0.6 c0,0.4,0.1,0.7,0.5,1c0.1,0,0.1,0.1,0.2,0.1c0.9,0.5,2,0.7,3,0.4c0.6-0.1,1.1-0.3,1.6-0.6c0,0.2,0,0.3,0,0.5c0.2,0.8,0.7,1.6,1.5,2 c0.8,0.5,1.8,0.4,2.7-0.1c0,0,0,0,0.1-0.1c-0.1,0.1-0.1,0.2-0.2,0.3c-0.3,0.5-0.1,1.2,0.4,1.5c0.5,0.3,1.2,0.1,1.5-0.4 c0.7-1.2,1.5-2.3,2.2-3.5l-0.3,1.5c-0.1,0.6,0.2,1.2,0.9,1.4c0.4,0.1,0.8,0,1-0.3l2.2-1.9l-1.9,4.5c-0.2,0.6,0.2,1.2,0.8,1.4 c0.4,0.1,0.8-0.1,1.1-0.4c0,0,0,0,0,0.1c-0.1,0.3,0,0.6,0.1,0.9c0.1,0.3,0.4,0.4,0.7,0.5c0.3,0.1,0.6,0,0.9-0.1 c0.2-0.2,0.4-0.4,0.5-0.7L165.5,181.1z M151.8,166.8L151.8,166.8l0.2,0.2l0.1,0.2c-0.1-0.1,0,0.1,0,0.2c0,0.1,0,0.2,0,0.2 c0-0.2,0,0.1-0.1,0.1c-0.1,0.1-0.1,0.1-0.2,0.2c0,0,0,0,0,0c0,0-0.1,0.1-0.1,0.1c-0.2,0.1,0,0-0.2,0.1c-0.1,0-0.3,0-0.4,0.1 C151.3,167.7,151.6,167.3,151.8,166.8z M154.2,171.6C154.2,171.6,154.3,171.5,154.2,171.6l0.2-0.2c0,0,0,0,0.1,0 c0.1-0.1,0.4-0.1,0.1-0.1c0,0,0.1,0,0.2,0c0,0,0,0,0.1,0c0,0,0.1,0,0.1,0l0.1,0.1l0.1,0.1l0.1,0.1c0,0,0,0.1,0,0.1c0,0,0,0.1,0,0.1 c0,0.1-0.1,0.3-0.1,0.4c0,0.1,0,0.1,0,0.1l-0.3-0.1l-0.9-0.4L154.2,171.6L154.2,171.6z M150.3,172.2c-0.2,0.1-0.4,0.3-0.7,0.4 c-0.2,0.1-0.5,0.2-0.7,0.2c-0.1,0.1-0.3,0.1-0.4,0.1c0.4-0.8,0.9-1.5,1.3-2.3c0,0,0.1,0.1,0.1,0.1c0.1,0.1,0.2,0.2,0.4,0.4 c-0.1-0.1,0.1,0.1,0.1,0.2C150.6,171.6,150.6,171.9,150.3,172.2z"/> <path class="st5" d="M166.7,173.6c-0.1,0-0.3,0.1-0.4,0.2l-0.2,0.2c-0.1,0.2-0.2,0.4-0.1,0.6v0.3c0.2,0.2,0.3,0.4,0.4,0.5 c0.2,0.2,0.3,0.3,0.4,0.3c0.1,0.1,0.3,0.1,0.4,0.1c0.1,0,0.3,0,0.4-0.1c0.1,0,0.3-0.1,0.4-0.2l0.2-0.2c0.1-0.2,0.2-0.4,0.1-0.6 v-0.3c-0.1-0.2-0.2-0.4-0.3-0.5l-0.1-0.1c-0.1-0.1-0.2-0.2-0.4-0.2c-0.1-0.1-0.3-0.1-0.4-0.1S166.8,173.5,166.7,173.6z"/> <path class="st5" d="M174.9,178c-1.2,0.1-2.1,0.8-2.8,1.7c0.1-0.4,0.2-0.8,0.3-1.2c0.1-0.9-0.5-1.7-1.4-1.8c-0.1,0-0.1,0-0.2,0 c-0.3,0-0.5,0.1-0.8,0.1l0.1-0.2c0.2-0.6-0.2-1.2-0.8-1.4c-0.7-0.3-1.3,0.1-1.5,0.7l-2.9,7c-0.2,0.6,0.2,1.2,0.8,1.4 c0.5,0.1,1-0.1,1.3-0.5c0-0.1,0.1-0.2,0.1-0.2l0.1,0l0.7-1.6c0.3-0.5,0.6-1.1,0.9-1.6c0.3-0.4,0.6-0.7,1-0.9l0.2-0.1 c0,0.1-0.1,0.2-0.1,0.2l-0.8,1.6l-1.6,3.3c-0.3,0.5-0.1,1.1,0.3,1.4s1.1,0.3,1.5-0.1l0.2-0.2c0.3-0.3,0.4-0.6,0.3-1l0.3-0.7 c-0.2,1-0.3,2,0.2,3c0.4,1.1,1.7,1.7,2.8,1.3c0.9-0.4,1.7-1.2,2-2.2c0.2-0.6-0.1-1.2-0.7-1.5c-0.6-0.2-1.2,0.1-1.5,0.7 c0,0.1,0,0.1-0.1,0.2c-0.1,0.2-0.1,0.3-0.3,0.4c-0.1,0.1-0.1,0.1-0.2,0.2c0,0-0.2-0.3-0.1-0.2c0-0.1-0.1-0.2-0.1-0.4 c0-0.2,0-0.4,0-0.6c0.1-0.3,0.1-0.7,0.3-1c0.1-0.3,0.2-0.6,0.4-0.9c0.4,0.2,0.9,0.4,1.2,0.6c0.4,0.4,1,0.6,1.6,0.5 c0.6-0.2,1-0.7,1.1-1.4C177.3,181,177.3,177.9,174.9,178z M170.3,178.7C170.2,178.5,170.3,178.5,170.3,178.7L170.3,178.7z M174,180.7c0.2-0.2,0.3-0.4,0.4-0.5c0.1-0.1,0.2-0.1,0.3-0.2c0,0.1,0,0.3,0,0.5c0,0.2,0,0.3-0.1,0.6 C174.4,180.9,174.2,180.8,174,180.7z"/> </g> <path class="st1" d="M77.1,211l0.1,0.7c-0.6,0.1-1.2,0.2-1.7,0.4c-2.2,1-3.8,3-4.3,5.3l-0.5-0.1c-3.3-4.7-7.4-8.8-12.2-12 c-1.6-1.2-3.5-2-5.4-2.4l-0.1-0.1c2.7-4.6,6.1-8.6,10.2-11.9l0.4,0.4C69.9,196.4,74.6,203.2,77.1,211z"/> <path class="st0" d="M1.5,259.9c0.2-2.4,1.3-4.7,2.9-6.4l0.1,0.1c-0.5,1.6-0.1,3.4,0.9,4.7c1,1.3,2.4,2.4,3.9,3.1 c6.6,3.4,14.4,3.4,21.7,2.5c0.4-0.1,0.9-0.1,1.3,0.1c0.5,0.3,1,0.8,1.2,1.3c2,2.7,4.9,4.5,8.2,5s6.6,0.5,9.8-0.1 c11.9-1.8,24-6.9,31-16.7l0.6-0.1c0.5,2.4,0.9,4.8,1,7.3c0.2,1.1,0,2.2-0.4,3.2c-0.5,0.8-1.3,1.5-2.1,2 c-20.1,13.6-47.2,16.5-69.4,6.6C6.9,270.1,1.2,265.8,1.5,259.9z"/> <path class="st0" d="M41.8,204.5c-2-0.8-4.2-0.9-6.2-0.2l-0.4-0.1c0.3-2.3,0.8-4.6,1.5-6.8c2.7-9.1,9-17.4,17.4-21.4l1,0.1 c4.3,1.5,8.3,3.9,11.6,7.1c0.2,0.2,0.4,0.5,0.5,0.8c0,0.3,0,0.5-0.1,0.8c-0.2,0.9-0.4,1.7-0.6,2.6c-0.1,0.4-0.2,0.8-0.4,1.1 c-0.3,0.4-0.6,0.7-1,0.9c-0.7,0.5-1.3,1-2,1.5c-4.1,3.3-7.6,7.4-10.2,11.9c-1.4,2.3-2.5,4.7-3.4,7.2 C47.5,207.5,44.9,205.6,41.8,204.5z"/> <path class="st2" d="M36,235c0.5-0.2,1-0.5,1.4-1c0.2-0.3,0.2-0.7,0.2-1.1c3.4,5.7,9,9.9,15.4,11.7c3.6,1.1,7.4,1,11-0.2 c1.9-0.8,3.7-1.9,5.3-3.2c2.1-1.7,4-3.6,5.6-5.7l0.6-0.3c0.9,1.6,1.8,3.1,2.7,4.6c2.4,4.2,4.1,8.7,5.1,13.4l-0.6,0.1 c-7.1,9.8-19.1,14.8-31,16.7c-3.2,0.6-6.6,0.7-9.8,0.1c-3.3-0.5-6.2-2.3-8.2-5c-0.3-0.6-0.7-1-1.2-1.3c-0.4-0.1-0.9-0.2-1.3-0.1 c-7.3,0.9-15.1,0.9-21.7-2.5c-1.5-0.7-2.8-1.8-3.8-3.1c-1-1.3-1.4-3.1-0.9-4.7l-0.1-0.1c1.3-1.5,2.8-2.8,4.5-4 C17.2,243.5,26.7,239.2,36,235z"/> <path class="st2" d="M72,226.8c0.6,0.7,0.9,1.5,1,2.4c0.5,2.1,1.3,4.1,2.4,6l-0.6,0.3c-1.6,2.1-3.5,4-5.6,5.7 c-1.6,1.3-3.3,2.4-5.3,3.2c-3.6,1.2-7.4,1.3-11,0.2c-6.5-1.8-12-6-15.4-11.7c0-0.3-0.1-0.7-0.2-1c-0.9-3.4-1.5-6.9-2-10.5l0.5-0.1 c3.9,5.7,9.9,9.7,16.6,11.2c6.8,1.4,13.9-0.5,19-5.1L72,226.8z"/> <path class="st2" d="M71,218.4c-0.3,2.7-0.1,5.4,0.5,8.1c0.2,0.1,0.4,0.1,0.5,0.3l-0.4,0.6c-5.1,4.7-12.2,6.6-19,5.1 C45.9,231,39.9,227,36,221.3l-0.5,0.1c-0.8-5.7-0.9-11.5-0.2-17.2l0.4,0.1c2-0.7,4.2-0.6,6.2,0.2c3,1.1,5.7,3,7.7,5.5 c0.9-2.5,2.1-4.9,3.4-7.2l0.1,0.1c2,0.4,3.8,1.2,5.4,2.4c4.8,3.2,9,7.3,12.2,12l0.5,0.1C71.1,217.7,71,218.1,71,218.4z"/> <path class="st2" d="M77.1,211c-2.5-7.7-7.2-14.5-13.5-19.6l-0.4-0.4c0.7-0.5,1.3-1,2-1.5c0.4-0.2,0.7-0.6,1-0.9 c0.2-0.4,0.3-0.7,0.4-1.1c0.2-0.9,0.4-1.7,0.6-2.6c0.1-0.2,0.1-0.5,0.1-0.8c-0.1-0.3-0.3-0.6-0.5-0.8c-3.3-3.2-7.3-5.6-11.6-7.1 l-1-0.1c1.9-0.9,4-1.6,6.1-2c7.2-1.4,14.8,0.5,21.2,4.1c15.3,8.5,30.2,31.1,34.1,37.3c1,2.5,0.9,5.2-0.3,7.6 c-1.2,2.3-2.8,4.4-4.7,6.3c-1.2,1.3-2.7,2.7-4.4,2.4c-0.8-0.2-1.5-0.6-2.1-1.1c-4.2-3.2-7.4-7.5-11.1-11.2s-8.2-7.1-13.4-7.7 c-0.8-0.1-1.6-0.1-2.5,0V211z"/> <path class="st3" d="M77.1,209.1c-3.9-1.8-8.2,0.4-9.8,4c-0.8,2-1.2,4.2-1.2,6.4c-0.2,2.4,0,4.7,0.5,7c0.6,2.2,2,4.1,2.6,6.3 c0.2,1,0.4,1.9,0.8,2.8c0.5,1.1,1.2,2.1,2,2.9c2.8,3.2,4.7,7,5.6,11.1c0.3,1.2,0.2,2.5,0.6,3.7s1.2,2,1.6,3.1 c0.8,2.1,0.8,4.4-0.1,6.4c-0.5,0.9-0.2,2.1,0.7,2.7c1,0.5,2.2,0.2,2.7-0.7l0,0c1.8-3.7,1.6-8-0.5-11.5c-1-1.7-1-3.8-1.4-5.7 c-0.5-1.9-1.2-3.8-2.1-5.5c-0.9-1.8-2-3.6-3.3-5.2c-0.6-0.7-1.2-1.3-1.7-2c-0.5-0.9-0.9-1.8-1-2.8c-0.5-2-1.7-3.7-2.4-5.7 c-0.6-2-0.8-4.1-0.7-6.2c0-2.1,0-4.4,1.2-6.3c0.7-1.1,2.4-2.3,3.8-1.6C77.3,213.5,79.3,210.2,77.1,209.1L77.1,209.1z"/> <path class="st3" d="M3.3,267.1c8.6,7.5,19.9,10.9,30.9,11.9c5.9,0.6,11.8,0.3,17.6-0.8c6.6-1.2,13-3.2,19.1-5.8 c5-2.2,9.6-5.3,13.7-9.1c1.9-1.7-0.9-4.6-2.8-2.8c-7.8,7.3-18,10.9-28.2,13.3c-10.5,2.4-21.4,2-31.7-1.1c-5.8-1.6-11.2-4.5-15.9-8.4 C4.1,262.6,1.3,265.4,3.3,267.1L3.3,267.1z"/> <path class="st4" d="M114,222.3c-0.7,1.4-1.6,2.8-2.7,4c-0.9,1.2-2,2.3-3.1,3.3c-1.4,1.1-2.4,0.4-3.6-0.6c-1.2-1-2.4-2.1-3.5-3.3 c-4.3-4.4-8-9.4-13.3-12.6c-2.8-1.7-6.6-3.2-10-2.9c-2.6-7.5-7.1-14-13.1-19.1c0.2-0.2,0.4-0.3,0.6-0.5c0.7-0.4,1.3-1,1.8-1.6 c0.5-1,0.8-2,0.9-3.1c0.3-0.8,0.4-1.6,0.2-2.4c-0.5-0.8-1.1-1.5-1.9-2c-2.5-2.1-5.3-3.8-8.3-5.2c3.1-1,6.3-1.5,9.8-1.1 c6.5,0.6,12.7,3.6,18.1,7c4.4,2.7,8.3,6.2,11.5,10.3c1.2,1.6,2.3,3.2,3.4,4.9c1.1,1.7,3.6,0.1,2.6-1.5c-2-3.2-4.3-6.2-6.9-9 c-3.5-3.5-7.4-6.5-11.7-8.9c-4.9-2.9-10.2-4.8-15.8-5.7c-5.1-0.7-10.2,0.1-14.8,2.3c-8.4,3.9-14.6,11.8-17.7,20.4 c-4,10.8-3.1,22.9-0.8,34c0.1,0.7,0.3,1.4,0.5,2.1c0.3,0.6,0.4,1.3,0.4,2c-0.1,0.5-0.7,0.7-1.2,0.9l-2.3,1c-2.6,1.2-5.2,2.4-7.8,3.7 c-5.1,2.4-10.1,5.2-14.8,8.4c-3.9,2.7-8.3,5.9-9.6,10.8c-1.2,4.5,1,8.9,4.4,11.8c3.6,3.1,8.2,5,12.7,6.6c4.8,1.6,9.7,2.7,14.7,3.3 c15,1.7,30.3-1.1,43.7-8.2c2.2-1.2,4.4-2.5,6.5-3.9c2.2-1.5,3.6-3.2,3.5-6c-0.2-5.6-1.4-11.2-3.5-16.4c-1-2.5-2.2-4.9-3.6-7.2 c-1.5-2.3-2.7-4.7-3.7-7.2c-0.6-1.8-0.7-3.7-2.1-4.8c-0.7-3.9-1.4-9.1,2.2-11.7c3.4-2.5,8.8,0,11.9,2.1c3.7,2.4,6.6,5.8,9.5,9 c1.5,1.7,3.1,3.3,4.7,4.9c1.5,1.4,3.2,3.1,5.3,3.2c2.3,0.1,4.1-1.6,5.5-3.2c1.8-1.9,3.4-4,4.6-6.3 C117.4,222.1,114.8,220.6,114,222.3z M55.3,177.4c3.6,1.3,7,3.2,9.9,5.8c0.3,0.2,0.7,0.5,0.9,0.9c0.4,0.6,0.1,1.2-0.1,1.9 c-0.3,1.1-0.4,2-1.3,2.7c-1.4,1.1-2.8,2.1-4.1,3.3c-5,4.5-8.8,10.1-11.4,16.3c-3-3.1-7.7-5.9-12-5.2c0.7-4.1,2-8.1,4-11.9 C44.4,185.2,49.3,180.1,55.3,177.4z M69.9,225.5c0.1,0.6,0.1,1.2,0.4,1.7c-4.9,4.2-11.4,5.8-17.8,4.5c-6.1-1.4-11.5-5-15.3-10.1 c-0.8-5.5-1-11.2-0.3-16.6c4.4-1,9.3,2.5,11.9,5.7c0.5,0.6,1.4,0.2,1.7-0.4c0.8-2.2,1.8-4.2,2.9-6.3c1.6,0.4,3.1,1.1,4.4,2.1 c1.6,1,3.1,2.2,4.6,3.4c2.7,2.3,5.2,5.1,7.3,8.1c-0.3,1.1-0.4,2.2-0.3,3.2C69.4,222.4,69.6,223.9,69.9,225.5z M82,264 c-2.2,1.8-4.6,3.3-7.2,4.5c-2.5,1.3-5.1,2.5-7.8,3.6c-5.4,2.1-11.1,3.5-16.9,4.3c-11.5,1.5-23.1,0.2-33.9-3.9 c-4.6-1.8-10.3-4.3-12.4-9.1c-0.9-2-0.7-4,0-5.7c1.8,3.8,7.4,5.9,11.1,6.8c3.1,0.7,6.4,1,9.6,0.9c1.6,0,3.2-0.1,4.7-0.3 c0.8-0.2,1.6-0.3,2.4-0.2c0.8,0.1,1.2,1.2,1.7,1.7c4.2,5.2,11.5,5.5,17.6,4.6c5.9-0.8,11.7-2.4,17.1-4.9c5.6-2.5,10.4-6.3,14.3-10.9 c0.2,1.3,0.4,2.7,0.5,4C82.9,261,83.3,262.8,82,264z M79.4,245.5c1,2.4,1.8,4.9,2.4,7.4c0,0,0,0-0.1,0.1c-6.6,9-17.4,13.8-28.2,15.8 c-5.7,1.1-12.8,1.9-17.6-2.2c-1-0.8-1.5-2-2.4-2.9c-0.9-0.9-2.2-0.8-3.5-0.7c-3,0.3-6,0.5-9,0.3c-3.5-0.1-7-0.9-10.2-2.2 c-2.4-1-5.4-2.9-5.6-5.7c1.5-2,3.6-3.7,5.4-5c5.5-3.8,11.3-7,17.3-9.8c2.9-1.4,5.9-2.7,8.9-4.1c0.5-0.2,1-0.5,1.4-0.8 c3.9,5.2,9.5,8.8,15.9,10.3c4.1,1,8.3,0.5,12.1-1.3c3.4-1.9,6.4-4.5,8.8-7.5C76.7,239.8,78.1,242.7,79.4,245.5z M74,235.3 c-2.3,3-5.1,5.5-8.3,7.4c-3.5,1.9-7.7,2.4-11.6,1.4c-6.1-1.5-11.3-5.2-14.8-10.3c0,0,0-0.1,0-0.1c0.2-1.6-0.5-3.2-0.8-4.8 c-0.3-1.2-0.5-2.4-0.7-3.7c3.9,4.1,9,7.2,14.6,8.4c6.8,1.3,13.8-0.5,19.1-4.8c0,0.1,0.1,0.2,0.1,0.2C72.1,231.2,72.9,233.3,74,235.3 z M72,212.9c-0.6,0.7-1.1,1.6-1.5,2.4c-2.1-2.7-4.4-5.2-6.9-7.4c-1.5-1.3-3.1-2.5-4.7-3.5c-1.3-1-2.8-1.7-4.4-2.1 c2.3-3.7,5.2-7.1,8.6-9.9c5.8,4.8,10.2,11,12.7,18.2C74.4,210.9,73.1,211.7,72,212.9z"/> <path class="st2" d="M169.4,284.7c-0.5-0.8-1.1-1.5-1.9-2L149.9,269c-0.9-0.9-2.1-1.4-3.4-1.5c-0.7,0.1-1.3,0.3-1.9,0.5 c-0.7,0.2-1.4,0.2-2.2,0.1c0,0-6.3-2.9-6.3-9.9c-0.1-8.3,16.9-28.6,16.9-28.6c-5.7,6-36.8-30.1-36.8-30.1 c-12.7,15.4-20,34.4-21,54.3c-0.6,11.4,1.3,23.6,8.9,32.1c2.2,2.4,4.8,4.6,7.6,6.3c2.1,1.5,4.5,2.6,7,3.3l0.8,0.2l0,0 c-1.4,11.3-6.6,21.5-12.3,31.3c-1.2,2.1-2.5,4.3-2.7,6.8c-0.1,1.3,0.1,2.6,0.5,3.8c1.3,4.3,4.4,7.8,8.5,9.8 c4.1,1.9,8.7,2.2,12.9,0.9c2.7-0.9,5.2-2.2,7.5-3.9c1.4-1,2.7-2.1,4-3.2c15.5-14,27.7-32.6,31.7-53.3 C169.8,287,169.8,285.8,169.4,284.7z"/> <path class="st0" d="M169.4,284.7c0.4,1.1,0.4,2.3,0.1,3.4c-4,20.7-16.1,39.2-31.7,53.2c-1.3,1.2-2.6,2.2-4,3.2 c-2.3,1.7-4.8,3-7.5,3.9c-4.3,1.3-8.9,1-12.9-0.9s-7.1-5.4-8.5-9.7c-0.2-0.5-0.3-1-0.3-1.5c1.3,3.4,5.1,5.6,8.8,5.7 c4.2,0.1,8.1-2,11.3-4.7c5.5-4.6,9.1-11,13.1-17c0.3-0.5,0.7-0.9,1.2-1.1c0.8-0.2,1.5,0.3,2.2,0.7c2.2,0.9,4.7,0.6,6.6-0.8 c1.9-1.4,3.4-3.2,4.6-5.2c6.4-10,10.5-21.3,11.8-33l0.4-0.5l2.9,2.2C168.3,283.2,169,283.9,169.4,284.7z"/> <path class="st1" d="M138.1,265.7l-0.9,0.8c-3.9,4.8-9.2,8.3-15.2,10.1l-1,0.6c-2.5-4.3-4.5-8.9-6.1-13.7l0.7-0.2 c2,0.8,4.2,0.4,6.3,0c5.1-1.1,10.2-2.7,14.2-6.1c-0.3,1.5-0.3,3,0,4.5C136.4,263,137.1,264.5,138.1,265.7z"/> <path class="st0" d="M104.1,286.1c-6.9-7.8-9.1-18.7-9-29.2h0.2c5.5,3.4,12.3,3.5,17.9,0.4c0.5,2,1.1,4.1,1.7,6.1 c1.6,4.8,3.6,9.4,6.1,13.7c0.4,0.6,0.7,1.3,1.1,1.9c-4.9,3.7-10.3,7.6-16.4,7.5l-0.6,0.6C104.8,286.8,104.4,286.4,104.1,286.1z"/> <path class="st3" d="M150.8,228.3c-4.2,3.3-8,7.2-11.2,11.6c-2.8,4.1-5.1,8.4-6.8,13.1c-0.5,1.2-1,2.3-1.3,3.5 c-0.4,1.6-0.4,3.3,0.2,4.8c0.5,1.5,1,2.9,1.4,4.4c0.3,1.5,1.3,2.8,2.6,3.5c1.2,0.8,2.5,1.4,3.7,2c1.4,0.5,2.9,0.5,4.4,0 c1.2-0.3,2.4,0.1,3.2,0.9c1.3,1,2.6,2.1,3.8,3.2c2.8,2.4,5.6,4.8,8.3,7.3c1.3,1.2,2.3,2.5,4.1,2.7c1.3,0.1,2.4,0.8,3,2 c1.2,2.3,4.5,0.2,3.3-2c-0.6-1.2-1.5-2.1-2.6-2.8c-0.5-0.3-1.1-0.6-1.7-0.8c-0.5-0.2-1.2-0.1-1.7-0.3c-0.5-0.2-1-0.9-1.4-1.2 c-0.6-0.5-1.1-1-1.7-1.6c-1.1-1-2.3-2.1-3.4-3.1c-2.3-2-4.7-4-7.1-5.9c-1-1-2.2-1.8-3.6-2.3c-1.3-0.3-2.7-0.2-4,0.2 c-1.1,0.2-2.3-0.1-3.2-0.8l-1.7-1c-0.1-0.1-0.5-0.5-0.3-0.1c-0.2-0.4-0.3-0.9-0.4-1.3c-0.5-1.4-1-2.8-1.4-4.1 c-0.4-1.4-0.1-2.5,0.4-3.9c1.6-4.3,3.6-8.5,6-12.4c3-4.6,6.8-8.6,11-11.9c0.9-0.6,1.2-1.8,0.7-2.7 C152.9,228.1,151.7,227.8,150.8,228.3C150.8,228.4,150.8,228.4,150.8,228.3L150.8,228.3z"/> <path class="st3" d="M115.4,349.4c3.4,0.6,6.8,0.4,10.1-0.6c2.4-0.7,4.6-1.9,6.6-3.4c14.7-10.4,26.1-24.6,33-41.1 c2.6-6.2,4.4-12.7,5.4-19.4c0.2-1-0.4-2.1-1.4-2.4c-1.1-0.3-2.2,0.3-2.5,1.4c-3.3,22.2-16.1,42.5-33.9,56.1c-2,1.7-4.2,3.2-6.5,4.4 c-3.1,1.3-6.5,1.7-9.8,1.1c-1.1-0.3-2.1,0.4-2.5,1.4C113.7,348.1,114.3,349.1,115.4,349.4L115.4,349.4L115.4,349.4z"/> <path class="st4" d="M169.7,282.7c-1.5-1.4-3.1-2.7-4.9-3.9l-5.3-4.1l-5.3-4.1c-1.6-1.4-3.3-2.6-5-3.8c-1.7-1-3.2-0.9-5-0.3 c-1.5,0.4-3,0-4.2-0.9c-3.1-2.4-3.2-6.4-2.2-9.8c1.3-3.9,3.1-7.6,5.4-11.1c2.2-3.5,4.6-6.8,7.2-10c1.3-1.5,2.6-3,4-4.5 c1.4-1.5-0.5-3.5-1.9-2.1c-5.5,5.7-10.2,12.1-14,18.9c-1.6,2.9-3.3,6.5-3.9,10c-2.5,1.8-5.3,3.2-8.3,4c-1.6,0.5-3.3,0.9-5,1.3 c-1.8,0.5-3.7,0.5-5.5,0c0,0-0.1,0-0.1,0c-0.6-1.7-1.1-3.5-1.5-5.3c-0.1-0.5-0.7-0.8-1.2-0.7c-0.1,0-0.2,0.1-0.2,0.1 c-5.1,2.8-11.1,2.8-16.2,0c0-0.1,0-0.3,0-0.4c0.5-20.2,7.8-39.7,20.7-55.4c1.2-1.3-0.9-3.5-2.1-2c-13.1,15.9-20.7,35.6-21.5,56.1 c-0.4,9.5,0.9,19.5,5.9,27.7c2.7,4.3,6.2,7.9,10.4,10.6c2.4,1.7,5,3,7.7,3.9c-1.1,7.7-4.2,15-7.7,21.9c-1.8,3.5-4.1,6.9-5.8,10.5 c-1.7,3.4-1.7,7.4-0.1,10.9c3,6.8,10.2,10.8,17.5,10.5c8.1-0.3,14.5-5.7,20.1-11.1c10.6-10.1,19-22.3,24.6-35.9 c1.4-3.4,2.5-6.8,3.4-10.3C170.6,290.1,172.3,285.5,169.7,282.7z M121.1,264.3c1.9-0.4,3.8-0.9,5.7-1.4c2.7-0.7,5.2-1.9,7.6-3.4 c0,2.3,0.5,4.5,2,6.4c-3.8,4.6-8.8,8-14.6,9.7c-0.1,0-0.2,0.1-0.3,0.1c-2-3.6-3.7-7.4-5.1-11.3C118,264.7,119.6,264.7,121.1,264.3z M102.6,281.5c-4.3-6.7-5.8-14.8-6-22.7c5,2.3,10.9,2.4,15.9,0c1.8,7.1,4.6,13.8,8.3,20c-4.4,3.3-9.3,6.7-15,6.8 C104.7,284.3,103.6,283,102.6,281.5z M108.3,328.2c1-1.7,1.9-3.4,2.8-5.1c3.7-6.8,7-13.9,8.8-21.5c0.3-1.4,0.6-2.7,0.8-4.1 c1.1,0.2,2.3,0.2,3.5,0.1c11.7-1,19.2-11,22.6-21.3c0.6-1.8-2.3-2.6-2.9-0.8c-2.9,8.6-8.6,16.9-18,18.8c-4.9,1-9.3-0.6-13.3-3.2 c-1.7-1.1-3.3-2.3-4.8-3.6c5.6-0.7,10.4-4.2,14.9-7.6c0.5-0.3,0.6-0.9,0.4-1.4c-0.2-0.4-0.4-0.7-0.6-1.1c5.9-1.8,11.3-5.3,15.2-10 c1.1,1,2.4,1.7,3.7,2.1c1.6,0.3,3.2,0.1,4.6-0.4c1.7-0.4,3.6,1.6,4.8,2.6l5.2,3.9l7,5.4c-1.1,9.9-4.2,19.4-9.1,28.1 c-1.6,2.8-3.2,5.8-5.6,8c-1.1,1-2.4,1.7-3.9,1.9c-1.8,0.2-2.8-1-4.5-1.2c-1.7-0.2-2.4,0.7-3.2,1.9c-0.8,1.2-1.7,2.6-2.6,3.9 c-3.5,5.3-7.2,11.1-12.7,14.6c-2.8,1.8-6.2,3-9.5,2.2c-2.9-0.6-5.1-2.8-5.8-5.7c0-0.1-0.1-0.3-0.1-0.4c0-0.2,0-0.5,0-0.7 C106.4,331.7,107.2,329.8,108.3,328.2z M167.9,288.5c-0.3,1.7-0.8,3.4-1.2,5.1c-3.7,13.7-11,26.3-20.3,36.9 c-2.3,2.7-4.7,5.2-7.3,7.6c-2.8,2.8-5.9,5.2-9.2,7.2c-6.5,3.6-14.9,3.3-20.3-2.3c-0.1-0.1-0.2-0.3-0.3-0.4c2.4,1,5.2,1.2,7.8,0.6 c6.9-1.6,11.9-7.4,15.9-12.9c2.1-2.9,3.9-5.9,5.9-8.8c0.5-0.7,0.4-0.9,1.3-0.5c0.7,0.4,1.4,0.6,2.2,0.8c1.7,0.3,3.4,0.1,5-0.7 c3.2-1.4,5.2-4.4,7-7.2c1.9-3.1,3.7-6.3,5.2-9.6c3-6.7,5.1-13.9,6.1-21.2l0.5,0.4c0.7,0.5,1.6,1.1,1.9,2 C168.3,286.5,168.2,287.5,167.9,288.5z"/> <path class="st1" d="M214.5,195.1c-4.8,3.3-11,3.9-16.3,1.4l-0.4-0.1c0.5-3.1,0.8-6.2,0.8-9.3h0.3c3.9,1.2,8,1.1,11.8-0.5l0.4-0.1 c0.3,1,0.6,2,0.9,2.9c0.7,1.9,1.8,3.7,3.2,5.1L214.5,195.1z"/> <path class="st1" d="M197.9,178.7c3.9,1.3,8.1,1,11.9-0.6h0.4c-0.2,2.9,0.1,5.7,0.8,8.5l-0.4,0.1c-3.8,1.6-7.9,1.7-11.8,0.5h-0.3 C198.7,184.4,198.4,181.5,197.9,178.7z"/> <path class="st0" d="M220.6,201.9c1.6,4.8,2.7,9.8,3.3,14.8c0.1,1.1,0.2,2.2,0.2,3.3c0.1,0.9-0.1,1.8-0.6,2.5 c-0.2,0.2-0.4,0.4-0.7,0.6c-0.3,0.2-0.5,0.3-0.8,0.4c-4.8,2.2-9.8,3.7-15.1,4.5c-0.3,0.1-0.7,0.1-1,0c-0.7-0.3-0.8-1.3-0.8-2 c0-0.5,0-1,0-1.5c0-4.7,0.2-9.3,0.4-13.9l-0.1-0.7c2.2-0.2,4.3-0.7,6.3-1.6c3.3-1.5,6.3-3.7,8.7-6.5L220.6,201.9z"/> <path class="st0" d="M227.2,191.5L227.2,191.5c-0.1,0.2-0.1,0.3-0.2,0.5c-0.6,0.9-1.2,1.8-1.7,2.7c-0.6,0.6-1.4,1.1-2.2,1.5 c-2,0.9-4.4,0.8-6.3-0.3c-0.6-0.3-1.1-0.7-1.6-1.2c-1.4-1.4-2.5-3.2-3.2-5.1c-0.4-1-0.7-1.9-0.9-2.9c-1.3-5.2-1.2-10.6,0.5-15.7 c0.5-2,1.7-3.9,3.4-5.2c1.8-1.2,4.4-1.1,5.7,0.5l0.7-0.3C225.1,174,227.1,182.7,227.2,191.5z"/> <path class="st2" d="M227.7,246.6c-0.4,5.9,0.7,11.8,1.9,17.5c0.6,2.3,0.9,4.8,0.7,7.2c-0.2,1.8-1,3.6-2.6,4.3 c-0.8,0.3-1.6,0.4-2.4,0.2c-2.1-0.5-3.8-2-4.6-3.9c-0.1-0.2-0.2-0.4-0.3-0.6s0-0.1,0-0.2c-1.2-5.9-1.4-12-0.7-18.1v-0.3 c0.1,0,0.2,0,0.3,0c1,0.2,1.9,0,2.7-0.6c0.8-0.5,1.5-1.2,2.1-2c1.8-2.4,3-5.1,3.6-8C228,243.6,227.8,245.1,227.7,246.6z"/> <path class="st2" d="M219.1,253.1c0.1-0.2,0.2-0.3,0.4-0.4c0.1,0,0.1,0,0.2,0v0.3c-0.7,4.2-0.7,8.5-0.2,12.8c0.1,1.9,0.4,3.7,1,5.5 c0.4,1.6,0.6,3.3,0.6,4.9c0,1.8-0.8,3.4-2.3,4.5c-1.9,1.2-4.6,0.5-6.3-1c-1.6-1.7-2.6-3.8-3-6.1c-1.2-5.3-1.2-10.8,0-16.1l-0.7-0.1 l0.4-0.2c0.2-0.1,0.4-0.2,0.6-0.2c0.2,0.1,0.5,0.2,0.6,0.3c1.6,1,3.6,1,5.2,0C217.2,256.3,218.4,254.8,219.1,253.1z"/> <path class="st2" d="M203.1,257.2c1.8,0.8,3.9,0.9,5.7,0.1l0.7,0.1c-1.6,5-2.2,10.2-1.8,15.5c0.4,2.4,0.5,4.7,0.5,7.1 c-0.1,1.8-0.8,3.8-2.6,4.2s-3.3-0.9-4.2-2.2c-1.1-1.6-1.9-3.3-2.5-5.1c-2.5-7.3-3.3-15.1-2.1-22.7c0-0.3,0.1-0.6,0.1-0.9 c0.5,0,1-0.1,1.5-0.2C199.6,254.9,201.2,256.3,203.1,257.2z"/> <path class="st2" d="M193.7,222.7c-0.1,1.1,0.1,2.1,0.6,3.1c0.2,0.5,0.5,0.9,0.9,1.3l-0.1,0.1c-0.5,2.9-1.3,5.7-2.2,8.4 c-0.8,2.3-1.8,4.5-2.6,6.9c-0.2,0.8-0.5,1.6-0.7,2.3l-0.4-0.1c-3.1,1.4-6.5,2-9.9,1.6c-1.4-0.1-2.8-0.5-4-1.3s-1.8-2.3-1.6-3.7 c0.5-1.9,2.5-2.7,4.3-3.5c2.7-1.1,5.2-2.6,7.3-4.6c1.9-1.9,3.7-4,5.1-6.3c1-1.4,2-2.9,3-4.3L193.7,222.7z"/> <path class="st2" d="M192.7,235.6c1-2.7,1.7-5.5,2.2-8.4l0.1-0.1c1.2,1.1,2.6,1.9,4.1,2.3c1,0.3,2.1,0.5,3.1,0.6 c1.3,0,2.6-0.1,3.9-0.4c6-1,11.7-2.9,17-5.8c1.3-0.7,2.6-1.6,3.8-2.5l0.8,1c1.4,4.8,1.3,9.8,1.2,14.8c-0.1,1.7-0.3,3.4-0.7,5.1 c-0.6,2.9-1.8,5.6-3.6,8c-0.6,0.8-1.3,1.5-2.1,2s-1.8,0.7-2.7,0.6c-0.1,0-0.2,0-0.3,0s-0.1,0-0.2,0c-0.2,0.1-0.3,0.2-0.4,0.4 c-0.7,1.7-1.9,3.1-3.5,4.1s-3.6,1-5.2,0c-0.2-0.2-0.4-0.3-0.6-0.3c-0.2,0-0.5,0.1-0.6,0.2l-0.4,0.2c-1.8,0.8-3.9,0.7-5.7-0.1 c-1.9-0.9-3.5-2.4-4.6-4.2c-0.5,0.2-1,0.2-1.5,0.2c-0.1,0.3-0.1,0.6-0.1,0.9c-0.9,6-0.7,12.1-0.4,18.2c0.1,1.2,0,2.5-0.9,3.2 s-2.3,0.2-3.3-0.4c-3.2-2.2-4.5-6.3-5-10.2c-0.3-2.2-0.4-4.5-0.3-6.7c0.2-2.5,0.6-4.9,1.1-7.4c0.4-2.1,0.8-4.1,1.3-6.1 c0.2-0.8,0.4-1.6,0.7-2.3C190.9,240.1,191.9,237.9,192.7,235.6z"/> <path class="st2" d="M227.8,191.1c0.3-0.4,0.7-0.7,1.1-0.8c0.3,0,0.6,0.1,0.9,0.3c1.6,1,2.5,3,3.1,4.8c1.1,2.9,1.8,6.1,1.3,9.2 c-0.5,2.4-1.6,4.6-3.2,6.4c-1.9,2.1-4,4-6.3,5.6l-0.7,0.1c-0.6-5-1.7-10-3.3-14.8l-0.2-0.2c1.4-1.5,2.6-3.1,3.7-4.9 c0.4-0.7,0.9-1.4,1.3-2.1c0.8-0.8,1.3-1.7,1.7-2.7C227.3,191.7,227.5,191.4,227.8,191.1z"/> <path class="st2" d="M231.1,217.3c-0.5,0.9-1.1,1.6-1.9,2.2c-0.7,0.6-1.4,1.2-2.2,1.8c-1.2,0.9-2.5,1.7-3.8,2.5l-0.4-0.7 c0.3-0.2,0.5-0.4,0.7-0.6c0.5-0.8,0.7-1.6,0.6-2.5c0-1.1-0.1-2.2-0.2-3.3l0.7-0.1c2.3-1.7,4.4-3.6,6.3-5.6 C231.2,212.5,231.8,215.8,231.1,217.3z"/> <path class="st2" d="M207,228c5.2-0.8,10.3-2.3,15.1-4.5c0.3-0.1,0.5-0.3,0.8-0.4l0.4,0.7c-5.3,2.9-11,4.8-17,5.8 c-1.3,0.3-2.6,0.4-3.9,0.4c-1.1-0.1-2.1-0.3-3.1-0.6c-1.5-0.4-3-1.2-4.1-2.3c-0.4-0.4-0.7-0.8-0.9-1.3c-0.4-1-0.6-2-0.6-3.1 c0-0.4,0-0.9,0-1.3l0.7-0.7c0.9,0.6,1.8,1.1,2.8,1.4c2.3,0.9,4.7,1.7,7.2,2.3h0.8c0,0.5,0,1,0,1.5c0,0.8,0.1,1.7,0.8,2 C206.2,228,206.6,228.1,207,228z"/> <path class="st2" d="M205.5,210.4c-0.2,4.7-0.3,9.3-0.4,13.9h-0.8c-2.4-0.6-4.8-1.4-7.2-2.3c-1-0.4-1.9-0.8-2.8-1.4 c-0.9-0.6-1.5-1.4-1.8-2.4c-0.2-0.7-0.3-1.5-0.2-2.2c0-2.1,0.2-4.2,0.5-6.3c0.1-1.1,0.4-2.1,0.8-3.1l1.5,0.7c2.3,1.2,4.8,2,7.3,2.3 c1,0.1,2.1,0.1,3.1,0L205.5,210.4z"/> <path class="st2" d="M225.4,194.7c-0.4,0.7-0.9,1.4-1.3,2.1c-1.1,1.7-2.3,3.4-3.7,4.9c-2.4,2.8-5.4,5-8.7,6.5 c-2,0.9-4.1,1.4-6.3,1.6c-1,0.1-2.1,0.1-3.1,0c-2.5-0.4-5-1.2-7.3-2.3l0.4-0.9c1-3.3,1.8-6.6,2.3-9.9l0.4,0.1 c5.3,2.4,11.5,1.9,16.3-1.4l0.8-0.4c0.5,0.5,1,0.9,1.6,1.2c1.9,1,4.3,1.1,6.3,0.3C224,195.8,224.8,195.3,225.4,194.7z"/> <path class="st2" d="M221.4,166l-0.7,0.3c-1.3-1.7-3.9-1.7-5.7-0.5c-1.7,1.3-2.9,3.1-3.4,5.2c-0.8,2.3-1.2,4.7-1.4,7.2h-0.4 c-3.7,1.7-8,1.9-11.9,0.6c-0.3-1.9-0.8-3.7-1.4-5.6c-2.1-6.6-6.1-12.5-10.1-18.2c-2-2.7-4-5.5-4.9-8.7s-0.6-7,1.7-9.4 c2.1-2,5.1-2.9,8-2.4c2.8,0.5,5.5,1.7,7.9,3.4c7,4.7,12.6,11.2,17.1,18.3C218.1,159.4,219.9,162.6,221.4,166z"/> <path class="st3" d="M197.8,143.2c7.4,5.5,13.4,12.7,17.3,21.1c0.6,1,1.8,1.3,2.7,0.7s1.3-1.8,0.7-2.7c-4.3-9-10.7-16.7-18.7-22.6 c-1-0.6-2.2-0.2-2.7,0.7l0,0C196.5,141.4,196.8,142.6,197.8,143.2C197.7,143.2,197.7,143.2,197.8,143.2z"/> <path class="st3" d="M216.4,167.3c3.9,8.6,6,18,6.4,27.4c0.1,2.6,4.1,2.6,4,0c-0.4-10.2-2.7-20.2-6.9-29.5c-0.6-1-1.8-1.3-2.7-0.7 C216.2,165.1,215.8,166.3,216.4,167.3L216.4,167.3z"/> <path class="st3" d="M227.4,192.8c0.8,1.9,1.5,3.9,2,5.9c0.5,1.8,1.1,3.9,0.7,5.7c-0.5,1.8-1.4,3.4-2.6,4.8c-1.1,1.5-2.4,2.8-3.9,4 c-0.8,0.8-0.8,2,0,2.8l0,0c0.8,0.8,2,0.8,2.8,0c1.7-1.4,3.2-3,4.5-4.8c1.5-1.8,2.5-3.9,3.1-6.2c0.2-2.4,0-4.9-0.7-7.2 c-0.6-2.4-1.4-4.7-2.5-7c-0.6-1-1.8-1.3-2.7-0.7C227.2,190.7,226.9,191.9,227.4,192.8z"/> <path class="st3" d="M226.8,215.3c0,0.1,0,0.2,0.1,0.3l-0.1-0.5c0.1,0.5,0.1,1,0,1.5l0.1-0.5c-0.1,0.5-0.2,1-0.4,1.4l0.2-0.5 c-0.1,0.3-0.3,0.6-0.4,0.8c-0.3,0.5-0.3,1-0.2,1.6c0.1,0.5,0.5,0.9,0.9,1.2c1,0.6,2.2,0.2,2.7-0.7l0,0c0.3-0.4,0.5-0.9,0.7-1.4 c0.1-0.4,0.2-0.7,0.3-1.1c0.1-0.5,0.2-1,0.2-1.6c0-0.5-0.1-1.1-0.2-1.6c-0.1-0.5-0.5-0.9-0.9-1.2c-1-0.6-2.2-0.2-2.7,0.7l0,0 C226.8,214.2,226.7,214.8,226.8,215.3L226.8,215.3z"/> <path class="st3" d="M220.6,254.3c5.3-1.5,6.8-8.5,7.4-13.2c0.8-6,1.1-12.1-0.5-17.9c-0.7-2.5-4.5-1.4-3.9,1.1 c1.3,4.9,1.2,10,0.6,15c-0.2,2.2-0.7,4.4-1.4,6.6c-0.6,1.6-1.6,4.1-3.4,4.6C217.1,251.1,218.1,255,220.6,254.3L220.6,254.3z"/> <path class="st3" d="M224.1,250.8c-0.1,4,0.2,8,1,11.9c0.3,1.9,0.7,3.6,0.8,5.5c0.1,1.3,0.2,3-0.8,4.1c-1.6,1.9,1.2,4.5,2.8,2.6 c2.9-3.2,2-7.3,1.4-11.1c-0.7-4.3-1.5-8.7-1.3-13.1C228.3,248.4,224.3,248.4,224.1,250.8L224.1,250.8z"/> <path class="st4" d="M235.4,199.2c-0.4-2.5-1.3-4.9-2.5-7.2c-0.9-1.5-2.6-3.3-4.4-3.1c-0.6-9.7-3.2-19.1-7.9-27.6 c-4.7-9-11.1-17.4-19.4-23.4c-4-2.9-8.6-5.6-13.7-4.8c-4.6,0.6-8.1,4.5-8.2,9.2c-0.3,5.2,2.8,9.5,5.6,13.5c3.3,4.3,6.2,9,8.6,13.9 c5.2,11.4,4,24.1,0.7,35.7c0,0-0.1,0-0.1,0c-0.7-0.4-1.7-0.1-2.1,0.6c-0.1,0.1-0.1,0.2-0.1,0.3c-0.9,2.3-1,5-1.2,7.4 c-0.1,2.3-0.4,4.8,1,6.7c0.2,0.2,0.4,0.4,0.6,0.6c0,0.1-0.1,0.3-0.1,0.4c0,0.1,0,0.3,0,0.4c0,0-0.1,0.1-0.1,0.1 c-1.9,3-4,5.8-6.3,8.5c-2.2,2.5-4.9,4.4-8,5.8c-2.5,1.1-5.7,2.4-5.8,5.6c-0.1,3.4,3.2,5.4,6.2,5.9c3.1,0.4,6.2,0.1,9.1-0.8 c-0.3,1.5-0.6,3-0.8,4.5c-0.6,2.7-0.9,5.5-1,8.3c-0.1,4.7,0.5,10.2,3.4,14.1c1.2,1.7,3.1,3.4,5.3,3.6c1.4,0.1,2.3-0.4,3-1.3 c0.4,1.3,0.9,2.6,1.4,3.8c1.4,3.1,5,8,8.9,5.1c2-1.5,2.4-3.9,2.4-6.3c0.5,0.8,1.1,1.6,1.8,2.2c2.8,2.4,7.1,2.6,9.4-0.5 c1-1.3,1.3-2.7,1.4-4.2c0,0,0.1,0.1,0.1,0.1c2.1,1.4,4.8,1.3,6.8-0.2c4.4-3.7,1.8-11.2,0.9-15.9c-0.6-3.1-1-6.2-1.2-9.3 c-0.1-3.1,0.2-6.2,0.8-9.2c0.5-3.2,0.7-6.5,0.6-9.8c0-3.4-0.4-6.8-1.3-10.1c0-0.1-0.1-0.2-0.1-0.3c1.2-0.9,2.4-1.9,3.1-3.1 c1.1-1.9,0.8-4.1,0.5-6.2c-0.1-0.3-0.2-0.6-0.3-0.7c1.1-1.4,2-2.9,2.6-4.6C235.8,204.4,236,201.8,235.4,199.2z M225.6,191.3 c-0.2,0.3-0.4,0.6-0.6,0.9c-0.6,1-1.2,1.9-1.8,2.9c-1.4,0.7-3.1,0.9-4.7,0.4c-0.5-0.1-1-0.4-1.4-0.6c-3.4-2.1-4.7-6.8-5.4-10.4 c-0.8-4.2-0.5-8.5,0.8-12.6c0.6-1.8,1.4-3.8,2.9-5c1.4-1.2,3.4-1.1,4.7,0.2C223.5,174.7,225.6,182.9,225.6,191.3z M200.1,188.6 c3.4,0.8,7.1,0.5,10.4-0.7c0.3,0.9,0.5,1.7,0.9,2.5c0.6,1.5,1.4,2.9,2.4,4.1c-4.3,2.8-9.6,3.4-14.3,1.5 C199.7,193.5,200,191.1,200.1,188.6z M199.6,180.2c3.2,0.6,6.5,0.4,9.6-0.8c0,2.2,0.2,4.5,0.7,6.6c-3.2,1.2-6.6,1.4-9.9,0.6 C200.1,184.4,199.9,182.3,199.6,180.2z M193,162.4c-2.6-4.3-5.8-8.2-8.4-12.5c-2.1-3.5-3.8-9-0.3-12.2s9.1-1.4,12.6,0.9 c8.2,5.1,14.5,12.8,19.3,21c0.9,1.5,1.7,2.9,2.4,4.5c-2.1-0.3-4.4,0.7-5.7,2.3c-2.4,2.8-3.2,7-3.5,10.7c0,0,0,0-0.1,0 c-3.2,1.4-6.7,1.7-10,0.8c-0.1-0.6-0.2-1.1-0.4-1.6C197.7,171.4,195.7,166.7,193,162.4z M199,197.9c5.3,1.9,11.3,1.2,16-1.9 c0,0,0.1-0.1,0.1-0.1c1.1,0.9,2.3,1.5,3.8,1.7c0.9,0.2,1.8,0.1,2.7,0c-2.5,3.6-5.8,6.6-9.6,8.7c-2.7,1.4-5.7,2.1-8.8,2 c-2.2-0.1-4.3-0.7-6.3-1.6C197.8,203.8,198.5,200.9,199,197.9z M223.1,217.1c0,0.6,0.1,1.2,0.1,1.8c0,1.1,0.2,2.3-0.6,3 c-0.9,0.6-1.9,1.1-2.9,1.4c-1,0.4-2,0.8-3,1.2c-2,0.7-4.1,1.3-6.2,1.8c-1.1,0.2-2.1,0.4-3.2,0.6c-0.8,0.1-1,0-1-0.7 c0-0.4,0-0.9,0-1.3c0.1-4.6,0.2-9.3,0.4-13.9c0.2,0,0.5,0,0.7-0.1c4.7-0.9,9-3.2,12.4-6.6c0.2-0.2,0.3-0.4,0.5-0.5 c1.1,3.9,2.1,7.8,2.7,11.8c0,0.2,0,0.4,0.1,0.6C222.9,216.5,223,216.9,223.1,217.1z M195,222.9c0.4,0.2,0.9,0.4,1.3,0.6 c2.4,0.9,4.8,1.7,7.3,2.3c0.2,0,0.4,0.1,0.6,0c0,0.9,0.2,1.7,0.7,2.4c-1.2,0.1-2.3,0.2-3.5,0c-1.8-0.2-3.5-0.8-5-1.9 C195.3,225.5,195,224.3,195,222.9z M193.9,213.4c0-1.6,0.2-3.1,0.5-4.7c1.8,0.8,3.6,1.4,5.5,2c1.5,0.4,3.1,0.5,4.6,0.5 c-0.2,3.9-0.2,7.7-0.3,11.6c-1.8-0.5-3.5-1-5.3-1.6c-1.5-0.5-3.3-1.1-4.4-2.3C193.4,217.6,193.8,215,193.9,213.4z M177.3,244.5 c-1.3-0.5-3-1.9-1.9-3.4c0.8-1.1,2.6-1.6,3.8-2.1c3.3-1.4,6.2-3.5,8.6-6.2c1.8-2.1,3.4-4.3,5-6.5c0,0.1,0.1,0.2,0.1,0.2 c0.1,0.3,0.3,0.5,0.5,0.8c-0.5,2.6-1.2,5.2-2.1,7.7c-0.9,2.6-2.1,5.1-2.9,7.8c-0.1,0.2-0.1,0.4-0.2,0.6 C185,244.8,180.7,245.6,177.3,244.5z M206,274.2c0.3,2,0.4,4,0.3,6c-0.2,1.2-0.8,3-2.3,2.4c-1.5-0.6-2.6-2.8-3.3-4.3 c-1.3-3.2-2.3-6.7-2.7-10.2c-0.1-1.5-0.2-2.9-0.2-4.4c0-2.8,0.1-5.6,0.5-8.4c1.2,1.4,2.6,2.5,4.2,3.3c1.1,0.5,2.4,0.8,3.6,0.8 c0.3,0,0.6,0,0.9-0.1c-0.8,3-1.2,6-1.3,9.1C205.7,270.3,205.8,272.3,206,274.2z M217.2,279.5c-1.7,0.7-3.6-0.4-4.7-1.8 c-1.1-1.7-1.9-3.7-2.2-5.8c-0.6-3.3-0.8-6.7-0.4-10.1c0.2-0.9,0.4-1.8,0.7-2.7c0,0,0,0,0,0c0.5,0.2,1,0.3,1.6,0.4 c1.2,0.1,2.4-0.1,3.4-0.6c0.6-0.3,1.3-0.7,1.8-1.2c-0.1,3.2,0.1,6.4,0.5,9.5c0.3,2.4,0.9,4.7,1.2,7 C219.3,276,219.2,278.7,217.2,279.5z M220.3,251.1c-0.8,0-1.3-0.2-2,0.4c-0.5,0.5-0.9,1.1-1.2,1.8c-0.4,0.7-0.9,1.3-1.4,1.9 c-1,1.1-2.6,1.5-4,1.1c-0.7-0.3-1.2-0.9-2-0.9c-0.7,0.1-1.5,0.4-2.1,0.7c-3.2,1-6.2-1.3-7.9-3.9c-0.4-0.6-1-0.9-1.7-0.7 c-1.5,0.5-3.2-0.3-3.8-1.8c-0.6-1.7-3.5-0.9-2.8,0.9c0.6,1.8,2,3.1,3.6,3.7c-0.6,4.5-0.8,9.1-0.6,13.6c0,1.2,0.1,2.4,0.1,3.6 c0,0.6,0.4,2.5-0.4,2.7s-1.6-0.6-2-1c-0.8-0.7-1.4-1.5-1.9-2.4c-2.1-3.7-2.4-8.6-2.1-12.8c0.2-2.5,0.6-5,1.1-7.5 c0.3-1.6,0.6-3.2,1-4.8c0.4-0.3,0.4-0.8,0.3-1.2c0.1-0.5,0.3-1,0.5-1.5c0.8-2.6,2-5.1,2.9-7.7c0.7-1.9,1.2-3.9,1.7-5.9 c0.3,0.2,0.6,0.4,0.9,0.5c3.6,1.8,7.3,1.7,11.1,0.9c6.6-1.3,13.2-3.6,18.9-7.4c1.1,4.7,1.4,9.7,0.8,14.5c-0.1,1.2-0.3,2.5-0.6,3.7 c-0.7,3-1.9,6.4-4.2,8.6C221.9,250.8,221.1,251.1,220.3,251.1z M226,274.3c-1.7,0.2-3.2-1.2-4-2.7c-0.2-1.1-0.4-2.1-0.6-3.1 c-0.7-4.7-0.9-9.6-0.4-14.4c0.1,0,0.1,0,0.2,0c0.7-0.1,1.4-0.4,2.1-0.8c1-0.7,1.9-1.5,2.6-2.5c0,0.9,0.1,1.8,0.2,2.7 c0.3,2.7,0.7,5.3,1.2,7.9c0.6,2.5,1.1,5.1,1.3,7.8C228.6,271,228.4,274.1,226,274.3z M229.9,216.1c-0.3,1-1,1.8-1.8,2.4 c-0.9,0.8-1.9,1.6-2.9,2.3c0.1-0.9,0.1-1.9,0-2.8c0.1-0.1,0.2-0.1,0.4-0.2c1.5-1.1,3-2.4,4.4-3.7C230.1,214.7,230,215.4,229.9,216.1 z M232.6,204c-0.7,4.5-4.3,7.8-7.8,10.5c-0.7-4.2-1.7-8.4-2.9-12.5c0.8-0.9,1.6-1.9,2.2-2.9c1.5-2.1,2.7-4.5,4.3-6.6 c0.1-0.1,0.3-0.5,0.5-0.6c0,0,0.1,0.1,0.3,0.1c0.4,0.3,0.7,0.6,0.9,1.1c0.6,1,1.1,2,1.4,3.1C232.5,198.8,232.9,201.4,232.6,204z"/> <path class="st3" d="M206.8,213v8v2c-0.1,0.6-0.1,1.2,0,1.8c0.3,1.1,1.4,1,2.2,0.6s0.1-1.7-0.8-1.3c-0.3,0.1-0.2,0-0.1,0.2 c0.2,0.4,0.1-0.5,0.1-0.6v-4.5V213c0-0.4-0.3-0.8-0.8-0.8S206.8,212.6,206.8,213L206.8,213z"/> <path class="st3" d="M218.9,208.4l1-0.5l-1.1-0.6c0.1,2.7-0.3,5.5-1,8.1c-0.6,2.6-1.4,5.2-2.2,7.8c-0.3,0.9,1.1,1.3,1.4,0.4 c0.9-2.6,1.7-5.4,2.3-8.1c0.7-2.7,1.1-5.4,1-8.2c0-0.4-0.4-0.8-0.8-0.7c-0.1,0-0.2,0-0.4,0.1l-1,0.5 C217.2,207.5,218,208.8,218.9,208.4L218.9,208.4z"/> <path class="st3" d="M221,221.9c0.5-1.6,0.9-3.2,1.2-4.8c0.1-0.4-0.1-0.8-0.5-0.9c-0.4-0.1-0.8,0.1-0.9,0.5 c-0.3,1.6-0.7,3.2-1.2,4.8c-0.1,0.4,0.1,0.8,0.5,0.9C220.5,222.5,220.9,222.3,221,221.9z"/> <path class="st6" d="M130.1,55.8c0.3,2.1,0.3,4.1,0.2,6.2c-0.6,5.5-4.3,10-7.1,14.8l-0.8-0.5c-0.6-0.8-1-1.8-1-2.8 c-0.4-3.9,0-7.9,1.3-11.7c1.3-3.6,3.4-6.9,6.3-9.4l0.2-0.2h0.5C129.9,53.4,130,54.6,130.1,55.8z"/> <path class="st7" d="M155.9,37.9c-2.1,0.8-4.3,1.4-6.5,1.9c-6.4,1.2-13,1.1-19.3-0.5l-0.1,0.3c-0.5,4.1-0.6,8.3-0.2,12.4h-0.5 l-0.2,0.2l-0.2-0.3c-0.5-2-1.1-4-1.8-5.9c-1.6,0.7-3.1,1.6-4.4,2.8c-0.1-1.1,0-2.2,0.4-3.2c1-3.7,2-7.5,3.1-11.2l-2.4-0.7 c0.8-0.4,1.6-0.7,2.4-0.9h0.1c29.1-7.6,60.1-1.8,84.5,15.7l-0.4,0.6c-2.8,2.6-5.1,5.6-6.8,9l-0.3-0.2c-2.7-0.3-5.3,0.7-7.2,2.6 c1.4-4,3.5-8,7.1-10.2c-3.2,0.2-6.4-0.8-9.6-1.2c-3.7-0.5-7.4-0.3-11,0.6l0,0c2.5-3,5.7-5.4,9.2-7c-4.8,0.5-9.5-1-14.3-1.8 c-2.6-0.4-5.2-0.7-7.8-0.8c-2.2-0.2-4.4-0.1-6.6,0.1c-2.4,0.4-4.7,0.9-7,1.6l-4.3,1.2c1.4-1.6,2.8-3.8,4.2-5.3L155.9,37.9z"/> <path class="st6" d="M196,60.7c1.8-2,4.5-2.9,7.2-2.6l0.3,0.2c-0.5,0.9-0.9,1.8-1.3,2.7c-5.7,12.6-6.5,26.9-5.8,40.7 c-8,0.1-15.9,0.1-23.9-0.1c-6.2-0.2-12.4-0.5-18.6-1.2c-9.9-1-19.7-3-29.1-6.1c-2.6-0.8-5.1-1.8-7.6-2.9l0.4-1 c1.2-4.7,3.1-9.2,5.5-13.4l0.1-0.2c2.8-4.8,6.5-9.3,7.1-14.8c0.2-2.1,0.1-4.2-0.2-6.2c-0.1-1.2-0.2-2.4-0.3-3.6 c-0.4-4.1-0.4-8.3,0.2-12.4l0.1-0.3c6.3,1.5,12.9,1.7,19.3,0.5c2.2-0.5,4.4-1.2,6.5-1.9l0,0c-1.5,1.5-2.9,3.7-4.2,5.3l4.3-1.2 c2.3-0.7,4.6-1.3,7-1.6c2.2-0.2,4.4-0.3,6.6-0.1c2.6,0.1,5.2,0.4,7.8,0.8c4.8,0.8,9.5,2.2,14.3,1.8c-3.5,1.6-6.7,4-9.2,7l0,0 c3.6-0.8,7.4-1,11-0.5c3.2,0.4,6.4,1.3,9.6,1.2C199.4,52.7,197.4,56.7,196,60.7z"/> <path class="st8" d="M122.4,76.2l0.8,0.5l-0.1,0.2c-2.5,4.2-4.3,8.7-5.5,13.4l-0.4,1c-1.4-0.6-2.8-1.2-4.2-1.9 c-0.4-0.2-0.8-0.4-1.2-0.6c-0.4-0.2-0.7-0.5-0.9-0.9c-0.4-0.6-0.6-1.3-0.6-2.1c-2.1-16.9,1.5-34.1,10.3-48.7c0.6-1.1,1.4-2,2.3-2.8 c0.2-0.2,0.5-0.3,0.8-0.5l2.4,0.7c-1,3.8-2,7.5-3.1,11.2c-0.4,1-0.5,2.1-0.4,3.2c1.3-1.1,2.8-2.1,4.4-2.8c0.7,1.9,1.3,3.9,1.8,5.9 l0.2,0.3c-2.9,2.5-5.1,5.8-6.3,9.4c-1.3,3.7-1.7,7.7-1.2,11.6C121.4,74.5,121.8,75.5,122.4,76.2z"/> <path class="st2" d="M122.5,133.6c-6.6-6.8-14.3-21.9-14-34.7c0.1-4.3-0.8-8,3.1-9.9l0.1-0.2c0.4,0.2,0.8,0.4,1.2,0.6 c1.4,0.7,2.8,1.3,4.2,1.9c2.5,1.1,5,2,7.6,2.9l-0.2,0.6c-1.1,4.8-1.8,9.7-2.2,14.7c-0.1,0.5,0.1,1.1,0.5,1.4l2.6,2.9 c0.2,0.2,0.4,0.5,0.5,0.8c0,0.2,0,0.5-0.1,0.7c-1.8,5.9-2.6,12-2.5,18.2L122.5,133.6z"/> <path class="st2" d="M172.4,101.5v0.7c-0.6,6.4-0.9,12.8-0.9,19.2l-6,2.6c-0.4,0.1-0.7,0.3-1,0.6c-0.2,0.3-0.3,0.7-0.3,1.1 c-0.7,7.3-1.5,14.7-2.2,22.1v0.7c-8.7-0.6-17.2-2.5-25.4-5.7c-4.8-1.8-9.1-4.5-12.9-8c-0.4-0.4-0.8-0.8-1.3-1.2h0.7 c-0.1-6.2,0.7-12.3,2.5-18.2c0.1-0.2,0.1-0.5,0.1-0.7c-0.1-0.3-0.2-0.6-0.5-0.8l-2.6-2.9c-0.4-0.4-0.6-0.9-0.5-1.4 c0.4-5,1.1-9.9,2.2-14.7l0.2-0.6c9.5,3.1,19.2,5.1,29.1,6.1C160,101,166.2,101.3,172.4,101.5z"/> <path class="st2" d="M231.7,56.4c1.1-0.9,2.6-0.9,3.8-0.2l0.3-0.1l0,0c2.5,4.8,0.9,17.5,0.1,22.5c-2.1,12.4-6.1,25.1-14.8,34.3 c-0.6,0.8-1.5,1.4-2.4,1.7c-0.1,0-0.3,0.1-0.4,0.1v-0.1c-0.8-1.2-1.1-5.2-1.1-9.7c0-9.4,0.2-13.6,2.2-22.8 C221,74.2,227,60.1,231.7,56.4z"/> <path class="st2" d="M234.7,54.8L234.7,54.8c0.4,0.4,0.8,0.8,1,1.3l-0.3,0.1c-1.2-0.8-2.7-0.7-3.8,0.2c-4.7,3.7-10.8,17.8-12.4,25.6 c-2,9.2-2.2,13.4-2.2,22.8c0,4.5,0.3,8.5,1.1,9.7v0.1c-0.8,0.1-1.6,0-2.4-0.2c-0.7-0.2-1.5-0.3-2.2-0.5c-1.6-0.4-3.3-0.9-4.9-1.5 c-1-0.3-2-0.8-2.8-1.5c-1.3-1.5-2.1-3.4-2.3-5.3c-1.2-9.7-0.5-19.6,1.9-29.1c2.4-9.7,7.4-18.8,15-25.2c0.9-1,2.4-1.3,3.7-0.8 c3.5,1,6.9,2.3,10.1,4L234.7,54.8z"/> <path class="st2" d="M225.4,25.7c-6.1-8.3-14.3-14.9-23.7-18.9c-13.7-6.1-29.3-6.9-43.6-2.3c-14.2,4.7-25.8,15-32.1,28.5h0.1 c29.1-7.6,60.1-1.8,84.5,15.7l-0.4,0.6c-2.8,2.6-5.1,5.6-6.8,9c-0.5,0.9-0.9,1.8-1.3,2.7c-5.7,12.6-6.5,26.9-5.8,40.7 c-8,0.1-15.9,0.1-23.9-0.1v0.7c-0.6,6.4-0.9,12.8-0.9,19.2l-6,2.6c-0.4,0.1-0.7,0.3-1,0.6c-0.2,0.3-0.3,0.7-0.3,1.1 c-0.7,7.3-1.5,14.7-2.2,22.1v0.7c1.9,0.1,3.7,0.2,5.6,0.1c10.6-0.2,19.5-2.5,28.1-8.6s16.4-15.3,17.9-25.7l0.1-0.3 c-1.6-0.4-3.3-0.9-4.9-1.5c-1-0.3-2-0.8-2.8-1.5c-1.3-1.5-2.1-3.4-2.3-5.3c-1.2-9.7-0.6-19.5,1.8-29c2.4-9.7,7.4-18.8,15-25.2 c0.9-1,2.4-1.3,3.7-0.8c3.5,1,6.9,2.3,10.1,4v-0.1C234.5,44.2,231.4,34.1,225.4,25.7z"/> <path class="st3" d="M186.8,4.4c18.5,4.3,35.9,16.3,41.3,35.3c0.7,2.5,1.2,5,1.4,7.5c0.2,2.4-0.2,5.3,1.7,7.2 c1.4,1.3,3.5-0.8,2.1-2.1c-0.8-0.8-0.6-2-0.7-3c0-1.2-0.1-2.4-0.3-3.6c-0.3-2.3-0.8-4.7-1.4-6.9c-1.4-4.6-3.4-9-6.1-13 c-5.5-8-13-14.5-21.8-18.7c-4.9-2.4-10.1-4.3-15.5-5.5C185.7,1.1,184.9,4,186.8,4.4L186.8,4.4z"/> <path class="st3" d="M219.6,114c10.3-12.4,16.3-27.9,16.9-44c0.1-2.2,0.1-4.5-0.1-6.7c0-2.4-0.4-4.7-1.1-7c-0.7-1.8-3.6-1-2.9,0.8 c1.3,3.5,1.2,7.8,1.1,11.5c-0.1,3.8-0.4,7.5-1.1,11.2c-1.4,7.5-4,14.8-7.7,21.5c-2.1,3.8-4.5,7.3-7.3,10.6 C216.3,113.4,218.4,115.5,219.6,114L219.6,114z"/> <path class="st3" d="M205.8,76.2c0,0.9,0.4,1.7,1.1,2.2c0.7,0.5,1.5,0.9,2.4,1.2c2.8,0.9,5.6,1.7,8.4,2.2c0.1,0,0.3,0.1,0.4,0.2 c0,0.1,0,0.2,0,0.3c-0.2,0.6-0.4,1.2-0.7,1.8c-1.9-0.9-3.8-1.6-5.8-2.1c-1.2-0.4-2.5-0.5-3.8-0.3s-3.4,0.9-3.9,2.1 c0.2-2,1.3-4,1.6-5.9"/> <path class="st3" d="M204.3,76.2c0,3,2.8,4.3,5.2,5.1c1.3,0.4,2.6,0.8,3.9,1.1c0.7,0.2,1.3,0.3,2,0.5l1.1,0.2l0.5,0.1 c0.4,0.1,0.4,0.1,0-0.1l-0.4-1.1c0.1-0.2,0.1-0.1,0,0.2s-0.1,0.3-0.2,0.5s-0.2,0.5-0.3,0.8l2-0.5c-2.8-1.5-5.9-2.4-9-2.7 c-2.2-0.1-5.5,0.8-6.6,2.9l2.8,0.8c0.2-1.9,1.2-3.6,1.5-5.5c0.2-0.8-0.2-1.6-1-1.8c-0.8-0.2-1.6,0.2-1.9,1c-0.4,2.2-1.4,4.1-1.6,6.3 c-0.2,1.5,2.1,2,2.8,0.8c0.2-0.3,0.4-0.5,0.6-0.6c0.3-0.2,0.7-0.3,1-0.5c0.9-0.3,1.9-0.4,2.9-0.3c2.4,0.3,4.8,1.1,6.9,2.2 c0.7,0.4,1.6,0.2,2.1-0.5c0.6-1.3,1.7-3.4,0-4.3c-0.7-0.3-1.4-0.4-2.2-0.5c-0.8-0.2-1.6-0.3-2.4-0.5c-1.5-0.4-3-0.8-4.4-1.3 c-0.9-0.3-2.4-0.8-2.4-2c0-0.8-0.7-1.5-1.5-1.5S204.3,75.3,204.3,76.2L204.3,76.2z"/> <path class="st3" d="M203.1,89.1c0,1,0.5,1.9,1.3,2.4s1.7,0.8,2.6,1c3.1,0.8,6.2,1.2,9.4,1.2c0.1,0,0.3,0,0.3,0.1s0,0.1,0,0.2 l-0.5,7.7c-2.1-1.1-4.6-1.5-6.9-1.1c-2.3,0.5-5.6,2.5-5.7,4.8c-1-4.5-0.1-9.1,0.3-13.6"/> <path class="st3" d="M201.6,89.1c-0.2,3.2,3.1,4.4,5.7,5c1.5,0.3,3,0.6,4.6,0.8s3.1,0.2,4.6,0.3l-0.8-0.2l0.1,0.1l-0.7-1.3 c0,1.3,0,2.6-0.2,3.9l-0.3,4l2.3-1.3c-3-1.4-6.4-2.1-9.6-0.8c-2.5,1-5.1,2.9-5.4,5.8l2.9-0.4c-0.9-4.4-0.1-8.9,0.3-13.2 c0-0.8-0.7-1.5-1.5-1.5s-1.5,0.7-1.5,1.5c-0.4,4.7-1.2,9.3-0.2,14c0.2,0.7,0.9,1.2,1.6,1.1c0.7-0.1,1.3-0.7,1.3-1.5 c0.1-1.4,2.3-2.6,3.6-3.1c2.3-0.7,4.7-0.5,6.9,0.7c0.7,0.4,1.7,0.1,2.1-0.6c0.1-0.2,0.2-0.4,0.2-0.7l0.4-6.4c0.1-1,0.3-2.2-0.7-2.8 c-0.8-0.5-2.1-0.3-3.1-0.3c-2-0.1-4-0.4-6-0.9c-1.1-0.2-3.8-0.5-3.7-2.1C204.7,87.2,201.7,87.2,201.6,89.1L201.6,89.1z"/> <path class="st3" d="M219.3,113.7c11.2-11.4,14.7-27.7,16.2-43.1c0.6-4.6,0.4-9.3-0.6-13.9c-0.3-0.8-1.2-1.2-1.9-0.9s-1.1,1-1,1.7 c1.3,4.9,0.9,10,0.3,15c-0.5,5-1.4,10-2.6,14.9c-2.2,8.9-6.1,17.6-12.6,24.2C215.8,113,218,115.1,219.3,113.7L219.3,113.7z"/> <path class="st3" d="M218,91.5l0.2-0.4c0.9,0.4,2,0.4,2.9-0.1c0.9-0.4,1.7-1,2.4-1.7c3.6-3.4,6.5-7.6,9.2-11.7c1-1.5,2-3,2.9-4.5 c-0.1,2.3-0.3,4.7-0.6,7c-0.1,0.7-0.2,1.4-0.5,2s-0.7,1.1-1.1,1.6c-2.8,3.3-5.9,6.3-8.8,9.6c-2.9,3.2-5.3,6.9-6.9,10.9 c-0.6-4.1-0.2-8.2,1-12.1"/> <path class="st3" d="M219.3,92.2l0.2-0.4l-1.7,0.7c4.5,1.7,8.5-3.7,10.9-6.7c2.9-3.9,5.7-7.9,8.2-12l-2.8-0.8c0,1.6-0.1,3.1-0.3,4.7 s-0.1,3.2-1.1,4.4c-2,2.4-4.1,4.7-6.3,6.9c-4.1,4.4-7.9,9-10.1,14.6h2.9c-0.5-3.8-0.2-7.7,1-11.3c0.6-1.8-2.3-2.6-2.9-0.8 c-1.3,4.2-1.6,8.6-1,12.9c0.2,1.6,2.4,1.2,2.9,0c2.2-5.9,6.6-10.5,10.9-15c1.1-1.1,2.1-2.2,3.1-3.4c1-1,1.9-2.2,2.6-3.4 c0.5-1.4,0.8-2.9,0.9-4.4c0.2-1.7,0.3-3.4,0.3-5.1c0-0.8-0.7-1.5-1.6-1.5c-0.5,0-1,0.3-1.2,0.7c-2.2,3.5-4.4,7-6.9,10.3 c-1.2,1.5-2.4,3-3.7,4.4c-1.3,1.3-3,3.4-5.1,2.6c-0.7-0.2-1.3,0.1-1.7,0.7l-0.2,0.4C215.8,92.3,218.3,93.8,219.3,92.2L219.3,92.2z"/> <path class="st3" d="M163.6,149.9c8.3-0.7,16.3-2.8,23.8-6.4c7.7-3.5,14.6-8.7,19.2-15.9c2.6-4.1,4.6-8.5,5.9-13.2 c0.6-1.8-2.3-2.6-2.9-0.8c-2.4,7.7-6.2,14.9-12.4,20.3c-5.7,4.9-12.8,8.1-19.9,10.4c-4.4,1.4-9,2.3-13.7,2.7 C161.7,147,161.7,150,163.6,149.9L163.6,149.9z"/> <path class="st4" d="M203.1,56.5c-1.4-0.1-2.7,0-3.9,0.4c1.1-2.1,2.6-3.9,4.6-5.2c0.7-0.4,0.9-1.4,0.5-2.1c-0.3-0.4-0.7-0.7-1.2-0.7 c-3.6,0.1-7-0.9-10.6-1.3c-1.8-0.2-3.7-0.1-5.5,0c1.7-1.4,3.5-2.6,5.5-3.5c0.7-0.4,0.9-1.4,0.5-2.1c-0.3-0.4-0.7-0.7-1.3-0.7 c-3.4,0.1-6.7-0.2-10-1c-3.4-0.7-6.8-1.2-10.2-1.5c-3.3-0.4-6.6-0.3-9.9,0.1c-2,0.4-3.9,0.9-5.9,1.4c0.3-0.4,0.6-0.8,1-1.2 c2-0.7,4.1-1.3,6.3-1.3c1.9-0.1,1.9-3.1,0-3c-5.7,0.2-10.8,3.1-16.4,3.9c-4.7,0.6-9.4,0.5-13.9-0.4c0.8-0.4,1.7-0.8,2.5-1.1 c1.9-0.6,1.1-3.5-0.7-2.8c-2.3,0.9-4.5,2-6.5,3.3c-0.7,0.4-0.9,1.4-0.5,2.1c0.2,0.3,0.5,0.5,0.8,0.6c0,0,0.1,0,0.1,0 c-0.2,1.6-0.3,3.2-0.3,4.8c-0.4-0.4-1-0.6-1.6-0.4c-0.1,0-0.2,0.1-0.3,0.1c-0.6,0.3-1.2,0.6-1.8,0.9c0.1-0.2,0.1-0.4,0.2-0.5l1-3.6 l1.9-7.1c0.2-0.8-0.3-1.6-1.1-1.8c-0.8-0.2-1.6,0.3-1.8,1l-2.1,7.8c-0.7,2.5-1.8,5.2-1.3,7.8c0.2,1.2,1.7,1.3,2.5,0.7 c0.7-0.6,1.6-1.1,2.4-1.6c0.4,1.2,0.8,2.4,1.1,3.7c-3.1,3-5.3,6.7-6.4,10.8c-0.7,2.5-1,5-1,7.5c0,2.3,0,4.7,1.4,6.7 c-0.1,0.2-0.2,0.3-0.3,0.5c-2.1,3.9-3.7,8-4.8,12.3c-0.5,1.9,2.4,2.7,2.9,0.8c1.1-4.3,2.8-8.5,5-12.4c2-3.6,4.6-6.9,6.2-10.7 c0.8-1.8,1.4-3.8,1.6-5.8c0.2-2.4,0.1-4.8-0.3-7.2c-0.6-4.6-0.7-9.1-0.2-13.6c4.9,1,9.9,1.3,14.8,0.7c1.9-0.2,3.8-0.6,5.6-1.1 c-0.4,0.5-0.7,1-1.1,1.5c-0.9,1.1-0.1,3,1.5,2.5c3.2-1.1,6.5-1.9,9.9-2.7c3.3-0.5,6.7-0.5,10-0.1c4.8,0.4,9.6,1.8,14.4,2.3 c-1.7,1.2-3.2,2.6-4.6,4.2c-1.8,0.7-1,3.5,0.9,3.1c3.3-0.8,6.8-1,10.2-0.7c2.1,0.2,4.2,0.7,6.3,1c-2.2,2.4-3.7,5.4-4.7,8.5 c-0.2,0.8,0.3,1.6,1.1,1.8c0.5,0.1,1,0,1.4-0.4c1.6-1.6,3.8-2.4,6.1-2.2C205,59.7,205,56.7,203.1,56.5z M128.8,61 c-0.1,2.1-0.7,4.1-1.6,6c-1.2,2.5-2.8,4.8-4.2,7.1c-0.2-0.6-0.2-1.3-0.2-1.9c-0.1-1-0.1-2,0-3.1c0.1-2.1,0.5-4.2,1.1-6.2 c0.9-2.9,2.5-5.7,4.6-7.9C128.8,57,128.9,59,128.8,61z"/> <path class="st4" d="M164.5,87.4c-0.1-0.3-0.4-0.5-0.7-0.6c-0.4,0-0.9,0.2-1.1,0.6c-0.8,0.9-1.7,1.6-2.7,2.3c-0.9,0.5-2,0.7-3,0.7 c-3.6,0-6.9-1.6-9-4.5c-0.1-0.2-0.3-0.4-0.5-0.6s-0.5-0.2-0.7-0.1s-0.3,0.4-0.2,0.6v0.1c2,3,4.3,5.1,7.7,6.1 c1.6,0.5,3.2,0.6,4.8,0.3c1.6-0.3,3.1-1.1,4.1-2.4C163.6,89.3,164.7,87.8,164.5,87.4z"/> <path class="st4" d="M165.1,87.1c-0.3-0.6-0.9-0.9-1.6-0.9c-0.9,0.1-1.5,0.8-2,1.4c-0.6,0.7-1.3,1.2-2.1,1.6c-1,0.4-2,0.5-3,0.4 c-1.8-0.1-3.6-0.6-5.1-1.6c-0.7-0.4-1.3-0.9-1.9-1.5c-0.6-0.6-1-1.4-1.6-1.8c-0.6-0.4-1.3-0.3-1.8,0.2c-0.6,0.6-0.2,1.3,0.2,1.9 c0.8,1.3,1.9,2.4,3,3.4c2.6,2.3,6.1,3.3,9.5,3c1.9-0.2,3.6-1.1,4.8-2.5c0.5-0.7,1.6-1.9,1.6-2.9C165.2,87.6,165.3,87.3,165.1,87.1z M163.5,88.1c-0.1,0.1-0.2,0.4-0.4,0.6c-0.3,0.4-0.6,0.9-0.9,1.2c-1,1-2.3,1.6-3.8,1.8c-2.6,0.2-5.1-0.5-7.2-1.9 c1.3,0.7,2.7,1.2,4.1,1.4c1.6,0.3,3.1,0.1,4.6-0.5c0.7-0.3,1.3-0.7,1.8-1.2c0.2-0.2,1.5-1.6,1.9-1.5C163.6,88,163.5,88.1,163.5,88.1 z"/> <path class="st4" d="M161.2,67.6c-2.4-0.6-5-0.4-7.3,0.7c-1.7,0.6-3,1.9-3.6,3.6c-1.1,3.7,0.9,7.6,4.6,8.8c1.5,0.5,3.1,0.4,4.6-0.2 c0.5-0.1,0.8-0.7,0.7-1.2s-0.7-0.8-1.2-0.7c-1.8,0.6-3.7,0.3-5.2-0.8c-0.4-0.3-0.7-0.7-0.9-1.1c-0.1-0.1-0.2-0.3-0.2-0.5 c0-0.1,0-0.1-0.1-0.2s0.1,0.2,0,0s-0.1-0.2-0.1-0.4c-0.1-0.4-0.3-0.9-0.3-1.4c0-0.2,0-0.5,0-0.7s0-0.4,0-0.7c0.2-1.1,1-2.1,2.1-2.6 c2-1.1,4.3-1.4,6.5-0.8C161.9,69.9,162.4,68,161.2,67.6L161.2,67.6z"/> <path class="st4" d="M156,51.4c-0.3-0.3-0.7-0.5-1.1-0.7c-2-1-4.2-1.5-6.4-1.5c-0.8,0-1.6,0-2.3,0.2c-2.2,0.6-4.2,1.8-5.6,3.6 c-0.3,0.3-0.5,0.7-0.5,1.1l0.1,0.2c1.3-1.3,3-2.2,4.8-2.5c2.9-0.5,5.8,0.5,8.4,1.5c0.6,0.3,1.2,0.4,1.8,0.4s1.2-0.5,1.3-1.1 C156.6,52.2,156.4,51.7,156,51.4z"/> <path class="st4" d="M156.8,50.7c-1.5-1.2-3.3-1.9-5.2-2.2c-1.9-0.4-3.9-0.4-5.8,0c-1.7,0.4-3.2,1.3-4.4,2.4c-1,0.9-2.8,2.4-1.9,3.9 c0.3,0.5,0.9,0.6,1.4,0.4c0.1,0,0.2-0.1,0.2-0.2c1.2-1.2,2.7-2,4.4-2.3c2-0.2,4.1,0.1,6,0.8c1.5,0.5,3.3,1.7,5,0.9 C158.2,53.6,158,51.9,156.8,50.7z M154.8,52.7c-0.7-0.2-1.5-0.5-2.2-0.8c-1.6-0.6-3.2-1-4.9-1.2c-0.9-0.1-1.8,0-2.7,0.1 c0.6-0.3,1.3-0.5,2-0.6c1.4-0.2,2.9-0.1,4.3,0.2c1.5,0.2,2.8,0.8,4,1.5c0,0.1,0.1,0.1,0.1,0.2C156,52.6,155.4,52.8,154.8,52.7z"/> <path class="st4" d="M190.9,59.4c-1.7-2.1-3.9-3.8-6.4-4.8s-5.4-1-7.9-0.2c-1.1,0.3-2,1.1-2.5,2.1c-0.1,0.2-0.1,0.4-0.1,0.6 c0.1,0.3,0.4,0.5,0.7,0.5s0.6,0,0.9-0.1c0.8-0.3,1.5-0.6,2.2-1c2-0.8,4.2-1,6.3-0.5c3.2,0.7,6,3.5,6.8,4.5 C191.4,61.3,191.1,59.7,190.9,59.4z"/> <path class="st4" d="M191.8,59.1c0-0.1-0.1-0.3-0.2-0.4c-2.1-2.7-5-4.6-8.3-5.5c-1.7-0.4-3.5-0.5-5.3-0.2c-1.6,0.2-3.1,0.9-4.3,2.1 c-1,1.1-1.2,3.1,0.6,3.5c1.8,0.4,3.4-1.2,5-1.6c3.3-0.7,6.7,0.2,9.1,2.5c0.5,0.4,1,0.9,1.4,1.3c0.4,0.4,0.7,0.9,1.3,0.9 C192.5,61.7,192.2,60,191.8,59.1z M176.8,55.7c-0.3,0.2-0.6,0.3-1,0.5c-0.3,0.1-0.6,0.2-0.9,0.3h0l0-0.1c0.2-0.2,0.4-0.5,0.6-0.6 c1.4-1,3.3-1.2,5.1-1.1c0,0-0.1,0-0.1,0C179.2,54.8,177.9,55.1,176.8,55.7z"/> <ellipse transform="matrix(0.9732 -0.2298 0.2298 0.9732 -10.4624 35.5427)" class="st4" cx="147.4" cy="62.7" rx="5.9" ry="5.9"/> <circle class="st4" cx="179.8" cy="68.6" r="6"/> <path class="st9" d="M179.6,18.3c-0.3-0.3-0.6-0.5-1-0.8h0.1c1.7-0.5,3.7-2,3.2-3.7c-0.2-0.7-0.6-1.2-1.2-1.6 c0.2-0.6,0.4-1.2,0.6-1.7l0.1-0.1l0.1-0.2c0-0.1,0-0.4-0.2-0.6c-0.1-0.2-0.3-0.3-0.4-0.4c-0.2-0.1-0.4-0.1-0.6,0 c-0.3,0.1-0.5,0.3-0.6,0.5c0,0.1-0.1,0.1-0.1,0.2l-0.1,0.1c-0.2,0.5-0.4,0.9-0.6,1.4l-0.7-0.3c-0.2-0.1-0.5-0.1-0.7-0.2v-0.2 c0.1-0.3,0.2-0.5,0.3-0.8l0.1-0.1c0.1-0.1,0.2-0.3,0.3-0.5c0.1-0.3,0.1-0.6,0-0.8c-0.3-0.4-0.8-0.5-1.2-0.3c0,0,0,0-0.1,0 c-0.2,0.1-0.4,0.4-0.5,0.6c0,0.1,0,0.2-0.1,0.3l-0.1,0.2c-0.1,0.2-0.2,0.4-0.3,0.7c-0.1,0.2-0.1,0.4-0.2,0.6c-0.8-0.1-1.6,0-2.4,0.1 c-1.2,0.2-1.5,2.1-0.3,1.9h0.3l-4.2,9.5c-0.3-0.1-0.9-0.3-1-0.5c-0.5-0.9-2.5,0.1-2,1c0.5,0.9,1.8,1.3,2.8,1.8l0.7,0.3l-1.2,2.2 c-0.1,0.2-0.2,0.5-0.1,0.7c0.1,0.2,0.3,0.4,0.5,0.4c0.3,0,0.6,0,0.9-0.1c0.3-0.1,0.5-0.3,0.6-0.6c0.3-0.7,0.7-1.3,1-2 c0.4,0.1,0.8,0.2,1.1,0.2l0.8,0.1c-0.3,0.6-0.6,1.2-0.8,1.8c-0.2,0.3-0.1,0.8,0.2,1c0.1,0.1,0.2,0.1,0.3,0.1c0.3,0,0.6,0,0.9-0.1 c0.3-0.1,0.5-0.3,0.6-0.6c0.3-0.7,0.6-1.5,1-2.2c1.6-0.1,3.2-0.6,4.5-1.6C182.1,22.1,181.1,19.6,179.6,18.3z M177.5,10l-0.2,0.1 C177.4,10,177.5,10,177.5,10z M175.3,12.6c1.5,0,3,0.5,4.2,1.5c0.3,0.4,0.6,0.7,0,1.1c-0.5,0.4-1.2,0.7-1.8,0.8 c-1.3,0.2-2.5,0.1-3.8-0.2C174.4,14.7,174.8,13.7,175.3,12.6z M178.4,23.1c-1.5,1.1-3.7,1-5.2,0.7c-0.8-0.2-1.6-0.4-2.4-0.7 c0.8-1.8,1.5-3.5,2.3-5.3c1.5,0.3,3,0.9,4.3,1.7C178.4,20.1,180.1,21.8,178.4,23.1z"/> <path class="st3" d="M167.4,119.7l0.2-0.1c0.1-0.1,0.2-0.1,0.3-0.2s0.2-0.2,0.2-0.3c0-0.1,0-0.3,0-0.4s-0.1-0.3-0.1-0.4l-0.1-0.2 c-0.1-0.1-0.3-0.2-0.4-0.2h-0.3c-0.2,0-0.4,0-0.5,0.1l-0.2,0.1c-0.1,0.1-0.2,0.2-0.3,0.3c-0.1,0.1-0.1,0.2-0.2,0.3 c0,0.1,0,0.3,0,0.4s0,0.3,0.1,0.4l0.1,0.2c0.1,0.1,0.3,0.2,0.4,0.3h0.3C167.1,119.9,167.3,119.8,167.4,119.7L167.4,119.7z"/> <path class="st4" d="M236.1,54.1c-0.1-0.1-0.2-0.2-0.3-0.3c0.2-20.8-13.7-38.8-31.9-47.5c-18.7-8.9-41.6-8.3-59.1,3.1 c-8.5,5.5-15.4,13.4-19.8,22.5c-1.1,0.4-2.2,0.8-3.1,1.4c-1.4,1.3-2.6,2.8-3.5,4.5c-1.9,3.3-3.6,6.8-5,10.4 c-2.9,7.4-4.6,15.1-5.2,23C108,75,108,79,108.3,82.9c0.2,1.7,0.2,3.7,0.9,5.3c0.1,0.2,0.2,0.3,0.2,0.4c-3,2.7-2.4,7.2-2.4,11.1 c0.1,5.3,1.1,10.6,3,15.6c3.3,9.1,8.5,17.7,16.3,23.6c4.9,3.7,10.4,5.8,16.2,7.6c6.1,1.9,12.5,3.1,18.9,3.5c11.3,0.8,22.8-1,32.5-7 c9.7-6,18.8-15.7,20.8-27.3c1.2,0.3,2.3,0.4,3.5,0.3c0.2,0,0.4,0,0.6-0.1c0.1,0,0.3,0,0.4-0.1c2.5-0.9,4.4-3.7,5.9-5.7 c7-9.1,10.3-20.5,12.1-31.6c0.8-4.5,1.2-9,1.3-13.5C238.5,61.7,238.6,56.7,236.1,54.1z M114.2,54.4c1.1-3.6,2.5-7.1,4.1-10.4 c0.8-1.7,1.7-3.3,2.6-4.9c0.9-1.6,1.8-3.2,3.4-4c0.3-0.1,0.6-0.2,1-0.3c0.6,0.3,1.4,0.3,1.8-0.6c0.7-0.2,1.5-0.4,2.2-0.5 c1.7-0.4,3.4-0.8,5.2-1c3.5-0.6,7-1,10.5-1.2c21.3-1.3,42.4,4.1,60.4,15.6c1,0.7,1.9,1.3,2.9,2c-4.8,4.7-7.8,11-9.9,17.4 c-2.2,7.2-3.5,14.6-3.7,22.1c-0.2,3.8-0.1,7.7,0,11.5c-16.4,0.1-33,0.2-49.2-2.4c-7.9-1.2-15.6-3.1-23.1-5.8 c-1.9-0.7-3.8-1.4-5.6-2.2c-0.9-0.4-1.8-0.8-2.7-1.2c-0.8-0.3-1.5-0.7-2.2-1.3c-0.4-0.7-0.5-1.6-0.5-2.4c-0.1-0.9-0.2-1.8-0.3-2.8 c-0.1-1.8-0.2-3.7-0.2-5.6C110.9,68.9,112,61.5,114.2,54.4z M122,130.7c-2.8-3.5-5.1-7.3-7-11.3c-2.5-5.1-4.1-10.5-4.8-16.1 c-0.2-2.5-0.3-5.1-0.2-7.7c0-2,0.1-3.9,1.7-5.1c0.5,0.3,1.1,0.5,1.6,0.8c3.3,1.5,6.6,2.8,10.1,4c-0.6,3.1-1.2,6.2-1.7,9.5 c-0.3,1.7-0.5,3.4-0.5,5.2c0.1,1.4,1.5,2.6,2.4,3.6c0.7,0.8,1.1,1.1,1,2.1c-0.1,1-0.5,1.8-0.7,2.7c-0.4,1.7-0.7,3.4-1,5.1 c-0.4,2.5-0.6,5-0.7,7.5C122.2,130.9,122.1,130.8,122,130.7z M132.8,139.4c-3.1-1.7-6.1-3.8-8.6-6.3c-0.1-3.3,0.2-6.5,0.7-9.7 c0.3-1.6,0.6-3.2,1-4.8c0.3-1.2,1.2-3,0.8-4.3c-0.4-1.3-1.9-2.4-2.8-3.3c-1.1-1.3-0.5-3.5-0.3-5.1c0.4-3.4,0.9-6.6,1.7-9.9 c3.9,1.3,7.8,2.3,11.8,3.2c11.2,2.4,22.6,3.4,34.1,3.8c-0.5,5.9-0.8,11.8-0.8,17.7l-3.1,1.4c-1.1,0.4-2.2,0.9-3.2,1.5 c-0.7,0.7-1,1.6-1,2.6c-0.2,1.5-0.3,2.9-0.4,4.4l-1.6,16.4c-4-0.3-7.9-0.9-11.8-1.9C143.7,143.8,137.9,142.2,132.8,139.4z M195.8,138.1c-4.1,3.1-8.7,5.4-13.5,6.9c-4.9,1.4-10.1,2.2-15.2,2.2c-1.3,0-2.7,0-4-0.1l1.4-14.5l0.4-3.9l0.1-1.5 c0.1-0.6,0-1.6,0.4-2.1c0.4-0.3,0.9-0.5,1.4-0.6l1.7-0.7l3.4-1.5c0.3-0.2,0.5-0.5,0.5-0.9c0-6.1,0.3-12.2,0.8-18.3 c5.5,0.2,11,0.2,16.5,0.1h6.7c0.8,0,1.5-0.7,1.5-1.5c-0.5-9.2-0.4-18.6,1.6-27.7c1.8-8.6,5.2-17.6,11.8-23.6 c0.3-0.2,0.4-0.5,0.4-0.8c0.4-0.7,0.4-1.6-0.4-2.1c-23.7-17.1-53.9-23.2-82.5-16.6C136.8,16,152,5.6,168.9,3.5 c19.4-2.6,40.1,4.9,52.8,20c6.9,8.1,10.7,18.1,11.1,28.6c-2.1-1-4.3-1.8-6.5-2.5c-1.3-0.6-2.8-0.8-4.3-0.8c-1.4,0.4-2.6,1.1-3.6,2.2 c-4.2,3.8-7.6,8.4-10.1,13.4c-5.7,11.2-7.5,24.5-6.6,36.9c0.2,3,0.4,6,1.7,8.7c1.3,2.7,3.9,3.6,6.6,4.4c0.6,0.2,1.2,0.4,1.8,0.6 C210.1,124.5,203.3,132.4,195.8,138.1z M215.7,98.8c-0.1,3.2-0.1,6.3,0,9.5c0.1,1.4,0.1,3.1,0.3,4.6c-2.6-0.5-5.3-1.3-7.8-2.3 c-2.2-1-3-3.4-3.3-5.6c-1.5-11.6-0.2-23.4,3.8-34.4c2-5.4,5-10.5,8.9-14.8c0.9-1,2-2.1,3-3c0.4-0.5,1-0.9,1.6-1.2 c0.8,0,1.5,0.1,2.2,0.4c2.5,0.7,4.9,1.6,7.2,2.8c-1.8,1-3.4,3.1-4.5,4.7c-2.4,3.8-4.4,7.8-6,12C217.7,80.2,215.8,89.4,215.7,98.8z M234.7,75c-1.2,9.3-3.6,18.8-8.1,27.2c-1.2,2.3-2.6,4.4-4.2,6.4c-0.8,1-1.6,2-2.5,2.9c-0.3,0.3-0.6,0.6-0.9,0.9 c-0.3-1.3-0.2-2.7-0.3-3.9c-0.1-2.6-0.1-5.3-0.1-7.9c0-4.3,0.4-8.6,1.1-12.8c1.3-8.1,4-15.9,7.9-23.2c0.9-1.8,2-3.4,3.1-5 c0.9-1.2,2.4-3.1,4-2c0,0,0,0,0,0c0.7,1.9,0.7,4.5,0.8,6.2C235.5,67.6,235.3,71.3,234.7,75z"/> <path class="st3" d="M126.6,109.4c0.6,0,1-0.4,1-1s-0.4-1-1-1s-1,0.4-1,1S126.1,109.4,126.6,109.4z"/> <path class="st3" d="M189.8,74.2c-2.1,4.6-3.4,9.6-3.8,14.7c0,1.9-0.3,3.8-0.9,5.6c-0.7,1.8-2.3,3.4-4.2,3.4h0.2c2,0,4-0.1,5.9-0.3 C186.6,89.7,187.5,81.8,189.8,74.2z"/> <path class="st3" d="M189.3,73.3c0,0-0.1,0.1-0.1,0.1c-0.1,0.1-0.1,0.1-0.2,0.2c0,0,0,0,0,0c0,0,0,0,0,0.1c0,0-0.1,0.1-0.1,0.1 c0,0,0,0.1,0,0.1c-1.7,3.9-3,8.1-3.6,12.4c-0.4,3.1,0.2,10.2-4.4,10.4c-0.6,0-1,0.4-1,1s0.4,1,1,1c2.1,0.1,4.1,0,6.2-0.3 c0.6,0,1-0.4,1-1c-0.5-7.8,0.4-15.6,2.7-23.1C191.1,73.4,190,72.9,189.3,73.3z M186,94.7c0,0.6,0,1.3,0.1,1.9 c-0.4,0-0.8,0.1-1.2,0.1C185.3,96.2,185.7,95.5,186,94.7z"/> <path class="st3" d="M197.1,49.2l-3.9-2.3c1,0.8,1.6,1.9,1.9,3.1c0.1,1,0,2.1-0.4,3.1c-0.4,1.3-0.9,2.6-1.4,3.9l-0.2,0.6 c1.6-2.5,3-5.1,4.2-7.8c0.1-0.1,0.1-0.2,0.1-0.3C197.4,49.3,197.3,49.2,197.1,49.2z"/> <path class="st3" d="M198,48.6c-0.1-0.1-0.2-0.2-0.3-0.3l-3.9-2.3c-0.4-0.3-1.1-0.2-1.4,0.2c-0.3,0.4-0.2,1.1,0.2,1.4 c0.1,0.1,0.2,0.2,0.2,0.2l0,0.1L193,48c0.4,0.5,0.8,1,1.1,1.6c0.3,0.9,0.2,1.9-0.1,2.8c-0.5,1.7-1.1,3.3-1.7,4.9 c-0.4,1.1,1.2,1.7,1.8,0.8c1-1.6,1.9-3.2,2.7-4.8c0.4-0.8,0.8-1.6,1.2-2.4c0.3-0.4,0.4-0.9,0.5-1.3C198.4,49.2,198.3,48.9,198,48.6z M196.3,50c0,0.1-0.1,0.1-0.1,0.2c0-0.1,0-0.2,0-0.3L196.3,50z"/> <path class="st3" d="M194,44.4l5.9,3.4l2.7,1.6c0.3,0.2,1,0.4,0.9,0.8s-0.7,0.6-0.9,0.8c-2.5,2.2-3.5,6-4.7,9 c-4.8,12.3-7.1,25.5-6.8,38.7c0,0.6,0.4,1,1,1s1-0.4,1-1c-0.2-9,0.8-17.9,3-26.6c1.1-4.3,2.5-8.5,4.1-12.7c0.6-1.8,1.4-3.5,2.3-5.2 c0.4-0.7,0.9-1.3,1.5-1.9c0.7-0.5,1.2-1.1,1.6-1.8c0.8-2-2.1-3-3.4-3.8l-7.1-4.1c-0.5-0.3-1.1-0.1-1.3,0.4 C193.4,43.5,193.5,44.1,194,44.4L194,44.4z"/> <path class="st3" d="M127.6,37.3c15.5-3.6,31.7-4.2,47.1-0.2c4.5,1.2,8.9,2.7,13.2,4.5c1.2,0.5,2.2-1.2,1-1.7 c-15.1-6.5-31.7-8.8-48-6.9c-4.7,0.5-9.3,1.3-13.9,2.4C125.8,35.7,126.3,37.6,127.6,37.3L127.6,37.3z"/> <path class="st3" d="M130.1,40.6c-0.1-0.2-0.2-0.3-0.4-0.3c-0.2-0.2-0.4-0.4-0.6-0.4l-1.9,0.2c-0.5,0-0.9,0.2-1.2,0.6 c-0.2,0.4-0.2,0.7-0.2,1.1l-0.1,3.8c-0.1,0.6,0.3,1.1,0.9,1.1c0.6,0.1,1.1-0.3,1.1-0.9c0,0,0-0.1,0-0.1l0.1,0l0-0.3 c0-0.1,0-0.2,0.1-0.3c0-0.1,0.1-0.2,0.1-0.3l0.1-0.1c0.1-0.2,0.2-0.4,0.4-0.6c0.2-0.2,0.1-0.2,0.2-0.3l0.1-0.1c0,0,0.1-0.1,0.1-0.1 c-0.1,0.1,0,0,0.1,0l0.1-0.1l0.2-0.3c0.2-0.2,0.4-0.4,0.6-0.7c0.2-0.2,0.3-0.5,0.3-0.7C130.3,41.4,130.2,41,130.1,40.6z M128,41.5 C127.9,41.6,128,41.5,128,41.5L128,41.5z"/> <path class="st3" d="M125.3,38.4C125.3,38.4,125.3,38.4,125.3,38.4c0.1-0.3,0-0.5-0.1-0.7c-0.3-0.6-1-1-1.6-0.4 c-2.3,2.9-4,6.2-5.1,9.7c-1.4,3.7-2.6,7.6-3.4,11.5c-1.7,7.7-2.3,15.7-1.7,23.6c0,0.4,0.2,0.7,0.5,0.9l1.9,0.8 c0.5,0.3,1.1,0.1,1.4-0.4c0.1-0.2,0.1-0.3,0.1-0.5c-0.4-8-0.6-16,0.6-23.9c1.2-7.1,3.6-13.9,7.2-20.2c0,0,0,0,0,0c0,0,0,0,0-0.1 c0,0,0-0.1,0.1-0.1C125.2,38.5,125.2,38.5,125.3,38.4z"/> <path class="st3" d="M122.5,78.1l-0.1-0.2c0-0.1-0.1-0.2-0.1-0.2c-0.1-0.2-0.1-0.4-0.2-0.6c-0.1-0.4-0.2-0.8-0.3-1.2c0,0,0,0,0,0 c0,0,0,0,0,0c0,0,0,0,0,0v-0.3c0-0.2,0-0.4,0-0.6c0-0.4,0-0.8,0.1-1.2c0-0.5-0.2-0.8-0.6-0.9c-0.2-0.1-0.5-0.2-0.8-0.2 c-0.4,0.1-0.7,0.3-0.8,0.7c-0.1,0.4-0.2,0.9-0.2,1.3c-0.1,0.7-0.2,1.3-0.2,2c0,0.3,0,0.7-0.1,1c-0.1,0.4-0.1,0.8,0,1.2 c0.3,1,1.6,0.9,2.4,0.8c0.6,0,1-0.4,1-1C122.6,78.4,122.6,78.2,122.5,78.1z"/> <path class="st3" d="M145.8,59.4c-0.2,0.1-0.5,0.3-0.7,0.5c-0.4,0.3-0.6,0.7-0.8,1.1c-0.2,0.4-0.1,0.9,0.1,1.4 c0.2,0.4,0.7,0.6,1.2,0.6c0.4-0.1,0.7-0.4,0.9-0.7s0.3-0.5,0.5-0.8s0.3-0.6,0.3-0.9c0-0.3-0.1-0.6-0.2-0.8c-0.2-0.2-0.4-0.4-0.7-0.4 C146.2,59.3,146,59.4,145.8,59.4z"/> <path class="st3" d="M177.4,64.4c-0.4,0.2-0.7,0.5-1,0.8c-0.2,0.3-0.5,0.6-0.6,0.9c-0.2,0.3-0.2,0.7-0.1,1c0.1,0.3,0.3,0.6,0.6,0.8 c0.3,0.2,0.7,0.3,1,0.2c0.4-0.1,0.8-0.4,1.1-0.7c0.5-0.5,0.9-1.1,1.1-1.7c0.1-0.4,0.1-0.7,0-1.1C179,63.8,178,64.1,177.4,64.4z"/> </svg>