
          <svg
            xmlns="http://www.w3.org/2000/svg"
            xmlns:xlink="http://www.w3.org/1999/xlink"
            id="Слой_1"
            x="0px"
            y="0px"
            viewBox="0 0 28 24"
            style="enable-background: new 0 0 28 24"
            xml:space="preserve"
          >
            <style type="text/css">
              .st0 {
                fill: #e6e6e6;
              }
              .st1 {
                fill: #303353;
              }
            </style>
            <g>
              <path
                class="st0"
                d="M3,23.5c-1.4,0-2.5-1.1-2.5-2.5V3c0-1.4,1.1-2.5,2.5-2.5h22c1.4,0,2.5,1.1,2.5,2.5v18c0,1.4-1.1,2.5-2.5,2.5H3 z"
              ></path>
              <path
                class="st1"
                d="M25,1c1.1,0,2,0.9,2,2v18c0,1.1-0.9,2-2,2H3c-1.1,0-2-0.9-2-2V3c0-1.1,0.9-2,2-2H25 M25,0H3C1.3,0,0,1.3,0,3 v18c0,1.7,1.3,3,3,3h22c1.7,0,3-1.3,3-3V3C28,1.3,26.7,0,25,0L25,0z"
              ></path>
            </g>
            <g>
              <g>
                <path
                  class="st1"
                  d="M17.7,11.4c0.9-0.5,1.4-1.6,1.3-2.6c-0.2-1.6-2.1-2.2-3.7-2.4V4h-1.5v2.4h-1V4h-1.5v2.4h-3V8h1.1 c0.5,0,0.8,0.2,0.8,0.6v6.7c0,0.6-0.3,0.7-0.6,0.7H8.4v1.6h2.9V20h1.5v-2.5h1V20h1.5v-2.5h0.3c3.1,0,4.1-1.5,4.1-3.6 C19.7,12.7,18.9,11.7,17.7,11.4z M12.8,8.1h1.1c0.8,0,2.2,0.1,2.2,1.4c0.1,0.8-0.5,1.5-1.3,1.6h-2C12.8,11,12.8,8.1,12.8,8.1z M14.4,15.8L14.4,15.8l-1.7,0v-3.2h1.9c0.5,0,2.1,0.2,2.1,1.4S16,15.8,14.4,15.8z"
                ></path>
              </g>
            </g>
            <g>
              <path
                class="st0"
                d="M24,15.5c-1.4,0-2.5-1.1-2.5-2.5v-1c0-1.4,1.1-2.5,2.5-2.5h3.5v6H24z"
              ></path>
              <path
                class="st1"
                d="M27,10v5h-3c-1.1,0-2-0.9-2-2v-1c0-1.1,0.9-2,2-2H27 M28,9h-1h-3c-1.7,0-3,1.3-3,3v1c0,1.7,1.3,3,3,3h3h1v-1 v-5V9L28,9z"
              ></path>
            </g>
            <g>
              <circle class="st0" cx="24.5" cy="12.5" r="0.8"></circle>
              <path
                class="st1"
                d="M24.5,12c0.3,0,0.5,0.2,0.5,0.5S24.8,13,24.5,13S24,12.8,24,12.5S24.2,12,24.5,12 M24.5,11.5c-0.6,0-1,0.4-1,1 s0.4,1,1,1s1-0.4,1-1S25.1,11.5,24.5,11.5L24.5,11.5z"
              ></path>
            </g>
          </svg>