<svg
                xmlns="http://www.w3.org/2000/svg"
                xmlns:xlink="http://www.w3.org/1999/xlink"
                x="0px"
                y="0px"
                viewBox="0 0 48 48"
                xml:space="preserve"
              >
                <style type="text/css">
                  .st0 {
                    display: none;
                  }
                  .st1 {
                    display: inline;
                  }
                  .st2 {
                    fill: #ffffff;
                  }
                  .st3 {
                    fill: #d3d3d3;
                  }
                  .st4 {
                    fill: none;
                    stroke: #303353;
                    stroke-miterlimit: 10;
                  }
                  .st5 {
                    fill: none;
                    stroke: #303353;
                    stroke-width: 0.5;
                    stroke-miterlimit: 10;
                  }
                </style>
                <g id="ИКОНКА" class="st0">
                  <g id="Слой_2" class="st1">
                    <path
                      id="Белый_фон"
                      class="st2"
                      d="M27,63.5H1c-1.1,0-2-0.9-2-2v-19c0-1.1,0.9-2,2-2h26c1.1,0,2,0.9,2,2v19 C29,62.6,28.1,63.5,27,63.5z"
                    ></path>
                    <path
                      id="Серый_фон"
                      class="st3"
                      d="M29,45H-1v-3c0-0.6,0.4-1,1-1h28c0.6,0,1,0.4,1,1V45z"
                    ></path>
                    <path
                      id="Контур"
                      class="st4"
                      d="M27,63.5H1c-1.1,0-2-0.9-2-2v-19c0-1.1,0.9-2,2-2h26c1.1,0,2,0.9,2,2v19 C29,62.6,28.1,63.5,27,63.5z"
                    ></path>
                  </g>
                  <g id="Слой_1" class="st1">
                    <path
                      class="st3"
                      d="M24,61.5H11c-0.6,0-1-0.4-1-1v-2c0-0.6,0.4-1,1-1h13c0.6,0,1,0.4,1,1v2C25,61.1,24.6,61.5,24,61.5z"
                    ></path>
                    <line
                      class="st4"
                      x1="-1"
                      y1="45.5"
                      x2="29"
                      y2="45.5"
                    ></line>
                    <circle class="st5" cx="1" cy="43" r="0.5"></circle>
                    <circle class="st5" cx="3" cy="43" r="0.5"></circle>
                    <circle class="st5" cx="5" cy="43" r="0.5"></circle>
                    <path
                      class="st3"
                      d="M8,61.5H4c-0.6,0-1-0.4-1-1v-12c0-0.6,0.4-1,1-1h4c0.6,0,1,0.4,1,1v12C9,61.1,8.6,61.5,8,61.5z"
                    ></path>
                    <path
                      class="st3"
                      d="M24,51.5H11c-0.6,0-1-0.4-1-1v-2c0-0.6,0.4-1,1-1h13c0.6,0,1,0.4,1,1v2C25,51.1,24.6,51.5,24,51.5z"
                    ></path>
                    <path
                      class="st3"
                      d="M24,56.5H11c-0.6,0-1-0.4-1-1v-2c0-0.6,0.4-1,1-1h13c0.6,0,1,0.4,1,1v2C25,56.1,24.6,56.5,24,56.5z"
                    ></path>
                  </g>
                </g>
                <g id="ДУБЛЬ">
                  <path
                    id="Белый_фон_1_"
                    class="st2"
                    d="M25.5,23.5h-23c-1.1,0-2-0.9-2-2v-19c0-1.1,0.9-2,2-2h23c1.1,0,2,0.9,2,2v19 C27.5,22.6,26.6,23.5,25.5,23.5z"
                  ></path>
                  <path
                    id="Серый_фон_1_"
                    class="st3"
                    d="M27.5,5h-27V2c0-0.6,0.4-1,1-1h25c0.6,0,1,0.4,1,1V5z"
                  ></path>
                  <path
                    id="Контур_1_"
                    class="st4"
                    d="M25.5,23.5h-23c-1.1,0-2-0.9-2-2v-19c0-1.1,0.9-2,2-2h23c1.1,0,2,0.9,2,2v19 C27.5,22.6,26.6,23.5,25.5,23.5z"
                  ></path>
                  <path
                    class="st3"
                    d="M24,21.5H11c-0.6,0-1-0.4-1-1v-2c0-0.6,0.4-1,1-1h13c0.6,0,1,0.4,1,1v2C25,21.1,24.6,21.5,24,21.5z"
                  ></path>
                  <line class="st4" x1="0.5" y1="5.5" x2="27.5" y2="5.5"></line>
                  <circle class="st5" cx="3" cy="3" r="0.5"></circle>
                  <circle class="st5" cx="5" cy="3" r="0.5"></circle>
                  <circle class="st5" cx="7" cy="3" r="0.5"></circle>
                  <path
                    class="st3"
                    d="M8,21.5H4c-0.6,0-1-0.4-1-1v-12c0-0.6,0.4-1,1-1h4c0.6,0,1,0.4,1,1v12C9,21.1,8.6,21.5,8,21.5z"
                  ></path>
                  <path
                    class="st3"
                    d="M24,11.5H11c-0.6,0-1-0.4-1-1v-2c0-0.6,0.4-1,1-1h13c0.6,0,1,0.4,1,1v2C25,11.1,24.6,11.5,24,11.5z"
                  ></path>
                  <path
                    class="st3"
                    d="M24,16.5H11c-0.6,0-1-0.4-1-1v-2c0-0.6,0.4-1,1-1h13c0.6,0,1,0.4,1,1v2C25,16.1,24.6,16.5,24,16.5z"
                  ></path>
                </g>
                <g id="Слой_3" class="st0">
                  <image
                    style="display: inline; overflow: visible"
                    width="512"
                    height="512"
                    xlink:href="1880026.png"
                    transform="matrix(5.957031e-02 0 0 5.957031e-02 -54 -3)"
                  ></image>
                </g>
              </svg>