<svg width="140" height="140" viewBox="0 0 140 140" fill="none" xmlns="http://www.w3.org/2000/svg">
<circle cx="70" cy="70" r="70" fill="#F3F8FF"/>
<path d="M114 41.069V93.0345C114 96.3914 111.288 99.1035 107.931 99.1035H32.069C28.7121 99.1035 26 96.3914 26 93.0345V41.069C26 37.7121 28.7121 35 32.069 35H107.931C111.288 35 114 37.7121 114 41.069Z" fill="#3E5293"/>
<path d="M26 48.6552H114V61.5517H26V48.6552Z" fill="#2E396D"/>
<path d="M51.0347 77.293H38.3278C37.4933 77.293 36.8105 76.6103 36.8105 75.7758C36.8105 74.9413 37.4933 74.2585 38.3278 74.2585H51.0347C51.8692 74.2585 52.5519 74.9413 52.5519 75.7758C52.5519 76.6103 51.8692 77.293 51.0347 77.293Z" fill="white"/>
<path d="M51.0347 86.7758H38.3278C37.4933 86.7758 36.8105 86.0931 36.8105 85.2586C36.8105 84.4241 37.4933 83.7413 38.3278 83.7413H51.0347C51.8692 83.7413 52.5519 84.4241 52.5519 85.2586C52.5519 86.0931 51.8692 86.7758 51.0347 86.7758Z" fill="white"/>
<path d="M92.7332 110C104.998 110 114.941 100.07 114.941 87.8211C114.941 75.5719 104.998 65.6421 92.7332 65.6421C80.4682 65.6421 70.5254 75.5719 70.5254 87.8211C70.5254 100.07 80.4682 110 92.7332 110Z" fill="#EFA143"/>
<path d="M112.5 87.4708C112.5 98.4973 103.549 107.442 92.5 107.442C81.4512 107.442 72.5 98.4973 72.5 87.4708C72.5 76.4443 81.4512 67.5 92.5 67.5C103.549 67.5 112.5 76.4443 112.5 87.4708Z" stroke="#FFDD94" stroke-width="5"/>
<path d="M101.616 91.7024C101.615 90.7471 101.34 89.8121 100.823 89.0081C100.307 88.2041 99.5702 87.5648 98.7011 87.1657C99.3146 86.4444 99.7097 85.5634 99.8403 84.626C99.9708 83.6885 99.8314 82.7334 99.4382 81.8722C99.0451 81.011 98.4146 80.2794 97.6204 79.763C96.8262 79.2466 95.9011 78.9668 94.9535 78.9562V76.7316C94.9535 76.4375 94.8365 76.1555 94.6283 75.9475C94.42 75.7395 94.1376 75.6227 93.8431 75.6227C93.5486 75.6227 93.2662 75.7395 93.058 75.9475C92.8497 76.1555 92.7327 76.4375 92.7327 76.7316V78.9495H90.5119V76.7316C90.5119 76.4375 90.395 76.1555 90.1867 75.9475C89.9785 75.7395 89.6961 75.6227 89.4016 75.6227C89.1071 75.6227 88.8246 75.7395 88.6164 75.9475C88.4082 76.1555 88.2912 76.4375 88.2912 76.7316V78.9495H84.96C84.6655 78.9495 84.3831 79.0664 84.1748 79.2743C83.9666 79.4823 83.8496 79.7644 83.8496 80.0585C83.8496 80.3526 83.9666 80.6347 84.1748 80.8426C84.3831 81.0506 84.6655 81.1674 84.96 81.1674H88.2912V94.4748H84.96C84.6655 94.4748 84.3831 94.5916 84.1748 94.7996C83.9666 95.0076 83.8496 95.2896 83.8496 95.5837C83.8496 95.8779 83.9666 96.1599 84.1748 96.3679C84.3831 96.5759 84.6655 96.6927 84.96 96.6927H88.2912V98.9106C88.2912 99.2047 88.4082 99.4868 88.6164 99.6947C88.8246 99.9027 89.1071 100.02 89.4016 100.02C89.6961 100.02 89.9785 99.9027 90.1867 99.6947C90.395 99.4868 90.5119 99.2047 90.5119 98.9106V96.6927H92.7327V98.9106C92.7327 99.2047 92.8497 99.4868 93.058 99.6947C93.2662 99.9027 93.5486 100.02 93.8431 100.02C94.1376 100.02 94.42 99.9027 94.6283 99.6947C94.8365 99.4868 94.9535 99.2047 94.9535 98.9106V96.6927H96.6191C97.9439 96.6912 99.2139 96.165 100.151 95.2295C101.087 94.2939 101.614 93.0255 101.616 91.7024ZM99.3951 91.7024C99.3951 92.4377 99.1026 93.1429 98.582 93.6628C98.0614 94.1827 97.3553 94.4748 96.6191 94.4748H90.5119V88.9301H96.6191C97.3553 88.9301 98.0614 89.2221 98.582 89.7421C99.1026 90.262 99.3951 90.9672 99.3951 91.7024ZM97.6673 83.9398C97.6673 84.6751 97.3748 85.3802 96.8542 85.9002C96.3336 86.4201 95.6276 86.7122 94.8913 86.7122H90.5119V81.1674H94.8913C95.6276 81.1674 96.3336 81.4595 96.8542 81.9794C97.3748 82.4993 97.6673 83.2045 97.6673 83.9398Z" fill="#FFDD94"/>
<path d="M72.1463 115C79.7779 115 85.9645 108.821 85.9645 101.2C85.9645 93.5781 79.7779 87.3995 72.1463 87.3995C64.5147 87.3995 58.3281 93.5781 58.3281 101.2C58.3281 108.821 64.5147 115 72.1463 115Z" fill="#EFA143"/>
<path d="M83.5 100.982C83.5 107.32 78.3543 112.464 72 112.464C65.6457 112.464 60.5 107.32 60.5 100.982C60.5 94.6437 65.6457 89.5 72 89.5C78.3543 89.5 83.5 94.6437 83.5 100.982Z" stroke="#FFDD94" stroke-width="5"/>
<path d="M77.6717 103.615C77.6711 103.02 77.4999 102.439 77.1785 101.938C76.8571 101.438 76.3989 101.04 75.8581 100.792C76.2398 100.343 76.4857 99.795 76.5669 99.2117C76.6482 98.6284 76.5614 98.034 76.3168 97.4982C76.0722 96.9623 75.6798 96.5071 75.1857 96.1858C74.6915 95.8645 74.1159 95.6904 73.5263 95.6838V94.2996C73.5263 94.1166 73.4535 93.9411 73.3239 93.8117C73.1943 93.6823 73.0186 93.6096 72.8354 93.6096C72.6521 93.6096 72.4764 93.6823 72.3468 93.8117C72.2173 93.9411 72.1445 94.1166 72.1445 94.2996V95.6797H70.7626V94.2996C70.7626 94.1166 70.6899 93.9411 70.5603 93.8117C70.4307 93.6823 70.255 93.6096 70.0717 93.6096C69.8885 93.6096 69.7128 93.6823 69.5832 93.8117C69.4536 93.9411 69.3808 94.1166 69.3808 94.2996V95.6797H67.3081C67.1249 95.6797 66.9491 95.7524 66.8196 95.8818C66.69 96.0112 66.6172 96.1867 66.6172 96.3697C66.6172 96.5527 66.69 96.7282 66.8196 96.8576C66.9491 96.987 67.1249 97.0597 67.3081 97.0597H69.3808V105.34H67.3081C67.1249 105.34 66.9491 105.413 66.8196 105.542C66.69 105.671 66.6172 105.847 66.6172 106.03C66.6172 106.213 66.69 106.388 66.8196 106.518C66.9491 106.647 67.1249 106.72 67.3081 106.72H69.3808V108.1C69.3808 108.283 69.4536 108.458 69.5832 108.588C69.7128 108.717 69.8885 108.79 70.0717 108.79C70.255 108.79 70.4307 108.717 70.5603 108.588C70.6899 108.458 70.7626 108.283 70.7626 108.1V106.72H72.1445V108.1C72.1445 108.283 72.2173 108.458 72.3468 108.588C72.4764 108.717 72.6521 108.79 72.8354 108.79C73.0186 108.79 73.1943 108.717 73.3239 108.588C73.4535 108.458 73.5263 108.283 73.5263 108.1V106.72H74.5626C75.3869 106.719 76.1772 106.392 76.7601 105.809C77.343 105.227 77.6708 104.438 77.6717 103.615ZM76.2899 103.615C76.2899 104.072 76.1079 104.511 75.784 104.835C75.4601 105.158 75.0207 105.34 74.5626 105.34H70.7626V101.89H74.5626C75.0207 101.89 75.4601 102.072 75.784 102.395C76.1079 102.719 76.2899 103.157 76.2899 103.615ZM75.2149 98.7847C75.2149 99.2422 75.0329 99.681 74.709 100.004C74.385 100.328 73.9457 100.51 73.4876 100.51H70.7626V97.0597H73.4876C73.9457 97.0597 74.385 97.2414 74.709 97.5649C75.0329 97.8884 75.2149 98.3272 75.2149 98.7847Z" fill="#FFDD94"/>
</svg>
