<svg width="140" height="140" viewBox="0 0 140 140" fill="none" xmlns="http://www.w3.org/2000/svg">
<circle cx="70" cy="70" r="70" fill="#F3F8FF"/>
<path d="M93.5469 33.3198V101.678C93.5469 105.722 78.2027 109 59.2734 109C40.3442 109 25 105.722 25 101.678V33.3198H93.5469Z" fill="#2E396D"/>
<path d="M93.5469 56.5042V79.2884C93.5469 79.7944 93.3073 80.287 92.8517 80.7645C88.0729 85.745 66.4563 86.6099 59.2734 86.6099C43.9251 86.6099 30.9321 84.4555 26.5669 81.4848C25.5489 80.7922 25 80.055 25 79.2909V56.5042C25 60.5482 40.3442 63.8232 59.2734 63.8232C78.2027 63.8232 93.5469 60.5482 93.5469 56.5042Z" fill="#3E5293"/>
<path d="M93.5469 33.3207C93.5469 37.3623 78.2027 40.6397 59.2734 40.6397C40.3442 40.6397 25 37.3623 25 33.3207C25 29.2775 40.3442 26 59.2734 26C78.2027 26 93.5469 29.2775 93.5469 33.3207Z" fill="#3E5293"/>
<path d="M115 87.6422C115 102.229 103.133 114.096 88.548 114.096H88.4471C73.9053 114.041 62.0957 102.196 62.0957 87.6422C62.0957 73.0901 73.9053 61.2455 88.4471 61.1906H88.548C103.133 61.1906 115 73.0565 115 87.6422Z" fill="#FFDD94"/>
<path d="M109.535 87.7662C109.535 93.8108 106.941 99.2593 102.805 103.057C99.1071 106.456 94.1763 108.534 88.7697 108.534C83.4619 108.534 78.61 106.531 74.9337 103.24C70.6807 99.4378 68 93.9096 68 87.7662C68 76.315 77.3185 67 88.7697 67C100.221 67 109.535 76.315 109.535 87.7662Z" fill="#EFA143"/>
<path d="M103 87.9991C103 92.4115 99.421 96 95.0226 96C92.2188 96 89.983 93.9838 87.9156 91.5736C87.3283 90.8888 86.7539 90.1725 86.1841 89.4626C84.5652 87.4405 82.3462 84.6708 80.9786 84.6708C79.1479 84.6708 77.6577 86.1639 77.6577 87.9991C77.6577 89.8361 79.1479 91.3292 80.9786 91.3292C81.0157 91.3292 81.3639 91.3153 82.0793 90.8498C83.1586 90.1463 84.6005 90.4541 85.3009 91.5364C86.0013 92.6169 85.6949 94.0629 84.6162 94.767C83.36 95.5845 82.135 96 80.9786 96C76.5785 96 73 92.4115 73 87.9991C73 83.5885 76.5785 80 80.9786 80C83.7064 80 85.8957 81.9068 87.9156 84.2297C88.5626 84.9728 89.1916 85.7589 89.8153 86.5374C91.4366 88.5595 93.6549 91.3292 95.0226 91.3292C96.8533 91.3292 98.3423 89.8361 98.3423 87.9991C98.3423 86.1639 96.8533 84.6708 95.0226 84.6708C94.9762 84.6708 94.5491 84.6894 93.6567 85.3324C92.6116 86.0842 91.1569 85.8444 90.4055 84.7982C89.6558 83.7502 89.8948 82.2903 90.9399 81.5379C92.3569 80.5167 93.7309 80 95.0226 80C99.421 80 103 83.5885 103 87.9991Z" fill="#FFDD94"/>
</svg>
