<svg width="140" height="140" viewBox="0 0 140 140" fill="none" xmlns="http://www.w3.org/2000/svg">
<circle cx="70" cy="70" r="70" fill="#F3F8FF"/>
<path d="M107.09 40.9961H66.7041L60.6348 114.085C61.7014 114.619 62.8486 115 64.1087 115H107.09C111.452 115 115 111.452 115 107.09V48.9062C115 44.5444 111.452 40.9961 107.09 40.9961Z" fill="#FFDD94"/>
<path d="M54.8594 96.6941L56.2602 108.071C56.5414 110.33 58.0707 112.803 60.6347 114.085C65.7617 108.57 62.3246 112.092 74.4913 99.0039L54.8594 96.6941Z" fill="#2E396D"/>
<path d="M74.4914 99.0039C75.3539 98.0181 76.1105 97.3563 75.907 95.9989L67.9195 31.9291C67.4276 27.9791 64.0519 25 60.0712 25H32.9102C28.5483 25 25 28.5483 25 32.9102V91.0938C25 95.4556 28.5483 99.0039 32.9102 99.0039C46.6918 99.0039 60.6657 99.0039 74.4914 99.0039Z" fill="#3E5293"/>
<path d="M54.1284 45.752C53.8813 44.5212 52.7997 43.6328 51.5432 43.6328H46.2698C45.0133 43.6328 43.9317 44.5212 43.6846 45.752L38.4111 72.1192C38.1253 73.5483 39.0522 74.9361 40.4788 75.2219C41.9234 75.5181 43.2984 74.5809 43.5816 73.1542L45.2668 64.7266H52.5461L54.2313 73.1542C54.5197 74.6021 55.9358 75.5097 57.334 75.2219C58.7605 74.9361 59.6875 73.5483 59.4017 72.1192L54.1284 45.752ZM46.3213 59.4531L48.4301 48.9063H49.3829L51.4917 59.4531H46.3213Z" fill="#E6EEFF"/>
<path d="M82.0624 92C81.7673 92 81.5164 91.8977 81.3099 91.693C81.1033 91.4883 81 91.2398 81 90.9474V62.3947C81 62.0731 81.0885 61.8099 81.2656 61.6053C81.4722 61.4006 81.7378 61.2982 82.0624 61.2982H101.539C101.864 61.2982 102.129 61.4006 102.336 61.6053C102.543 61.8099 102.646 62.0731 102.646 62.3947V65.2895C102.646 65.6111 102.543 65.8743 102.336 66.0789C102.129 66.2544 101.864 66.3421 101.539 66.3421H86.9759V74.1053H100.565C100.89 74.1053 101.156 74.2076 101.362 74.4123C101.569 74.5877 101.672 74.8363 101.672 75.1579V77.8772C101.672 78.1988 101.569 78.462 101.362 78.6667C101.156 78.8421 100.89 78.9298 100.565 78.9298H86.9759V86.9561H101.893C102.218 86.9561 102.484 87.0585 102.69 87.2632C102.897 87.4678 103 87.731 103 88.0526V90.9474C103 91.269 102.897 91.5322 102.69 91.7368C102.484 91.9123 102.218 92 101.893 92H82.0624ZM86.4004 57.1754C86.1053 57.1754 85.8692 57.0877 85.6922 56.9123C85.5151 56.7368 85.4266 56.5029 85.4266 56.2105V53.0088C85.4266 52.7164 85.5151 52.4825 85.6922 52.307C85.8692 52.1023 86.1053 52 86.4004 52H89.6318C89.9269 52 90.163 52.1023 90.34 52.307C90.5466 52.4825 90.6499 52.7164 90.6499 53.0088V56.2105C90.6499 56.5029 90.5466 56.7368 90.34 56.9123C90.163 57.0877 89.9269 57.1754 89.6318 57.1754H86.4004ZM94.7223 57.1754C94.4272 57.1754 94.1911 57.0877 94.0141 56.9123C93.837 56.7368 93.7485 56.5029 93.7485 56.2105V53.0088C93.7485 52.7164 93.837 52.4825 94.0141 52.307C94.1911 52.1023 94.4272 52 94.7223 52H97.9537C98.2488 52 98.4849 52.1023 98.662 52.307C98.8685 52.4825 98.9718 52.7164 98.9718 53.0088V56.2105C98.9718 56.5029 98.8685 56.7368 98.662 56.9123C98.4849 57.0877 98.2488 57.1754 97.9537 57.1754H94.7223Z" fill="#EFA143"/>
</svg>
