<svg width="140" height="140" viewBox="0 0 140 140" fill="none" xmlns="http://www.w3.org/2000/svg">
<circle cx="70" cy="70" r="70" fill="#F3F8FF"/>
<path fill-rule="evenodd" clip-rule="evenodd" d="M91 44.4048V103.333C90.9957 104.778 89.8256 105.948 88.381 105.952H38.619C37.1744 105.948 36.0043 104.778 36 103.333V32.619C36.0043 31.1744 37.1744 30.0043 38.619 30H76.5952L91 44.4048Z" fill="#3E5293"/>
<path d="M77.9041 92.8572H49.0946C46.9249 92.8572 45.166 94.6161 45.166 96.7857C45.166 98.9554 46.9249 100.714 49.0946 100.714H77.9041C80.0738 100.714 81.8327 98.9554 81.8327 96.7857C81.8327 94.6161 80.0738 92.8572 77.9041 92.8572Z" fill="#5A76D0"/>
<path fill-rule="evenodd" clip-rule="evenodd" d="M49.0945 79.7619H43.8564C43.1332 79.7619 42.5469 79.1756 42.5469 78.4523C42.5469 77.7291 43.1332 77.1428 43.8564 77.1428H49.0945C49.8177 77.1428 50.404 77.7291 50.404 78.4523C50.404 79.1756 49.8177 79.7619 49.0945 79.7619Z" fill="#717FC1"/>
<path fill-rule="evenodd" clip-rule="evenodd" d="M54.3326 40.4762H43.8564C43.1332 40.4762 42.5469 39.8899 42.5469 39.1667C42.5469 38.4435 43.1332 37.8572 43.8564 37.8572H54.3326C55.0558 37.8572 55.6421 38.4435 55.6421 39.1667C55.6421 39.8899 55.0558 40.4762 54.3326 40.4762Z" fill="#717FC1"/>
<path fill-rule="evenodd" clip-rule="evenodd" d="M63.4993 85H43.8564C43.1332 85 42.5469 84.4137 42.5469 83.6905C42.5469 82.9673 43.1332 82.381 43.8564 82.381H63.4993C64.2225 82.381 64.8088 82.9673 64.8088 83.6905C64.8088 84.4137 64.2225 85 63.4993 85Z" fill="#717FC1"/>
<path fill-rule="evenodd" clip-rule="evenodd" d="M83.1421 70.5954H43.8564C43.1332 70.5954 42.5469 70.0091 42.5469 69.2858C42.5469 68.5626 43.1332 67.9763 43.8564 67.9763H83.1421C83.8653 67.9763 84.4516 68.5626 84.4516 69.2858C84.4516 70.0091 83.8653 70.5954 83.1421 70.5954Z" fill="#717FC1"/>
<path fill-rule="evenodd" clip-rule="evenodd" d="M83.1421 64.0476H43.8564C43.1332 64.0476 42.5469 63.4613 42.5469 62.7381C42.5469 62.0149 43.1332 61.4286 43.8564 61.4286H83.1421C83.8653 61.4286 84.4516 62.0149 84.4516 62.7381C84.4516 63.4613 83.8653 64.0476 83.1421 64.0476Z" fill="#717FC1"/>
<path fill-rule="evenodd" clip-rule="evenodd" d="M83.1421 57.5H43.8564C43.1332 57.5 42.5469 56.9137 42.5469 56.1905C42.5469 55.4673 43.1332 54.881 43.8564 54.881H83.1421C83.8653 54.881 84.4516 55.4673 84.4516 56.1905C84.4516 56.9137 83.8653 57.5 83.1421 57.5Z" fill="#717FC1"/>
<path fill-rule="evenodd" clip-rule="evenodd" d="M83.1421 50.9524H43.8564C43.1332 50.9524 42.5469 50.3661 42.5469 49.6429C42.5469 48.9197 43.1332 48.3334 43.8564 48.3334H83.1421C83.8653 48.3334 84.4516 48.9197 84.4516 49.6429C84.4516 50.3661 83.8653 50.9524 83.1421 50.9524Z" fill="#717FC1"/>
<path fill-rule="evenodd" clip-rule="evenodd" d="M91.0005 44.4048H79.2148C77.7701 44.4004 76.6 43.2304 76.5957 41.7857V30L91.0005 44.4048Z" fill="#2E396D"/>
<g clip-path="url(#clip0_50_1913)">
<g opacity="0.15">
<g opacity="0.15">
<path opacity="0.15" d="M72.9043 58.2939L72.906 121.455H72.9043V58.2939Z" fill="white"/>
</g>
</g>
<path d="M86.9191 104.858C96.2633 104.858 103.838 97.2471 103.838 87.8582C103.838 78.4694 96.2633 70.8582 86.9191 70.8582C77.575 70.8582 70 78.4694 70 87.8582C70 97.2471 77.575 104.858 86.9191 104.858Z" fill="#FFDD94"/>
<path d="M86.9187 73.1248C78.8333 73.125 72.2556 79.7346 72.2559 87.8586C72.2529 91.3744 73.5068 94.7743 75.7891 97.4392L96.4539 76.6744C93.8015 74.3813 90.4177 73.1216 86.9187 73.1248Z" fill="#EFA143"/>
<path d="M98.0496 78.2771L77.3848 99.042C80.0371 101.335 83.4209 102.595 86.92 102.592C95.0053 102.591 101.583 95.9818 101.583 87.8577C101.586 84.342 100.332 80.942 98.0496 78.2771Z" fill="#EFA143"/>
</g>
<defs>
<clipPath id="clip0_50_1913">
<rect width="34" height="39" fill="white" transform="translate(70 68)"/>
</clipPath>
</defs>
</svg>
