<svg width="15" height="15" viewBox="0 0 15 15" fill="none" xmlns="http://www.w3.org/2000/svg">
<g clip-path="url(#clip0_33_317)">
<g clip-path="url(#clip1_33_317)">
<path d="M11.3777 5.55609C10.9235 5.27513 10.36 5.17639 9.68735 5.26004C10.3232 4.56445 10.4137 3.75439 9.95899 2.82962C9.79679 2.49328 9.58746 2.22754 9.33062 2.03205C9.07364 1.83655 8.77916 1.71231 8.44633 1.65957C8.11364 1.60655 7.77086 1.59974 7.41855 1.6385C7.06615 1.6773 6.6745 1.75635 6.24387 1.87564L5.49657 -0.11865L4.27796 0.337988L5.00449 2.27687C4.79347 2.35594 4.47363 2.4818 4.04501 2.65445L3.31255 0.699744L2.09377 1.15644L2.84106 3.15074C2.66889 3.22129 2.41406 3.31985 2.07642 3.44637L0.395735 4.06705L0.882079 5.36494L1.76045 5.0358C2.16143 4.88554 2.46344 4.97699 2.66643 5.31L3.51753 7.58131C3.57036 7.56151 3.61354 7.54843 3.64719 7.54183L3.52052 7.58929L4.71258 10.7705C4.77123 11.0553 4.66869 11.2473 4.40487 11.3461L3.52655 11.6753L3.82388 13.2155L5.40666 12.6224C5.50692 12.5848 5.65241 12.5318 5.84332 12.463C6.03422 12.3945 6.1771 12.3425 6.2721 12.3069L7.02827 14.3249L8.24725 13.8681L7.49996 11.8738C7.72352 11.7962 8.04629 11.6782 8.46836 11.52L9.21266 13.5063L10.4313 13.0497L9.67512 11.0317C10.0999 10.8485 10.469 10.6653 10.782 10.4816C11.0952 10.2978 11.3818 10.0868 11.6412 9.8481C11.9007 9.60958 12.0987 9.35929 12.2352 9.09754C12.3719 8.83591 12.4539 8.53732 12.4819 8.20188C12.5094 7.8666 12.4717 7.50469 12.3681 7.11622C12.1623 6.35726 11.832 5.8372 11.3777 5.55609ZM4.60242 4.06986C4.63937 4.05602 4.74306 4.01564 4.91353 3.94873C5.08407 3.88173 5.22548 3.82577 5.33791 3.78061C5.45038 3.73549 5.60586 3.68475 5.80444 3.62839C6.00293 3.57206 6.17306 3.53243 6.31478 3.50935C6.45651 3.48628 6.61804 3.47541 6.79891 3.47683C6.98004 3.47809 7.13427 3.50457 7.26173 3.55606C7.38939 3.60748 7.51137 3.68819 7.62762 3.79806C7.74405 3.90784 7.83486 4.04979 7.90009 4.22386C7.95545 4.3716 7.98217 4.51506 7.98024 4.65424C7.97836 4.7933 7.94502 4.92164 7.88081 5.03896C7.81658 5.15631 7.74551 5.26424 7.66796 5.36243C7.59053 5.46058 7.48077 5.55741 7.33901 5.6526C7.1973 5.74784 7.07233 5.82776 6.96422 5.8923C6.85605 5.95692 6.71645 6.02582 6.54528 6.09895C6.37407 6.17208 6.24415 6.22689 6.15548 6.26309C6.06673 6.29932 5.94411 6.34527 5.78743 6.401C5.63073 6.45675 5.53933 6.48942 5.51288 6.49933L4.60249 4.0698L4.60241 4.06983L4.60242 4.06986ZM9.94975 8.21207C9.94499 8.35231 9.92002 8.48207 9.87457 8.60145C9.8289 8.72067 9.75434 8.83895 9.65081 8.95586C9.54738 9.07295 9.44267 9.17524 9.33725 9.26289C9.23173 9.35077 9.09902 9.44238 8.93963 9.53833C8.77981 9.63435 8.6379 9.71294 8.51348 9.7747C8.38924 9.83634 8.23892 9.90464 8.06247 9.97987C7.88606 10.0548 7.74767 10.1113 7.64747 10.1488C7.54721 10.1864 7.42003 10.2324 7.26605 10.2871C7.11204 10.342 7.01403 10.3773 6.97179 10.3931L5.96942 7.71811C6.01158 7.70231 6.13593 7.65278 6.34236 7.56929C6.54884 7.48585 6.71797 7.41966 6.84988 7.37023C6.98176 7.32081 7.16677 7.26037 7.40496 7.18929C7.64286 7.11807 7.84694 7.06856 8.01721 7.04086C8.18731 7.01328 8.37823 6.99731 8.5904 6.9931C8.80234 6.98886 8.98424 7.01243 9.13594 7.06388C9.28767 7.11551 9.43061 7.20012 9.56509 7.31824C9.69973 7.43621 9.80257 7.59025 9.87376 7.78023C9.92914 7.92812 9.95444 8.07183 9.94975 8.21207Z" fill="white"/>
</g>
</g>
<defs>
<clipPath id="clip0_33_317">
<rect width="15" height="15" fill="white"/>
</clipPath>
<clipPath id="clip1_33_317">
<rect width="14.0625" height="14.0625" fill="white" transform="translate(-2.17773 2.75732) rotate(-20.5419)"/>
</clipPath>
</defs>
</svg>
