<svg width="15" height="15" viewBox="0 0 15 15" fill="none" xmlns="http://www.w3.org/2000/svg">
<g clip-path="url(#clip0_33_309)">
<path d="M12.6061 8.38842C12.2846 7.95449 11.7994 7.65644 11.1506 7.49444C11.9768 7.05458 12.3399 6.30803 12.2402 5.25467C12.2069 4.8727 12.1057 4.54166 11.9365 4.26105C11.7672 3.98039 11.5388 3.75476 11.2503 3.58407C10.962 3.41317 10.6485 3.28307 10.3104 3.19337C9.97225 3.10368 9.58403 3.03855 9.146 2.99808V0.810547H7.86531V2.93731C7.64354 2.93731 7.30534 2.94308 6.85073 2.95467V0.810547H5.56988V2.99808C5.38685 3.00389 5.11798 3.00684 4.76314 3.00684L3 2.99808V4.42174H3.92311C4.34451 4.42174 4.59124 4.61855 4.66331 5.01201V7.50341C4.71883 7.50341 4.76314 7.50639 4.79644 7.51217H4.66331V11.0017C4.619 11.2967 4.45823 11.4444 4.18097 11.4444H3.25792L3.00006 13.033H4.66346C4.76882 13.033 4.9212 13.0345 5.12089 13.0371C5.32046 13.04 5.4701 13.0415 5.56993 13.0415V15.255H6.851V13.0675C7.08381 13.0734 7.42201 13.0762 7.86558 13.0762V15.255H9.14629V13.0415C9.60104 13.0183 10.0044 12.9752 10.3563 12.9113C10.7084 12.8474 11.0453 12.7478 11.3668 12.6117C11.6883 12.4758 11.9572 12.3064 12.1734 12.1038C12.3897 11.9014 12.5684 11.6438 12.71 11.3312C12.8512 11.0187 12.9414 10.657 12.9801 10.246C13.0525 9.44182 12.9276 8.82254 12.6061 8.38842ZM6.87564 4.51697C6.91447 4.51697 7.02397 4.51551 7.20417 4.51259C7.38446 4.50961 7.5341 4.50675 7.6533 4.50383C7.77253 4.50098 7.93333 4.50821 8.13579 4.52557C8.33816 4.54293 8.50863 4.56613 8.6472 4.59502C8.78577 4.6239 8.93839 4.67167 9.10457 4.73822C9.27105 4.80472 9.40403 4.88577 9.50372 4.98124C9.60361 5.07671 9.68814 5.1983 9.75733 5.34588C9.82671 5.49344 9.86138 5.6627 9.86138 5.85364C9.86138 6.01569 9.83647 6.16331 9.78663 6.29648C9.73688 6.42956 9.66184 6.54099 9.56215 6.63068C9.46244 6.72041 9.35967 6.79861 9.2543 6.8651C9.14906 6.9316 9.01447 6.98517 8.85097 7.02564C8.68749 7.06617 8.54472 7.098 8.42281 7.12111C8.30081 7.14428 8.14837 7.16024 7.96538 7.16887C7.78235 7.17751 7.64369 7.18341 7.54948 7.18626C7.45519 7.18912 7.32632 7.18912 7.16269 7.18626C6.99904 7.18341 6.90352 7.18189 6.87573 7.18189V4.51694H6.87564V4.51697ZM10.373 10.4284C10.3202 10.5616 10.2524 10.6774 10.1693 10.7758C10.086 10.874 9.97647 10.9609 9.8407 11.0361C9.70495 11.1114 9.57314 11.1721 9.44572 11.2184C9.31813 11.2649 9.1642 11.3052 8.98418 11.34C8.80375 11.3747 8.64583 11.3992 8.50985 11.4138C8.37407 11.4283 8.21196 11.4398 8.02337 11.4485C7.83493 11.4571 7.68791 11.4615 7.5826 11.4615C7.47724 11.4615 7.34414 11.4599 7.18334 11.4571C7.02246 11.4543 6.91998 11.4529 6.87558 11.4529V8.51871C6.91989 8.51871 7.05159 8.51588 7.27065 8.50998C7.48974 8.50414 7.66845 8.50144 7.80708 8.50144C7.94568 8.50144 8.13704 8.50998 8.38109 8.52746C8.62492 8.5447 8.83008 8.57064 8.99656 8.60536C9.16284 8.64014 9.34429 8.69359 9.54127 8.76602C9.73804 8.83832 9.89753 8.92655 10.0196 9.03072C10.1416 9.13507 10.2441 9.26796 10.3272 9.43005C10.4105 9.59204 10.4521 9.77727 10.4521 9.98566C10.4521 10.1479 10.4258 10.2952 10.373 10.4284Z" fill="white"/>
</g>
<defs>
<clipPath id="clip0_33_309">
<rect width="15" height="15" fill="white"/>
</clipPath>
</defs>
</svg>
