<svg width="101" height="40" viewBox="0 0 101 40" fill="none" xmlns="http://www.w3.org/2000/svg">
<path d="M21.875 34H6.125C4.67833 34 3.5 32.8228 3.5 31.375V19.125C3.5 17.6772 4.67833 16.5 6.125 16.5H21.875C23.3217 16.5 24.5 17.6772 24.5 19.125V31.375C24.5 32.8228 23.3217 34 21.875 34ZM6.125 18.25C5.64317 18.25 5.25 18.642 5.25 19.125V31.375C5.25 31.858 5.64317 32.25 6.125 32.25H21.875C22.3568 32.25 22.75 31.858 22.75 31.375V19.125C22.75 18.642 22.3568 18.25 21.875 18.25H6.125Z" fill="#9CABC1"/>
<path d="M20.125 18.25C19.642 18.25 19.25 17.858 19.25 17.375V13C19.25 10.1055 16.8945 7.75 14 7.75C11.1055 7.75 8.75 10.1055 8.75 13V17.375C8.75 17.858 8.358 18.25 7.875 18.25C7.392 18.25 7 17.858 7 17.375V13C7 9.1395 10.1395 6 14 6C17.8605 6 21 9.1395 21 13V17.375C21 17.858 20.608 18.25 20.125 18.25Z" fill="#9CABC1"/>
<path d="M13.9993 25.8332C12.7125 25.8332 11.666 24.7867 11.666 23.4998C11.666 22.213 12.7125 21.1665 13.9993 21.1665C15.2862 21.1665 16.3327 22.213 16.3327 23.4998C16.3327 24.7867 15.2862 25.8332 13.9993 25.8332ZM13.9993 22.9165C13.6785 22.9165 13.416 23.1778 13.416 23.4998C13.416 23.8218 13.6785 24.0832 13.9993 24.0832C14.3202 24.0832 14.5827 23.8218 14.5827 23.4998C14.5827 23.1778 14.3202 22.9165 13.9993 22.9165Z" fill="#9CABC1"/>
<path d="M14 29.3333C13.517 29.3333 13.125 28.9413 13.125 28.4583V25.25C13.125 24.767 13.517 24.375 14 24.375C14.483 24.375 14.875 24.767 14.875 25.25V28.4583C14.875 28.9413 14.483 29.3333 14 29.3333Z" fill="#9CABC1"/>
<path d="M39.938 4.1H44.783C46.041 4.1 47.1517 4.355 48.115 4.865C49.0783 5.36367 49.8263 6.06633 50.359 6.973C50.8917 7.86833 51.158 8.894 51.158 10.05C51.158 11.206 50.8917 12.2373 50.359 13.144C49.8263 14.0393 49.0783 14.742 48.115 15.252C47.1517 15.7507 46.041 16 44.783 16H39.938V4.1ZM44.715 14.912C45.7577 14.912 46.67 14.708 47.452 14.3C48.234 13.8807 48.8403 13.3083 49.271 12.583C49.7017 11.8463 49.917 11.002 49.917 10.05C49.917 9.098 49.7017 8.25933 49.271 7.534C48.8403 6.79733 48.234 6.225 47.452 5.817C46.67 5.39767 45.7577 5.188 44.715 5.188H41.196V14.912H44.715ZM53.9829 4.1H58.8279C60.0859 4.1 61.1966 4.355 62.1599 4.865C63.1233 5.36367 63.8713 6.06633 64.4039 6.973C64.9366 7.86833 65.2029 8.894 65.2029 10.05C65.2029 11.206 64.9366 12.2373 64.4039 13.144C63.8713 14.0393 63.1233 14.742 62.1599 15.252C61.1966 15.7507 60.0859 16 58.8279 16H53.9829V4.1ZM58.7599 14.912C59.8026 14.912 60.7149 14.708 61.4969 14.3C62.2789 13.8807 62.8853 13.3083 63.3159 12.583C63.7466 11.8463 63.9619 11.002 63.9619 10.05C63.9619 9.098 63.7466 8.25933 63.3159 7.534C62.8853 6.79733 62.2789 6.225 61.4969 5.817C60.7149 5.39767 59.8026 5.188 58.7599 5.188H55.2409V14.912H58.7599ZM73.2298 16.102C72.0512 16.102 70.9802 15.8413 70.0168 15.32C69.0648 14.7873 68.3168 14.062 67.7728 13.144C67.2402 12.226 66.9738 11.1947 66.9738 10.05C66.9738 8.90533 67.2402 7.874 67.7728 6.956C68.3168 6.038 69.0648 5.31833 70.0168 4.797C70.9802 4.26433 72.0512 3.998 73.2298 3.998C74.4085 3.998 75.4682 4.25867 76.4088 4.78C77.3608 5.30133 78.1088 6.02667 78.6528 6.956C79.1968 7.874 79.4688 8.90533 79.4688 10.05C79.4688 11.1947 79.1968 12.2317 78.6528 13.161C78.1088 14.079 77.3608 14.7987 76.4088 15.32C75.4682 15.8413 74.4085 16.102 73.2298 16.102ZM73.2298 14.98C74.1705 14.98 75.0205 14.7703 75.7798 14.351C76.5392 13.9203 77.1342 13.331 77.5648 12.583C77.9955 11.8237 78.2108 10.9793 78.2108 10.05C78.2108 9.12067 77.9955 8.282 77.5648 7.534C77.1342 6.77467 76.5392 6.18533 75.7798 5.766C75.0205 5.33533 74.1705 5.12 73.2298 5.12C72.2892 5.12 71.4335 5.33533 70.6628 5.766C69.9035 6.18533 69.3028 6.77467 68.8608 7.534C68.4302 8.282 68.2148 9.12067 68.2148 10.05C68.2148 10.9793 68.4302 11.8237 68.8608 12.583C69.3028 13.331 69.9035 13.9203 70.6628 14.351C71.4335 14.7703 72.2892 14.98 73.2298 14.98ZM85.5696 16.102C84.6856 16.102 83.8356 15.9603 83.0196 15.677C82.2149 15.3937 81.5916 15.0197 81.1496 14.555L81.6426 13.586C82.0733 14.0167 82.6456 14.368 83.3596 14.64C84.0736 14.9007 84.8103 15.031 85.5696 15.031C86.6349 15.031 87.4339 14.8383 87.9666 14.453C88.4993 14.0563 88.7656 13.5463 88.7656 12.923C88.7656 12.447 88.6183 12.0673 88.3236 11.784C88.0403 11.5007 87.6889 11.2853 87.2696 11.138C86.8503 10.9793 86.2666 10.8093 85.5186 10.628C84.6233 10.4013 83.9093 10.186 83.3766 9.982C82.8439 9.76667 82.3849 9.44367 81.9996 9.013C81.6256 8.58233 81.4386 7.99867 81.4386 7.262C81.4386 6.66133 81.5973 6.11733 81.9146 5.63C82.2319 5.13133 82.7193 4.73467 83.3766 4.44C84.0339 4.14533 84.8499 3.998 85.8246 3.998C86.5046 3.998 87.1676 4.09433 87.8136 4.287C88.4709 4.46833 89.0376 4.72333 89.5136 5.052L89.0886 6.055C88.5899 5.72633 88.0573 5.48267 87.4906 5.324C86.9239 5.154 86.3686 5.069 85.8246 5.069C84.7819 5.069 83.9943 5.273 83.4616 5.681C82.9403 6.07767 82.6796 6.59333 82.6796 7.228C82.6796 7.704 82.8213 8.08933 83.1046 8.384C83.3993 8.66733 83.7619 8.88833 84.1926 9.047C84.6346 9.19433 85.2239 9.35867 85.9606 9.54C86.8333 9.75533 87.5359 9.97067 88.0686 10.186C88.6126 10.39 89.0716 10.7073 89.4456 11.138C89.8196 11.5573 90.0066 12.1297 90.0066 12.855C90.0066 13.4557 89.8423 14.0053 89.5136 14.504C89.1963 14.9913 88.7033 15.3823 88.0346 15.677C87.3659 15.9603 86.5443 16.102 85.5696 16.102ZM44.392 24.1C45.9107 24.1 47.1007 24.4627 47.962 25.188C48.8233 25.9133 49.254 26.9107 49.254 28.18C49.254 29.4493 48.8233 30.4467 47.962 31.172C47.1007 31.886 45.9107 32.243 44.392 32.243H41.196V36H39.938V24.1H44.392ZM44.358 31.138C45.5367 31.138 46.4377 30.883 47.061 30.373C47.6843 29.8517 47.996 29.1207 47.996 28.18C47.996 27.2167 47.6843 26.48 47.061 25.97C46.4377 25.4487 45.5367 25.188 44.358 25.188H41.196V31.138H44.358ZM52.6427 28.809C52.926 28.2083 53.3454 27.755 53.9007 27.449C54.4674 27.143 55.1644 26.99 55.9917 26.99V28.163L55.7027 28.146C54.762 28.146 54.0254 28.435 53.4927 29.013C52.96 29.591 52.6937 30.4013 52.6937 31.444V36H51.4867V27.058H52.6427V28.809ZM61.7491 36.085C60.8878 36.085 60.1115 35.8923 59.4201 35.507C58.7288 35.1103 58.1848 34.5663 57.7881 33.875C57.3915 33.1837 57.1931 32.4017 57.1931 31.529C57.1931 30.6563 57.3915 29.8743 57.7881 29.183C58.1848 28.4917 58.7288 27.9533 59.4201 27.568C60.1115 27.1827 60.8878 26.99 61.7491 26.99C62.6105 26.99 63.3868 27.1827 64.0781 27.568C64.7695 27.9533 65.3078 28.4917 65.6931 29.183C66.0898 29.8743 66.2881 30.6563 66.2881 31.529C66.2881 32.4017 66.0898 33.1837 65.6931 33.875C65.3078 34.5663 64.7695 35.1103 64.0781 35.507C63.3868 35.8923 62.6105 36.085 61.7491 36.085ZM61.7491 35.014C62.3838 35.014 62.9505 34.8723 63.4491 34.589C63.9591 34.2943 64.3558 33.8807 64.6391 33.348C64.9225 32.8153 65.0641 32.209 65.0641 31.529C65.0641 30.849 64.9225 30.2427 64.6391 29.71C64.3558 29.1773 63.9591 28.7693 63.4491 28.486C62.9505 28.1913 62.3838 28.044 61.7491 28.044C61.1145 28.044 60.5421 28.1913 60.0321 28.486C59.5335 28.7693 59.1368 29.1773 58.8421 29.71C58.5588 30.2427 58.4171 30.849 58.4171 31.529C58.4171 32.209 58.5588 32.8153 58.8421 33.348C59.1368 33.8807 59.5335 34.2943 60.0321 34.589C60.5421 34.8723 61.1145 35.014 61.7491 35.014ZM73.4613 35.456C73.2347 35.66 72.9513 35.8187 72.6113 35.932C72.2827 36.034 71.937 36.085 71.5743 36.085C70.7357 36.085 70.0897 35.8583 69.6363 35.405C69.183 34.9517 68.9563 34.3113 68.9563 33.484V28.078H67.3583V27.058H68.9563V25.103H70.1633V27.058H72.8833V28.078H70.1633V33.416C70.1633 33.9487 70.2937 34.3567 70.5543 34.64C70.8263 34.912 71.2117 35.048 71.7103 35.048C71.9597 35.048 72.1977 35.0083 72.4243 34.929C72.6623 34.8497 72.8663 34.7363 73.0363 34.589L73.4613 35.456ZM83.1292 31.903H75.6492C75.7172 32.8323 76.0742 33.586 76.7202 34.164C77.3662 34.7307 78.1822 35.014 79.1682 35.014C79.7235 35.014 80.2335 34.9177 80.6982 34.725C81.1628 34.521 81.5652 34.2263 81.9052 33.841L82.5852 34.623C82.1885 35.099 81.6898 35.4617 81.0892 35.711C80.4998 35.9603 79.8482 36.085 79.1342 36.085C78.2162 36.085 77.4002 35.8923 76.6862 35.507C75.9835 35.1103 75.4338 34.5663 75.0372 33.875C74.6405 33.1837 74.4422 32.4017 74.4422 31.529C74.4422 30.6563 74.6292 29.8743 75.0032 29.183C75.3885 28.4917 75.9098 27.9533 76.5672 27.568C77.2358 27.1827 77.9838 26.99 78.8112 26.99C79.6385 26.99 80.3808 27.1827 81.0382 27.568C81.6955 27.9533 82.2112 28.4917 82.5852 29.183C82.9592 29.863 83.1462 30.645 83.1462 31.529L83.1292 31.903ZM78.8112 28.027C77.9498 28.027 77.2245 28.3047 76.6352 28.86C76.0572 29.404 75.7285 30.118 75.6492 31.002H81.9902C81.9108 30.118 81.5765 29.404 80.9872 28.86C80.4092 28.3047 79.6838 28.027 78.8112 28.027ZM89.3089 36.085C88.4249 36.085 87.6316 35.8923 86.9289 35.507C86.2376 35.1217 85.6936 34.5833 85.2969 33.892C84.9003 33.1893 84.7019 32.4017 84.7019 31.529C84.7019 30.6563 84.9003 29.8743 85.2969 29.183C85.6936 28.4917 86.2376 27.9533 86.9289 27.568C87.6316 27.1827 88.4249 26.99 89.3089 26.99C90.0796 26.99 90.7653 27.143 91.3659 27.449C91.9779 27.7437 92.4596 28.18 92.8109 28.758L91.9099 29.37C91.6153 28.928 91.2413 28.5993 90.7879 28.384C90.3346 28.1573 89.8416 28.044 89.3089 28.044C88.6629 28.044 88.0793 28.1913 87.5579 28.486C87.0479 28.7693 86.6456 29.1773 86.3509 29.71C86.0676 30.2427 85.9259 30.849 85.9259 31.529C85.9259 32.2203 86.0676 32.8323 86.3509 33.365C86.6456 33.8863 87.0479 34.2943 87.5579 34.589C88.0793 34.8723 88.6629 35.014 89.3089 35.014C89.8416 35.014 90.3346 34.9063 90.7879 34.691C91.2413 34.4757 91.6153 34.147 91.9099 33.705L92.8109 34.317C92.4596 34.895 91.9779 35.337 91.3659 35.643C90.7539 35.9377 90.0683 36.085 89.3089 36.085ZM99.9906 35.456C99.764 35.66 99.4806 35.8187 99.1406 35.932C98.812 36.034 98.4663 36.085 98.1036 36.085C97.265 36.085 96.619 35.8583 96.1656 35.405C95.7123 34.9517 95.4856 34.3113 95.4856 33.484V28.078H93.8876V27.058H95.4856V25.103H96.6926V27.058H99.4126V28.078H96.6926V33.416C96.6926 33.9487 96.823 34.3567 97.0836 34.64C97.3556 34.912 97.741 35.048 98.2396 35.048C98.489 35.048 98.727 35.0083 98.9536 34.929C99.1916 34.8497 99.3956 34.7363 99.5656 34.589L99.9906 35.456Z" fill="#9CABC1"/>
</svg>
