<svg width="42" height="42" viewBox="0 0 42 42" fill="none" xmlns="http://www.w3.org/2000/svg">
<path d="M41 0H1C0.447715 0 0 0.447717 0 1V41C0 41.5523 0.447716 42 1 42H41C41.5523 42 42 41.5523 42 41V1C42 0.447715 41.5523 0 41 0Z" fill="#027CEF"/>
<path fill-rule="evenodd" clip-rule="evenodd" d="M25.9424 17.7733H22.8252V15.7225C23.0576 13.7606 26.291 14.1298 26.291 14.1298V10.7665C26.1816 10.7665 19.8447 9.24207 18.5869 14.0614V14.0956C18.4328 15.3243 18.3711 16.5628 18.4023 17.8007H15.668V21.4921H18.5391V31.5272H22.7227V21.4647H25.915L26.2773 17.7733H25.9424Z" fill="white"/>
</svg>
