<?xml version="1.0" encoding="utf-8"?>
<!-- Generator: Adobe Illustrator 17.1.0, SVG Export Plug-In . SVG Version: 6.00 Build 0)  -->
<!DOCTYPE svg PUBLIC "-//W3C//DTD SVG 1.0//EN" "http://www.w3.org/TR/2001/REC-SVG-20010904/DTD/svg10.dtd">
<svg version="1.0" id="Layer_1" xmlns="http://www.w3.org/2000/svg" xmlns:xlink="http://www.w3.org/1999/xlink" x="0px" y="0px"
	 viewBox="0 0 2108.6 345.7" style="enable-background:new 0 0 2108.6 345.7;" xml:space="preserve">
<style type="text/css">
	.st0{fill:#001746;}
</style>
<g>
	<path class="st0" d="M20.1,221.3c0-0.9-0.1-1.9-0.1-2.8c0.1-23,12.5-43.1,30.9-54.2h82.7c-1.7,6.1-2.9,12.5-3.5,19
		c-0.3,3.1-0.4,6.3-0.4,9.5c0,3.2,0.1,6.4,0.4,9.5c0.6,6.5,1.8,12.9,3.5,19H20.1z M181.2,282.8l-97.8-0.4
		c-27.3-0.1-50.7-17.7-59.5-42.1h117.4c2.2,4.4,4.8,8.6,7.6,12.6c1.5,2.2,3.2,4.3,4.9,6.4c4.3,5.1,9,9.9,14.1,14.1
		c2.1,1.7,4.2,3.3,6.4,4.9C176.4,279.9,178.8,281.4,181.2,282.8z M448.7,240.3c-8.5,25.3-32.5,43.6-60.6,43.5l-101.6-0.5
		c2.7-1.6,5.3-3.2,7.8-5c2.2-1.5,4.3-3.2,6.4-4.9c5.1-4.3,9.9-9,14.1-14.1c1.7-2.1,3.3-4.2,4.9-6.4c2.8-4,5.4-8.2,7.6-12.6H448.7z
		 M418.7,164.3c19.9,10.9,33.5,32,33.3,56.2c0,0.3,0,0.6,0,0.8H334.8h-19.9c-2.4,6.8-5.6,13.1-9.5,19c-1.4,2.1-3,4.2-4.6,6.2
		c-3.8,4.7-8.1,9-12.8,12.8c-2,1.6-4.1,3.2-6.2,4.6c-5.9,3.9-12.2,7.1-19,9.5c-6.1,2.2-12.4,3.6-19,4.3c-3.1,0.3-6.3,0.5-9.5,0.5
		c-3.2,0-6.4-0.2-9.5-0.5c-6.6-0.7-13-2.2-19-4.3c-6.8-2.4-13.1-5.6-19-9.5c-2.1-1.4-4.2-3-6.2-4.6c-4.7-3.8-9-8.1-12.8-12.8
		c-1.6-2-3.2-4.1-4.6-6.2c-3.9-5.9-7.1-12.2-9.5-19c-2.1-6.1-3.6-12.4-4.3-19c-0.3-3.1-0.5-6.3-0.5-9.5c0-3.2,0.2-6.4,0.5-9.5
		c0.7-6.6,2.2-13,4.3-19c2.4-6.8,5.6-13.1,9.5-19c1.4-2.2,3-4.2,4.6-6.2c3.8-4.7,8.1-9,12.8-12.8c2-1.6,4.1-3.2,6.2-4.6
		c5.9-3.9,12.2-7.1,19-9.5c6.1-2.1,12.4-3.6,19-4.3c3.1-0.3,6.3-0.5,9.5-0.5c3.2,0,6.4,0.2,9.5,0.5c6.6,0.7,13,2.2,19,4.3
		c6.8,2.4,13.1,5.6,19,9.5c2.1,1.4,4.2,3,6.2,4.6c4.7,3.8,9,8.1,12.8,12.8c1.6,2,3.2,4.1,4.6,6.2c3.9,5.9,7.1,12.2,9.5,19h19.9
		H418.7z M281.8,44.9c1.7-0.1,3.4-0.1,5.1-0.1c51.5,0.2,93.1,42.2,92.8,93.7c0,2.3-0.1,4.5-0.3,6.8h-52c-2.2-4.4-4.8-8.6-7.6-12.6
		c-1.5-2.2-3.2-4.3-4.9-6.4c-4.3-5.1-9-9.9-14.1-14.1c-2.1-1.7-4.2-3.3-6.4-4.9c-4-2.8-8.2-5.4-12.6-7.6V44.9z M205.8,91.3
		c12.3-21.2,32.7-37.1,57-43.5v44.4c-6.1-1.7-12.5-2.9-19-3.5c-3.1-0.3-6.3-0.4-9.5-0.4c-3.2,0-6.4,0.1-9.5,0.4
		c-6.5,0.6-12.9,1.8-19,3.5V91.3z M280.8,145.3c-5.2-5.1-11.3-9.4-18-12.6c-5.9-2.8-12.3-4.8-19-5.7v19.3c7,1.4,13.5,4.4,19,8.5
		c3.6,2.7,6.8,5.9,9.5,9.5h22.1c-3.2-6.7-7.5-12.8-12.6-18C281.4,145.9,281.1,145.6,280.8,145.3z M262.8,230.8
		c-5.5,4.1-12,7.1-19,8.5v19.3c6.7-0.9,13.1-2.9,19-5.7c6.7-3.2,12.8-7.5,18-12.6c0.3-0.3,0.6-0.6,0.9-0.9c5.1-5.2,9.4-11.3,12.6-18
		h-22.1C269.6,224.9,266.4,228.1,262.8,230.8z M256.6,170.5H212v44.6h44.6V170.5z M224.8,145.9v-18.9c-6.7,0.9-13.1,2.9-19,5.7
		c-6.7,3.2-12.8,7.5-18,12.6c-0.3,0.3-0.6,0.6-0.9,0.9c-5.1,5.2-9.4,11.3-12.6,18c-2.8,5.9-4.8,12.3-5.7,19
		c-0.5,3.1-0.7,6.3-0.7,9.5c0,3.2,0.2,6.4,0.7,9.5c0.9,6.7,2.9,13.1,5.7,19c3.2,6.7,7.5,12.8,12.6,18c0.3,0.3,0.6,0.6,0.9,0.9
		c5.2,5.1,11.3,9.4,18,12.6c5.9,2.8,12.3,4.8,19,5.7v-18.9c-21.9-4.4-38.4-23.7-38.4-46.9C186.4,169.6,202.9,150.3,224.8,145.9z
		 M95.6,145.3c0-0.6,0-1.1,0-1.7c0.2-33.4,27.3-60.3,60.7-60.1c11.1,0.1,21.5,3.1,30.5,8.4v7.8c-4.4,2.2-8.6,4.8-12.6,7.6
		c-2.2,1.5-4.3,3.2-6.4,4.9c-5.1,4.2-9.9,9-14.1,14.1c-1.7,2.1-3.3,4.2-4.9,6.4c-2.8,4-5.4,8.2-7.6,12.6H95.6z"/>
	<path class="st0" d="M1576.7,235.3c-7.3,11.2-16.8,19.9-28.4,26.2c-11.6,6.3-24.1,9.5-37.6,9.5c-21.6,0-40.2-7.7-55.9-23.2
		c-15.3-15.8-23-34.4-23-55.9c0-21.3,7.7-39.9,23-55.6c15.5-15.5,34.1-23.2,55.9-23.2c12.6,0,24.5,2.8,35.7,8.4
		c11.2,5.6,20.5,13.5,27.9,23.8l-15.5,10.7c-5.6-7.7-12.6-13.7-21.2-17.8c-8.5-4.2-17.5-6.2-27-6.2c-16.5,0-30.6,5.9-42.3,17.6
		c-11.9,11.9-17.8,26-17.8,42.5c0,16.4,5.9,30.6,17.8,42.5c11.7,11.7,25.9,17.6,42.3,17.6c19.5,0,35.2-7.6,47.3-22.8v-27.9h-47.3
		v-18.9h66V235.3z M1408.9,267.1h-18.7l-82.9-116.4v116.4h-18.7V116.7h18.7l82.9,116.7V116.7h18.7V267.1z M1260.7,267.1H1242V116.7
		h18.7V267.1z M1214.3,267.1h-18.7l-82.9-116.4v116.4H1094V116.7h18.7l82.9,116.7V116.7h18.7V267.1z M1066.1,267.1h-18.7V116.7h18.7
		V267.1z M1019.4,267.1h-18.7V141l-46,126.1h-20l-46.2-126.8v126.8h-18.7V116.7H900l44.7,122.9l44.7-122.9h30.1V267.1z
		 M2088.7,140.8h-48.8v131.7h-29.2V140.8h-48.8v-29.2h126.8V140.8z M1941.7,272.5h-115.8V111.6h115.8v29.2h-86.6v36.5h67.7v29.2
		h-67.7v36.7h86.6V272.5z M1798.2,272.5h-26.9l-74.8-105.3v105.3h-29.2V111.6h26.7l74.9,105.3V111.6h29.2V272.5z M1639.5,254
		c0,5.2-1.8,9.5-5.3,13.1c-3.5,3.6-7.9,5.4-13.2,5.4c-5.2,0-9.5-1.8-13-5.4c-3.5-3.6-5.3-7.9-5.3-13.1c0-5.2,1.8-9.5,5.3-13.1
		c3.5-3.6,7.8-5.4,13-5.4c5.3,0,9.7,1.8,13.2,5.4C1637.7,244.5,1639.5,248.9,1639.5,254z M842.2,243.9l0.2,7.5
		c-16.3,16.5-36.2,24.7-59.5,24.7c-23.3,0-43.3-8.2-59.7-24.7c-16.3-16.3-24.5-36.2-24.5-59.5c0-23.2,8.2-43,24.5-59.3
		c16.6-16.6,36.5-24.9,59.7-24.9c23.1,0,44.2,9.4,63.4,28.1L825,156.3c-13.2-12.9-27.2-19.3-42.1-19.3c-15.3,0-28.2,5.4-38.7,16.1
		c-10.9,10.9-16.3,23.8-16.3,38.7c0,15.1,5.4,28,16.3,38.7c10.7,10.9,23.6,16.4,38.7,16.4c14.9,0,28.9-6.5,42.1-19.6L842.2,243.9z
		 M675.7,243.9l0.2,7.5c-16.3,16.5-36.2,24.7-59.5,24.7c-23.3,0-43.3-8.2-59.7-24.7c-16.3-16.3-24.5-36.2-24.5-59.5
		c0-23.2,8.2-43,24.5-59.3c16.6-16.6,36.5-24.9,59.7-24.9c23.1,0,44.2,9.4,63.4,28.1l-21.3,20.4c-13.2-12.9-27.2-19.3-42.1-19.3
		c-15.3,0-28.2,5.4-38.7,16.1c-10.9,10.9-16.3,23.8-16.3,38.7c0,15.1,5.4,28,16.3,38.7c10.7,10.9,23.6,16.4,38.7,16.4
		c14.9,0,28.9-6.5,42.1-19.6L675.7,243.9z"/>
</g>
</svg>
