<svg width="140" height="140" viewBox="0 0 140 140" fill="none" xmlns="http://www.w3.org/2000/svg">
<circle cx="70" cy="70" r="70" fill="#F3F8FF"/>
<path d="M96.8212 107.062H40.0747C36.3422 107.062 33.3164 104.448 33.3164 101.224V32.4076C33.3164 29.1829 36.3422 26.5688 40.0747 26.5688H96.8212C100.554 26.5688 103.58 29.1829 103.58 32.4076V101.224C103.58 104.448 100.554 107.062 96.8212 107.062Z" fill="#2E396D"/>
<path d="M91.6848 85.7547H43.6311C42.7303 85.7547 42 85.0267 42 84.1287V77.911C42 77.013 42.7303 76.2849 43.6311 76.2849H91.6846C92.5854 76.2849 93.3158 77.013 93.3158 77.911V84.1287C93.316 85.0267 92.5856 85.7547 91.6848 85.7547Z" fill="#EBEEF2"/>
<path d="M107.83 84.8338C106.47 84.7777 105.305 85.7849 104.905 87.1944C104.858 87.361 104.659 87.3646 104.612 87.198C104.224 85.824 103.109 84.8316 101.794 84.8316C100.479 84.8316 99.3635 85.8251 98.9762 87.2001C98.9298 87.3646 98.7311 87.3646 98.6848 87.2001C98.2976 85.8251 97.1822 84.8316 95.8667 84.8316C94.2298 84.8316 92.9029 86.3696 92.9029 88.267V76.646C92.9029 74.7832 91.6533 73.1967 90.0471 73.1304C88.361 73.0609 86.9753 74.6246 86.9753 76.5635V97.5708L81.9915 90.6862C80.8738 89.1421 78.9533 89.045 77.7237 90.4702C76.4941 91.8954 76.4026 94.3247 77.5203 95.8688L86.9753 108.93V111.611C86.9753 112.585 87.6565 113.375 88.4969 113.375H103.309C107.383 113.375 110.686 109.547 110.686 104.824V88.3494C110.686 86.4865 109.436 84.9 107.83 84.8338Z" fill="#FFDD94"/>
<path d="M108.796 84.9678C108.353 84.9404 107.941 85.1693 107.605 85.5765C108.125 86.2141 108.461 87.2845 108.461 88.4669V104.865C108.461 109.565 106.276 113.375 103.58 113.375H105.805C108.5 113.375 110.685 109.565 110.685 104.865V88.4669C110.685 86.6127 109.859 85.0336 108.796 84.9678Z" fill="#EFA143"/>
<path d="M60.6644 99.9594H46.2303C43.894 99.9594 42 98.668 42 97.075V94.9523C42 93.3593 43.894 92.0679 46.2303 92.0679H60.6644C63.0007 92.0679 64.8947 93.3593 64.8947 94.9523V97.075C64.8947 98.668 63.0007 99.9594 60.6644 99.9594Z" fill="#3E5293"/>
<path d="M60.0407 96.0137L54.9098 93.0513V98.976L60.0407 96.0137ZM47.4863 96.5268H55.4229V95.5006H47.4863V96.5268Z" fill="#6C7FBF"/>
<path d="M91.6848 67.6043H43.6311C42.7303 67.6043 42 66.9369 42 66.1137V60.4142C42 59.591 42.7303 58.9236 43.6311 58.9236H91.6846C92.5854 58.9236 93.3158 59.591 93.3158 60.4142V66.1137C93.316 66.9369 92.5856 67.6043 91.6848 67.6043Z" fill="#EBEEF2"/>
<path d="M47.1328 80.1592H46.7812C46.0532 80.1592 45.4629 80.7492 45.4629 81.477C45.4629 82.2048 46.0532 82.7948 46.7812 82.7948H47.1328C47.8609 82.7948 48.4512 82.2048 48.4512 81.477C48.4512 80.7492 47.8609 80.1592 47.1328 80.1592Z" fill="black"/>
<path d="M52.5234 80.1592H52.1719C51.4438 80.1592 50.8535 80.7492 50.8535 81.477C50.8535 82.2048 51.4438 82.7948 52.1719 82.7948H52.5234C53.2515 82.7948 53.8418 82.2048 53.8418 81.477C53.8418 80.7492 53.2515 80.1592 52.5234 80.1592Z" fill="black"/>
<path d="M57.9141 80.1592H57.5625C56.8344 80.1592 56.2441 80.7492 56.2441 81.477C56.2441 82.2048 56.8344 82.7948 57.5625 82.7948H57.9141C58.6421 82.7948 59.2324 82.2048 59.2324 81.477C59.2324 80.7492 58.6421 80.1592 57.9141 80.1592Z" fill="black"/>
<path d="M63.3047 80.1592H62.9531C62.225 80.1592 61.6348 80.7492 61.6348 81.477C61.6348 82.2048 62.225 82.7948 62.9531 82.7948H63.3047C64.0328 82.7948 64.623 82.2048 64.623 81.477C64.623 80.7492 64.0328 80.1592 63.3047 80.1592Z" fill="black"/>
<path d="M68.6953 80.1592H68.3438C67.6157 80.1592 67.0254 80.7492 67.0254 81.477C67.0254 82.2048 67.6157 82.7948 68.3438 82.7948H68.6953C69.4234 82.7948 70.0137 82.2048 70.0137 81.477C70.0137 80.7492 69.4234 80.1592 68.6953 80.1592Z" fill="black"/>
<path d="M71.1901 39.9745C71.1901 40.8835 70.8389 41.7552 70.2138 42.3979C69.5887 43.0406 68.7408 43.4017 67.8568 43.4017C66.9727 43.4017 66.1249 43.0406 65.4997 42.3979C64.8746 41.7552 64.5234 40.8835 64.5234 39.9745C64.5234 39.0656 64.8746 38.1939 65.4997 37.5512C66.1249 36.9084 66.9727 36.5474 67.8568 36.5474C68.7408 36.5474 69.5887 36.9084 70.2138 37.5512C70.8389 38.1939 71.1901 39.0656 71.1901 39.9745ZM67.8568 45.9721C66.3097 45.9721 64.8259 46.604 63.732 47.7288C62.638 48.8535 62.0234 50.379 62.0234 51.9697H73.6901C73.6901 50.379 73.0755 48.8535 71.9816 47.7288C70.8876 46.604 69.4039 45.9721 67.8568 45.9721Z" fill="white"/>
</svg>
