<svg width="140" height="140" viewBox="0 0 140 140" fill="none" xmlns="http://www.w3.org/2000/svg">
<circle cx="70" cy="70" r="70" fill="#F3F8FF"/>
<path d="M58.5 113.454C75.0685 113.454 88.5 100.028 88.5 83.4661C88.5 66.9043 75.0685 53.4783 58.5 53.4783C41.9315 53.4783 28.5 66.9043 28.5 83.4661C28.5 100.028 41.9315 113.454 58.5 113.454Z" fill="#EFA143"/>
<path d="M86.0785 82.9925C86.0785 98.3906 73.5906 110.875 58.1838 110.875C42.777 110.875 30.2891 98.3906 30.2891 82.9925C30.2891 67.5944 42.777 55.1101 58.1838 55.1101C73.5906 55.1101 86.0785 67.5944 86.0785 82.9925Z" stroke="#FFDD94" stroke-width="5"/>
<path d="M70.5 88.7138C70.4986 87.4222 70.127 86.158 69.4292 85.0709C68.7314 83.9838 67.7365 83.1193 66.5625 82.5798C67.3913 81.6045 67.9251 80.4134 68.1014 79.1459C68.2778 77.8784 68.0894 76.5869 67.5583 75.4225C67.0273 74.2581 66.1755 73.2689 65.1026 72.5707C64.0297 71.8725 62.7801 71.4941 61.5 71.4798V68.472C61.5 68.0744 61.342 67.693 61.0607 67.4118C60.7794 67.1306 60.3978 66.9727 60 66.9727C59.6022 66.9727 59.2206 67.1306 58.9393 67.4118C58.658 67.693 58.5 68.0744 58.5 68.472V71.4708H55.5V68.472C55.5 68.0744 55.342 67.693 55.0607 67.4118C54.7794 67.1306 54.3978 66.9727 54 66.9727C53.6022 66.9727 53.2206 67.1306 52.9393 67.4118C52.658 67.693 52.5 68.0744 52.5 68.472V71.4708H48C47.6022 71.4708 47.2206 71.6288 46.9393 71.91C46.658 72.1912 46.5 72.5726 46.5 72.9702C46.5 73.3679 46.658 73.7493 46.9393 74.0305C47.2206 74.3116 47.6022 74.4696 48 74.4696H52.5V92.4623H48C47.6022 92.4623 47.2206 92.6203 46.9393 92.9015C46.658 93.1827 46.5 93.564 46.5 93.9617C46.5 94.3594 46.658 94.7407 46.9393 95.0219C47.2206 95.3031 47.6022 95.4611 48 95.4611H52.5V98.4599C52.5 98.8575 52.658 99.2389 52.9393 99.5201C53.2206 99.8013 53.6022 99.9593 54 99.9593C54.3978 99.9593 54.7794 99.8013 55.0607 99.5201C55.342 99.2389 55.5 98.8575 55.5 98.4599V95.4611H58.5V98.4599C58.5 98.8575 58.658 99.2389 58.9393 99.5201C59.2206 99.8013 59.6022 99.9593 60 99.9593C60.3978 99.9593 60.7794 99.8013 61.0607 99.5201C61.342 99.2389 61.5 98.8575 61.5 98.4599V95.4611H63.75C65.5396 95.4591 67.2553 94.7476 68.5208 93.4827C69.7862 92.2177 70.498 90.5027 70.5 88.7138V88.7138ZM67.5 88.7138C67.5 89.708 67.1049 90.6614 66.4017 91.3644C65.6984 92.0674 64.7446 92.4623 63.75 92.4623H55.5V84.9654H63.75C64.7446 84.9654 65.6984 85.3603 66.4017 86.0633C67.1049 86.7662 67.5 87.7197 67.5 88.7138ZM65.166 78.2181C65.166 79.2123 64.7709 80.1657 64.0677 80.8687C63.3644 81.5716 62.4106 81.9666 61.416 81.9666H55.5V74.4696H61.416C62.4106 74.4696 63.3644 74.8645 64.0677 75.5675C64.7709 76.2705 65.166 77.2239 65.166 78.2181Z" fill="#FFDD94"/>
<path d="M83.283 34.7784C83.283 34.7784 91.458 26.6067 99.7005 26.4898C99.9186 26.4883 100.132 26.5515 100.314 26.6715C100.496 26.7915 100.638 26.9628 100.723 27.1637C100.807 27.3646 100.83 27.5861 100.789 27.8001C100.747 28.014 100.643 28.2108 100.49 28.3655L88.6785 40.1717L79.6875 49.1591L67.8765 60.9653C67.7218 61.1188 67.5249 61.2229 67.3108 61.2645C67.0968 61.306 66.8752 61.2831 66.6743 61.1986C66.4733 61.1141 66.3019 60.9719 66.1819 60.79C66.0618 60.608 65.9985 60.3945 66 60.1766C66.117 51.9374 74.292 43.7658 74.292 43.7658L83.283 34.7784Z" fill="#2C3978"/>
<path d="M74.2856 32.9878L72.4881 34.7846C71.4947 35.7776 71.4947 37.3875 72.4881 38.3804L109.348 75.2252C110.341 76.2182 111.952 76.2182 112.945 75.2252L114.743 73.4284C115.736 72.4355 115.736 70.8256 114.743 69.8327L77.8828 32.9878C76.8895 31.9949 75.279 31.9949 74.2856 32.9878Z" fill="#2C3978"/>
<path d="M88.6801 41.9629L81.4801 49.1599C81.2409 49.3976 80.9174 49.5311 80.5801 49.5311C80.2428 49.5311 79.9193 49.3976 79.6801 49.1599L74.2951 43.7621C74.0573 43.5231 73.9238 43.1996 73.9238 42.8625C73.9238 42.5254 74.0573 42.2019 74.2951 41.9629L81.4801 34.7808C81.7193 34.5431 82.0428 34.4097 82.3801 34.4097C82.7174 34.4097 83.0409 34.5431 83.2801 34.7808L88.6801 40.1636C88.9179 40.4027 89.0514 40.7261 89.0514 41.0632C89.0514 41.4004 88.9179 41.7238 88.6801 41.9629V41.9629Z" fill="#7BB1FF"/>
</svg>
