<svg width="140" height="140" viewBox="0 0 140 140" fill="none" xmlns="http://www.w3.org/2000/svg">
<circle cx="70" cy="70" r="70" fill="#F3F8FF"/>
<g clip-path="url(#clip0_33_1700)">
<path d="M112.909 93.2873H31.091C28.841 93.2873 27 91.4471 27 89.198V44.2163C27 41.9672 28.841 40.127 31.091 40.127H112.909C115.159 40.127 117 41.9672 117 44.2163V89.198C117 91.4471 115.159 93.2873 112.909 93.2873Z" fill="#2E396D"/>
<path d="M104.728 89.1979H39.2735C39.2735 84.6997 35.5918 81.0195 31.0918 81.0195V52.3947C35.5918 52.3947 39.2735 48.7145 39.2735 44.2163H104.728C104.728 48.7145 108.41 52.3947 112.91 52.3947V81.0195C108.41 81.0195 104.728 84.6997 104.728 89.1979Z" fill="#3E5293"/>
<path d="M72.0004 85.1088C81.0378 85.1088 88.364 76.8702 88.364 66.7072C88.364 56.5443 81.0378 48.3057 72.0004 48.3057C62.963 48.3057 55.6367 56.5443 55.6367 66.7072C55.6367 76.8702 62.963 85.1088 72.0004 85.1088Z" fill="#2E396D"/>
<path d="M47.4542 70.7965C49.7136 70.7965 51.5452 68.9657 51.5452 66.7072C51.5452 64.4488 49.7136 62.6179 47.4542 62.6179C45.1949 62.6179 43.3633 64.4488 43.3633 66.7072C43.3633 68.9657 45.1949 70.7965 47.4542 70.7965Z" fill="#2E396D"/>
<path d="M96.5441 70.7965C98.8035 70.7965 100.635 68.9657 100.635 66.7072C100.635 64.4488 98.8035 62.6179 96.5441 62.6179C94.2847 62.6179 92.4531 64.4488 92.4531 66.7072C92.4531 68.9657 94.2847 70.7965 96.5441 70.7965Z" fill="#2E396D"/>
<path d="M73.8734 65.4457L70.4004 65.3612C69.3585 65.3359 68.6809 64.6246 68.7062 63.5833C68.7316 62.5418 69.4431 61.8645 70.4849 61.8898L75.6943 62.0165C76.7363 62.0418 77.4477 61.3643 77.473 60.323C77.4984 59.2815 76.8206 58.5704 75.7788 58.545L74.0424 58.5028C74.0678 57.4613 73.39 56.7502 72.3482 56.7248C71.3063 56.6995 70.5949 57.377 70.5695 58.4183C67.6175 58.3465 65.3052 60.5481 65.2333 63.499C65.1615 66.4498 67.364 68.7612 70.316 68.833L73.789 68.9175C74.831 68.9428 75.5086 69.6541 75.4832 70.6954C75.4579 71.7369 74.7463 72.4143 73.7045 72.3889L68.4951 72.2622C67.4532 72.2369 66.7418 72.9144 66.7164 73.9557C66.6911 74.9972 67.3688 75.7084 68.4106 75.7337L70.147 75.7759C70.1217 76.8174 70.7994 77.5285 71.8412 77.5539C72.8831 77.5792 73.5945 76.9017 73.6199 75.8604C76.572 75.9322 78.8843 73.7306 78.9561 70.7798C79.0279 67.8289 76.8255 65.5175 73.8734 65.4457Z" fill="white"/>
<path d="M97.0694 110.269C107.613 110.269 116.16 101.725 116.16 91.1857C116.16 80.6464 107.613 72.1025 97.0694 72.1025C86.5258 72.1025 77.9785 80.6464 77.9785 91.1857C77.9785 101.725 86.5258 110.269 97.0694 110.269Z" fill="#EFA143"/>
<path d="M113.71 90.8841C113.71 100.18 106.17 107.718 96.8675 107.718C87.5649 107.718 80.0254 100.18 80.0254 90.8841C80.0254 81.5877 87.5649 74.0498 96.8675 74.0498C106.17 74.0498 113.71 81.5877 113.71 90.8841Z" stroke="#FFDD94" stroke-width="5"/>
<path d="M74.9059 114.2C82.4371 114.2 88.5423 108.097 88.5423 100.569C88.5423 93.041 82.4371 86.9382 74.9059 86.9382C67.3747 86.9382 61.2695 93.041 61.2695 100.569C61.2695 108.097 67.3747 114.2 74.9059 114.2Z" fill="#EFA143"/>
<path d="M86.0788 100.354C86.0788 106.599 81.0136 111.664 74.7631 111.664C68.5126 111.664 63.4473 106.599 63.4473 100.354C63.4473 94.1084 68.5126 89.0437 74.7631 89.0437C81.0136 89.0437 86.0788 94.1084 86.0788 100.354Z" stroke="#FFDD94" stroke-width="5"/>
<path d="M75.6517 99.4989H73.8754C73.3424 99.4989 72.9872 99.1569 72.9872 98.644C72.9872 98.131 73.3425 97.7891 73.8754 97.7891H76.5398C77.0728 97.7891 77.428 97.4471 77.428 96.9342C77.428 96.4212 77.0727 96.0793 76.5398 96.0793H75.6517C75.6517 95.5663 75.2964 95.2244 74.7636 95.2244C74.2307 95.2244 73.8754 95.5664 73.8754 96.0793C72.3655 96.0793 71.2109 97.1907 71.2109 98.6441C71.2109 100.097 72.3655 101.209 73.8754 101.209H75.6518C76.1847 101.209 76.5399 101.551 76.5399 102.064C76.5399 102.577 76.1846 102.919 75.6518 102.919H72.9873C72.4544 102.919 72.0992 103.261 72.0992 103.774C72.0992 104.287 72.4545 104.628 72.9873 104.628H73.8754C73.8754 105.141 74.2307 105.483 74.7636 105.483C75.2965 105.483 75.6517 105.141 75.6517 104.628C77.1616 104.628 78.3162 103.517 78.3162 102.064C78.3162 100.61 77.1616 99.4989 75.6517 99.4989Z" fill="#FFDD94"/>
<path d="M98.842 88.5821H95.684C94.7366 88.5821 94.1051 87.9771 94.1051 87.0696C94.1051 86.1621 94.7367 85.5571 95.684 85.5571H100.421C101.368 85.5571 102 84.952 102 84.0446C102 83.137 101.368 82.5321 100.421 82.5321H98.842C98.842 81.6245 98.2103 81.0195 97.2631 81.0195C96.3157 81.0195 95.6841 81.6246 95.6841 82.5321C92.9999 82.5321 90.9473 84.4984 90.9473 87.0698C90.9473 89.6411 92.9999 91.6075 95.6841 91.6075H98.8421C99.7895 91.6075 100.421 92.2125 100.421 93.12C100.421 94.0275 99.7894 94.6325 98.8421 94.6325H94.1052C93.1578 94.6325 92.5263 95.2376 92.5263 96.145C92.5263 97.0526 93.158 97.6575 94.1052 97.6575H95.6841C95.6841 98.5651 96.3158 99.1701 97.2631 99.1701C98.2105 99.1701 98.842 98.565 98.842 97.6575C101.526 97.6575 103.579 95.6912 103.579 93.1198C103.579 90.5485 101.526 88.5821 98.842 88.5821Z" fill="#FFDD94"/>
</g>
<defs>
<clipPath id="clip0_33_1700">
<rect width="90" height="89.9635" fill="white" transform="translate(27 24.9897)"/>
</clipPath>
</defs>
</svg>
