<svg width="42" height="42" viewBox="0 0 42 42" fill="none" xmlns="http://www.w3.org/2000/svg">
<path d="M41 0H1C0.447715 0 0 0.447717 0 1V41C0 41.5523 0.447717 42 1 42H41C41.5523 42 42 41.5523 42 41V1C42 0.447715 41.5523 0 41 0Z" fill="#027CEF"/>
<path fill-rule="evenodd" clip-rule="evenodd" d="M20.7402 10.5C18.1221 10.5 17.7529 10.5 16.6729 10.5615C15.8014 10.5817 14.9395 10.7481 14.1231 11.0537C13.4257 11.323 12.7923 11.7351 12.2637 12.2637C11.7351 12.7923 11.323 13.4257 11.0537 14.1231C10.7481 14.9395 10.5817 15.8014 10.5615 16.6729C10.5137 17.794 10.5 18.1494 10.5 21C10.5 23.8506 10.5 24.2061 10.5615 25.3272C10.5817 26.1987 10.7481 27.0606 11.0537 27.877C11.323 28.5744 11.7351 29.2077 12.2637 29.7363C12.7923 30.2649 13.4257 30.6771 14.1231 30.9463C14.9395 31.252 15.8014 31.4183 16.6729 31.4385C17.7939 31.4864 18.1494 31.5 21 31.5C23.8506 31.5 24.2061 31.5 25.3272 31.4385C26.1987 31.4183 27.0606 31.252 27.877 30.9463C28.5744 30.6771 29.2077 30.2649 29.7363 29.7363C30.2649 29.2077 30.6771 28.5744 30.9463 27.877C31.2519 27.0606 31.4183 26.1987 31.4385 25.3272C31.4863 24.2471 31.5 23.878 31.5 21.2598V20.7403C31.5 18.1221 31.5 17.7529 31.4385 16.6729C31.4183 15.8014 31.2519 14.9395 30.9463 14.1231C30.6771 13.4257 30.2649 12.7923 29.7363 12.2637C29.2077 11.7351 28.5744 11.323 27.877 11.0537C27.0623 10.7511 26.2028 10.5871 25.334 10.5684C24.2539 10.5205 23.8848 10.5068 21.2666 10.5068L20.7402 10.5ZM27.8633 15.3945C27.8633 15.6433 27.7895 15.8865 27.6513 16.0933C27.5131 16.3002 27.3167 16.4614 27.0868 16.5566C26.857 16.6518 26.6041 16.6767 26.3601 16.6282C26.1161 16.5797 25.892 16.4599 25.7161 16.284C25.5402 16.108 25.4204 15.8839 25.3718 15.6399C25.3233 15.3959 25.3482 15.143 25.4434 14.9132C25.5386 14.6834 25.6998 14.4869 25.9067 14.3487C26.1135 14.2105 26.3567 14.1367 26.6055 14.1367C26.9391 14.1367 27.259 14.2692 27.4949 14.5051C27.7308 14.741 27.8633 15.0609 27.8633 15.3945ZM21.0274 24.5C20.3351 24.5 19.6584 24.2947 19.0829 23.9102C18.5073 23.5256 18.0587 22.9789 17.7938 22.3394C17.5289 21.6999 17.4596 20.9961 17.5946 20.3172C17.7297 19.6383 18.063 19.0146 18.5525 18.5251C19.042 18.0357 19.6656 17.7023 20.3445 17.5673C21.0235 17.4322 21.7272 17.5015 22.3667 17.7664C23.0063 18.0313 23.5529 18.4799 23.9375 19.0555C24.3221 19.6311 24.5274 20.3078 24.5274 21C24.5274 21.9283 24.1586 22.8185 23.5022 23.4749C22.8458 24.1313 21.9556 24.5 21.0274 24.5ZM21.0274 15.6133C22.0941 15.6133 23.1369 15.9296 24.0238 16.5223C24.9108 17.1149 25.6021 17.9573 26.0104 18.9428C26.4186 19.9284 26.5254 21.0128 26.3173 22.0591C26.1092 23.1053 25.5955 24.0664 24.8412 24.8207C24.0869 25.575 23.1258 26.0887 22.0796 26.2968C21.0333 26.5049 19.9489 26.3981 18.9633 25.9899C17.9778 25.5816 17.1354 24.8903 16.5428 24.0033C15.9501 23.1164 15.6338 22.0736 15.6338 21.0068C15.6338 19.5764 16.2021 18.2045 17.2135 17.193C18.225 16.1815 19.5969 15.6133 21.0274 15.6133ZM21.0274 12.4004C23.8301 12.4004 24.1651 12.4004 25.2725 12.4619C25.9378 12.4712 26.5966 12.5937 27.2207 12.8242C27.6719 13.0001 28.0816 13.2678 28.424 13.6102C28.7664 13.9526 29.0341 14.3623 29.21 14.8135C29.4405 15.4376 29.563 16.0965 29.5723 16.7617C29.627 17.8692 29.6338 18.2041 29.6338 21.0068C29.6338 23.8096 29.6338 24.1446 29.5723 25.252C29.563 25.9173 29.4405 26.5761 29.21 27.2002C29.0341 27.6514 28.7664 28.0611 28.424 28.4035C28.0816 28.7459 27.6719 29.0135 27.2207 29.1895C26.5966 29.42 25.9378 29.5425 25.2725 29.5518C24.1651 29.6065 23.8301 29.6133 21.0274 29.6133C18.2246 29.6133 17.8897 29.6133 16.7822 29.5518C16.117 29.5425 15.4581 29.42 14.834 29.1895C14.3829 29.0135 13.9731 28.7459 13.6307 28.4035C13.2883 28.0611 13.0207 27.6514 12.8447 27.2002C12.6142 26.5761 12.4917 25.9173 12.4824 25.252C12.4278 24.1446 12.4209 23.8096 12.4209 21.0068C12.4209 18.2041 12.4209 17.8692 12.4824 16.7617C12.4917 16.0965 12.6142 15.4376 12.8447 14.8135C13.0207 14.3623 13.2883 13.9526 13.6307 13.6102C13.9731 13.2678 14.3829 13.0001 14.834 12.8242C15.4581 12.5937 16.117 12.4712 16.7822 12.4619C17.8623 12.4004 18.1973 12.3936 21 12.3936L21.0274 12.4004Z" fill="white"/>
</svg>
