<svg width="251" height="22" viewBox="0 0 251 22" fill="none" xmlns="http://www.w3.org/2000/svg">
<path d="M2.55957 22C1.9834 22 1.49023 21.7949 1.08008 21.3848C0.669922 20.9746 0.464844 20.4814 0.464844 19.9053V3.17676C0.464844 2.60059 0.669922 2.10742 1.08008 1.69727C1.49023 1.28711 1.9834 1.08203 2.55957 1.08203H12.3154C13.4678 1.08203 14.5176 1.36523 15.4648 1.93164C16.4219 2.49805 17.1836 3.25488 17.75 4.20215C18.3164 5.14941 18.5996 6.19922 18.5996 7.35156C18.5996 8.16211 18.458 8.92383 18.1748 9.63672C17.8916 10.3496 17.4961 10.9844 16.9883 11.541C17.4961 12.0977 17.8916 12.7324 18.1748 13.4453C18.458 14.1582 18.5996 14.9199 18.5996 15.7305C18.5996 16.8828 18.3164 17.9326 17.75 18.8799C17.1836 19.8271 16.4219 20.584 15.4648 21.1504C14.5176 21.7168 13.4678 22 12.3154 22H2.55957ZM4.6543 15.3789V17.8105H12.3154C12.8916 17.8105 13.3848 17.6104 13.7949 17.21C14.2051 16.7998 14.4102 16.3066 14.4102 15.7305C14.4102 15.1543 14.2051 14.6611 13.7949 14.251C13.3848 13.8408 12.8916 13.6357 12.3154 13.6357H6.73438V9.44629H12.3154C12.8916 9.44629 13.3848 9.24609 13.7949 8.8457C14.2051 8.43555 14.4102 7.9375 14.4102 7.35156C14.4102 6.77539 14.2051 6.28711 13.7949 5.88672C13.3848 5.47656 12.8916 5.27148 12.3154 5.27148H4.6543V7.35156V9.44629V13.6357V15.3789ZM25.7188 1.08203V22H21.5293V1.08203H25.7188ZM35.7969 22V5.27148H28.6484V1.08203H47.1201V5.27148H39.9717V22H35.7969ZM54.2539 13.6357V22H50.0645V1.08203H54.2539V9.44629H64.0098V1.08203H68.1992V22H64.0098V13.6357H54.2539ZM81.8076 1.09668C82.2178 1.09668 82.5938 1.20898 82.9355 1.43359C83.2773 1.6582 83.5361 1.96094 83.7119 2.3418L92.4717 22H87.9014L86.334 18.5137H77.2666L75.7139 22H71.1289L79.8887 2.3418C80.0645 1.96094 80.3232 1.6582 80.665 1.43359C81.0068 1.20898 81.3877 1.09668 81.8076 1.09668ZM79.127 14.3242H84.4736L81.8076 8.33301L79.127 14.3242ZM100.074 13.6357C98.9219 13.6357 97.8721 13.3525 96.9248 12.7861C95.9775 12.2197 95.2207 11.4629 94.6543 10.5156C94.0879 9.56836 93.8047 8.51367 93.8047 7.35156C93.8047 6.19922 94.0879 5.14941 94.6543 4.20215C95.2207 3.25488 95.9775 2.49805 96.9248 1.93164C97.8721 1.36523 98.9219 1.08203 100.074 1.08203H112.276V5.27148H100.074C99.498 5.27148 99.0049 5.47656 98.5947 5.88672C98.1943 6.28711 97.9941 6.77539 97.9941 7.35156C97.9941 7.9375 98.1943 8.43555 98.5947 8.8457C99.0049 9.24609 99.498 9.44629 100.074 9.44629H106.71C107.862 9.44629 108.912 9.72949 109.859 10.2959C110.807 10.8623 111.563 11.624 112.13 12.5811C112.696 13.5283 112.979 14.5781 112.979 15.7305C112.979 16.8828 112.696 17.9326 112.13 18.8799C111.563 19.8271 110.807 20.584 109.859 21.1504C108.912 21.7168 107.862 22 106.71 22H94.1562V17.8105H106.71C107.286 17.8105 107.774 17.6104 108.175 17.21C108.585 16.7998 108.79 16.3066 108.79 15.7305C108.79 15.1543 108.585 14.6611 108.175 14.251C107.774 13.8408 107.286 13.6357 106.71 13.6357H100.074ZM120.113 13.6357V22H115.924V1.08203H120.113V9.44629H129.869V1.08203H134.059V22H129.869V13.6357H120.113Z" fill="#027CEF"/>
<path d="M172.628 22H168.438V10.0762L161.114 21.0625C160.694 21.668 160.118 21.9805 159.386 22C159.376 22 159.371 22 159.371 22C158.629 21.9707 158.048 21.6533 157.628 21.0479L150.67 10.2666V22H146.48V3.17676C146.48 2.70801 146.617 2.29297 146.891 1.93164C147.164 1.56055 147.525 1.30664 147.975 1.16992C148.951 0.935547 149.737 1.22363 150.333 2.03418L159.4 16.0967L168.79 2.01953C169.386 1.21875 170.167 0.935547 171.134 1.16992C171.583 1.31641 171.944 1.5752 172.218 1.94629C172.491 2.30762 172.628 2.71777 172.628 3.17676V22ZM179.762 1.08203V22H175.572V1.08203H179.762ZM186.881 8.8457V22H182.691V3.17676C182.691 2.7373 182.813 2.3418 183.058 1.99023C183.312 1.62891 183.644 1.37012 184.054 1.21387C184.952 0.930664 185.724 1.13086 186.368 1.81445L196.988 14.2363V1.08203H201.163V19.9053C201.163 20.3447 201.041 20.7451 200.797 21.1064C200.553 21.458 200.221 21.7119 199.801 21.8682C199.557 21.9561 199.317 22 199.083 22C198.448 21.9902 197.916 21.7461 197.486 21.2676L186.881 8.8457ZM208.297 1.08203V22H204.107V1.08203H208.297ZM215.416 8.8457V22H211.227V3.17676C211.227 2.7373 211.349 2.3418 211.593 1.99023C211.847 1.62891 212.179 1.37012 212.589 1.21387C213.487 0.930664 214.259 1.13086 214.903 1.81445L225.523 14.2363V1.08203H229.698V19.9053C229.698 20.3447 229.576 20.7451 229.332 21.1064C229.088 21.458 228.756 21.7119 228.336 21.8682C228.092 21.9561 227.853 22 227.618 22C226.983 21.9902 226.451 21.7461 226.021 21.2676L215.416 8.8457ZM241.007 22C238.771 22 236.798 21.1846 235.089 19.5537C233.458 17.8447 232.643 15.8721 232.643 13.6357V9.44629C232.643 7.20996 233.458 5.2373 235.089 3.52832C236.798 1.89746 238.771 1.08203 241.007 1.08203H250.074V5.27148H241.007C239.854 5.27148 238.868 5.68164 238.048 6.50195C237.237 7.3125 236.832 8.29395 236.832 9.44629V13.6357C236.832 14.7881 237.237 15.7744 238.048 16.5947C238.868 17.4053 239.854 17.8105 241.007 17.8105H246.588V13.6357H242.062V9.44629H248.683C249.259 9.44629 249.752 9.65137 250.162 10.0615C250.572 10.4717 250.777 10.9648 250.777 11.541V19.9053C250.777 20.4814 250.572 20.9746 250.162 21.3848C249.752 21.7949 249.259 22 248.683 22H241.007Z" fill="white"/>
</svg>
