<svg width="219" height="26" viewBox="0 0 219 26" fill="none" xmlns="http://www.w3.org/2000/svg">
<g clip-path="url(#clip0_33_2838)">
<path d="M2.08496 26C1.58561 26 1.1582 25.8223 0.802734 25.4668C0.447266 25.1113 0.269531 24.6839 0.269531 24.1846V9.68652C0.269531 9.18717 0.447266 8.75977 0.802734 8.4043C1.1582 8.04883 1.58561 7.87109 2.08496 7.87109H10.54C11.5387 7.87109 12.4486 8.11654 13.2695 8.60742C14.099 9.09831 14.7591 9.75423 15.25 10.5752C15.7409 11.3962 15.9863 12.306 15.9863 13.3047C15.9863 14.0072 15.8636 14.6673 15.6182 15.2852C15.3727 15.903 15.0299 16.4531 14.5898 16.9355C15.0299 17.418 15.3727 17.9681 15.6182 18.5859C15.8636 19.2038 15.9863 19.8639 15.9863 20.5664C15.9863 21.5651 15.7409 22.4749 15.25 23.2959C14.7591 24.1169 14.099 24.7728 13.2695 25.2637C12.4486 25.7546 11.5387 26 10.54 26H2.08496ZM3.90039 20.2617V22.3691H10.54C11.0394 22.3691 11.4668 22.1956 11.8223 21.8486C12.1777 21.4932 12.3555 21.0658 12.3555 20.5664C12.3555 20.0671 12.1777 19.6396 11.8223 19.2842C11.4668 18.9287 11.0394 18.751 10.54 18.751H5.70312V15.1201H10.54C11.0394 15.1201 11.4668 14.9466 11.8223 14.5996C12.1777 14.2441 12.3555 13.8125 12.3555 13.3047C12.3555 12.8053 12.1777 12.3822 11.8223 12.0352C11.4668 11.6797 11.0394 11.502 10.54 11.502H3.90039V13.3047V15.1201V18.751V20.2617ZM22.1562 7.87109V26H18.5254V7.87109H22.1562ZM30.8906 26V11.502H24.6953V7.87109H40.7041V11.502H34.5088V26H30.8906ZM46.8867 18.751V26H43.2559V7.87109H46.8867V15.1201H55.3418V7.87109H58.9727V26H55.3418V18.751H46.8867ZM70.7666 7.88379C71.1221 7.88379 71.4479 7.98112 71.7441 8.17578C72.0404 8.37044 72.2646 8.63281 72.417 8.96289L80.0088 26H76.0479L74.6895 22.9785H66.8311L65.4854 26H61.5117L69.1035 8.96289C69.2559 8.63281 69.4801 8.37044 69.7764 8.17578C70.0726 7.98112 70.4027 7.88379 70.7666 7.88379ZM68.4434 19.3477H73.0771L70.7666 14.1553L68.4434 19.3477ZM86.5977 18.751C85.599 18.751 84.6891 18.5055 83.8682 18.0146C83.0472 17.5238 82.3913 16.8678 81.9004 16.0469C81.4095 15.2259 81.1641 14.3118 81.1641 13.3047C81.1641 12.306 81.4095 11.3962 81.9004 10.5752C82.3913 9.75423 83.0472 9.09831 83.8682 8.60742C84.6891 8.11654 85.599 7.87109 86.5977 7.87109H97.1729V11.502H86.5977C86.0983 11.502 85.6709 11.6797 85.3154 12.0352C84.9684 12.3822 84.7949 12.8053 84.7949 13.3047C84.7949 13.8125 84.9684 14.2441 85.3154 14.5996C85.6709 14.9466 86.0983 15.1201 86.5977 15.1201H92.3486C93.3473 15.1201 94.2572 15.3656 95.0781 15.8564C95.8991 16.3473 96.555 17.0075 97.0459 17.8369C97.5368 18.6579 97.7822 19.5677 97.7822 20.5664C97.7822 21.5651 97.5368 22.4749 97.0459 23.2959C96.555 24.1169 95.8991 24.7728 95.0781 25.2637C94.2572 25.7546 93.3473 26 92.3486 26H81.4688V22.3691H92.3486C92.848 22.3691 93.2712 22.1956 93.6182 21.8486C93.9736 21.4932 94.1514 21.0658 94.1514 20.5664C94.1514 20.0671 93.9736 19.6396 93.6182 19.2842C93.2712 18.9287 92.848 18.751 92.3486 18.751H86.5977ZM103.965 18.751V26H100.334V7.87109H103.965V15.1201H112.42V7.87109H116.051V26H112.42V18.751H103.965Z" fill="#027CEF"/>
<path d="M149.478 26H145.847V15.666L139.499 25.1875C139.135 25.7122 138.636 25.9831 138.001 26C137.993 26 137.988 26 137.988 26C137.345 25.9746 136.841 25.6995 136.478 25.1748L130.447 15.8311V26H126.816V9.68652C126.816 9.28027 126.935 8.92057 127.172 8.60742C127.409 8.28581 127.722 8.06576 128.111 7.94727C128.958 7.74414 129.639 7.99382 130.155 8.69629L138.014 20.8838L146.151 8.68359C146.668 7.98958 147.345 7.74414 148.183 7.94727C148.572 8.07422 148.885 8.2985 149.122 8.62012C149.359 8.93327 149.478 9.28874 149.478 9.68652V26ZM155.66 7.87109V26H152.029V7.87109H155.66ZM161.83 14.5996V26H158.199V9.68652C158.199 9.30566 158.305 8.96289 158.517 8.6582C158.737 8.34505 159.024 8.12077 159.38 7.98535C160.159 7.73991 160.827 7.91341 161.386 8.50586L170.59 19.2715V7.87109H174.208V24.1846C174.208 24.5654 174.102 24.9124 173.891 25.2256C173.679 25.5303 173.391 25.7503 173.027 25.8857C172.816 25.9619 172.608 26 172.405 26C171.855 25.9915 171.394 25.7799 171.021 25.3652L161.83 14.5996ZM180.391 7.87109V26H176.76V7.87109H180.391ZM186.561 14.5996V26H182.93V9.68652C182.93 9.30566 183.035 8.96289 183.247 8.6582C183.467 8.34505 183.755 8.12077 184.11 7.98535C184.889 7.73991 185.558 7.91341 186.116 8.50586L195.32 19.2715V7.87109H198.938V24.1846C198.938 24.5654 198.833 24.9124 198.621 25.2256C198.41 25.5303 198.122 25.7503 197.758 25.8857C197.546 25.9619 197.339 26 197.136 26C196.586 25.9915 196.124 25.7799 195.752 25.3652L186.561 14.5996ZM208.739 26C206.801 26 205.091 25.2933 203.61 23.8799C202.197 22.3988 201.49 20.6891 201.49 18.751V15.1201C201.49 13.182 202.197 11.4723 203.61 9.99121C205.091 8.5778 206.801 7.87109 208.739 7.87109H216.598V11.502H208.739C207.741 11.502 206.886 11.8574 206.175 12.5684C205.472 13.2708 205.121 14.1214 205.121 15.1201V18.751C205.121 19.7497 205.472 20.6045 206.175 21.3154C206.886 22.0179 207.741 22.3691 208.739 22.3691H213.576V18.751H209.653V15.1201H215.392C215.891 15.1201 216.318 15.2979 216.674 15.6533C217.029 16.0088 217.207 16.4362 217.207 16.9355V24.1846C217.207 24.6839 217.029 25.1113 216.674 25.4668C216.318 25.8223 215.891 26 215.392 26H208.739Z" fill="white"/>
</g>
<defs>
<clipPath id="clip0_33_2838">
<rect width="219" height="26" fill="white"/>
</clipPath>
</defs>
</svg>
