<svg width="15" height="15" viewBox="0 0 15 15" fill="none" xmlns="http://www.w3.org/2000/svg">
<mask id="path-2-inside-1_33_342" fill="white">
<path d="M12.2912 2.70892C10.9313 1.34904 9.12316 0.600098 7.2 0.600098C5.27684 0.600098 3.46871 1.34904 2.10883 2.70892C0.748938 4.06881 0 5.87694 0 7.8001C0 9.72325 0.748938 11.5314 2.10883 12.8913C3.46871 14.2512 5.27684 15.0001 7.2 15.0001C9.12316 15.0001 10.9313 14.2512 12.2912 12.8913C13.6511 11.5314 14.4 9.72325 14.4 7.8001C14.4 5.87694 13.6511 4.06881 12.2912 2.70892ZM7.2 1.7251C10.5497 1.7251 13.275 4.45037 13.275 7.8001C13.275 8.57332 13.1295 9.31302 12.865 9.99385H11.3344V4.69075L7.2 8.85775L3.06562 4.69075V9.99385H1.53501C1.27046 9.31302 1.125 8.57332 1.125 7.8001C1.125 4.45037 3.85027 1.7251 7.2 1.7251ZM7.2 13.8751C5.07404 13.8751 3.19999 12.7772 2.11421 11.1188H4.19062V7.42195L7.2 10.4549L10.2094 7.42195V11.1188H12.2858C11.2 12.7772 9.32596 13.8751 7.2 13.8751Z"/>
</mask>
<path d="M12.2912 2.70892C10.9313 1.34904 9.12316 0.600098 7.2 0.600098C5.27684 0.600098 3.46871 1.34904 2.10883 2.70892C0.748938 4.06881 0 5.87694 0 7.8001C0 9.72325 0.748938 11.5314 2.10883 12.8913C3.46871 14.2512 5.27684 15.0001 7.2 15.0001C9.12316 15.0001 10.9313 14.2512 12.2912 12.8913C13.6511 11.5314 14.4 9.72325 14.4 7.8001C14.4 5.87694 13.6511 4.06881 12.2912 2.70892ZM7.2 1.7251C10.5497 1.7251 13.275 4.45037 13.275 7.8001C13.275 8.57332 13.1295 9.31302 12.865 9.99385H11.3344V4.69075L7.2 8.85775L3.06562 4.69075V9.99385H1.53501C1.27046 9.31302 1.125 8.57332 1.125 7.8001C1.125 4.45037 3.85027 1.7251 7.2 1.7251ZM7.2 13.8751C5.07404 13.8751 3.19999 12.7772 2.11421 11.1188H4.19062V7.42195L7.2 10.4549L10.2094 7.42195V11.1188H12.2858C11.2 12.7772 9.32596 13.8751 7.2 13.8751Z" fill="white"/>
<path d="M12.865 9.99385V1009.99H697.132L944.968 372.186L12.865 9.99385ZM11.3344 9.99385H-988.666V1009.99H11.3344V9.99385ZM11.3344 4.69075H1011.33V-2423.01L-698.546 -699.631L11.3344 4.69075ZM7.2 8.85775L-702.681 713.18L7.2 1428.66L717.081 713.18L7.2 8.85775ZM3.06562 4.69075L712.946 -699.631L-996.934 -2423.01V4.69075H3.06562ZM3.06562 9.99385V1009.99H1003.07V9.99385H3.06562ZM1.53501 9.99385L-930.568 372.186L-682.732 1009.99H1.53501V9.99385ZM2.11421 11.1188V-988.881H-1847.87L-834.52 558.88L2.11421 11.1188ZM4.19062 11.1188V1011.12H1004.19V11.1188H4.19062ZM4.19062 7.42195L714.056 -696.915L-995.809 -2420.2V7.42195H4.19062ZM7.2 10.4549L-702.666 714.792L7.2 1430.23L717.066 714.792L7.2 10.4549ZM10.2094 7.42195H1010.21V-2420.2L-699.656 -696.915L10.2094 7.42195ZM10.2094 11.1188H-989.791V1011.12H10.2094V11.1188ZM12.2858 11.1188L848.92 558.88L1862.27 -988.881H12.2858V11.1188ZM719.398 -704.398C530.499 -893.297 274.336 -999.4 7.2 -999.4V1000.6C-256.089 1000.6 -508.636 895.995 -694.816 709.816L719.398 -704.398ZM7.2 -999.4C-259.936 -999.4 -516.099 -893.297 -704.998 -704.398L709.216 709.816C523.036 895.995 270.489 1000.6 7.2 1000.6V-999.4ZM-704.998 -704.398C-893.897 -515.499 -1000 -259.336 -1000 7.8001H1000C1000 271.09 895.395 523.636 709.216 709.816L-704.998 -704.398ZM-1000 7.8001C-1000 274.936 -893.897 531.099 -704.998 719.998L709.216 -694.216C895.395 -508.036 1000 -255.489 1000 7.8001H-1000ZM-704.998 719.998C-516.099 908.897 -259.936 1015 7.2 1015V-985C270.489 -985 523.036 -880.395 709.216 -694.216L-704.998 719.998ZM7.2 1015C274.336 1015 530.499 908.897 719.398 719.998L-694.816 -694.216C-508.636 -880.395 -256.089 -985 7.2 -985V1015ZM719.398 719.998C908.297 531.099 1014.4 274.936 1014.4 7.8001H-985.6C-985.6 -255.489 -880.995 -508.036 -694.816 -694.216L719.398 719.998ZM1014.4 7.8001C1014.4 -259.336 908.297 -515.499 719.398 -704.398L-694.816 709.816C-880.995 523.636 -985.6 271.09 -985.6 7.8001H1014.4ZM7.2 1001.73C-541.735 1001.73 -986.725 556.735 -986.725 7.8001H1013.28C1013.28 -547.834 562.834 -998.275 7.2 -998.275V1001.73ZM-986.725 7.8001C-986.725 -117.793 -962.943 -239.724 -919.238 -352.198L944.968 372.186C989.202 258.35 1013.28 134.94 1013.28 7.8001H-986.725ZM12.865 -990.006H11.3344V1009.99H12.865V-990.006ZM1011.33 9.99385V4.69075H-988.666V9.99385H1011.33ZM-698.546 -699.631L-702.681 -695.464L717.081 713.18L721.215 709.013L-698.546 -699.631ZM717.081 -695.464L712.946 -699.631L-706.815 709.013L-702.681 713.18L717.081 -695.464ZM-996.934 4.69075V9.99385H1003.07V4.69075H-996.934ZM3.06562 -990.006H1.53501V1009.99H3.06562V-990.006ZM933.638 -352.198C977.343 -239.724 1001.12 -117.793 1001.12 7.8001H-998.875C-998.875 134.94 -974.802 258.35 -930.568 372.186L933.638 -352.198ZM1001.12 7.8001C1001.12 556.735 556.135 1001.73 7.2 1001.73V-998.275C-548.435 -998.275 -998.875 -547.834 -998.875 7.8001H1001.12ZM7.2 -986.125C357.65 -986.125 663.6 -804.16 838.749 -536.643L-834.52 558.88C-657.2 829.714 -347.502 1013.88 7.2 1013.88V-986.125ZM2.11421 1011.12H4.19062V-988.881H2.11421V1011.12ZM1004.19 11.1188V7.42195H-995.809V11.1188H1004.19ZM-705.675 711.759L-702.666 714.792L717.066 -693.882L714.056 -696.915L-705.675 711.759ZM717.066 714.792L720.075 711.759L-699.656 -696.915L-702.666 -693.882L717.066 714.792ZM-989.791 7.42195V11.1188H1010.21V7.42195H-989.791ZM10.2094 1011.12H12.2858V-988.881H10.2094V1011.12ZM-824.349 -536.643C-649.2 -804.16 -343.25 -986.125 7.2 -986.125V1013.88C361.902 1013.88 671.6 829.714 848.92 558.88L-824.349 -536.643Z" fill="white" mask="url(#path-2-inside-1_33_342)"/>
</svg>
