<svg width="133" height="45" viewBox="0 0 133 45" fill="none" xmlns="http://www.w3.org/2000/svg">
<g filter="url(#filter0_b_33_60)">
<rect width="133" height="45" rx="2" fill="#0D2655" fill-opacity="0.4"/>
<rect x="0.5" y="0.5" width="132" height="44" rx="1.5" stroke="#3B4A69"/>
</g>
<g clip-path="url(#clip0_33_60)">
<path d="M126.25 31.1521C126.248 31.254 126.207 31.3513 126.135 31.4234C126.063 31.4954 125.966 31.5366 125.864 31.5381C125.813 31.5395 125.762 31.5305 125.714 31.5115C125.667 31.4926 125.624 31.4643 125.588 31.4281C125.552 31.392 125.523 31.3489 125.504 31.3014C125.485 31.254 125.476 31.2032 125.478 31.1521V26.2051C125.478 24.5451 124.539 22.9171 122.688 22.9171C120.363 22.9171 119.48 25.4031 119.48 27.3371V31.1521C119.478 31.254 119.437 31.3513 119.365 31.4234C119.293 31.4954 119.196 31.5366 119.094 31.5381C119.043 31.5394 118.992 31.5302 118.945 31.5112C118.897 31.4923 118.854 31.4639 118.818 31.4278C118.782 31.3917 118.754 31.3486 118.735 31.3012C118.716 31.2538 118.707 31.2031 118.709 31.1521V26.2051C118.709 24.5451 117.77 22.9171 115.918 22.9171C113.568 22.9171 112.599 24.7691 112.686 27.2301C112.686 27.2861 112.711 27.3971 112.686 27.4231V31.1431C112.686 31.3301 112.559 31.5031 112.371 31.5331C112.112 31.5731 111.909 31.3961 111.909 31.1531V22.7091C111.909 22.5211 112.036 22.3491 112.219 22.3181C112.478 22.2781 112.681 22.4551 112.681 22.6981V24.1091C113.345 22.9221 114.533 22.1461 115.913 22.1461C117.486 22.1461 118.703 23.1401 119.201 24.6061C119.835 23.1711 121.079 22.1461 122.682 22.1461C124.95 22.1461 126.249 24.1041 126.249 26.2051L126.25 31.1521ZM106.703 31.2031C106.701 31.3048 106.66 31.402 106.588 31.474C106.517 31.546 106.419 31.5873 106.318 31.5891C106.267 31.5904 106.216 31.5812 106.169 31.5622C106.121 31.5433 106.078 31.5149 106.042 31.4788C106.006 31.4427 105.978 31.3996 105.959 31.3522C105.94 31.3048 105.931 31.2541 105.933 31.2031V29.6001C105.299 30.8731 104.164 31.7821 102.73 31.7821C100.44 31.7821 99.1678 29.7921 99.1678 27.6921V22.7441C99.1678 22.5511 99.3348 22.3591 99.5528 22.3591C99.7758 22.3591 99.9378 22.5511 99.9378 22.7441V27.6921C99.9378 29.3511 100.875 31.0101 102.725 31.0101C105.32 31.0101 105.928 28.5801 105.928 25.8951V22.7451C105.928 22.5211 106.151 22.2931 106.424 22.3741C106.505 22.4021 106.576 22.4547 106.626 22.5245C106.676 22.5944 106.703 22.6781 106.704 22.7641L106.703 31.2031ZM89.7698 22.8911C87.7498 22.8911 86.3138 24.6311 86.1218 26.5401H93.4178C93.2508 24.6321 91.7898 22.8911 89.7698 22.8911ZM93.8538 27.3111H86.1218C86.3148 29.2191 87.7528 30.9601 89.7748 30.9601C91.1568 30.9601 92.1828 30.4321 92.9548 29.3301C93.0668 29.1791 93.2348 29.0821 93.4478 29.1731C93.5648 29.2241 93.6458 29.3311 93.6658 29.4531C93.6858 29.5791 93.6508 29.6501 93.6158 29.7211C92.8378 31.0761 91.2888 31.7411 89.7698 31.7411C87.1688 31.7411 85.3148 29.4171 85.3148 26.9311C85.3148 24.4441 87.1688 22.1211 89.7698 22.1211C92.3698 22.1151 94.2498 24.4341 94.2558 26.9151C94.2547 27.0209 94.2118 27.1219 94.1365 27.1961C94.0612 27.2703 93.9595 27.3117 93.8538 27.3111ZM81.1998 23.0841C78.9318 23.4141 77.9118 25.2661 77.9118 27.4231V31.1171C77.9118 31.3051 77.7848 31.4771 77.6018 31.5071C77.3438 31.5481 77.1408 31.3711 77.1408 31.1271V22.7101C77.1408 22.5221 77.2678 22.3501 77.4508 22.3191C77.7088 22.2791 77.9118 22.4561 77.9118 22.6991V24.4151C78.5468 23.3391 79.8198 22.3141 81.1448 22.3141C81.3368 22.3091 81.5608 22.4511 81.5608 22.6691C81.5608 22.9181 81.4238 23.0551 81.2008 23.0851L81.1998 23.0841ZM71.2498 26.5401C71.0818 24.6321 69.6198 22.8911 67.6008 22.8911C65.5808 22.8911 64.1458 24.6311 63.9528 26.5401H71.2498ZM71.6708 27.3111H63.9508C64.1448 29.2191 65.5788 30.9601 67.5958 30.9601C68.9748 30.9601 69.9988 30.4321 70.7688 29.3301C70.8808 29.1791 71.0478 29.0821 71.2608 29.1731C71.3768 29.2241 71.4588 29.3311 71.4788 29.4531C71.4988 29.5791 71.4638 29.6501 71.4288 29.7211C70.6528 31.0761 69.1068 31.7411 67.5908 31.7411C64.9958 31.7411 63.1458 29.4171 63.1458 26.9311C63.1458 24.4441 64.9958 22.1211 67.5908 22.1211C70.1908 22.1151 72.0668 24.4341 72.0708 26.9151C72.0697 27.0205 72.0271 27.1212 71.9522 27.1954C71.8773 27.2695 71.7762 27.3111 71.6708 27.3111ZM58.2338 31.1581C58.232 31.2598 58.1907 31.3569 58.1187 31.4287C58.0466 31.5006 57.9495 31.5416 57.8478 31.5431C57.7969 31.5444 57.7463 31.5352 57.699 31.5163C57.6517 31.4974 57.6088 31.4691 57.5728 31.4331C57.5368 31.3971 57.5085 31.3542 57.4896 31.3069C57.4707 31.2596 57.4615 31.209 57.4628 31.1581V26.2351C57.4628 24.5761 56.5238 22.9171 54.6718 22.9171C52.2968 22.9171 51.2718 24.9921 51.4088 27.1181C51.4088 27.1741 51.4338 27.4231 51.4338 27.4481V31.1421C51.4338 31.3301 51.3078 31.5021 51.1238 31.5331C50.8658 31.5731 50.6638 31.3961 50.6638 31.1531V14.9851C50.6638 14.7921 50.8308 14.5991 51.0488 14.5991C51.2718 14.5991 51.4338 14.7921 51.4338 14.9851V24.1341C52.0988 22.9461 53.2868 22.1441 54.6668 22.1441C56.9348 22.1441 58.2338 24.1341 58.2338 26.2341V31.1581ZM45.6038 22.3081C45.8268 22.3081 45.9898 22.5011 45.9898 22.6941C45.991 22.7451 45.9819 22.7958 45.9629 22.8431C45.9439 22.8905 45.9155 22.9335 45.8794 22.9695C45.8433 23.0055 45.8003 23.0338 45.7529 23.0526C45.7055 23.0715 45.6548 23.0805 45.6038 23.0791H43.5338V31.2031C43.5315 31.3048 43.4901 31.4016 43.4182 31.4735C43.3463 31.5454 43.2494 31.5868 43.1478 31.5891C43.0459 31.5876 42.9486 31.5464 42.8766 31.4744C42.8045 31.4023 42.7633 31.305 42.7618 31.2031V23.0801H40.7728C40.7219 23.0814 40.6713 23.0722 40.624 23.0533C40.5767 23.0344 40.5338 23.0061 40.4978 22.9701C40.4618 22.9341 40.4335 22.8912 40.4146 22.8439C40.3957 22.7966 40.3865 22.746 40.3878 22.6951C40.3878 22.5021 40.5548 22.3091 40.7728 22.3091H42.7628V19.3341C42.7628 19.1471 42.8888 18.9741 43.0718 18.9441C43.3308 18.9031 43.5338 19.0811 43.5338 19.3241V22.3081H45.6038ZM35.3938 26.5401C35.2268 24.6321 33.7678 22.8911 31.7508 22.8911C29.7338 22.8911 28.3008 24.6311 28.1078 26.5401H35.3938ZM35.8308 27.3111H28.1078C28.3008 29.2191 29.7368 30.9601 31.7558 30.9601C33.1358 30.9601 34.1608 30.4321 34.9328 29.3301C35.0438 29.1791 35.2118 29.0821 35.4248 29.1731C35.5418 29.2241 35.6228 29.3311 35.6428 29.4531C35.6628 29.5791 35.6278 29.6501 35.5928 29.7211C34.8158 31.0761 33.2678 31.7411 31.7508 31.7411C29.1528 31.7411 27.3008 29.4171 27.3008 26.9311C27.3008 24.4441 29.1528 22.1211 31.7508 22.1211C34.3488 22.1151 36.2268 24.4341 36.2308 26.9151C36.2297 27.0205 36.1871 27.1212 36.1122 27.1954C36.0373 27.2695 35.9362 27.3111 35.8308 27.3111Z" fill="white"/>
<path opacity="0.36" d="M14.4355 19.9302L7.01953 23.3032L14.4355 27.6842L21.8485 23.3032L14.4355 19.9302Z" fill="white"/>
<path opacity="0.2025" d="M7.01953 23.304L14.4355 27.686V11L7.01953 23.304Z" fill="white"/>
<path opacity="0.64" d="M14.4297 11V27.686L21.8427 23.304L14.4297 11Z" fill="white"/>
<path opacity="0.2025" d="M7.01953 24.71L14.4355 35.157V29.091L7.01953 24.71Z" fill="white"/>
<path opacity="0.64" d="M14.4297 29.091V35.157L21.8487 24.71L14.4297 29.091Z" fill="white"/>
</g>
<defs>
<filter id="filter0_b_33_60" x="-29" y="-29" width="191" height="103" filterUnits="userSpaceOnUse" color-interpolation-filters="sRGB">
<feFlood flood-opacity="0" result="BackgroundImageFix"/>
<feGaussianBlur in="BackgroundImage" stdDeviation="14.5"/>
<feComposite in2="SourceAlpha" operator="in" result="effect1_backgroundBlur_33_60"/>
<feBlend mode="normal" in="SourceGraphic" in2="effect1_backgroundBlur_33_60" result="shape"/>
</filter>
<clipPath id="clip0_33_60">
<rect width="120" height="24" fill="white" transform="translate(7 11)"/>
</clipPath>
</defs>
</svg>
