<svg width="133" height="45" viewBox="0 0 133 45" fill="none" xmlns="http://www.w3.org/2000/svg">
<g filter="url(#filter0_b_33_71)">
<rect width="133" height="45" rx="2" fill="#0D2655" fill-opacity="0.4"/>
<rect x="0.5" y="0.5" width="132" height="44" rx="1.5" stroke="#3B4A69"/>
</g>
<path d="M36.8934 25.2939C35.4994 30.8869 29.8354 34.2899 24.2424 32.8949C18.6524 31.5009 15.2484 25.8369 16.6424 20.2449C18.0374 14.6519 23.7004 11.2479 29.2934 12.6419C34.8854 14.0369 38.2884 19.7019 36.8944 25.2939H36.8934Z" fill="#F7931A"/>
<path d="M29.0884 21.254C28.7664 22.548 26.7804 21.89 26.1354 21.729L26.7044 19.442C27.3484 19.603 29.4244 19.904 29.0884 21.254ZM28.7444 24.951C28.3904 26.378 25.9954 25.607 25.2194 25.413L25.8484 22.883C26.6244 23.078 29.1144 23.463 28.7444 24.951ZM29.0644 18.641L29.5344 16.759L28.3884 16.473L27.9324 18.305C27.6314 18.23 27.3224 18.16 27.0144 18.09L27.4744 16.245L26.3294 15.96L25.8604 17.841C25.6104 17.784 25.3664 17.728 25.1294 17.669V17.663L23.5504 17.27L23.2464 18.493C23.2464 18.493 24.0964 18.688 24.0784 18.7C24.5414 18.816 24.6254 19.123 24.6114 19.366L24.0774 21.51C24.1094 21.518 24.1504 21.53 24.1964 21.548L24.0754 21.518L23.3264 24.521C23.2694 24.661 23.1264 24.873 22.8014 24.793C22.8124 24.809 21.9694 24.585 21.9694 24.585L21.4004 25.895L22.8904 26.267C23.1684 26.337 23.4404 26.41 23.7074 26.478L23.2334 28.381L24.3774 28.667L24.8474 26.784C25.1594 26.869 25.4624 26.947 25.7594 27.021L25.2914 28.895L26.4374 29.18L26.9114 27.28C28.8644 27.65 30.3324 27.501 30.9514 25.735C31.4494 24.312 30.9264 23.492 29.8984 22.957C30.6474 22.784 31.2104 22.292 31.3614 21.275C31.5684 19.886 30.5114 19.14 29.0654 18.642L29.0644 18.641Z" fill="white"/>
<path d="M43.4862 29.9531H43.0122C42.8215 29.9537 42.6312 29.9352 42.4442 29.8981C42.3521 29.879 42.2598 29.8613 42.1672 29.8451L43.9092 22.6071C44.2292 22.3271 44.5842 22.1411 44.9812 22.0511C45.3772 21.9661 45.6962 21.9191 45.9442 21.9191C46.7012 21.9191 47.2222 22.1581 47.5042 22.6321C47.7842 23.1091 47.9262 23.7681 47.9262 24.6141C47.9262 25.3021 47.8112 25.9631 47.5822 26.5971C47.3635 27.2118 47.0471 27.7872 46.6452 28.3011C46.2604 28.7943 45.7789 29.2037 45.2302 29.5041C44.6965 29.7996 44.0962 29.9542 43.4862 29.9531ZM46.9202 18.6431C46.5378 18.641 46.1567 18.6856 45.7852 18.7761C45.4332 18.8661 45.0802 18.9881 44.7292 19.1461L46.3662 12.3301L42.2712 12.9641L37.7012 32.1711C38.2211 32.4215 38.7662 32.6159 39.3272 32.7511C39.8982 32.8931 40.4402 32.9991 40.9522 33.0711C41.4612 33.1391 41.9152 33.1801 42.3112 33.1881C42.7062 33.1961 42.9862 33.2011 43.1452 33.2011C44.3762 33.2011 45.5232 32.9671 46.5782 32.5011C47.6092 32.0523 48.5426 31.4066 49.3262 30.6001C50.1119 29.7823 50.735 28.8226 51.1622 27.7721C51.6135 26.6789 51.8423 25.5067 51.8352 24.3241C51.8352 23.5321 51.7382 22.7931 51.5452 22.1041C51.3679 21.4522 51.0634 20.8418 50.6492 20.3081C50.2347 19.7928 49.7098 19.3772 49.1132 19.0921C48.4982 18.7951 47.7672 18.6421 46.9202 18.6421V18.6431Z" fill="white"/>
<path d="M59.0259 17.0457C59.6722 16.7757 60.1914 16.2698 60.4779 15.6307C60.6279 15.3037 60.7019 14.9557 60.7019 14.5837C60.7019 13.9157 60.4819 13.4167 60.0419 13.0887C59.6167 12.7678 59.0976 12.5959 58.5649 12.5997C58.1949 12.5997 57.8469 12.6697 57.5199 12.8097C56.8747 13.083 56.3558 13.5887 56.0659 14.2267C55.9169 14.5548 55.8408 14.9113 55.8429 15.2717C55.8429 15.9437 56.0619 16.4427 56.5039 16.7667C56.9439 17.0937 57.4379 17.2567 57.9839 17.2567C58.3539 17.2567 58.6999 17.1887 59.0269 17.0457H59.0259ZM59.4089 18.9377H55.4719L52.1699 32.8377H56.0799L59.4089 18.9377Z" fill="white"/>
<path d="M62.8366 15.4738L66.9316 14.8398L65.9266 18.9358H70.3126L69.5206 22.1578H65.1606L64.0006 27.0178C63.8993 27.389 63.8373 27.7697 63.8156 28.1538C63.7956 28.5068 63.8416 28.8108 63.9466 29.0658C64.0516 29.3218 64.2406 29.5198 64.5146 29.6588C64.7876 29.8008 65.1776 29.8728 65.6906 29.8728C66.1116 29.8728 66.5226 29.8328 66.9206 29.7528C67.3279 29.6716 67.729 29.5613 68.1206 29.4228L68.4126 32.4358C67.8836 32.6298 67.3126 32.7958 66.6956 32.9358C66.0776 33.0788 65.3466 33.1468 64.5016 33.1468C63.2866 33.1468 62.3456 32.9668 61.6746 32.6068C61.0046 32.2468 60.5306 31.7518 60.2466 31.1268C59.9666 30.5028 59.8426 29.7838 59.8766 28.9748C59.9136 28.1628 60.0366 27.3098 60.2466 26.4108L62.8366 15.4738Z" fill="white"/>
<path d="M70.1407 27.2801C70.1407 26.0831 70.3347 24.9541 70.7217 23.8981C71.0899 22.8726 71.6559 21.9294 72.3877 21.1221C73.1239 20.3204 74.0198 19.6817 75.0177 19.2471C76.0447 18.7901 77.1957 18.5601 78.4637 18.5601C79.2567 18.5601 79.9657 18.6351 80.5897 18.7851C81.1772 18.9228 81.7487 19.1219 82.2947 19.3791L80.9467 22.4461C80.5874 22.3017 80.2217 22.1739 79.8507 22.0631C79.4717 21.9461 79.0107 21.8901 78.4637 21.8901C77.1587 21.8901 76.1267 22.3401 75.3587 23.2371C74.5937 24.1341 74.2087 25.3421 74.2087 26.8571C74.2087 27.7551 74.4027 28.4811 74.7907 29.0371C75.1777 29.5931 75.8927 29.8691 76.9307 29.8691C77.4427 29.8691 77.9367 29.8151 78.4107 29.7111C78.8445 29.6179 79.2689 29.4854 79.6787 29.3151L79.9707 32.4581C79.4767 32.6501 78.9307 32.8231 78.3327 32.9751C77.7327 33.1221 77.0197 33.1981 76.1927 33.1981C75.0997 33.1981 74.1747 33.0381 73.4177 32.7231C72.6617 32.4031 72.0357 31.9791 71.5437 31.4411C71.0481 30.9005 70.6822 30.2541 70.4737 29.5511C70.2506 28.8148 70.1384 28.0494 70.1407 27.2801Z" fill="white"/>
<path d="M90.9788 22.6301C91.2598 23.1231 91.4008 23.8111 91.4008 24.6901C91.4008 25.2361 91.3258 25.8141 91.1788 26.4201C91.0361 27.0089 90.8091 27.5741 90.5048 28.0981C90.2048 28.6091 89.8358 29.0321 89.3988 29.3661C88.9588 29.7021 88.4508 29.8691 87.8708 29.8691C87.1328 29.8691 86.6248 29.6221 86.3428 29.1301C86.0628 28.6361 85.9218 27.9501 85.9218 27.0681C85.9218 26.5211 85.9948 25.9461 86.1438 25.3381C86.2948 24.7311 86.5178 24.1721 86.8178 23.6601C87.1158 23.1501 87.4848 22.7271 87.9238 22.3911C88.3622 22.0584 88.8995 21.8823 89.4498 21.8911C90.1878 21.8911 90.6978 22.1381 90.9788 22.6291V22.6301ZM87.5028 33.1981C88.7888 33.1981 89.9218 32.9281 90.8978 32.3911C91.8479 31.8778 92.6803 31.1717 93.3418 30.3181C93.9993 29.462 94.5003 28.4965 94.8218 27.4661C95.1538 26.4071 95.3218 25.3491 95.3218 24.2941C95.3218 23.4491 95.2078 22.6771 94.9778 21.9831C94.7655 21.3172 94.4202 20.7014 93.9628 20.1731C93.4911 19.6481 92.9031 19.241 92.2458 18.9841C91.5488 18.7031 90.7428 18.5601 89.8258 18.5601C88.5778 18.5601 87.4658 18.8301 86.4988 19.3651C85.5502 19.8868 84.7155 20.593 84.0438 21.4421C83.3688 22.293 82.8538 23.2593 82.5238 24.2941C82.1859 25.3176 82.0124 26.3882 82.0098 27.4661C82.0098 28.3101 82.1198 29.0801 82.3518 29.7761C82.5818 30.4721 82.9188 31.0761 83.3688 31.5861C83.8178 32.0971 84.3858 32.4921 85.0718 32.7741C85.7588 33.0551 86.5698 33.1981 87.5028 33.1981Z" fill="white"/>
<path d="M101.489 17.2557C101.861 17.2557 102.209 17.1887 102.537 17.0457C102.862 16.9037 103.148 16.7157 103.397 16.4777C103.643 16.2377 103.842 15.9577 103.991 15.6307C104.139 15.3037 104.218 14.9557 104.218 14.5837C104.218 13.9157 103.995 13.4167 103.554 13.0887C103.127 12.7672 102.606 12.5953 102.071 12.5997C101.701 12.5997 101.352 12.6697 101.027 12.8097C100.709 12.9473 100.418 13.1403 100.167 13.3797C99.9189 13.6197 99.7189 13.8997 99.5699 14.2277C99.4199 14.5547 99.3449 14.9017 99.3449 15.2717C99.3449 15.9437 99.5659 16.4427 100.007 16.7667C100.447 17.0937 100.942 17.2567 101.489 17.2567V17.2557ZM99.5849 32.8367L102.911 18.9377H98.9719L95.6699 32.8377L99.5849 32.8367Z" fill="white"/>
<path d="M105.73 19.5719C106.026 19.4849 106.358 19.3819 106.718 19.2679C107.606 18.9971 108.517 18.8116 109.44 18.7139C110.067 18.6475 110.698 18.6161 111.328 18.6199C113.39 18.6199 114.812 19.2199 115.597 20.4179C116.381 21.6159 116.517 23.2549 116.007 25.3319L114.209 32.8349H110.273L112.016 25.4899C112.123 25.0309 112.206 24.5879 112.268 24.1549C112.33 23.7249 112.327 23.3469 112.254 23.0189C112.19 22.7054 112.017 22.4246 111.766 22.2259C111.508 22.0239 111.119 21.9219 110.59 21.9219C110.08 21.9219 109.561 21.9769 109.032 22.0819L106.469 32.8339H102.531L105.73 19.5719Z" fill="white"/>
<defs>
<filter id="filter0_b_33_71" x="-29" y="-29" width="191" height="103" filterUnits="userSpaceOnUse" color-interpolation-filters="sRGB">
<feFlood flood-opacity="0" result="BackgroundImageFix"/>
<feGaussianBlur in="BackgroundImage" stdDeviation="14.5"/>
<feComposite in2="SourceAlpha" operator="in" result="effect1_backgroundBlur_33_71"/>
<feBlend mode="normal" in="SourceGraphic" in2="effect1_backgroundBlur_33_71" result="shape"/>
</filter>
</defs>
</svg>
