<svg width="133" height="45" viewBox="0 0 133 45" fill="none" xmlns="http://www.w3.org/2000/svg">
<g filter="url(#filter0_b_33_100)">
<rect width="133" height="45" rx="2" fill="#0D2655" fill-opacity="0.4"/>
<rect x="0.5" y="0.5" width="132" height="44" rx="1.5" stroke="#3B4A69"/>
</g>
<g clip-path="url(#clip0_33_100)">
<path d="M54.2248 36.6273V34.879C54.2248 34.3466 54.0044 34.0511 53.5414 34.0511C53.0917 34.0511 52.7789 34.3409 52.7789 34.886V36.6279H52.0936V34.879C52.0936 34.3473 51.8656 34.0511 51.4159 34.0511C50.9523 34.0511 50.6521 34.3409 50.6521 34.8866V36.6279H49.9688V33.4869H50.6471V33.8749C50.9017 33.5073 51.2272 33.409 51.5597 33.409C52.036 33.409 52.3748 33.6196 52.5901 33.9675C52.877 33.5271 53.2874 33.402 53.6858 33.409C54.4426 33.4154 54.9119 33.9152 54.9119 34.6575V36.6286L54.2248 36.6273ZM65.0446 34.1118H63.9363V35.5313C63.9363 35.8466 64.0471 36.0566 64.386 36.0566C64.562 36.0566 64.7837 35.9973 64.9864 35.8792L65.182 36.4639C64.9667 36.6152 64.6279 36.7071 64.3334 36.7071C63.5322 36.7071 63.2516 36.273 63.2516 35.5441V34.1111H62.6196V33.4869H63.2516V32.5339H63.9369V33.4869H65.0452L65.0446 34.1118ZM70.8282 33.4077C70.9657 33.4077 71.1613 33.4345 71.3114 33.4939L71.1024 34.1386C70.9676 34.0843 70.8233 34.0577 70.6781 34.0601C70.2354 34.0601 70.0137 34.3492 70.0137 34.8707V36.6343H69.3361V33.4875H70.0074V33.8698C70.1828 33.5935 70.4381 33.4084 70.8288 33.4084L70.8282 33.4077ZM62.0781 33.7377L61.7855 34.2898C61.4905 34.1185 61.157 34.0258 60.8165 34.0205C60.4453 34.0205 60.2237 34.1584 60.2237 34.3881C60.2237 34.5988 60.458 34.6581 60.7512 34.6964L61.0698 34.743C61.7469 34.842 62.1566 35.1305 62.1566 35.6826C62.1566 36.2807 61.636 36.7077 60.7379 36.7077C60.2306 36.7077 59.7626 36.5762 59.3915 36.3005L59.7094 35.7675C59.9374 35.9449 60.275 36.0962 60.7436 36.0962C61.206 36.0962 61.4523 35.9577 61.4523 35.7152C61.4523 35.5377 61.2775 35.4388 60.9064 35.3864L60.5872 35.3405C59.8918 35.2415 59.5143 34.9256 59.5143 34.4137C59.5143 33.7894 60.021 33.4077 60.8089 33.4077C61.3035 33.4077 61.7519 33.5201 62.0774 33.7364L62.0781 33.7377ZM80.2503 33.4077C80.3877 33.4077 80.5835 33.4345 80.7335 33.4939L80.5245 34.1379C80.3897 34.0835 80.2455 34.0566 80.1002 34.0588C79.6575 34.0588 79.4359 34.3473 79.4359 34.8675V36.6279H78.7576V33.4869H79.4289V33.8679C79.6049 33.5915 79.8595 33.4077 80.2509 33.4077H80.2503ZM71.5135 35.0571C71.5135 34.1041 72.1715 33.4077 73.176 33.4077C73.6446 33.4077 73.9575 33.5124 74.297 33.7818L73.9708 34.3339C73.7156 34.1501 73.4483 34.0511 73.1545 34.0511C72.6136 34.0581 72.2158 34.452 72.2158 35.0571C72.2158 35.6615 72.6136 36.056 73.1545 36.063C73.4496 36.063 73.7168 35.9641 73.9714 35.7803L74.2963 36.3324C73.9581 36.6011 73.6453 36.7064 73.176 36.7064C72.1715 36.7064 71.5135 36.0101 71.5135 35.0571ZM77.8645 35.0584V36.6298H77.1869V36.2481C76.9715 36.5309 76.6454 36.7084 76.202 36.7084C75.328 36.7084 74.6434 36.0184 74.6434 35.059C74.6434 34.0996 75.3287 33.4096 76.202 33.4096C76.6454 33.4096 76.9709 33.5871 77.1869 33.8692V33.4869H77.8645V35.0571V35.0584ZM75.3407 35.0571C75.3407 35.6092 75.6998 36.063 76.2863 36.063C76.8468 36.063 77.2255 35.629 77.2255 35.0571C77.2255 34.4852 76.8468 34.0511 76.2863 34.0511C75.6998 34.0511 75.3407 34.5043 75.3407 35.0571ZM67.158 33.4077C68.0301 33.4077 68.6312 34.0779 68.6381 35.0571C68.6381 35.149 68.6312 35.2345 68.6242 35.3194H66.31C66.4082 35.8849 66.8053 36.0892 67.2423 36.0892C67.5551 36.0892 67.8883 35.9711 68.1492 35.7605L68.4811 36.2667C68.103 36.589 67.6729 36.7071 67.2036 36.7071C66.2701 36.7071 65.6057 36.056 65.6057 35.0571C65.6057 34.0773 66.2448 33.4077 67.158 33.4077ZM67.1479 34.0205C66.6628 34.0205 66.3885 34.3313 66.3163 34.7884H67.9396C67.868 34.2988 67.5862 34.0205 67.1479 34.0198V34.0205ZM84.1516 36.6298H83.474V36.2481C83.2599 36.5309 82.9344 36.7084 82.4923 36.7084C81.6196 36.7084 80.9356 36.0184 80.9356 35.059C80.9356 34.0996 81.6196 33.4096 82.4917 33.4096C82.9344 33.4096 83.2599 33.5871 83.4746 33.8692V32.2256H84.1516V36.6298ZM81.6335 35.0584C81.6335 35.6105 81.9913 36.0637 82.5759 36.0637C83.1352 36.0637 83.512 35.6296 83.512 35.0584C83.512 34.4864 83.1352 34.0524 82.5759 34.0524C81.9913 34.0524 81.6335 34.5056 81.6335 35.0584ZM58.7322 35.0584V36.6298H58.0545V36.2481C57.8392 36.5309 57.5136 36.7084 57.0703 36.7084C56.1963 36.7084 55.5111 36.0184 55.5111 35.059C55.5111 34.0996 56.1969 33.4096 57.0703 33.4096C57.5136 33.4096 57.8398 33.5871 58.0545 33.8692V33.4869H58.7322V35.0584ZM56.209 35.0584C56.209 35.6105 56.5681 36.0637 57.1546 36.0637C57.7151 36.0637 58.0932 35.6296 58.0932 35.0584C58.0932 34.4864 57.7151 34.0524 57.1546 34.0524C56.5681 34.0524 56.209 34.5056 56.209 35.0584ZM85.284 36.1766C85.3357 36.1765 85.3866 36.1892 85.4322 36.2138C85.4778 36.2383 85.5166 36.2739 85.5451 36.3174C85.5736 36.3608 85.591 36.4107 85.5956 36.4626C85.6002 36.5144 85.592 36.5667 85.5716 36.6145C85.5558 36.6518 85.5332 36.6858 85.5051 36.7147C85.4764 36.7431 85.443 36.766 85.4063 36.7824C85.3683 36.7994 85.3273 36.8084 85.2858 36.809C85.2443 36.8095 85.2031 36.8015 85.1647 36.7855C85.1263 36.7695 85.0916 36.7459 85.0625 36.7159C85.0335 36.686 85.0108 36.6504 84.9959 36.6113C84.9763 36.5633 84.9687 36.5111 84.9738 36.4594C84.9789 36.4077 84.9965 36.358 85.025 36.3148C85.0536 36.2716 85.0923 36.2361 85.1377 36.2114C85.1831 36.1868 85.2338 36.1737 85.2853 36.1735L85.284 36.1766ZM85.2872 36.7294C85.3341 36.7287 85.3798 36.7145 85.4189 36.6883C85.458 36.6622 85.4888 36.6253 85.5076 36.582C85.52 36.5519 85.5263 36.5197 85.5263 36.4872C85.5263 36.4547 85.52 36.4224 85.5076 36.3924C85.4826 36.3354 85.4375 36.2899 85.3809 36.2647C85.3207 36.2399 85.2531 36.2399 85.1928 36.2647C85.1639 36.2765 85.1374 36.2939 85.1149 36.3158C85.0704 36.3619 85.0454 36.4238 85.0454 36.4881C85.0454 36.5525 85.0704 36.6144 85.1149 36.6605C85.1608 36.7062 85.2227 36.7317 85.2872 36.7313V36.7294ZM85.3062 36.3401C85.3365 36.3383 85.3665 36.347 85.3911 36.3649C85.4114 36.3815 85.4227 36.4064 85.4215 36.4326C85.4219 36.4437 85.4199 36.4547 85.4158 36.4649C85.4116 36.4751 85.4054 36.4844 85.3974 36.492C85.3783 36.5088 85.3543 36.5189 85.329 36.5207L85.424 36.6292H85.3512L85.2638 36.5213H85.2353V36.6298H85.1745V36.3401H85.3075H85.3062ZM85.2346 36.4709H85.3094C85.3233 36.471 85.3371 36.4674 85.3493 36.4607C85.3541 36.4576 85.3581 36.4532 85.3608 36.4481C85.3634 36.4429 85.3647 36.4371 85.3645 36.4313C85.3646 36.4257 85.3633 36.4202 85.3606 36.4152C85.358 36.4103 85.354 36.4062 85.3493 36.4032C85.3371 36.3964 85.3233 36.393 85.3094 36.3937H85.2346V36.4709Z" fill="white"/>
<path d="M84.869 26.3595V25.8303H85.021V25.7225H84.6328V25.831H84.7848V26.3595H84.869ZM85.6221 26.3595V25.7212H85.5036L85.3662 26.1591L85.2294 25.7212H85.1103V26.3595H85.1946V25.8789L85.3231 26.2937H85.4105L85.5391 25.8776V26.3595H85.6221Z" fill="#F79410"/>
<path d="M72.1288 28.1501H61.8574V9.54688H72.1288V28.1501Z" fill="#FF5F00"/>
<path d="M62.509 18.851C62.509 15.0774 64.2621 11.7155 66.9918 9.54912C64.9252 7.9069 62.3692 7.01562 59.7376 7.01954C53.2548 7.01954 48 12.3168 48 18.851C48 25.3853 53.2548 30.6825 59.7376 30.6825C62.3695 30.6866 64.9257 29.7953 66.9924 28.153C64.2627 25.9866 62.5084 22.6253 62.5084 18.851" fill="#EB001B"/>
<path d="M85.9878 18.8505C85.9878 25.3848 80.7324 30.682 74.2496 30.682C71.6175 30.686 69.0612 29.7947 66.9941 28.1525C69.7251 25.9861 71.4781 22.6248 71.4781 18.8505C71.4781 15.0763 69.7251 11.715 66.9941 9.54863C69.061 7.9065 71.6171 7.01524 74.249 7.01906C80.7318 7.01906 85.9878 12.3163 85.9878 18.8505Z" fill="#F79E1B"/>
</g>
<defs>
<filter id="filter0_b_33_100" x="-29" y="-29" width="191" height="103" filterUnits="userSpaceOnUse" color-interpolation-filters="sRGB">
<feFlood flood-opacity="0" result="BackgroundImageFix"/>
<feGaussianBlur in="BackgroundImage" stdDeviation="14.5"/>
<feComposite in2="SourceAlpha" operator="in" result="effect1_backgroundBlur_33_100"/>
<feBlend mode="normal" in="SourceGraphic" in2="effect1_backgroundBlur_33_100" result="shape"/>
</filter>
<clipPath id="clip0_33_100">
<rect width="38" height="30" fill="white" transform="translate(48 7)"/>
</clipPath>
</defs>
</svg>
