<svg width="93" height="94" viewBox="0 0 93 94" fill="none" xmlns="http://www.w3.org/2000/svg">
<path d="M88.4527 90.7404H5.05553C4.11105 90.7404 3.35547 89.992 3.35547 89.0563V4.61792C3.35547 3.68231 4.11105 2.93384 5.05553 2.93384H88.4527C89.3972 2.93384 90.1527 3.68231 90.1527 4.61792V89.0563C90.1527 89.992 89.3972 90.7404 88.4527 90.7404Z" fill="#485FAC"/>
<path d="M13.0365 17.2486C15.6185 17.2486 17.7116 15.1751 17.7116 12.6173C17.7116 10.0596 15.6185 7.98608 13.0365 7.98608C10.4545 7.98608 8.36133 10.0596 8.36133 12.6173C8.36133 15.1751 10.4545 17.2486 13.0365 17.2486Z" fill="#434459"/>
<ellipse cx="13.0843" cy="12.6642" rx="1.88895" ry="1.87121" fill="#7C8BB1"/>
<path d="M13.0365 87.419C15.6185 87.419 17.7116 85.3455 17.7116 82.7877C17.7116 80.23 15.6185 78.1565 13.0365 78.1565C10.4545 78.1565 8.36133 80.23 8.36133 82.7877C8.36133 85.3455 10.4545 87.419 13.0365 87.419Z" fill="#434459"/>
<ellipse cx="13.0843" cy="82.8346" rx="1.88895" ry="1.87122" fill="#7C8BB1"/>
<path d="M80.5658 17.2486C83.1478 17.2486 85.2409 15.1751 85.2409 12.6173C85.2409 10.0596 83.1478 7.98608 80.5658 7.98608C77.9838 7.98608 75.8906 10.0596 75.8906 12.6173C75.8906 15.1751 77.9838 17.2486 80.5658 17.2486Z" fill="#434459"/>
<ellipse cx="80.6136" cy="12.6642" rx="1.88895" ry="1.87121" fill="#7C8BB1"/>
<path d="M80.5658 87.419C83.1478 87.419 85.2409 85.3455 85.2409 82.7877C85.2409 80.23 83.1478 78.1565 80.5658 78.1565C77.9838 78.1565 75.8906 80.23 75.8906 82.7877C75.8906 85.3455 77.9838 87.419 80.5658 87.419Z" fill="#434459"/>
<ellipse cx="80.6136" cy="82.8346" rx="1.88895" ry="1.87122" fill="#7C8BB1"/>
<path fill-rule="evenodd" clip-rule="evenodd" d="M47.1608 15.5962C65.129 15.5962 79.6946 30.0255 79.6946 47.8245C79.6946 65.624 65.129 80.0528 47.1608 80.0528C29.1926 80.0528 14.627 65.624 14.627 47.8245C14.627 30.0255 29.1926 15.5962 47.1608 15.5962Z" fill="#ADD9FC"/>
<path fill-rule="evenodd" clip-rule="evenodd" d="M65.9213 21.4888C69.6735 26.7468 71.9156 33.1834 71.9156 40.0733C71.9156 57.8873 57.3189 72.3016 39.3818 72.3016C32.3809 72.3016 25.929 70.1259 20.6211 66.3636C26.5239 74.6133 36.2245 80.0074 47.2064 80.0074C65.1892 80.0074 79.7402 65.5477 79.7402 47.7791C79.6945 36.9457 74.2493 27.3361 65.9213 21.4888Z" fill="#7C8BB1"/>
<path fill-rule="evenodd" clip-rule="evenodd" d="M19.0199 55.258C22.589 51.7682 27.3478 49.7733 32.4269 49.7733C34.5318 49.7733 36.5452 50.0911 38.5127 50.771C36.6367 51.8584 34.8979 53.2183 33.2963 54.7594C29.6357 58.3857 27.2106 62.9638 26.2039 67.8597C22.8178 64.3694 20.3011 60.0633 19.0199 55.258ZM75.302 40.4362C71.7329 43.926 66.9741 45.9204 61.895 45.9204C59.7901 45.9204 57.7768 45.6031 55.8092 44.9232C57.6853 43.8358 59.4241 42.4759 61.0256 40.9343C64.6862 37.3081 67.1114 32.7299 68.118 27.8345C71.5041 31.3248 74.0208 35.6309 75.302 40.4362ZM56.1753 36.13C54.711 37.58 53.018 38.8039 51.1877 39.7105C51.7368 37.6258 52.0113 35.4501 52.0113 33.2285C52.0113 28.1069 50.4555 23.1657 47.6643 18.9955C52.7892 19.0862 57.5938 20.4913 61.7577 22.8942C61.7577 27.8345 59.7444 32.594 56.1753 36.13ZM39.6567 19.9479C43.18 23.483 45.1934 28.1971 45.1934 33.2285C45.1934 35.3136 44.8731 37.3081 44.1867 39.2572C43.0885 37.3992 41.7158 35.6767 40.16 34.0898C36.4994 30.4635 31.8778 28.0611 26.936 27.0639C30.4594 23.7096 34.8064 21.2166 39.6567 19.9479ZM21.9942 33.3645C26.9818 33.4099 31.7863 35.3594 35.3554 38.8946C36.8197 40.3455 38.0552 42.0227 38.9703 43.8358C36.8655 43.2918 34.6691 43.0194 32.4269 43.0194C27.2563 43.0194 22.2687 44.5606 18.059 47.3256C18.1505 42.2035 19.569 37.4898 21.9942 33.3645ZM38.1009 59.5189C39.5652 58.0684 41.2582 56.8445 43.0885 55.938C42.5394 58.0235 42.2649 60.1988 42.2649 62.4203C42.2649 67.5424 43.8206 72.4827 46.6119 76.6529C41.487 76.5623 36.6824 75.1571 32.5185 72.7551C32.5642 67.8139 34.5318 63.0545 38.1009 59.5189ZM54.6195 75.7015C51.0961 72.1659 49.0828 67.4513 49.0828 62.4203C49.0828 60.3348 49.4031 58.3408 50.0895 56.3912C51.1877 58.2501 52.5604 59.9722 54.1162 61.5586C57.7768 65.1849 62.3526 67.5873 67.3402 68.5845C63.8168 71.9392 59.4698 74.4323 54.6195 75.7015ZM72.3278 62.3297C67.3402 62.2839 62.5356 60.3348 58.9665 56.7992C57.5022 55.3487 56.2668 53.6715 55.3516 51.8584C57.4565 52.4023 59.6529 52.6748 61.895 52.6748C67.0656 52.6748 72.0532 51.1332 76.263 48.3686C76.1714 53.4449 74.7529 58.2044 72.3278 62.3297ZM47.161 12.1963C27.3021 12.1963 11.1953 28.1971 11.1953 47.8247C11.1953 67.4513 27.3478 83.4521 47.161 83.4521C67.0199 83.4521 83.1266 67.4513 83.1266 47.8247C83.1266 28.1971 66.9741 12.1963 47.161 12.1963Z" fill="#2E3C7B"/>
<ellipse cx="46.9806" cy="46.6284" rx="10.8615" ry="10.7595" fill="#ADD9FC"/>
<path d="M55.3416 46.3945C55.3416 51.0631 51.5147 54.8879 46.7441 54.8879C41.9735 54.8879 38.1465 51.0631 38.1465 46.3945C38.1465 41.7259 41.9735 37.9011 46.7441 37.9011C51.5147 37.9011 55.3416 41.7259 55.3416 46.3945Z" stroke="#EEDE6D" stroke-width="5"/>
<path d="M3.52148 5.34649C3.52148 4.44386 4.26652 3.66846 5.23967 3.66846H87.0543C88.1589 3.66846 89.0543 4.56389 89.0543 5.66846V88.2935C89.0543 89.398 88.1589 90.2935 87.0543 90.2935H5.23967C4.26652 90.2935 3.52148 89.5181 3.52148 88.6154V5.34649Z" stroke="#2E3C7B" stroke-width="6"/>
</svg>
