<svg width="242" height="146" viewBox="0 0 242 146" fill="none" xmlns="http://www.w3.org/2000/svg">
<g clip-path="url(#clip0_33_5603)">
<mask id="mask0_33_5603" style="mask-type:alpha" maskUnits="userSpaceOnUse" x="0" y="3" width="269" height="143">
<path fill-rule="evenodd" clip-rule="evenodd" d="M0 3H269V146H0V3Z" fill="white"/>
</mask>
<g mask="url(#mask0_33_5603)">
<path fill-rule="evenodd" clip-rule="evenodd" d="M229.101 95.652V12.1101C227.297 11.2303 225.332 10.7031 223.238 10.7031H19.3066V116.45H213.833C222.272 116.494 229.101 107.172 229.101 95.652Z" fill="#485FAC"/>
<path fill-rule="evenodd" clip-rule="evenodd" d="M228.116 11.5593V93.3497C228.116 104.627 221.315 113.743 212.902 113.743H19.3066V128.866H222.282C231.726 128.866 239.398 118.582 239.398 105.923V33.1195C239.398 23.1819 234.691 14.7566 228.116 11.5593Z" fill="#2E3C7B"/>
<path fill-rule="evenodd" clip-rule="evenodd" d="M97.9417 31.8408C114.266 31.8408 127.499 45.0463 127.499 61.3356C127.499 77.6253 114.266 90.8304 97.9417 90.8304C81.6176 90.8304 68.3848 77.6253 68.3848 61.3356C68.3848 45.0463 81.6176 31.8408 97.9417 31.8408Z" fill="#ADD9FC"/>
<path fill-rule="evenodd" clip-rule="evenodd" d="M172.496 32.0994C188.82 32.0994 202.053 45.3048 202.053 61.5941C202.053 77.8839 188.82 91.0889 172.496 91.0889C156.172 91.0889 142.939 77.8839 142.939 61.5941C142.939 45.3048 156.172 32.0994 172.496 32.0994Z" fill="#ADD9FC"/>
<path fill-rule="evenodd" clip-rule="evenodd" d="M114.985 37.2336C118.394 42.0457 120.431 47.9364 120.431 54.2419C120.431 70.5449 107.17 83.7366 90.8742 83.7366C84.5138 83.7366 78.6523 81.7454 73.8301 78.3023C79.1927 85.8523 88.0058 90.7888 97.9828 90.7888C114.32 90.7888 127.54 77.5556 127.54 61.2941C127.498 51.3795 122.551 42.585 114.985 37.2336Z" fill="#7C8BB1"/>
<path fill-rule="evenodd" clip-rule="evenodd" d="M189.54 37.4922C192.949 42.3043 194.986 48.1949 194.986 54.5004C194.986 70.8034 181.725 83.9952 165.429 83.9952C159.068 83.9952 153.207 82.004 148.385 78.5609C153.747 86.1109 162.56 91.0474 172.537 91.0474C188.875 91.0474 202.094 77.8142 202.094 61.5526C202.053 51.6381 197.106 42.8436 189.54 37.4922Z" fill="#7C8BB1"/>
<rect x="26.9863" y="30.7004" width="29.6029" height="4.28126" fill="#2E3C7B"/>
<rect x="27.0273" y="34.25" width="29.6029" height="0.856251" fill="#0F204E"/>
<rect x="26.9863" y="36.2661" width="29.6029" height="4.28125" fill="#2E3C7B"/>
<rect x="27.0273" y="39.8157" width="29.6029" height="0.856243" fill="#0F204E"/>
<rect x="26.9863" y="41.8318" width="29.6029" height="4.28125" fill="#2E3C7B"/>
<rect x="27.0273" y="45.3813" width="29.6029" height="0.856247" fill="#0F204E"/>
<rect x="26.9863" y="47.3975" width="29.6029" height="4.28125" fill="#2E3C7B"/>
<rect x="27.0273" y="50.947" width="29.6029" height="0.856255" fill="#0F204E"/>
<rect x="26.9863" y="52.9631" width="29.6029" height="4.28125" fill="#2E3C7B"/>
<rect x="27.0273" y="56.5127" width="29.6029" height="0.856251" fill="#0F204E"/>
<path fill-rule="evenodd" clip-rule="evenodd" d="M84.5545 63.1193C79.9402 63.1193 75.6168 64.945 72.3742 68.1388C73.5382 72.5365 75.8246 76.4774 78.9009 79.6717C79.8154 75.191 82.0187 71.0012 85.3444 67.6825C86.4818 66.5799 87.6953 65.5788 88.9851 64.7188C89.9719 66.644 91.575 68.2024 93.5348 69.1347C92.1419 69.9154 90.8493 70.9007 89.7093 72.0383C86.4668 75.274 84.6792 79.6298 84.6377 84.1519C88.4206 86.3501 92.7856 87.6361 97.4415 87.7191C94.9057 83.9026 93.4923 79.3813 93.4923 74.6936C93.4923 72.8784 93.6911 71.097 94.0887 69.3776C95.2279 69.8358 96.4724 70.088 97.7759 70.088C98.691 70.088 99.5771 69.9637 100.418 69.7311C99.9202 71.3387 99.6863 72.9825 99.6863 74.6936C99.6863 79.2979 101.515 83.6126 104.716 86.8483C109.123 85.6868 113.072 83.4052 116.273 80.335C111.742 79.4223 107.585 77.2237 104.259 73.905C102.964 72.5742 101.808 71.1392 100.856 69.599C102.895 68.9309 104.642 67.6173 105.852 65.9003C106.619 67.2261 107.572 68.4578 108.666 69.5493C111.908 72.785 116.273 74.5688 120.804 74.6107C123.008 70.8353 124.296 66.4795 124.379 61.8338C120.555 64.3638 116.024 65.7747 111.326 65.7747C109.606 65.7747 107.915 65.5968 106.278 65.2415C107.146 63.7759 107.644 62.0666 107.644 60.2412C107.644 59.8864 107.625 59.5361 107.588 59.191C108.805 59.4633 110.047 59.5932 111.326 59.5932C115.941 59.5932 120.264 57.7679 123.506 54.5741C122.342 50.1765 120.056 46.2355 116.98 43.0413C116.065 47.5215 113.862 51.7114 110.536 55.03C109.523 56.0129 108.449 56.915 107.314 57.7083C106.761 55.629 105.543 53.8198 103.902 52.5209C104.693 51.9553 105.439 51.3221 106.13 50.6332C109.372 47.3971 111.201 43.0413 111.201 38.52C107.419 36.321 103.054 35.035 98.3976 34.952C100.933 38.7685 102.347 43.2906 102.347 47.9778C102.347 49.1314 102.267 50.2715 102.106 51.3905C100.799 50.7525 99.3292 50.3943 97.7759 50.3943C97.1571 50.3943 96.5517 50.4511 95.9644 50.5599C96.0914 49.714 96.1528 48.8547 96.1528 47.9778C96.1528 43.3732 94.3237 39.0589 91.1227 35.8236C86.7162 36.9847 82.767 39.2663 79.566 42.3361C84.0557 43.2487 88.2543 45.4473 91.58 48.766C92.3518 49.559 93.074 50.389 93.733 51.256C91.7917 52.1272 90.1837 53.6065 89.1526 55.4508C88.5742 54.6378 87.9242 53.8711 87.2151 53.1633C83.9725 49.928 79.6076 48.1438 75.0764 48.1023C72.8731 51.8777 71.5844 56.1916 71.5013 60.8792C75.3258 58.3487 79.857 56.9383 84.5545 56.9383C85.8483 56.9383 87.1254 57.0389 88.375 57.2398C88.0719 58.1861 87.9083 59.1946 87.9083 60.2412C87.9083 61.408 88.1116 62.5274 88.485 63.5661C87.2064 63.2635 85.9011 63.1193 84.5545 63.1193ZM65.2656 61.3359C65.2656 43.3732 79.8986 28.7295 97.9404 28.7295C115.941 28.7295 130.615 43.3732 130.615 61.3359C130.615 79.2979 115.982 93.9416 97.9404 93.9416C79.9402 93.9416 65.2656 79.2979 65.2656 61.3359Z" fill="#2E3C7B"/>
<path fill-rule="evenodd" clip-rule="evenodd" d="M159.111 63.3779C154.497 63.3779 150.173 65.2035 146.931 68.3974C148.095 72.795 150.381 76.736 153.458 79.9302C154.372 75.4496 156.575 71.2597 159.901 67.941C161.038 66.8385 162.252 65.8373 163.542 64.9774C164.529 66.9026 166.132 68.461 168.091 69.3933C166.699 70.174 165.406 71.1592 164.266 72.2968C161.023 75.5325 159.236 79.8883 159.194 84.4104C162.977 86.6086 167.342 87.8946 171.998 87.9776C169.462 84.1611 168.049 79.6398 168.049 74.9522C168.049 73.137 168.248 71.3555 168.645 69.6362C169.785 70.0944 171.029 70.3466 172.333 70.3466C173.248 70.3466 174.134 70.2223 174.975 69.9897C174.477 71.5972 174.243 73.241 174.243 74.9522C174.243 79.5564 176.072 83.8711 179.273 87.1068C183.68 85.9453 187.629 83.6637 190.83 80.5935C186.299 79.6809 182.141 77.4823 178.816 74.1636C177.52 72.8327 176.364 71.3977 175.412 69.8575C177.452 69.1894 179.198 67.8759 180.409 66.1589C181.175 67.4846 182.129 68.7163 183.222 69.8078C186.465 73.0435 190.83 74.8273 195.361 74.8692C197.564 71.0938 198.853 66.738 198.936 62.0923C195.112 64.6224 190.58 66.0332 185.883 66.0332C184.162 66.0332 182.471 65.8553 180.835 65.5C181.702 64.0345 182.2 62.3251 182.2 60.4997C182.2 60.145 182.181 59.7946 182.145 59.4496C183.362 59.7218 184.604 59.8518 185.883 59.8518C190.497 59.8518 194.821 58.0265 198.063 54.8327C196.899 50.435 194.613 46.4941 191.536 43.2998C190.622 47.7801 188.419 51.9699 185.093 55.2886C184.079 56.2714 183.005 57.1735 181.871 57.9669C181.318 55.8876 180.1 54.0783 178.458 52.7795C179.249 52.2138 179.996 51.5807 180.686 50.8917C183.929 47.6556 185.758 43.2998 185.758 38.7786C181.975 36.5795 177.61 35.2935 172.954 35.2106C175.49 39.027 176.904 43.5492 176.904 48.2364C176.904 49.39 176.823 50.5301 176.663 51.6491C175.355 51.011 173.886 50.6529 172.333 50.6529C171.714 50.6529 171.108 50.7097 170.521 50.8184C170.648 49.9726 170.709 49.1132 170.709 48.2364C170.709 43.6317 168.88 39.3174 165.679 36.0821C161.273 37.2433 157.324 39.5248 154.123 42.5946C158.612 43.5073 162.811 45.7059 166.137 49.0246C166.908 49.8176 167.631 50.6476 168.29 51.5146C166.348 52.3858 164.74 53.865 163.709 55.7093C163.131 54.8963 162.481 54.1297 161.772 53.4218C158.529 50.1865 154.164 48.4023 149.633 48.3608C147.43 52.1362 146.141 56.4501 146.058 61.1377C149.882 58.6073 154.414 57.1968 159.111 57.1968C160.405 57.1968 161.682 57.2974 162.932 57.4984C162.629 58.4446 162.465 59.4531 162.465 60.4997C162.465 61.6665 162.668 62.786 163.042 63.8246C161.763 63.522 160.458 63.3779 159.111 63.3779ZM139.822 61.5945C139.822 43.6317 154.455 28.988 172.497 28.988C190.497 28.988 205.172 43.6317 205.172 61.5945C205.172 79.5564 190.539 94.2001 172.497 94.2001C154.497 94.2001 139.822 79.5564 139.822 61.5945Z" fill="#2E3C7B"/>
<path d="M105.145 60.027C105.145 64.1978 101.755 67.5879 97.5626 67.5879C93.3701 67.5879 89.9805 64.1978 89.9805 60.027C89.9805 55.8562 93.3701 52.4661 97.5626 52.4661C101.755 52.4661 105.145 55.8562 105.145 60.027Z" stroke="#EEDE6D" stroke-width="5"/>
<path d="M179.699 60.2856C179.699 64.4564 176.31 67.8465 172.117 67.8465C167.925 67.8465 164.535 64.4564 164.535 60.2856C164.535 56.1147 167.925 52.7246 172.117 52.7246C176.31 52.7246 179.699 56.1147 179.699 60.2856Z" stroke="#EEDE6D" stroke-width="5"/>
<ellipse cx="30.8476" cy="85.9286" rx="3.86124" ry="3.85312" fill="#EEDE6D"/>
<ellipse cx="41.5741" cy="85.9286" rx="3.86124" ry="3.85312" fill="#EEDE6D"/>
<ellipse cx="52.3007" cy="85.9286" rx="3.86124" ry="3.85312" fill="#EEDE6D"/>
<rect x="27.457" y="59.9375" width="29.1738" height="18.4094" fill="#2E3C7B"/>
<rect x="55.7734" y="59.9375" width="0.858055" height="18.4094" fill="#0F204E"/>
<rect width="29.1738" height="0.856239" transform="matrix(1 0 0 -1 27.457 78.3469)" fill="#0F204E"/>
<path fill-rule="evenodd" clip-rule="evenodd" d="M20.1645 89.9062H14.1581C12.7178 89.9062 11.584 88.336 11.584 86.4357V47.1392C11.584 45.1972 12.7485 43.6687 14.1581 43.6687H20.1645V89.9062Z" fill="#4C5671"/>
<rect x="12.4414" y="46.6655" width="6.43541" height="1.71251" fill="#EEDE6D"/>
<rect x="12.4414" y="50.9468" width="6.43541" height="1.71251" fill="#EEDE6D"/>
<rect x="12.4414" y="55.228" width="6.43541" height="1.71251" fill="#EEDE6D"/>
<rect x="12.4414" y="59.5093" width="6.43541" height="1.71251" fill="#EEDE6D"/>
<rect x="12.4414" y="63.7905" width="6.43541" height="1.71251" fill="#EEDE6D"/>
<rect x="12.4414" y="68.0718" width="6.43541" height="1.71249" fill="#EEDE6D"/>
<rect x="12.4414" y="72.353" width="6.43541" height="1.7125" fill="#EEDE6D"/>
<rect x="12.4414" y="76.6343" width="6.43541" height="1.7125" fill="#EEDE6D"/>
<rect x="12.4414" y="80.9155" width="6.43541" height="1.7125" fill="#EEDE6D"/>
<rect x="12.4414" y="85.1968" width="6.43541" height="1.7125" fill="#EEDE6D"/>
<path d="M0 5C0 4.44772 0.447715 4 1 4H22V11H1C0.447716 11 0 10.5523 0 10V5Z" fill="#2E3C7B"/>
<rect x="7" y="36" width="10" height="10" fill="#0F204E"/>
<rect x="7" y="53" width="10" height="23" fill="#0F204E"/>
<rect x="19" y="134" width="10" height="8" rx="1" fill="#2E3C7B"/>
<rect x="10" y="4" width="12" height="138" fill="#2E3C7B"/>
<path fill-rule="evenodd" clip-rule="evenodd" d="M195 128V137.8C195 140.15 191.366 142 186.969 142H96.0313C91.5371 142 88 140.1 88 137.8V128H195Z" fill="#1D2C74"/>
<rect x="92.793" y="140.239" width="10.1992" height="2.73894" transform="rotate(-90 92.793 140.239)" fill="#EEDE6D"/>
<rect x="99.6406" y="140.239" width="10.1992" height="2.73894" transform="rotate(-90 99.6406 140.239)" fill="#EEDE6D"/>
<rect x="106.488" y="140.239" width="10.1992" height="2.73892" transform="rotate(-90 106.488 140.239)" fill="#EEDE6D"/>
<rect x="113.336" y="140.239" width="10.1992" height="2.73893" transform="rotate(-90 113.336 140.239)" fill="#EEDE6D"/>
<rect x="120.182" y="140.239" width="10.1992" height="2.73893" transform="rotate(-90 120.182 140.239)" fill="#EEDE6D"/>
<rect x="127.029" y="140.239" width="10.1992" height="2.73895" transform="rotate(-90 127.029 140.239)" fill="#EEDE6D"/>
<rect x="133.877" y="140.239" width="10.1992" height="2.73898" transform="rotate(-90 133.877 140.239)" fill="#EEDE6D"/>
<rect x="140.725" y="140.239" width="10.1992" height="2.73892" transform="rotate(-90 140.725 140.239)" fill="#EEDE6D"/>
<rect x="147.572" y="140.239" width="10.1992" height="2.73894" transform="rotate(-90 147.572 140.239)" fill="#EEDE6D"/>
<rect x="160.572" y="140.239" width="10.1992" height="2.73894" transform="rotate(-90 160.572 140.239)" fill="#EEDE6D"/>
<rect x="154.42" y="140.239" width="10.1992" height="2.73896" transform="rotate(-90 154.42 140.239)" fill="#EEDE6D"/>
<rect x="167.42" y="140.239" width="10.1992" height="2.73896" transform="rotate(-90 167.42 140.239)" fill="#EEDE6D"/>
<rect x="174.42" y="140.239" width="10.1992" height="2.73896" transform="rotate(-90 174.42 140.239)" fill="#EEDE6D"/>
<rect x="181.42" y="140.239" width="10.1992" height="2.73896" transform="rotate(-90 181.42 140.239)" fill="#EEDE6D"/>
<rect x="188.42" y="140.239" width="10.1992" height="2.73896" transform="rotate(-90 188.42 140.239)" fill="#EEDE6D"/>
<path fill-rule="evenodd" clip-rule="evenodd" d="M79 128C79.5523 128 80 128.448 80 129V137.8C80 140.15 79.0152 142 77.8233 142H53.1767C51.9586 142 51 140.1 51 137.8V129C51 128.448 51.4477 128 52 128H79Z" fill="#1D2C74"/>
<rect x="54" y="140" width="11" height="2" rx="1" transform="rotate(-90 54 140)" fill="#EEDE6D"/>
<rect x="59" y="140" width="11" height="2" rx="1" transform="rotate(-90 59 140)" fill="#EEDE6D"/>
<rect x="64" y="140" width="11" height="2" rx="1" transform="rotate(-90 64 140)" fill="#EEDE6D"/>
<rect x="69" y="140" width="11" height="2" rx="1" transform="rotate(-90 69 140)" fill="#EEDE6D"/>
<rect x="74" y="140" width="11" height="2" rx="1" transform="rotate(-90 74 140)" fill="#EEDE6D"/>
<rect x="202" y="128" width="9" height="10" fill="#1D2C74"/>
<path d="M211 133H219C219.552 133 220 133.448 220 134V137C220 137.552 219.552 138 219 138H211V133Z" fill="#1D2C74"/>
</g>
</g>
<defs>
<clipPath id="clip0_33_5603">
<rect width="242" height="146" fill="white"/>
</clipPath>
</defs>
</svg>
