<svg width="194" height="195" viewBox="0 0 194 195" fill="none" xmlns="http://www.w3.org/2000/svg">
<path d="M96.5343 95.6095H12.058C11.1013 95.6095 10.3359 94.8426 10.3359 93.8841V7.37815C10.3359 6.41963 11.1013 5.65283 12.058 5.65283H96.5343C97.491 5.65283 98.2564 6.41963 98.2564 7.37815V93.8841C98.2564 94.8426 97.491 95.6095 96.5343 95.6095Z" fill="#485FAC"/>
<path d="M20.1419 20.3181C22.7573 20.3181 24.8776 18.1939 24.8776 15.5735C24.8776 12.9531 22.7573 10.8289 20.1419 10.8289C17.5265 10.8289 15.4062 12.9531 15.4062 15.5735C15.4062 18.1939 17.5265 20.3181 20.1419 20.3181Z" fill="#434459"/>
<ellipse cx="20.1907" cy="15.6214" rx="1.91339" ry="1.91703" fill="#7C8BB1"/>
<path d="M20.1419 92.2068C22.7573 92.2068 24.8776 90.0826 24.8776 87.4622C24.8776 84.8418 22.7573 82.7175 20.1419 82.7175C17.5265 82.7175 15.4062 84.8418 15.4062 87.4622C15.4062 90.0826 17.5265 92.2068 20.1419 92.2068Z" fill="#434459"/>
<ellipse cx="20.1907" cy="87.5101" rx="1.91339" ry="1.91703" fill="#7C8BB1"/>
<path d="M88.5462 20.3181C91.1616 20.3181 93.2819 18.1939 93.2819 15.5735C93.2819 12.9531 91.1616 10.8289 88.5462 10.8289C85.9308 10.8289 83.8105 12.9531 83.8105 15.5735C83.8105 18.1939 85.9308 20.3181 88.5462 20.3181Z" fill="#434459"/>
<ellipse cx="88.595" cy="15.6214" rx="1.91339" ry="1.91703" fill="#7C8BB1"/>
<path d="M88.5462 92.2068C91.1616 92.2068 93.2819 90.0826 93.2819 87.4622C93.2819 84.8418 91.1616 82.7175 88.5462 82.7175C85.9308 82.7175 83.8105 84.8418 83.8105 87.4622C83.8105 90.0826 85.9308 92.2068 88.5462 92.2068Z" fill="#434459"/>
<ellipse cx="88.595" cy="87.5101" rx="1.91339" ry="1.91703" fill="#7C8BB1"/>
<path fill-rule="evenodd" clip-rule="evenodd" d="M54.7087 18.6252C72.9094 18.6252 87.6635 33.4079 87.6635 51.6427C87.6635 69.878 72.9094 84.6602 54.7087 84.6602C36.508 84.6602 21.7539 69.878 21.7539 51.6427C21.7539 33.4079 36.508 18.6252 54.7087 18.6252" fill="#ADD9FC"/>
<path fill-rule="evenodd" clip-rule="evenodd" d="M73.7126 24.6621C77.5133 30.0489 79.7845 36.6431 79.7845 43.7017C79.7845 61.9519 64.9988 76.7192 46.8297 76.7192C39.7381 76.7192 33.2028 74.4901 27.8262 70.6358C33.8053 79.0875 43.6315 84.6136 54.7555 84.6136C72.971 84.6136 87.7103 69.7999 87.7103 51.5962C87.664 40.4975 82.1483 30.6526 73.7126 24.6621" fill="#7C8BB1"/>
<path fill-rule="evenodd" clip-rule="evenodd" d="M26.2032 59.2582C29.8185 55.683 34.6389 53.6392 39.7837 53.6392C41.9158 53.6392 43.9552 53.9648 45.9483 54.6613C44.0479 55.7754 42.2866 57.1685 40.6644 58.7474C36.9564 62.4624 34.4998 67.1527 33.4801 72.1685C30.0502 68.5927 27.501 64.1811 26.2032 59.2582ZM83.2136 44.0735C79.5983 47.6487 74.7779 49.692 69.6331 49.692C67.501 49.692 65.4616 49.3669 63.4685 48.6704C65.3689 47.5563 67.1302 46.1632 68.7524 44.5838C72.4604 40.8688 74.917 36.1785 75.9367 31.1632C79.3666 34.7389 81.9158 39.1506 83.2136 44.0735ZM63.8393 39.6618C62.3561 41.1474 60.6412 42.4012 58.7872 43.33C59.3434 41.1943 59.6215 38.9653 59.6215 36.6893C59.6215 31.4423 58.0456 26.3801 55.2183 22.1078C60.4094 22.2007 65.2762 23.6402 69.494 26.1019C69.494 31.1632 67.4546 36.0392 63.8393 39.6618V39.6618ZM47.107 23.0835C50.676 26.7052 52.7154 31.5347 52.7154 36.6893C52.7154 38.8255 52.3909 40.8688 51.6957 42.8656C50.5833 40.9621 49.1928 39.1975 47.6169 37.5717C43.9089 33.8566 39.2275 31.3954 34.2217 30.3738C37.7907 26.9374 42.1939 24.3833 47.107 23.0835ZM29.2159 36.8287C34.2681 36.8751 39.1348 38.8724 42.7501 42.4941C44.2333 43.9806 45.4848 45.6988 46.4118 47.5563C44.2797 46.999 42.0549 46.72 39.7837 46.72C34.5462 46.72 29.494 48.2988 25.2298 51.1316C25.3225 45.8841 26.7594 41.055 29.2159 36.8287V36.8287ZM45.5311 63.6234C47.0143 62.1374 48.7293 60.8836 50.5833 59.9548C50.0271 62.0914 49.749 64.32 49.749 66.5959C49.749 71.8434 51.3249 76.9047 54.1522 81.177C48.961 81.0841 44.0943 79.6445 39.8764 77.1838C39.9228 72.1216 41.9158 67.2456 45.5311 63.6234V63.6234ZM62.2634 80.2023C58.6945 76.5801 56.6551 71.7501 56.6551 66.5959C56.6551 64.4593 56.9796 62.4165 57.6748 60.4192C58.7872 62.3236 60.1777 64.0878 61.7536 65.7131C65.4616 69.4282 70.0966 71.8894 75.1487 72.911C71.5798 76.3479 67.1765 78.902 62.2634 80.2023ZM80.2009 66.503C75.1487 66.4561 70.282 64.4593 66.6667 60.8371C65.1835 59.3511 63.932 57.6329 63.005 55.7754C65.1371 56.3326 67.3619 56.6117 69.6331 56.6117C74.8706 56.6117 79.9228 55.0324 84.187 52.2001C84.0943 57.4007 82.6574 62.2767 80.2009 66.503ZM54.7084 15.1421C34.5925 15.1421 18.2773 31.5347 18.2773 51.6429C18.2773 71.7501 34.6389 88.1427 54.7084 88.1427C74.8243 88.1427 91.1395 71.7501 91.1395 51.6429C91.1395 31.5347 74.7779 15.1421 54.7084 15.1421" fill="#2E3C7B"/>
<ellipse cx="54.5255" cy="50.4175" rx="11.002" ry="11.0229" fill="#ADD9FC"/>
<path d="M63.0273 50.1778C63.0273 55.0217 59.1093 58.9404 54.2861 58.9404C49.463 58.9404 45.5449 55.0217 45.5449 50.1778C45.5449 45.3339 49.463 41.4153 54.2861 41.4153C59.1093 41.4153 63.0273 45.3339 63.0273 50.1778Z" stroke="#EEDE6D" stroke-width="5"/>
<path d="M12.2441 6.33203H97.1821V95.2251H12.2441C11.2693 95.2251 10.4648 94.4304 10.4648 93.4325V8.12461C10.4648 7.12671 11.2693 6.33203 12.2441 6.33203Z" stroke="#2E3C7B" stroke-width="6"/>
<path d="M96.5343 185.018H12.058C11.1013 185.018 10.3359 184.251 10.3359 183.292V96.7864C10.3359 95.8278 11.1013 95.061 12.058 95.061H96.5343C97.491 95.061 98.2564 95.8278 98.2564 96.7864V183.292C98.2564 184.251 97.491 185.018 96.5343 185.018Z" fill="#485FAC"/>
<path d="M20.1419 109.726C22.7573 109.726 24.8775 107.602 24.8775 104.982C24.8775 102.361 22.7573 100.237 20.1419 100.237C17.5265 100.237 15.4062 102.361 15.4062 104.982C15.4062 107.602 17.5265 109.726 20.1419 109.726Z" fill="#434459"/>
<ellipse cx="20.1907" cy="105.03" rx="1.91339" ry="1.91703" fill="#7C8BB1"/>
<path d="M20.1419 181.615C22.7573 181.615 24.8775 179.491 24.8775 176.87C24.8775 174.25 22.7573 172.126 20.1419 172.126C17.5265 172.126 15.4062 174.25 15.4062 176.87C15.4062 179.491 17.5265 181.615 20.1419 181.615Z" fill="#434459"/>
<ellipse cx="20.1907" cy="176.918" rx="1.91339" ry="1.91703" fill="#7C8BB1"/>
<path d="M88.5462 109.726C91.1616 109.726 93.2818 107.602 93.2818 104.982C93.2818 102.361 91.1616 100.237 88.5462 100.237C85.9308 100.237 83.8105 102.361 83.8105 104.982C83.8105 107.602 85.9308 109.726 88.5462 109.726Z" fill="#434459"/>
<ellipse cx="88.595" cy="105.03" rx="1.91339" ry="1.91703" fill="#7C8BB1"/>
<path d="M88.5462 181.615C91.1616 181.615 93.2818 179.491 93.2818 176.87C93.2818 174.25 91.1616 172.126 88.5462 172.126C85.9308 172.126 83.8105 174.25 83.8105 176.87C83.8105 179.491 85.9308 181.615 88.5462 181.615Z" fill="#434459"/>
<ellipse cx="88.595" cy="176.918" rx="1.91339" ry="1.91703" fill="#7C8BB1"/>
<path fill-rule="evenodd" clip-rule="evenodd" d="M54.7087 108.033C72.9094 108.033 87.6635 122.816 87.6635 141.051C87.6635 159.286 72.9094 174.068 54.7087 174.068C36.508 174.068 21.7539 159.286 21.7539 141.051C21.7539 122.816 36.508 108.033 54.7087 108.033" fill="#ADD9FC"/>
<path fill-rule="evenodd" clip-rule="evenodd" d="M73.7126 114.07C77.5133 119.457 79.7845 126.051 79.7845 133.11C79.7845 151.36 64.9988 166.127 46.8297 166.127C39.7381 166.127 33.2028 163.898 27.8262 160.044C33.8053 168.496 43.6315 174.022 54.7555 174.022C72.971 174.022 87.7103 159.208 87.7103 141.004C87.664 129.906 82.1483 120.061 73.7126 114.07" fill="#7C8BB1"/>
<path fill-rule="evenodd" clip-rule="evenodd" d="M26.2032 148.666C29.8185 145.091 34.6389 143.047 39.7837 143.047C41.9158 143.047 43.9552 143.373 45.9483 144.07C44.0479 145.184 42.2866 146.577 40.6644 148.156C36.9564 151.871 34.4998 156.561 33.4801 161.577C30.0502 158.001 27.501 153.589 26.2032 148.666ZM83.2136 133.482C79.5983 137.057 74.7779 139.1 69.6331 139.1C67.501 139.1 65.4616 138.775 63.4685 138.079C65.3689 136.965 67.1302 135.571 68.7524 133.992C72.4604 130.277 74.917 125.587 75.9367 120.571C79.3666 124.147 81.9158 128.559 83.2136 133.482ZM63.8393 129.07C62.3561 130.556 60.6412 131.809 58.7872 132.738C59.3434 130.602 59.6215 128.373 59.6215 126.098C59.6215 120.851 58.0456 115.788 55.2183 111.516C60.4094 111.609 65.2762 113.048 69.494 115.51C69.494 120.571 67.4546 125.447 63.8393 129.07V129.07ZM47.107 112.492C50.676 116.113 52.7154 120.943 52.7154 126.098C52.7154 128.234 52.3909 130.277 51.6957 132.274C50.5833 130.37 49.1928 128.606 47.6169 126.98C43.9089 123.265 39.2275 120.804 34.2217 119.782C37.7907 116.346 42.1939 113.791 47.107 112.492ZM29.2159 126.237C34.2681 126.283 39.1348 128.281 42.7501 131.902C44.2333 133.389 45.4848 135.107 46.4118 136.964C44.2797 136.407 42.0549 136.128 39.7837 136.128C34.5462 136.128 29.494 137.707 25.2298 140.54C25.3225 135.292 26.7594 130.463 29.2159 126.237V126.237ZM45.5311 153.032C47.0143 151.546 48.7293 150.292 50.5833 149.363C50.0271 151.5 49.749 153.728 49.749 156.004C49.749 161.252 51.3249 166.313 54.1522 170.585C48.961 170.492 44.0943 169.053 39.8764 166.592C39.9228 161.53 41.9158 156.654 45.5311 153.032V153.032ZM62.2634 169.61C58.6945 165.988 56.6551 161.158 56.6551 156.004C56.6551 153.867 56.9796 151.825 57.6748 149.827C58.7872 151.732 60.1777 153.496 61.7536 155.121C65.4616 158.836 70.0966 161.298 75.1487 162.319C71.5798 165.756 67.1765 168.31 62.2634 169.61ZM80.2009 155.911C75.1487 155.864 70.282 153.867 66.6667 150.245C65.1835 148.759 63.932 147.041 63.005 145.184C65.1371 145.741 67.3619 146.02 69.6331 146.02C74.8706 146.02 79.9228 144.441 84.187 141.608C84.0943 146.809 82.6574 151.685 80.2009 155.911ZM54.7084 104.55C34.5925 104.55 18.2773 120.943 18.2773 141.051C18.2773 161.158 34.6389 177.551 54.7084 177.551C74.8243 177.551 91.1395 161.158 91.1395 141.051C91.1395 120.943 74.7779 104.55 54.7084 104.55" fill="#2E3C7B"/>
<ellipse cx="54.5255" cy="139.826" rx="11.002" ry="11.0229" fill="#ADD9FC"/>
<path d="M63.0273 139.586C63.0273 144.43 59.1093 148.349 54.2861 148.349C49.463 148.349 45.5449 144.43 45.5449 139.586C45.5449 134.742 49.463 130.823 54.2861 130.823C59.1093 130.823 63.0273 134.742 63.0273 139.586Z" stroke="#EEDE6D" stroke-width="5"/>
<path d="M12.2441 95.7402H97.1821V184.633H12.2441C11.2693 184.633 10.4648 183.839 10.4648 182.841V97.5328C10.4648 96.5349 11.2693 95.7402 12.2441 95.7402Z" stroke="#2E3C7B" stroke-width="6"/>
<path d="M184.236 95.6095H99.7592C98.8025 95.6095 98.0371 94.8426 98.0371 93.8841V7.37815C98.0371 6.41963 98.8025 5.65283 99.7592 5.65283H184.236C185.192 5.65283 185.958 6.41963 185.958 7.37815V93.8841C185.958 94.8426 185.192 95.6095 184.236 95.6095Z" fill="#485FAC"/>
<path d="M107.843 20.3181C110.458 20.3181 112.579 18.1939 112.579 15.5735C112.579 12.9531 110.458 10.8289 107.843 10.8289C105.228 10.8289 103.107 12.9531 103.107 15.5735C103.107 18.1939 105.228 20.3181 107.843 20.3181Z" fill="#434459"/>
<ellipse cx="107.892" cy="15.6214" rx="1.91341" ry="1.91703" fill="#7C8BB1"/>
<path d="M107.843 92.2068C110.458 92.2068 112.579 90.0826 112.579 87.4622C112.579 84.8418 110.458 82.7175 107.843 82.7175C105.228 82.7175 103.107 84.8418 103.107 87.4622C103.107 90.0826 105.228 92.2068 107.843 92.2068Z" fill="#434459"/>
<ellipse cx="107.892" cy="87.5101" rx="1.91341" ry="1.91703" fill="#7C8BB1"/>
<path d="M176.247 20.3181C178.863 20.3181 180.983 18.1939 180.983 15.5735C180.983 12.9531 178.863 10.8289 176.247 10.8289C173.632 10.8289 171.512 12.9531 171.512 15.5735C171.512 18.1939 173.632 20.3181 176.247 20.3181Z" fill="#434459"/>
<ellipse cx="176.296" cy="15.6214" rx="1.91341" ry="1.91703" fill="#7C8BB1"/>
<path d="M176.247 92.2068C178.863 92.2068 180.983 90.0826 180.983 87.4622C180.983 84.8418 178.863 82.7175 176.247 82.7175C173.632 82.7175 171.512 84.8418 171.512 87.4622C171.512 90.0826 173.632 92.2068 176.247 92.2068Z" fill="#434459"/>
<ellipse cx="176.296" cy="87.5101" rx="1.91341" ry="1.91703" fill="#7C8BB1"/>
<path fill-rule="evenodd" clip-rule="evenodd" d="M142.41 18.6252C160.611 18.6252 175.365 33.4079 175.365 51.6427C175.365 69.878 160.611 84.6602 142.41 84.6602C124.209 84.6602 109.455 69.878 109.455 51.6427C109.455 33.4079 124.209 18.6252 142.41 18.6252" fill="#ADD9FC"/>
<path fill-rule="evenodd" clip-rule="evenodd" d="M161.414 24.6621C165.214 30.0489 167.486 36.6431 167.486 43.7017C167.486 61.9519 152.7 76.7192 134.531 76.7192C127.439 76.7192 120.904 74.4901 115.527 70.6358C121.506 79.0875 131.333 84.6136 142.457 84.6136C160.672 84.6136 175.411 69.7999 175.411 51.5962C175.365 40.4975 169.849 30.6526 161.414 24.6621" fill="#7C8BB1"/>
<path fill-rule="evenodd" clip-rule="evenodd" d="M113.904 59.2582C117.52 55.683 122.34 53.6392 127.485 53.6392C129.617 53.6392 131.656 53.9648 133.649 54.6613C131.749 55.7754 129.988 57.1685 128.366 58.7474C124.658 62.4625 122.201 67.1527 121.181 72.1685C117.751 68.5928 115.202 64.1811 113.904 59.2582ZM170.915 44.0735C167.299 47.6487 162.479 49.692 157.334 49.692C155.202 49.692 153.163 49.3669 151.17 48.6704C153.07 47.5563 154.831 46.1632 156.454 44.5838C160.162 40.8688 162.618 36.1785 163.638 31.1632C167.068 34.7389 169.617 39.1506 170.915 44.0735ZM151.54 39.6618C150.057 41.1474 148.342 42.4012 146.488 43.33C147.045 41.1943 147.323 38.9653 147.323 36.6893C147.323 31.4423 145.747 26.3801 142.919 22.1078C148.111 22.2007 152.977 23.6402 157.195 26.1019C157.195 31.1632 155.156 36.0392 151.54 39.6618V39.6618ZM134.808 23.0835C138.377 26.7052 140.417 31.5347 140.417 36.6893C140.417 38.8255 140.092 40.8688 139.397 42.8656C138.284 40.9621 136.894 39.1975 135.318 37.5717C131.61 33.8566 126.929 31.3954 121.923 30.3738C125.492 26.9374 129.895 24.3833 134.808 23.0835ZM116.917 36.8287C121.969 36.8751 126.836 38.8724 130.451 42.4941C131.934 43.9806 133.186 45.6988 134.113 47.5563C131.981 46.9991 129.756 46.72 127.485 46.72C122.247 46.72 117.195 48.2989 112.931 51.1316C113.024 45.8841 114.461 41.055 116.917 36.8287V36.8287ZM133.232 63.6234C134.715 62.1374 136.43 60.8836 138.284 59.9548C137.728 62.0914 137.45 64.32 137.45 66.5959C137.45 71.8434 139.026 76.9047 141.853 81.177C136.662 81.0841 131.795 79.6445 127.578 77.1838C127.624 72.1216 129.617 67.2456 133.232 63.6234V63.6234ZM149.965 80.2023C146.396 76.5801 144.356 71.7501 144.356 66.5959C144.356 64.4593 144.681 62.4165 145.376 60.4192C146.488 62.3236 147.879 64.0878 149.455 65.7131C153.163 69.4282 157.798 71.8894 162.85 72.911C159.281 76.3479 154.878 78.902 149.965 80.2023ZM167.902 66.503C162.85 66.4561 157.983 64.4593 154.368 60.8371C152.885 59.3511 151.633 57.6329 150.706 55.7754C152.838 56.3326 155.063 56.6117 157.334 56.6117C162.572 56.6117 167.624 55.0324 171.888 52.2001C171.795 57.4007 170.359 62.2767 167.902 66.503ZM142.41 15.1421C122.294 15.1421 105.979 31.5347 105.979 51.6429C105.979 71.7501 122.34 88.1427 142.41 88.1427C162.525 88.1427 178.841 71.7501 178.841 51.6429C178.841 31.5347 162.479 15.1421 142.41 15.1421" fill="#2E3C7B"/>
<ellipse cx="142.227" cy="50.4175" rx="11.002" ry="11.0229" fill="#ADD9FC"/>
<path d="M150.728 50.1778C150.728 55.0217 146.81 58.9404 141.987 58.9404C137.164 58.9404 133.246 55.0217 133.246 50.1778C133.246 45.3339 137.164 41.4153 141.987 41.4153C146.81 41.4153 150.728 45.3339 150.728 50.1778Z" stroke="#EEDE6D" stroke-width="5"/>
<path d="M98.209 6.33203H182.926C184.031 6.33203 184.926 7.22746 184.926 8.33203V95.225H98.209V6.33203Z" stroke="#2E3C7B" stroke-width="6"/>
<path d="M184.236 185.018H99.7592C98.8025 185.018 98.0371 184.251 98.0371 183.292V96.7864C98.0371 95.8278 98.8025 95.061 99.7592 95.061H184.236C185.192 95.061 185.958 95.8278 185.958 96.7864V183.292C185.958 184.251 185.192 185.018 184.236 185.018Z" fill="#485FAC"/>
<path d="M107.843 109.726C110.458 109.726 112.579 107.602 112.579 104.982C112.579 102.361 110.458 100.237 107.843 100.237C105.228 100.237 103.107 102.361 103.107 104.982C103.107 107.602 105.228 109.726 107.843 109.726Z" fill="#434459"/>
<ellipse cx="107.892" cy="105.03" rx="1.91341" ry="1.91703" fill="#7C8BB1"/>
<path d="M107.843 181.615C110.458 181.615 112.579 179.491 112.579 176.87C112.579 174.25 110.458 172.126 107.843 172.126C105.228 172.126 103.107 174.25 103.107 176.87C103.107 179.491 105.228 181.615 107.843 181.615Z" fill="#434459"/>
<ellipse cx="107.892" cy="176.918" rx="1.91341" ry="1.91703" fill="#7C8BB1"/>
<path d="M176.247 109.726C178.863 109.726 180.983 107.602 180.983 104.982C180.983 102.361 178.863 100.237 176.247 100.237C173.632 100.237 171.512 102.361 171.512 104.982C171.512 107.602 173.632 109.726 176.247 109.726Z" fill="#434459"/>
<ellipse cx="176.296" cy="105.03" rx="1.91341" ry="1.91703" fill="#7C8BB1"/>
<path d="M176.247 181.615C178.863 181.615 180.983 179.491 180.983 176.87C180.983 174.25 178.863 172.126 176.247 172.126C173.632 172.126 171.512 174.25 171.512 176.87C171.512 179.491 173.632 181.615 176.247 181.615Z" fill="#434459"/>
<ellipse cx="176.296" cy="176.918" rx="1.91341" ry="1.91703" fill="#7C8BB1"/>
<path fill-rule="evenodd" clip-rule="evenodd" d="M142.41 108.033C160.611 108.033 175.365 122.816 175.365 141.051C175.365 159.286 160.611 174.068 142.41 174.068C124.209 174.068 109.455 159.286 109.455 141.051C109.455 122.816 124.209 108.033 142.41 108.033" fill="#ADD9FC"/>
<path fill-rule="evenodd" clip-rule="evenodd" d="M161.414 114.07C165.214 119.457 167.486 126.051 167.486 133.11C167.486 151.36 152.7 166.127 134.531 166.127C127.439 166.127 120.904 163.898 115.527 160.044C121.506 168.496 131.333 174.022 142.457 174.022C160.672 174.022 175.411 159.208 175.411 141.004C175.365 129.906 169.849 120.061 161.414 114.07" fill="#7C8BB1"/>
<path fill-rule="evenodd" clip-rule="evenodd" d="M113.904 148.666C117.52 145.091 122.34 143.047 127.485 143.047C129.617 143.047 131.656 143.373 133.649 144.07C131.749 145.184 129.988 146.577 128.366 148.156C124.658 151.871 122.201 156.561 121.181 161.577C117.751 158.001 115.202 153.589 113.904 148.666ZM170.915 133.482C167.299 137.057 162.479 139.1 157.334 139.1C155.202 139.1 153.163 138.775 151.17 138.079C153.07 136.965 154.831 135.571 156.454 133.992C160.162 130.277 162.618 125.587 163.638 120.571C167.068 124.147 169.617 128.559 170.915 133.482ZM151.54 129.07C150.057 130.556 148.342 131.809 146.488 132.738C147.045 130.602 147.323 128.373 147.323 126.098C147.323 120.851 145.747 115.788 142.919 111.516C148.111 111.609 152.977 113.048 157.195 115.51C157.195 120.571 155.156 125.447 151.54 129.07V129.07ZM134.808 112.492C138.377 116.113 140.417 120.943 140.417 126.098C140.417 128.234 140.092 130.277 139.397 132.274C138.284 130.37 136.894 128.606 135.318 126.98C131.61 123.265 126.929 120.804 121.923 119.782C125.492 116.346 129.895 113.791 134.808 112.492ZM116.917 126.237C121.969 126.283 126.836 128.281 130.451 131.902C131.934 133.389 133.186 135.107 134.113 136.965C131.981 136.407 129.756 136.128 127.485 136.128C122.247 136.128 117.195 137.707 112.931 140.54C113.024 135.292 114.461 130.463 116.917 126.237V126.237ZM133.232 153.032C134.715 151.546 136.43 150.292 138.284 149.363C137.728 151.5 137.45 153.728 137.45 156.004C137.45 161.252 139.026 166.313 141.853 170.585C136.662 170.492 131.795 169.053 127.578 166.592C127.624 161.53 129.617 156.654 133.232 153.032V153.032ZM149.965 169.61C146.396 165.988 144.356 161.158 144.356 156.004C144.356 153.867 144.681 151.825 145.376 149.827C146.488 151.732 147.879 153.496 149.455 155.121C153.163 158.836 157.798 161.298 162.85 162.319C159.281 165.756 154.878 168.31 149.965 169.61ZM167.902 155.911C162.85 155.864 157.983 153.867 154.368 150.245C152.885 148.759 151.633 147.041 150.706 145.184C152.838 145.741 155.063 146.02 157.334 146.02C162.572 146.02 167.624 144.441 171.888 141.608C171.795 146.809 170.359 151.685 167.902 155.911ZM142.41 104.55C122.294 104.55 105.979 120.943 105.979 141.051C105.979 161.158 122.34 177.551 142.41 177.551C162.525 177.551 178.841 161.158 178.841 141.051C178.841 120.943 162.479 104.55 142.41 104.55" fill="#2E3C7B"/>
<ellipse cx="142.227" cy="139.826" rx="11.002" ry="11.0229" fill="#ADD9FC"/>
<path d="M150.728 139.586C150.728 144.43 146.81 148.349 141.987 148.349C137.164 148.349 133.246 144.43 133.246 139.586C133.246 134.742 137.164 130.823 141.987 130.823C146.81 130.823 150.728 134.742 150.728 139.586Z" stroke="#EEDE6D" stroke-width="5"/>
<path d="M98.209 95.7402H184.926V182.633C184.926 183.738 184.031 184.633 182.926 184.633H98.209V95.7402Z" stroke="#2E3C7B" stroke-width="6"/>
</svg>
