<svg width="270" height="189" viewBox="0 0 270 189" fill="none" xmlns="http://www.w3.org/2000/svg">
<path d="M93.4977 92.6676H11.6777C10.7511 92.6676 10.0098 91.9244 10.0098 90.9953V7.15111C10.0098 6.22209 10.7511 5.47888 11.6777 5.47888H93.4977C94.4243 5.47888 95.1656 6.22209 95.1656 7.15111V90.9953C95.1656 91.9244 94.4243 92.6676 93.4977 92.6676Z" fill="#485FAC"/>
<path d="M19.5086 19.6929C22.0418 19.6929 24.0953 17.634 24.0953 15.0943C24.0953 12.5545 22.0418 10.4956 19.5086 10.4956C16.9754 10.4956 14.9219 12.5545 14.9219 15.0943C14.9219 17.634 16.9754 19.6929 19.5086 19.6929Z" fill="#434459"/>
<ellipse cx="19.5544" cy="15.1408" rx="1.85323" ry="1.85804" fill="#7C8BB1"/>
<path d="M19.5086 89.3696C22.0418 89.3696 24.0953 87.3107 24.0953 84.7709C24.0953 82.2311 22.0418 80.1722 19.5086 80.1722C16.9754 80.1722 14.9219 82.2311 14.9219 84.7709C14.9219 87.3107 16.9754 89.3696 19.5086 89.3696Z" fill="#434459"/>
<ellipse cx="19.5544" cy="84.8174" rx="1.85323" ry="1.85805" fill="#7C8BB1"/>
<path d="M85.7606 19.6929C88.2938 19.6929 90.3473 17.634 90.3473 15.0943C90.3473 12.5545 88.2938 10.4956 85.7606 10.4956C83.2274 10.4956 81.1738 12.5545 81.1738 15.0943C81.1738 17.634 83.2274 19.6929 85.7606 19.6929Z" fill="#434459"/>
<ellipse cx="85.8064" cy="15.1408" rx="1.85323" ry="1.85804" fill="#7C8BB1"/>
<path d="M85.7606 89.3696C88.2938 89.3696 90.3473 87.3107 90.3473 84.7709C90.3473 82.2311 88.2938 80.1722 85.7606 80.1722C83.2274 80.1722 81.1738 82.2311 81.1738 84.7709C81.1738 87.3107 83.2274 89.3696 85.7606 89.3696Z" fill="#434459"/>
<ellipse cx="85.8064" cy="84.8174" rx="1.85323" ry="1.85805" fill="#7C8BB1"/>
<path fill-rule="evenodd" clip-rule="evenodd" d="M52.9869 18.052C70.6153 18.052 84.9055 32.3798 84.9055 50.0535C84.9055 67.7277 70.6153 82.0551 52.9869 82.0551C35.3585 82.0551 21.0684 67.7277 21.0684 50.0535C21.0684 32.3798 35.3585 18.052 52.9869 18.052Z" fill="#ADD9FC"/>
<path fill-rule="evenodd" clip-rule="evenodd" d="M71.3928 23.9032C75.074 29.1243 77.2737 35.5156 77.2737 42.357C77.2737 60.0456 62.953 74.3585 45.3551 74.3585C38.4866 74.3585 32.1567 72.198 26.9492 68.4623C32.7403 76.654 42.2576 82.0101 53.0317 82.0101C70.6745 82.0101 84.9503 67.6521 84.9503 50.0085C84.9054 39.2513 79.5632 29.7094 71.3928 23.9032Z" fill="#7C8BB1"/>
<path fill-rule="evenodd" clip-rule="evenodd" d="M25.3778 57.4349C28.8794 53.9696 33.5482 51.9888 38.5313 51.9888C40.5963 51.9888 42.5716 52.3043 44.502 52.9794C42.6614 54.0592 40.9555 55.4094 39.3842 56.9398C35.7928 60.5405 33.4135 65.0864 32.4259 69.9479C29.1039 66.4822 26.6348 62.2063 25.3778 57.4349ZM80.5955 42.7173C77.0939 46.1826 72.4251 48.163 67.442 48.163C65.377 48.163 63.4017 47.8479 61.4713 47.1728C63.3119 46.093 65.0179 44.7427 66.5891 43.212C70.1805 39.6112 72.5598 35.0653 73.5474 30.2043C76.8695 33.67 79.3386 37.9459 80.5955 42.7173ZM61.8305 38.4414C60.3939 39.8813 58.7329 41.0965 56.9372 41.9967C57.4759 39.9267 57.7453 37.7663 57.7453 35.5604C57.7453 30.4748 56.2189 25.5684 53.4805 21.4275C58.5084 21.5175 63.2221 22.9128 67.3074 25.2988C67.3074 30.2043 65.3321 34.9303 61.8305 38.4414ZM45.6243 22.3732C49.081 25.8834 51.0563 30.5644 51.0563 35.5604C51.0563 37.6308 50.742 39.6112 50.0687 41.5466C48.9912 39.7017 47.6445 37.9914 46.1181 36.4156C42.5267 32.8148 37.9926 30.4294 33.1442 29.4392C36.6009 26.1085 40.8657 23.633 45.6243 22.3732ZM28.2958 35.6954C33.1891 35.7404 37.9028 37.6763 41.4044 41.1866C42.841 42.6273 44.0531 44.2926 44.9509 46.093C42.8859 45.5529 40.731 45.2824 38.5313 45.2824C33.4584 45.2824 28.5652 46.8127 24.435 49.5583C24.5248 44.4722 25.9165 39.7917 28.2958 35.6954ZM44.0979 61.6657C45.5345 60.2254 47.1955 59.0102 48.9912 58.11C48.4525 60.1809 48.1832 62.3409 48.1832 64.5468C48.1832 69.6328 49.7095 74.5384 52.4479 78.6792C47.42 78.5892 42.7063 77.1939 38.6211 74.8089C38.666 69.9024 40.5963 65.1764 44.0979 61.6657ZM60.3041 77.7345C56.8474 74.2237 54.8721 69.5423 54.8721 64.5468C54.8721 62.4759 55.1864 60.4959 55.8598 58.5601C56.9372 60.4059 58.284 62.1158 59.8103 63.6912C63.4017 67.2919 67.891 69.6774 72.7842 70.6676C69.3275 73.9987 65.0627 76.4742 60.3041 77.7345ZM77.6775 64.4568C72.7843 64.4113 68.0705 62.4759 64.5689 58.9652C63.1324 57.5249 61.9203 55.8595 61.0224 54.0592C63.0875 54.5993 65.2423 54.8698 67.442 54.8698C72.5149 54.8698 77.4082 53.339 81.5383 50.5939C81.4485 55.6345 80.0568 60.3605 77.6775 64.4568ZM52.9867 14.6761C33.5033 14.6761 17.7012 30.5644 17.7012 50.0538C17.7012 69.5423 33.5482 85.4306 52.9867 85.4306C72.47 85.4306 88.2722 69.5423 88.2722 50.0538C88.2722 30.5644 72.4251 14.6761 52.9867 14.6761Z" fill="#2E3C7B"/>
<ellipse cx="52.8084" cy="48.866" rx="10.6561" ry="10.6838" fill="#ADD9FC"/>
<path d="M60.9649 48.6338C60.9649 53.2879 57.2035 57.0498 52.5772 57.0498C47.9509 57.0498 44.1895 53.2879 44.1895 48.6338C44.1895 43.9796 47.9509 40.2178 52.5772 40.2178C57.2035 40.2178 60.9649 43.9796 60.9649 48.6338Z" stroke="#EEDE6D" stroke-width="5"/>
<path d="M10.2305 7.8746C10.2305 6.95617 10.9696 6.22949 11.8594 6.22949H94.0323V92.2027H11.8594C10.9696 92.2027 10.2305 91.476 10.2305 90.5576V7.8746Z" stroke="#2E3C7B" stroke-width="6"/>
<path d="M93.4957 179.325H11.6757C10.7491 179.325 10.0078 178.582 10.0078 177.653V93.8083C10.0078 92.8793 10.7491 92.1361 11.6757 92.1361H93.4957C94.4223 92.1361 95.1636 92.8793 95.1636 93.8083V177.653C95.1636 178.582 94.4223 179.325 93.4957 179.325Z" fill="#485FAC"/>
<path d="M19.5067 106.35C22.0398 106.35 24.0934 104.291 24.0934 101.751C24.0934 99.2117 22.0398 97.1528 19.5067 97.1528C16.9735 97.1528 14.9199 99.2117 14.9199 101.751C14.9199 104.291 16.9735 106.35 19.5067 106.35Z" fill="#434459"/>
<ellipse cx="19.5524" cy="101.798" rx="1.85323" ry="1.85805" fill="#7C8BB1"/>
<path d="M19.5067 176.027C22.0398 176.027 24.0934 173.968 24.0934 171.428C24.0934 168.888 22.0398 166.83 19.5067 166.83C16.9735 166.83 14.9199 168.888 14.9199 171.428C14.9199 173.968 16.9735 176.027 19.5067 176.027Z" fill="#434459"/>
<ellipse cx="19.5524" cy="171.475" rx="1.85323" ry="1.85805" fill="#7C8BB1"/>
<path d="M85.7586 106.35C88.2918 106.35 90.3454 104.291 90.3454 101.751C90.3454 99.2117 88.2918 97.1528 85.7586 97.1528C83.2254 97.1528 81.1719 99.2117 81.1719 101.751C81.1719 104.291 83.2254 106.35 85.7586 106.35Z" fill="#434459"/>
<ellipse cx="85.8044" cy="101.798" rx="1.85323" ry="1.85805" fill="#7C8BB1"/>
<path d="M85.7586 176.027C88.2918 176.027 90.3454 173.968 90.3454 171.428C90.3454 168.888 88.2918 166.83 85.7586 166.83C83.2254 166.83 81.1719 168.888 81.1719 171.428C81.1719 173.968 83.2254 176.027 85.7586 176.027Z" fill="#434459"/>
<ellipse cx="85.8044" cy="171.475" rx="1.85323" ry="1.85805" fill="#7C8BB1"/>
<path fill-rule="evenodd" clip-rule="evenodd" d="M52.985 104.709C70.6133 104.709 84.9035 119.037 84.9035 136.711C84.9035 154.385 70.6133 168.712 52.985 168.712C35.3566 168.712 21.0664 154.385 21.0664 136.711C21.0664 119.037 35.3566 104.709 52.985 104.709Z" fill="#ADD9FC"/>
<path fill-rule="evenodd" clip-rule="evenodd" d="M71.3908 110.561C75.072 115.782 77.2717 122.173 77.2717 129.014C77.2717 146.703 62.951 161.016 45.3532 161.016C38.4846 161.016 32.1548 158.855 26.9473 155.12C32.7384 163.311 42.2556 168.667 53.0298 168.667C70.6725 168.667 84.9484 154.309 84.9484 136.666C84.9035 125.909 79.5613 116.367 71.3908 110.561Z" fill="#7C8BB1"/>
<path fill-rule="evenodd" clip-rule="evenodd" d="M25.3758 144.092C28.8774 140.627 33.5463 138.646 38.5293 138.646C40.5944 138.646 42.5697 138.962 44.5 139.637C42.6594 140.717 40.9535 142.067 39.3823 143.597C35.7909 147.198 33.4116 151.744 32.424 156.605C29.1019 153.139 26.6328 148.864 25.3758 144.092ZM80.5936 129.375C77.092 132.84 72.4232 134.82 67.4401 134.82C65.375 134.82 63.3998 134.505 61.4694 133.83C63.31 132.75 65.0159 131.4 66.5871 129.869C70.1785 126.269 72.5578 121.723 73.5455 116.862C76.8675 120.327 79.3366 124.603 80.5936 129.375ZM61.8285 125.099C60.392 126.539 58.7309 127.754 56.9352 128.654C57.474 126.584 57.7433 124.424 57.7433 122.218C57.7433 117.132 56.217 112.226 53.4785 108.085C58.5065 108.175 63.2202 109.57 67.3054 111.956C67.3054 116.862 65.3301 121.588 61.8285 125.099ZM45.6223 109.031C49.0791 112.541 51.0543 117.222 51.0543 122.218C51.0543 124.288 50.7401 126.269 50.0667 128.204C48.9893 126.359 47.6425 124.649 46.1162 123.073C42.5248 119.472 37.9906 117.087 33.1422 116.097C36.5989 112.766 40.8637 110.29 45.6223 109.031ZM28.2938 122.353C33.1871 122.398 37.9008 124.334 41.4024 127.844C42.839 129.285 44.0511 130.95 44.949 132.75C42.8839 132.21 40.7291 131.94 38.5293 131.94C33.4565 131.94 28.5632 133.47 24.4331 136.216C24.5229 131.13 25.9145 126.449 28.2938 122.353ZM44.096 148.323C45.5326 146.883 47.1936 145.668 48.9893 144.767C48.4506 146.838 48.1812 148.998 48.1812 151.204C48.1812 156.29 49.7076 161.196 52.446 165.337C47.418 165.247 42.7043 163.851 38.6191 161.466C38.664 156.56 40.5944 151.834 44.096 148.323ZM60.3022 164.392C56.8455 160.881 54.8702 156.2 54.8702 151.204C54.8702 149.133 55.1844 147.153 55.8578 145.217C56.9352 147.063 58.282 148.773 59.8084 150.348C63.3998 153.949 67.889 156.335 72.7823 157.325C69.3256 160.656 65.0608 163.132 60.3022 164.392ZM77.6756 151.114C72.7823 151.069 68.0686 149.133 64.567 145.623C63.1304 144.182 61.9183 142.517 61.0205 140.717C63.0855 141.257 65.2404 141.527 67.4401 141.527C72.5129 141.527 77.4062 139.996 81.5363 137.251C81.4465 142.292 80.0549 147.018 77.6756 151.114ZM52.9847 101.333C33.5014 101.333 17.6992 117.222 17.6992 136.711C17.6992 156.2 33.5463 172.088 52.9847 172.088C72.468 172.088 88.2702 156.2 88.2702 136.711C88.2702 117.222 72.4232 101.333 52.9847 101.333Z" fill="#2E3C7B"/>
<ellipse cx="52.8064" cy="135.523" rx="10.6561" ry="10.6838" fill="#ADD9FC"/>
<path d="M60.9629 135.291C60.9629 139.945 57.2015 143.707 52.5752 143.707C47.9489 143.707 44.1875 139.945 44.1875 135.291C44.1875 130.637 47.9489 126.875 52.5752 126.875C57.2015 126.875 60.9629 130.637 60.9629 135.291Z" stroke="#EEDE6D" stroke-width="5"/>
<path d="M10.2285 94.5318C10.2285 93.6134 10.9677 92.8867 11.8575 92.8867H94.0303V178.86H11.8575C10.9677 178.86 10.2285 178.133 10.2285 177.215V94.5318Z" stroke="#2E3C7B" stroke-width="6"/>
<path d="M177.597 92.6677H95.7773C94.8507 92.6677 94.1094 91.9245 94.1094 90.9955V7.15123C94.1094 6.22221 94.8507 5.479 95.7773 5.479H177.597C178.524 5.479 179.265 6.22221 179.265 7.15123V90.9955C179.265 91.9245 178.524 92.6677 177.597 92.6677Z" fill="#485FAC"/>
<path d="M103.608 19.693C106.141 19.693 108.195 17.6342 108.195 15.0944C108.195 12.5546 106.141 10.4957 103.608 10.4957C101.075 10.4957 99.0215 12.5546 99.0215 15.0944C99.0215 17.6342 101.075 19.693 103.608 19.693Z" fill="#434459"/>
<ellipse cx="103.654" cy="15.1409" rx="1.85324" ry="1.85804" fill="#7C8BB1"/>
<path d="M103.608 89.3697C106.141 89.3697 108.195 87.3108 108.195 84.771C108.195 82.2313 106.141 80.1724 103.608 80.1724C101.075 80.1724 99.0215 82.2313 99.0215 84.771C99.0215 87.3108 101.075 89.3697 103.608 89.3697Z" fill="#434459"/>
<ellipse cx="103.654" cy="84.8175" rx="1.85324" ry="1.85805" fill="#7C8BB1"/>
<path d="M169.86 19.693C172.393 19.693 174.447 17.6342 174.447 15.0944C174.447 12.5546 172.393 10.4957 169.86 10.4957C167.327 10.4957 165.273 12.5546 165.273 15.0944C165.273 17.6342 167.327 19.693 169.86 19.693Z" fill="#434459"/>
<ellipse cx="169.906" cy="15.1409" rx="1.85324" ry="1.85804" fill="#7C8BB1"/>
<path d="M169.86 89.3697C172.393 89.3697 174.447 87.3108 174.447 84.771C174.447 82.2313 172.393 80.1724 169.86 80.1724C167.327 80.1724 165.273 82.2313 165.273 84.771C165.273 87.3108 167.327 89.3697 169.86 89.3697Z" fill="#434459"/>
<ellipse cx="169.906" cy="84.8175" rx="1.85324" ry="1.85805" fill="#7C8BB1"/>
<path fill-rule="evenodd" clip-rule="evenodd" d="M137.087 18.0522C154.715 18.0522 169.005 32.38 169.005 50.0538C169.005 67.728 154.715 82.0553 137.087 82.0553C119.458 82.0553 105.168 67.728 105.168 50.0538C105.168 32.38 119.458 18.0522 137.087 18.0522Z" fill="#ADD9FC"/>
<path fill-rule="evenodd" clip-rule="evenodd" d="M155.492 23.9034C159.174 29.1245 161.373 35.5158 161.373 42.3572C161.373 60.0458 147.053 74.3587 129.455 74.3587C122.586 74.3587 116.256 72.1983 111.049 68.4625C116.84 76.6542 126.357 82.0103 137.131 82.0103C154.774 82.0103 169.05 67.6524 169.05 50.0088C169.005 39.2516 163.663 29.7096 155.492 23.9034Z" fill="#7C8BB1"/>
<path fill-rule="evenodd" clip-rule="evenodd" d="M109.477 57.4351C112.979 53.9699 117.648 51.989 122.631 51.989C124.696 51.989 126.671 52.3045 128.602 52.9797C126.761 54.0594 125.055 55.4097 123.484 56.94C119.892 60.5407 117.513 65.0867 116.526 69.9481C113.203 66.4824 110.734 62.2065 109.477 57.4351ZM164.695 42.7176C161.194 46.1828 156.525 48.1632 151.542 48.1632C149.477 48.1632 147.501 47.8482 145.571 47.173C147.412 46.0933 149.117 44.743 150.689 43.2122C154.28 39.6115 156.659 35.0655 157.647 30.2046C160.969 33.6703 163.438 37.9461 164.695 42.7176ZM145.93 38.4417C144.494 39.8815 142.832 41.0968 141.037 41.997C141.576 39.927 141.845 37.7666 141.845 35.5607C141.845 30.4751 140.319 25.5686 137.58 21.4278C142.608 21.5178 147.322 22.9131 151.407 25.299C151.407 30.2046 149.432 34.9305 145.93 38.4417ZM129.724 22.3734C133.181 25.8837 135.156 30.5646 135.156 35.5607C135.156 37.6311 134.842 39.6115 134.168 41.5469C133.091 39.7019 131.744 37.9916 130.218 36.4158C126.626 32.8151 122.092 30.4296 117.244 29.4394C120.701 26.1087 124.965 23.6332 129.724 22.3734ZM112.395 35.6957C117.289 35.7407 122.002 37.6765 125.504 41.1868C126.941 42.6275 128.153 44.2929 129.051 46.0932C126.985 45.5531 124.831 45.2826 122.631 45.2826C117.558 45.2826 112.665 46.8129 108.535 49.5585C108.624 44.4725 110.016 39.792 112.395 35.6957ZM128.198 61.666C129.634 60.2257 131.295 59.0104 133.091 58.1103C132.552 60.1811 132.283 62.3411 132.283 64.547C132.283 69.6331 133.809 74.5386 136.548 78.6795C131.52 78.5894 126.806 77.1941 122.721 74.8091C122.766 69.9027 124.696 65.1767 128.198 61.666ZM144.404 77.7347C140.947 74.224 138.972 69.5426 138.972 64.547C138.972 62.4761 139.286 60.4962 139.959 58.5603C141.037 60.4062 142.384 62.1161 143.91 63.6914C147.501 67.2921 151.991 69.6776 156.884 70.6678C153.427 73.9989 149.162 76.4745 144.404 77.7347ZM161.777 64.457C156.884 64.4115 152.17 62.4761 148.669 58.9654C147.232 57.5251 146.02 55.8598 145.122 54.0594C147.187 54.5995 149.342 54.87 151.542 54.87C156.614 54.87 161.508 53.3393 165.638 50.5942C165.548 55.6348 164.156 60.3607 161.777 64.457ZM137.086 14.6764C117.603 14.6764 101.801 30.5646 101.801 50.0541C101.801 69.5426 117.648 85.4308 137.086 85.4308C156.57 85.4308 172.372 69.5426 172.372 50.0541C172.372 30.5646 156.525 14.6764 137.086 14.6764Z" fill="#2E3C7B"/>
<ellipse cx="136.908" cy="48.8663" rx="10.6561" ry="10.6838" fill="#ADD9FC"/>
<path d="M145.064 48.634C145.064 53.2882 141.303 57.05 136.677 57.05C132.05 57.05 128.289 53.2882 128.289 48.634C128.289 43.9799 132.05 40.218 136.677 40.218C141.303 40.218 145.064 43.9799 145.064 48.634Z" stroke="#EEDE6D" stroke-width="5"/>
<path d="M94.8691 6.72961H177.671V91.7028H94.8691V6.72961Z" stroke="#2E3C7B" stroke-width="7"/>
<path d="M177.597 179.325H95.7773C94.8507 179.325 94.1094 178.582 94.1094 177.653V93.8083C94.1094 92.8793 94.8507 92.1361 95.7773 92.1361H177.597C178.524 92.1361 179.265 92.8793 179.265 93.8083V177.653C179.265 178.582 178.524 179.325 177.597 179.325Z" fill="#485FAC"/>
<path d="M103.608 106.35C106.141 106.35 108.195 104.291 108.195 101.751C108.195 99.2117 106.141 97.1528 103.608 97.1528C101.075 97.1528 99.0215 99.2117 99.0215 101.751C99.0215 104.291 101.075 106.35 103.608 106.35Z" fill="#434459"/>
<ellipse cx="103.654" cy="101.798" rx="1.85324" ry="1.85805" fill="#7C8BB1"/>
<path d="M103.608 176.027C106.141 176.027 108.195 173.968 108.195 171.428C108.195 168.888 106.141 166.83 103.608 166.83C101.075 166.83 99.0215 168.888 99.0215 171.428C99.0215 173.968 101.075 176.027 103.608 176.027Z" fill="#434459"/>
<ellipse cx="103.654" cy="171.475" rx="1.85324" ry="1.85805" fill="#7C8BB1"/>
<path d="M169.86 106.35C172.393 106.35 174.447 104.291 174.447 101.751C174.447 99.2117 172.393 97.1528 169.86 97.1528C167.327 97.1528 165.273 99.2117 165.273 101.751C165.273 104.291 167.327 106.35 169.86 106.35Z" fill="#434459"/>
<ellipse cx="169.906" cy="101.798" rx="1.85324" ry="1.85805" fill="#7C8BB1"/>
<path d="M169.86 176.027C172.393 176.027 174.447 173.968 174.447 171.428C174.447 168.888 172.393 166.83 169.86 166.83C167.327 166.83 165.273 168.888 165.273 171.428C165.273 173.968 167.327 176.027 169.86 176.027Z" fill="#434459"/>
<ellipse cx="169.906" cy="171.475" rx="1.85324" ry="1.85805" fill="#7C8BB1"/>
<path fill-rule="evenodd" clip-rule="evenodd" d="M137.087 104.709C154.715 104.709 169.005 119.037 169.005 136.711C169.005 154.385 154.715 168.712 137.087 168.712C119.458 168.712 105.168 154.385 105.168 136.711C105.168 119.037 119.458 104.709 137.087 104.709Z" fill="#ADD9FC"/>
<path fill-rule="evenodd" clip-rule="evenodd" d="M155.492 110.561C159.174 115.782 161.373 122.173 161.373 129.014C161.373 146.703 147.053 161.016 129.455 161.016C122.586 161.016 116.256 158.855 111.049 155.12C116.84 163.311 126.357 168.667 137.131 168.667C154.774 168.667 169.05 154.309 169.05 136.666C169.005 125.909 163.663 116.367 155.492 110.561Z" fill="#7C8BB1"/>
<path fill-rule="evenodd" clip-rule="evenodd" d="M109.477 144.092C112.979 140.627 117.648 138.646 122.631 138.646C124.696 138.646 126.671 138.962 128.602 139.637C126.761 140.717 125.055 142.067 123.484 143.597C119.892 147.198 117.513 151.744 116.526 156.605C113.203 153.14 110.734 148.864 109.477 144.092ZM164.695 129.375C161.194 132.84 156.525 134.82 151.542 134.82C149.477 134.82 147.501 134.505 145.571 133.83C147.412 132.75 149.117 131.4 150.689 129.869C154.28 126.269 156.659 121.723 157.647 116.862C160.969 120.327 163.438 124.603 164.695 129.375ZM145.93 125.099C144.494 126.539 142.832 127.754 141.037 128.654C141.576 126.584 141.845 124.424 141.845 122.218C141.845 117.132 140.319 112.226 137.58 108.085C142.608 108.175 147.322 109.57 151.407 111.956C151.407 116.862 149.432 121.588 145.93 125.099ZM129.724 109.031C133.181 112.541 135.156 117.222 135.156 122.218C135.156 124.288 134.842 126.269 134.168 128.204C133.091 126.359 131.744 124.649 130.218 123.073C126.626 119.472 122.092 117.087 117.244 116.097C120.701 112.766 124.965 110.29 129.724 109.031ZM112.395 122.353C117.289 122.398 122.002 124.334 125.504 127.844C126.941 129.285 128.153 130.95 129.051 132.75C126.985 132.21 124.831 131.94 122.631 131.94C117.558 131.94 112.665 133.47 108.535 136.216C108.624 131.13 110.016 126.449 112.395 122.353ZM128.198 148.323C129.634 146.883 131.295 145.668 133.091 144.767C132.552 146.838 132.283 148.998 132.283 151.204C132.283 156.29 133.809 161.196 136.548 165.337C131.52 165.247 126.806 163.851 122.721 161.466C122.766 156.56 124.696 151.834 128.198 148.323ZM144.404 164.392C140.947 160.881 138.972 156.2 138.972 151.204C138.972 149.133 139.286 147.153 139.959 145.217C141.037 147.063 142.384 148.773 143.91 150.348C147.501 153.949 151.991 156.335 156.884 157.325C153.427 160.656 149.162 163.132 144.404 164.392ZM161.777 151.114C156.884 151.069 152.17 149.133 148.669 145.623C147.232 144.182 146.02 142.517 145.122 140.717C147.187 141.257 149.342 141.527 151.542 141.527C156.614 141.527 161.508 139.996 165.638 137.251C165.548 142.292 164.156 147.018 161.777 151.114ZM137.086 101.333C117.603 101.333 101.801 117.222 101.801 136.711C101.801 156.2 117.648 172.088 137.086 172.088C156.57 172.088 172.372 156.2 172.372 136.711C172.372 117.222 156.525 101.333 137.086 101.333Z" fill="#2E3C7B"/>
<ellipse cx="136.908" cy="135.523" rx="10.6561" ry="10.6838" fill="#ADD9FC"/>
<path d="M145.064 135.291C145.064 139.945 141.303 143.707 136.677 143.707C132.05 143.707 128.289 139.945 128.289 135.291C128.289 130.637 132.05 126.875 136.677 126.875C141.303 126.875 145.064 130.637 145.064 135.291Z" stroke="#EEDE6D" stroke-width="5"/>
<path d="M94.3691 92.8867H178.171V178.86H94.3691V92.8867Z" stroke="#2E3C7B" stroke-width="6"/>
<path d="M261.695 92.6677H179.875C178.948 92.6677 178.207 91.9245 178.207 90.9955V7.15123C178.207 6.22221 178.948 5.479 179.875 5.479H261.695C262.621 5.479 263.363 6.22221 263.363 7.15123V90.9955C263.363 91.9245 262.621 92.6677 261.695 92.6677Z" fill="#485FAC"/>
<path d="M187.704 19.693C190.237 19.693 192.291 17.6342 192.291 15.0944C192.291 12.5546 190.237 10.4957 187.704 10.4957C185.171 10.4957 183.117 12.5546 183.117 15.0944C183.117 17.6342 185.171 19.693 187.704 19.693Z" fill="#434459"/>
<ellipse cx="187.75" cy="15.1409" rx="1.85323" ry="1.85804" fill="#7C8BB1"/>
<path d="M187.704 89.3697C190.237 89.3697 192.291 87.3108 192.291 84.771C192.291 82.2313 190.237 80.1724 187.704 80.1724C185.171 80.1724 183.117 82.2313 183.117 84.771C183.117 87.3108 185.171 89.3697 187.704 89.3697Z" fill="#434459"/>
<ellipse cx="187.75" cy="84.8175" rx="1.85323" ry="1.85805" fill="#7C8BB1"/>
<path d="M253.958 19.693C256.491 19.693 258.545 17.6342 258.545 15.0944C258.545 12.5546 256.491 10.4957 253.958 10.4957C251.425 10.4957 249.371 12.5546 249.371 15.0944C249.371 17.6342 251.425 19.693 253.958 19.693Z" fill="#434459"/>
<ellipse cx="254.004" cy="15.1409" rx="1.85326" ry="1.85804" fill="#7C8BB1"/>
<path d="M253.958 89.3697C256.491 89.3697 258.545 87.3108 258.545 84.771C258.545 82.2313 256.491 80.1724 253.958 80.1724C251.425 80.1724 249.371 82.2313 249.371 84.771C249.371 87.3108 251.425 89.3697 253.958 89.3697Z" fill="#434459"/>
<ellipse cx="254.004" cy="84.8175" rx="1.85326" ry="1.85805" fill="#7C8BB1"/>
<path fill-rule="evenodd" clip-rule="evenodd" d="M221.184 18.0522C238.813 18.0522 253.103 32.38 253.103 50.0538C253.103 67.728 238.813 82.0553 221.184 82.0553C203.556 82.0553 189.266 67.728 189.266 50.0538C189.266 32.38 203.556 18.0522 221.184 18.0522Z" fill="#ADD9FC"/>
<path fill-rule="evenodd" clip-rule="evenodd" d="M239.59 23.9034C243.271 29.1245 245.471 35.5158 245.471 42.3572C245.471 60.0458 231.15 74.3587 213.552 74.3587C206.684 74.3587 200.354 72.1983 195.146 68.4625C200.938 76.6542 210.455 82.0103 221.229 82.0103C238.872 82.0103 253.148 67.6524 253.148 50.0088C253.103 39.2516 247.76 29.7096 239.59 23.9034Z" fill="#7C8BB1"/>
<path fill-rule="evenodd" clip-rule="evenodd" d="M193.575 57.4351C197.077 53.9699 201.745 51.989 206.729 51.989C208.794 51.989 210.769 52.3045 212.699 52.9797C210.859 54.0594 209.153 55.4097 207.582 56.94C203.99 60.5407 201.611 65.0867 200.623 69.9481C197.301 66.4824 194.832 62.2065 193.575 57.4351ZM248.793 42.7176C245.291 46.1828 240.622 48.1632 235.639 48.1632C233.574 48.1632 231.599 47.8482 229.669 47.173C231.509 46.0933 233.215 44.743 234.786 43.2122C238.378 39.6115 240.757 35.0655 241.745 30.2046C245.067 33.6703 247.536 37.9461 248.793 42.7176ZM230.028 38.4417C228.591 39.8815 226.93 41.0968 225.134 41.997C225.673 39.927 225.943 37.7666 225.943 35.5607C225.943 30.4751 224.416 25.5686 221.678 21.4278C226.706 21.5178 231.419 22.9131 235.505 25.299C235.505 30.2046 233.529 34.9305 230.028 38.4417ZM213.822 22.3734C217.278 25.8837 219.254 30.5646 219.254 35.5607C219.254 37.6311 218.939 39.6115 218.266 41.5469C217.189 39.7019 215.842 37.9916 214.315 36.4158C210.724 32.8151 206.19 30.4296 201.341 29.4394C204.798 26.1087 209.063 23.6332 213.822 22.3734ZM196.493 35.6957C201.386 35.7407 206.1 37.6765 209.602 41.1868C211.038 42.6275 212.25 44.2929 213.148 46.0932C211.083 45.5531 208.928 45.2826 206.729 45.2826C201.656 45.2826 196.762 46.8129 192.632 49.5585C192.722 44.4725 194.114 39.792 196.493 35.6957ZM212.295 61.666C213.732 60.2257 215.393 59.0104 217.189 58.1103C216.65 60.1811 216.38 62.3411 216.38 64.547C216.38 69.6331 217.907 74.5386 220.645 78.6795C215.617 78.5894 210.904 77.1941 206.818 74.8091C206.863 69.9027 208.794 65.1767 212.295 61.666ZM228.501 77.7347C225.045 74.224 223.069 69.5426 223.069 64.547C223.069 62.4761 223.384 60.4962 224.057 58.5603C225.134 60.4062 226.481 62.1161 228.008 63.6914C231.599 67.2921 236.088 69.6776 240.982 70.6678C237.525 73.9989 233.26 76.4745 228.501 77.7347ZM245.875 64.457C240.982 64.4115 236.268 62.4761 232.766 58.9654C231.33 57.5251 230.118 55.8598 229.22 54.0594C231.285 54.5995 233.44 54.87 235.639 54.87C240.712 54.87 245.605 53.3393 249.736 50.5942C249.646 55.6348 248.254 60.3607 245.875 64.457ZM221.184 14.6764C201.701 14.6764 185.898 30.5646 185.898 50.0541C185.898 69.5426 201.745 85.4308 221.184 85.4308C240.667 85.4308 256.469 69.5426 256.469 50.0541C256.469 30.5646 240.622 14.6764 221.184 14.6764Z" fill="#2E3C7B"/>
<ellipse cx="221.006" cy="48.8663" rx="10.6561" ry="10.6838" fill="#ADD9FC"/>
<path d="M229.162 48.634C229.162 53.2882 225.401 57.05 220.774 57.05C216.148 57.05 212.387 53.2882 212.387 48.634C212.387 43.9799 216.148 40.218 220.774 40.218C225.401 40.218 229.162 43.9799 229.162 48.634Z" stroke="#EEDE6D" stroke-width="5"/>
<path d="M178.508 6.22961H260.681C261.57 6.22961 262.31 6.9563 262.31 7.87473V90.5577C262.31 91.4762 261.57 92.2028 260.681 92.2028H178.508V6.22961Z" stroke="#2E3C7B" stroke-width="6"/>
<path d="M261.695 179.325H179.875C178.948 179.325 178.207 178.582 178.207 177.653V93.8083C178.207 92.8793 178.948 92.1361 179.875 92.1361H261.695C262.621 92.1361 263.363 92.8793 263.363 93.8083V177.653C263.363 178.582 262.621 179.325 261.695 179.325Z" fill="#485FAC"/>
<path d="M187.704 106.35C190.237 106.35 192.291 104.291 192.291 101.751C192.291 99.2117 190.237 97.1528 187.704 97.1528C185.171 97.1528 183.117 99.2117 183.117 101.751C183.117 104.291 185.171 106.35 187.704 106.35Z" fill="#434459"/>
<ellipse cx="187.75" cy="101.798" rx="1.85323" ry="1.85805" fill="#7C8BB1"/>
<path d="M187.704 176.027C190.237 176.027 192.291 173.968 192.291 171.428C192.291 168.888 190.237 166.83 187.704 166.83C185.171 166.83 183.117 168.888 183.117 171.428C183.117 173.968 185.171 176.027 187.704 176.027Z" fill="#434459"/>
<ellipse cx="187.75" cy="171.475" rx="1.85323" ry="1.85805" fill="#7C8BB1"/>
<path d="M253.958 106.35C256.491 106.35 258.545 104.291 258.545 101.751C258.545 99.2117 256.491 97.1528 253.958 97.1528C251.425 97.1528 249.371 99.2117 249.371 101.751C249.371 104.291 251.425 106.35 253.958 106.35Z" fill="#434459"/>
<ellipse cx="254.004" cy="101.798" rx="1.85326" ry="1.85805" fill="#7C8BB1"/>
<path d="M253.958 176.027C256.491 176.027 258.545 173.968 258.545 171.428C258.545 168.888 256.491 166.83 253.958 166.83C251.425 166.83 249.371 168.888 249.371 171.428C249.371 173.968 251.425 176.027 253.958 176.027Z" fill="#434459"/>
<ellipse cx="254.004" cy="171.475" rx="1.85326" ry="1.85805" fill="#7C8BB1"/>
<path fill-rule="evenodd" clip-rule="evenodd" d="M221.184 104.709C238.813 104.709 253.103 119.037 253.103 136.711C253.103 154.385 238.813 168.712 221.184 168.712C203.556 168.712 189.266 154.385 189.266 136.711C189.266 119.037 203.556 104.709 221.184 104.709Z" fill="#ADD9FC"/>
<path fill-rule="evenodd" clip-rule="evenodd" d="M239.59 110.561C243.271 115.782 245.471 122.173 245.471 129.014C245.471 146.703 231.15 161.016 213.552 161.016C206.684 161.016 200.354 158.855 195.146 155.12C200.938 163.311 210.455 168.667 221.229 168.667C238.872 168.667 253.148 154.309 253.148 136.666C253.103 125.909 247.76 116.367 239.59 110.561Z" fill="#7C8BB1"/>
<path fill-rule="evenodd" clip-rule="evenodd" d="M193.575 144.092C197.077 140.627 201.745 138.646 206.729 138.646C208.794 138.646 210.769 138.962 212.699 139.637C210.859 140.717 209.153 142.067 207.582 143.597C203.99 147.198 201.611 151.744 200.623 156.605C197.301 153.14 194.832 148.864 193.575 144.092ZM248.793 129.375C245.291 132.84 240.622 134.82 235.639 134.82C233.574 134.82 231.599 134.505 229.669 133.83C231.509 132.75 233.215 131.4 234.786 129.869C238.378 126.269 240.757 121.723 241.745 116.862C245.067 120.327 247.536 124.603 248.793 129.375ZM230.028 125.099C228.591 126.539 226.93 127.754 225.134 128.654C225.673 126.584 225.943 124.424 225.943 122.218C225.943 117.132 224.416 112.226 221.678 108.085C226.706 108.175 231.419 109.57 235.505 111.956C235.505 116.862 233.529 121.588 230.028 125.099ZM213.822 109.031C217.278 112.541 219.254 117.222 219.254 122.218C219.254 124.288 218.939 126.269 218.266 128.204C217.189 126.359 215.842 124.649 214.315 123.073C210.724 119.472 206.19 117.087 201.341 116.097C204.798 112.766 209.063 110.29 213.822 109.031ZM196.493 122.353C201.386 122.398 206.1 124.334 209.602 127.844C211.038 129.285 212.25 130.95 213.148 132.75C211.083 132.21 208.928 131.94 206.729 131.94C201.656 131.94 196.762 133.47 192.632 136.216C192.722 131.13 194.114 126.449 196.493 122.353ZM212.295 148.323C213.732 146.883 215.393 145.668 217.189 144.767C216.65 146.838 216.38 148.998 216.38 151.204C216.38 156.29 217.907 161.196 220.645 165.337C215.617 165.247 210.904 163.851 206.818 161.466C206.863 156.56 208.794 151.834 212.295 148.323ZM228.501 164.392C225.045 160.881 223.069 156.2 223.069 151.204C223.069 149.133 223.384 147.153 224.057 145.217C225.134 147.063 226.481 148.773 228.008 150.348C231.599 153.949 236.088 156.335 240.982 157.325C237.525 160.656 233.26 163.132 228.501 164.392ZM245.875 151.114C240.982 151.069 236.268 149.133 232.766 145.623C231.33 144.182 230.118 142.517 229.22 140.717C231.285 141.257 233.44 141.527 235.639 141.527C240.712 141.527 245.605 139.996 249.736 137.251C249.646 142.292 248.254 147.018 245.875 151.114ZM221.184 101.333C201.701 101.333 185.898 117.222 185.898 136.711C185.898 156.2 201.745 172.088 221.184 172.088C240.667 172.088 256.469 156.2 256.469 136.711C256.469 117.222 240.622 101.333 221.184 101.333Z" fill="#2E3C7B"/>
<ellipse cx="221.006" cy="135.523" rx="10.6561" ry="10.6838" fill="#ADD9FC"/>
<path d="M229.162 135.291C229.162 139.945 225.401 143.707 220.774 143.707C216.148 143.707 212.387 139.945 212.387 135.291C212.387 130.637 216.148 126.875 220.774 126.875C225.401 126.875 229.162 130.637 229.162 135.291Z" stroke="#EEDE6D" stroke-width="5"/>
<path d="M178.508 92.8867H260.681C261.57 92.8867 262.31 93.6134 262.31 94.5318V177.215C262.31 178.133 261.57 178.86 260.681 178.86H178.508V92.8867Z" stroke="#2E3C7B" stroke-width="6"/>
</svg>
