<svg width="286" height="102" viewBox="0 0 286 102" fill="none" xmlns="http://www.w3.org/2000/svg">
<path d="M281.917 98.3408H191.356C190.33 98.3408 189.51 97.5236 189.51 96.5022V4.31677C189.51 3.29532 190.33 2.47818 191.356 2.47818H281.917C282.943 2.47818 283.763 3.29532 283.763 4.31677V96.5022C283.763 97.5236 282.943 98.3408 281.917 98.3408Z" fill="#485FAC"/>
<path d="M200.022 18.1063C202.826 18.1063 205.099 15.8426 205.099 13.0501C205.099 10.2577 202.826 7.99399 200.022 7.99399C197.218 7.99399 194.945 10.2577 194.945 13.0501C194.945 15.8426 197.218 18.1063 200.022 18.1063Z" fill="#434459"/>
<ellipse cx="200.073" cy="13.1012" rx="2.05122" ry="2.04289" fill="#7C8BB1"/>
<path d="M200.022 94.7146C202.826 94.7146 205.099 92.4509 205.099 89.6585C205.099 86.8661 202.826 84.6024 200.022 84.6024C197.218 84.6024 194.945 86.8661 194.945 89.6585C194.945 92.4509 197.218 94.7146 200.022 94.7146Z" fill="#434459"/>
<ellipse cx="200.073" cy="89.7096" rx="2.05122" ry="2.0429" fill="#7C8BB1"/>
<path d="M273.354 18.1063C276.158 18.1063 278.431 15.8426 278.431 13.0501C278.431 10.2577 276.158 7.99399 273.354 7.99399C270.55 7.99399 268.277 10.2577 268.277 13.0501C268.277 15.8426 270.55 18.1063 273.354 18.1063Z" fill="#434459"/>
<ellipse cx="273.405" cy="13.1012" rx="2.05127" ry="2.04289" fill="#7C8BB1"/>
<path d="M273.354 94.7146C276.158 94.7146 278.431 92.4509 278.431 89.6585C278.431 86.8661 276.158 84.6024 273.354 84.6024C270.55 84.6024 268.277 86.8661 268.277 89.6585C268.277 92.4509 270.55 94.7146 273.354 94.7146Z" fill="#434459"/>
<ellipse cx="273.405" cy="89.7096" rx="2.05127" ry="2.0429" fill="#7C8BB1"/>
<path fill-rule="evenodd" clip-rule="evenodd" d="M237.077 16.3023C256.588 16.3023 272.405 32.0554 272.405 51.4875C272.405 70.92 256.588 86.6726 237.077 86.6726C217.565 86.6726 201.748 70.92 201.748 51.4875C201.748 32.0554 217.565 16.3023 237.077 16.3023Z" fill="#ADD9FC"/>
<path fill-rule="evenodd" clip-rule="evenodd" d="M257.45 22.7355C261.524 28.476 263.959 35.5031 263.959 43.0251C263.959 62.4735 248.108 78.2103 228.63 78.2103C221.028 78.2103 214.022 75.8349 208.258 71.7275C214.668 80.7341 225.202 86.6231 237.127 86.6231C256.654 86.6231 272.455 70.8368 272.455 51.4379C272.406 39.6106 266.493 29.1193 257.45 22.7355Z" fill="#7C8BB1"/>
<path fill-rule="evenodd" clip-rule="evenodd" d="M206.518 59.603C210.394 55.793 215.562 53.6151 221.077 53.6151C223.363 53.6151 225.549 53.962 227.686 54.7043C225.648 55.8915 223.76 57.3761 222.021 59.0587C218.046 63.0176 215.412 68.0158 214.319 73.3609C210.642 69.5504 207.91 64.8491 206.518 59.603ZM267.635 43.4213C263.759 47.2313 258.592 49.4087 253.076 49.4087C250.791 49.4087 248.604 49.0623 246.468 48.32C248.505 47.1328 250.393 45.6482 252.132 43.9652C256.107 40.0062 258.741 35.0081 259.834 29.6635C263.511 33.474 266.244 38.1752 267.635 43.4213ZM246.865 38.7201C245.275 40.3032 243.437 41.6393 241.449 42.629C242.046 40.3531 242.344 37.9778 242.344 35.5524C242.344 29.9609 240.654 24.5663 237.623 20.0135C243.188 20.1125 248.406 21.6466 252.927 24.2699C252.927 29.6635 250.741 34.8596 246.865 38.7201ZM228.928 21.0533C232.754 24.9127 234.94 30.0594 234.94 35.5524C234.94 37.8288 234.592 40.0062 233.847 42.1342C232.654 40.1057 231.164 38.2252 229.474 36.4927C225.499 32.5337 220.481 29.9109 215.114 28.8222C218.94 25.1602 223.661 22.4384 228.928 21.0533ZM209.748 35.7009C215.164 35.7504 220.381 37.8788 224.257 41.7383C225.847 43.3224 227.189 45.1534 228.182 47.1328C225.897 46.539 223.512 46.2416 221.077 46.2416C215.462 46.2416 210.046 47.9241 205.475 50.9428C205.574 45.3508 207.114 40.2047 209.748 35.7009ZM227.238 64.2548C228.828 62.6712 230.667 61.3351 232.654 60.3453C232.058 62.6222 231.76 64.9971 231.76 67.4225C231.76 73.0145 233.449 78.4081 236.48 82.9608C230.915 82.8619 225.698 81.3278 221.176 78.7055C221.226 73.3109 223.363 68.1148 227.238 64.2548ZM245.176 81.9221C241.35 78.0621 239.164 72.915 239.164 67.4225C239.164 65.1456 239.511 62.9686 240.257 60.8402C241.449 62.8697 242.94 64.7497 244.629 66.4817C248.604 70.4407 253.573 73.0635 258.989 74.1522C255.163 77.8147 250.443 80.5365 245.176 81.9221ZM264.405 67.3235C258.989 67.2735 253.772 65.1456 249.896 61.2856C248.306 59.702 246.965 57.871 245.971 55.8915C248.257 56.4854 250.642 56.7828 253.076 56.7828C258.691 56.7828 264.107 55.0997 268.679 52.0815C268.579 57.6236 267.039 62.8197 264.405 67.3235ZM237.077 12.5905C215.512 12.5905 198.021 30.0594 198.021 51.4877C198.021 72.915 215.562 90.3839 237.077 90.3839C258.642 90.3839 276.132 72.915 276.132 51.4877C276.132 30.0594 258.592 12.5905 237.077 12.5905Z" fill="#2E3C7B"/>
<ellipse cx="236.88" cy="50.1817" rx="11.7945" ry="11.7466" fill="#ADD9FC"/>
<path d="M246.174 49.9264C246.174 55.1646 241.908 59.4284 236.623 59.4284C231.339 59.4284 227.072 55.1646 227.072 49.9264C227.072 44.6882 231.339 40.4244 236.623 40.4244C241.908 40.4244 246.174 44.6882 246.174 49.9264Z" stroke="#EEDE6D" stroke-width="5"/>
<path d="M95.5655 98.3407H5.0043C3.97869 98.3407 3.1582 97.5235 3.1582 96.5021V4.31668C3.1582 3.29523 3.97869 2.47809 5.0043 2.47809H95.5655C96.5911 2.47809 97.4116 3.29523 97.4116 4.31668V96.5021C97.4116 97.5235 96.5911 98.3407 95.5655 98.3407Z" fill="#485FAC"/>
<path d="M13.6705 18.1062C16.4743 18.1062 18.7473 15.8425 18.7473 13.05C18.7473 10.2576 16.4743 7.9939 13.6705 7.9939C10.8667 7.9939 8.59375 10.2576 8.59375 13.05C8.59375 15.8425 10.8667 18.1062 13.6705 18.1062Z" fill="#434459"/>
<ellipse cx="13.7211" cy="13.1011" rx="2.05122" ry="2.04289" fill="#7C8BB1"/>
<path d="M13.6705 94.7146C16.4743 94.7146 18.7473 92.4509 18.7473 89.6584C18.7473 86.866 16.4743 84.6023 13.6705 84.6023C10.8667 84.6023 8.59375 86.866 8.59375 89.6584C8.59375 92.4509 10.8667 94.7146 13.6705 94.7146Z" fill="#434459"/>
<ellipse cx="13.7211" cy="89.7095" rx="2.05122" ry="2.0429" fill="#7C8BB1"/>
<path d="M87.0025 18.1062C89.8064 18.1062 92.0793 15.8425 92.0793 13.05C92.0793 10.2576 89.8064 7.9939 87.0025 7.9939C84.1987 7.9939 81.9258 10.2576 81.9258 13.05C81.9258 15.8425 84.1987 18.1062 87.0025 18.1062Z" fill="#434459"/>
<ellipse cx="87.0532" cy="13.1011" rx="2.05122" ry="2.04289" fill="#7C8BB1"/>
<path d="M87.0025 94.7146C89.8064 94.7146 92.0793 92.4509 92.0793 89.6584C92.0793 86.866 89.8064 84.6023 87.0025 84.6023C84.1987 84.6023 81.9258 86.866 81.9258 89.6584C81.9258 92.4509 84.1987 94.7146 87.0025 94.7146Z" fill="#434459"/>
<ellipse cx="87.0532" cy="89.7095" rx="2.05122" ry="2.0429" fill="#7C8BB1"/>
<path fill-rule="evenodd" clip-rule="evenodd" d="M50.7251 16.3022C70.2368 16.3022 86.0536 32.0553 86.0536 51.4873C86.0536 70.9198 70.2368 86.6725 50.7251 86.6725C31.2133 86.6725 15.3965 70.9198 15.3965 51.4873C15.3965 32.0553 31.2133 16.3022 50.7251 16.3022" fill="#ADD9FC"/>
<path fill-rule="evenodd" clip-rule="evenodd" d="M71.0979 22.7354C75.1724 28.4759 77.6071 35.503 77.6071 43.025C77.6071 62.4733 61.7565 78.2101 42.2786 78.2101C34.6762 78.2101 27.6701 75.8348 21.9062 71.7274C28.3161 80.734 38.85 86.6229 50.7753 86.6229C70.3029 86.6229 86.1039 70.8366 86.1039 51.4378C86.0542 39.6104 80.1412 29.1192 71.0979 22.7354" fill="#7C8BB1"/>
<path fill-rule="evenodd" clip-rule="evenodd" d="M20.1667 59.6029C24.0424 55.7929 29.21 53.615 34.7254 53.615C37.0111 53.615 39.1974 53.9619 41.334 54.7042C39.2968 55.8914 37.4086 57.376 35.6695 59.0585C31.6944 63.0175 29.0609 68.0157 27.9678 73.3607C24.2908 69.5503 21.5579 64.849 20.1667 59.6029ZM81.2836 43.4212C77.4079 47.2312 72.2403 49.4086 66.7249 49.4086C64.4392 49.4086 62.2529 49.0622 60.1163 48.3199C62.1535 47.1327 64.0417 45.6481 65.7808 43.9651C69.7559 40.0061 72.3894 35.0079 73.4825 29.6634C77.1595 33.4738 79.8923 38.1751 81.2836 43.4212ZM60.5138 38.7199C58.9238 40.303 57.0853 41.6392 55.0977 42.6289C55.694 40.353 55.9921 37.9776 55.9921 35.5523C55.9921 29.9608 54.3027 24.5662 51.2717 20.0134C56.8368 20.1124 62.0541 21.6465 66.5758 24.2698C66.5758 29.6634 64.3895 34.8595 60.5138 38.7199V38.7199ZM42.5762 21.0531C46.4022 24.9126 48.5885 30.0593 48.5885 35.5523C48.5885 37.8287 48.2407 40.0061 47.4954 42.134C46.3029 40.1056 44.8122 38.2251 43.1228 36.4925C39.1477 32.5336 34.1292 29.9108 28.7628 28.8221C32.5888 25.1601 37.3092 22.4383 42.5762 21.0531ZM23.3964 35.7007C28.8125 35.7502 34.0298 37.8787 37.9055 41.7381C39.4955 43.3222 40.8371 45.1532 41.8309 47.1327C39.5452 46.5389 37.1602 46.2415 34.7254 46.2415C29.1106 46.2415 23.6946 47.924 19.1232 50.9427C19.2226 45.3507 20.7629 40.2045 23.3964 35.7007V35.7007ZM40.8868 64.2547C42.4768 62.6711 44.3153 61.3349 46.3029 60.3452C45.7066 62.6221 45.4085 64.997 45.4085 67.4223C45.4085 73.0143 47.0979 78.4079 50.1289 82.9607C44.5638 82.8617 39.3465 81.3276 34.8248 78.7053C34.8745 73.3108 37.0111 68.1146 40.8868 64.2547V64.2547ZM58.8244 81.922C54.9984 78.062 52.8121 72.9149 52.8121 67.4223C52.8121 65.1454 53.1599 62.9685 53.9052 60.8401C55.0977 62.8695 56.5884 64.7495 58.2778 66.4816C62.2529 70.4405 67.2217 73.0633 72.6378 74.152C68.8118 77.8146 64.0914 80.5363 58.8244 81.922ZM78.0539 67.3233C72.6378 67.2734 67.4205 65.1454 63.5448 61.2855C61.9548 59.7019 60.6132 57.8709 59.6194 55.8914C61.9051 56.4852 64.2901 56.7826 66.7249 56.7826C72.3397 56.7826 77.7557 55.0996 82.3271 52.0814C82.2277 57.6234 80.6874 62.8196 78.0539 67.3233ZM50.7251 12.5904C29.1603 12.5904 11.6699 30.0593 11.6699 51.4876C11.6699 72.9149 29.21 90.3837 50.7251 90.3837C72.29 90.3837 89.7804 72.9149 89.7804 51.4876C89.7804 30.0593 72.2403 12.5904 50.7251 12.5904" fill="#2E3C7B"/>
<ellipse cx="50.5289" cy="50.1816" rx="11.7945" ry="11.7466" fill="#ADD9FC"/>
<path d="M59.8225 49.9263C59.8225 55.1645 55.556 59.4282 50.2716 59.4282C44.9872 59.4282 40.7207 55.1645 40.7207 49.9263C40.7207 44.688 44.9872 40.4243 50.2716 40.4243C55.556 40.4243 59.8225 44.688 59.8225 49.9263Z" stroke="#EEDE6D" stroke-width="5"/>
<path d="M5.20552 3.00491H96.4778V98.128H5.20552C4.02375 98.128 3.08203 97.1755 3.08203 96.0207V5.11214C3.08203 3.95734 4.02375 3.00491 5.20552 3.00491Z" stroke="#2E3C7B" stroke-width="6"/>
<path d="M188.743 98.3408H98.182C97.1564 98.3408 96.3359 97.5236 96.3359 96.5022V4.31677C96.3359 3.29532 97.1564 2.47818 98.182 2.47818H188.743C189.769 2.47818 190.589 3.29532 190.589 4.31677V96.5022C190.589 97.5236 189.769 98.3408 188.743 98.3408Z" fill="#485FAC"/>
<path d="M106.848 18.1063C109.652 18.1063 111.925 15.8426 111.925 13.0501C111.925 10.2577 109.652 7.99399 106.848 7.99399C104.044 7.99399 101.771 10.2577 101.771 13.0501C101.771 15.8426 104.044 18.1063 106.848 18.1063Z" fill="#434459"/>
<ellipse cx="106.899" cy="13.1012" rx="2.05122" ry="2.04289" fill="#7C8BB1"/>
<path d="M106.848 94.7146C109.652 94.7146 111.925 92.4509 111.925 89.6585C111.925 86.8661 109.652 84.6024 106.848 84.6024C104.044 84.6024 101.771 86.8661 101.771 89.6585C101.771 92.4509 104.044 94.7146 106.848 94.7146Z" fill="#434459"/>
<ellipse cx="106.899" cy="89.7096" rx="2.05122" ry="2.0429" fill="#7C8BB1"/>
<path d="M180.18 18.1063C182.984 18.1063 185.257 15.8426 185.257 13.0501C185.257 10.2577 182.984 7.99399 180.18 7.99399C177.376 7.99399 175.104 10.2577 175.104 13.0501C175.104 15.8426 177.376 18.1063 180.18 18.1063Z" fill="#434459"/>
<ellipse cx="180.231" cy="13.1012" rx="2.05122" ry="2.04289" fill="#7C8BB1"/>
<path d="M180.18 94.7146C182.984 94.7146 185.257 92.4509 185.257 89.6585C185.257 86.8661 182.984 84.6024 180.18 84.6024C177.376 84.6024 175.104 86.8661 175.104 89.6585C175.104 92.4509 177.376 94.7146 180.18 94.7146Z" fill="#434459"/>
<ellipse cx="180.231" cy="89.7096" rx="2.05122" ry="2.0429" fill="#7C8BB1"/>
<path fill-rule="evenodd" clip-rule="evenodd" d="M143.903 16.3023C163.414 16.3023 179.231 32.0554 179.231 51.4875C179.231 70.92 163.414 86.6726 143.903 86.6726C124.391 86.6726 108.574 70.92 108.574 51.4875C108.574 32.0554 124.391 16.3023 143.903 16.3023" fill="#ADD9FC"/>
<path fill-rule="evenodd" clip-rule="evenodd" d="M164.276 22.7355C168.35 28.476 170.785 35.5031 170.785 43.0251C170.785 62.4735 154.934 78.2103 135.456 78.2103C127.854 78.2103 120.848 75.8349 115.084 71.7275C121.494 80.7341 132.028 86.6231 143.953 86.6231C163.481 86.6231 179.282 70.8368 179.282 51.4379C179.232 39.6106 173.319 29.1193 164.276 22.7355" fill="#7C8BB1"/>
<path fill-rule="evenodd" clip-rule="evenodd" d="M113.344 59.603C117.22 55.793 122.388 53.6151 127.903 53.6151C130.189 53.6151 132.375 53.962 134.512 54.7043C132.474 55.8915 130.586 57.3761 128.847 59.0587C124.872 63.0176 122.239 68.0158 121.146 73.3609C117.469 69.5504 114.736 64.8491 113.344 59.603ZM174.461 43.4213C170.586 47.2313 165.418 49.4087 159.903 49.4087C157.617 49.4087 155.431 49.0623 153.294 48.32C155.331 47.1328 157.219 45.6482 158.959 43.9652C162.934 40.0062 165.567 35.0081 166.66 29.6635C170.337 33.474 173.07 38.1752 174.461 43.4213ZM153.692 38.7201C152.101 40.3032 150.263 41.6393 148.275 42.629C148.872 40.3531 149.17 37.9778 149.17 35.5524C149.17 29.9609 147.48 24.5663 144.449 20.0135C150.015 20.1125 155.232 21.6466 159.754 24.2699C159.754 29.6635 157.567 34.8596 153.692 38.7201V38.7201ZM135.754 21.0533C139.58 24.9127 141.766 30.0594 141.766 35.5524C141.766 37.8288 141.418 40.0062 140.673 42.1342C139.481 40.1057 137.99 38.2252 136.301 36.4927C132.325 32.5337 127.307 29.9109 121.941 28.8222C125.767 25.1602 130.487 22.4384 135.754 21.0533ZM116.574 35.7009C121.99 35.7504 127.208 37.8788 131.083 41.7383C132.673 43.3224 134.015 45.1534 135.009 47.1328C132.723 46.539 130.338 46.2416 127.903 46.2416C122.288 46.2416 116.872 47.9241 112.301 50.9428C112.4 45.3508 113.941 40.2047 116.574 35.7009V35.7009ZM134.065 64.2548C135.655 62.6712 137.493 61.3351 139.481 60.3453C138.884 62.6222 138.586 64.9971 138.586 67.4225C138.586 73.0145 140.276 78.4081 143.307 82.9608C137.741 82.8619 132.524 81.3278 128.003 78.7055C128.052 73.3109 130.189 68.1148 134.065 64.2548V64.2548ZM152.002 81.9221C148.176 78.0621 145.99 72.915 145.99 67.4225C145.99 65.1456 146.338 62.9686 147.083 60.8402C148.275 62.8697 149.766 64.7497 151.456 66.4817C155.431 70.4407 160.399 73.0635 165.816 74.1522C161.99 77.8147 157.269 80.5365 152.002 81.9221ZM171.232 67.3235C165.816 67.2735 160.598 65.1456 156.723 61.2856C155.132 59.702 153.791 57.871 152.797 55.8915C155.083 56.4854 157.468 56.7828 159.903 56.7828C165.517 56.7828 170.933 55.0997 175.505 52.0815C175.405 57.6236 173.865 62.8197 171.232 67.3235ZM143.903 12.5905C122.338 12.5905 104.848 30.0594 104.848 51.4877C104.848 72.915 122.388 90.3839 143.903 90.3839C165.468 90.3839 182.958 72.915 182.958 51.4877C182.958 30.0594 165.418 12.5905 143.903 12.5905" fill="#2E3C7B"/>
<ellipse cx="143.707" cy="50.1817" rx="11.7945" ry="11.7466" fill="#ADD9FC"/>
<path d="M153 49.9264C153 55.1646 148.734 59.4284 143.449 59.4284C138.165 59.4284 133.898 55.1646 133.898 49.9264C133.898 44.6882 138.165 40.4244 143.449 40.4244C148.734 40.4244 153 44.6882 153 49.9264Z" stroke="#EEDE6D" stroke-width="5"/>
<path d="M96.3027 3.005H189.698V98.1281H96.3027V3.005Z" stroke="#2E3C7B" stroke-width="6"/>
<path d="M189.521 3.005H280.794C281.976 3.005 282.917 3.95743 282.917 5.11223V96.0208C282.917 97.1756 281.976 98.1281 280.794 98.1281H189.521V3.005Z" stroke="#2E3C7B" stroke-width="6"/>
</svg>
