<svg width="350" height="187" viewBox="0 0 350 187" fill="none" xmlns="http://www.w3.org/2000/svg">
<path d="M91.0732 92.5168H9.15047C8.22269 92.5168 7.48047 91.7748 7.48047 90.8473V7.13957C7.48047 6.21206 8.22269 5.47006 9.15047 5.47006H91.0732C92.0009 5.47006 92.7432 6.21206 92.7432 7.13957V90.8473C92.7432 91.7748 92.0009 92.5168 91.0732 92.5168Z" fill="#485FAC"/>
<path d="M16.9909 19.661C19.5273 19.661 21.5834 17.6054 21.5834 15.0698C21.5834 12.5342 19.5273 10.4786 16.9909 10.4786C14.4546 10.4786 12.3984 12.5342 12.3984 15.0698C12.3984 17.6054 14.4546 19.661 16.9909 19.661Z" fill="#2E3C7B"/>
<ellipse cx="17.0372" cy="15.1162" rx="1.85555" ry="1.85502" fill="#7C8BB1"/>
<path d="M16.9909 89.2242C19.5273 89.2242 21.5834 87.1687 21.5834 84.6331C21.5834 82.0974 19.5273 80.0419 16.9909 80.0419C14.4546 80.0419 12.3984 82.0974 12.3984 84.6331C12.3984 87.1687 14.4546 89.2242 16.9909 89.2242Z" fill="#2E3C7B"/>
<ellipse cx="17.0372" cy="84.6794" rx="1.85555" ry="1.85503" fill="#7C8BB1"/>
<path d="M83.3269 19.661C85.8632 19.661 87.9194 17.6054 87.9194 15.0698C87.9194 12.5342 85.8632 10.4786 83.3269 10.4786C80.7905 10.4786 78.7344 12.5342 78.7344 15.0698C78.7344 17.6054 80.7905 19.661 83.3269 19.661Z" fill="#2E3C7B"/>
<ellipse cx="83.3731" cy="15.1162" rx="1.85555" ry="1.85502" fill="#7C8BB1"/>
<path d="M83.3269 89.2242C85.8632 89.2242 87.9194 87.1687 87.9194 84.6331C87.9194 82.0974 85.8632 80.0419 83.3269 80.0419C80.7905 80.0419 78.7344 82.0974 78.7344 84.6331C78.7344 87.1687 80.7905 89.2242 83.3269 89.2242Z" fill="#2E3C7B"/>
<ellipse cx="83.3731" cy="84.6794" rx="1.85555" ry="1.85503" fill="#7C8BB1"/>
<path fill-rule="evenodd" clip-rule="evenodd" d="M50.5114 18.0228C68.1619 18.0228 82.47 32.3273 82.47 49.9722C82.47 67.6177 68.1619 81.9217 50.5114 81.9217C32.8608 81.9217 18.5527 67.6177 18.5527 49.9722C18.5527 32.3273 32.8608 18.0228 50.5114 18.0228Z" fill="#ADD9FC"/>
<path fill-rule="evenodd" clip-rule="evenodd" d="M68.9408 23.8644C72.6266 29.077 74.8291 35.4579 74.8291 42.2882C74.8291 59.948 60.4904 74.2376 42.8704 74.2376C35.9933 74.2376 29.6555 72.0807 24.4414 68.351C30.2398 76.5293 39.769 81.8767 50.5567 81.8767C68.2216 81.8767 82.5153 67.5421 82.5153 49.9273C82.4704 39.1876 77.1214 29.6612 68.9408 23.8644Z" fill="#7C8BB1"/>
<path fill-rule="evenodd" clip-rule="evenodd" d="M22.8679 57.3415C26.3739 53.8819 31.0486 51.9043 36.0379 51.9043C38.1056 51.9043 40.0833 52.2193 42.0161 52.8933C40.1732 53.9713 38.4651 55.3194 36.8919 56.8472C33.296 60.4421 30.9137 64.9806 29.9249 69.8342C26.5986 66.3741 24.1265 62.1052 22.8679 57.3415ZM78.155 42.6479C74.649 46.1075 69.9743 48.0847 64.985 48.0847C62.9173 48.0847 60.9396 47.7702 59.0068 47.0961C60.8497 46.0181 62.5577 44.67 64.1309 43.1418C67.7268 39.5469 70.1091 35.0084 71.098 30.1553C74.4242 33.6154 76.8964 37.8843 78.155 42.6479ZM59.3664 38.379C57.928 39.8165 56.2649 41.0298 54.4669 41.9285C55.0063 39.8619 55.276 37.705 55.276 35.5027C55.276 30.4254 53.7477 25.5269 51.0059 21.3928C56.0401 21.4827 60.7598 22.8757 64.8501 25.2577C64.8501 30.1553 62.8724 34.8736 59.3664 38.379ZM43.1398 22.3369C46.6009 25.8414 48.5786 30.5148 48.5786 35.5027C48.5786 37.5697 48.264 39.5469 47.5898 41.4791C46.511 39.6372 45.1625 37.9297 43.6343 36.3564C40.0383 32.7616 35.4985 30.38 30.644 29.3914C34.1051 26.0661 38.3752 23.5946 43.1398 22.3369ZM25.7896 35.6375C30.689 35.6824 35.4086 37.6151 38.9146 41.1197C40.353 42.5581 41.5666 44.2207 42.4656 46.0181C40.3979 45.4789 38.2404 45.2088 36.0379 45.2088C30.9587 45.2088 26.0593 46.7366 21.924 49.4777C22.0139 44.4 23.4073 39.7271 25.7896 35.6375ZM41.6116 61.5655C43.0499 60.1275 44.713 58.9143 46.511 58.0156C45.9716 60.0831 45.7019 62.2395 45.7019 64.4418C45.7019 69.5196 47.2302 74.4172 49.972 78.5513C44.9378 78.4614 40.2181 77.0684 36.1278 74.6872C36.1727 69.7888 38.1055 65.0705 41.6116 61.5655ZM57.8381 77.6081C54.377 74.1031 52.3993 69.4293 52.3993 64.4418C52.3993 62.3743 52.7139 60.3976 53.3882 58.4649C54.4669 60.3077 55.8154 62.0149 57.3437 63.5876C60.9396 67.1825 65.4345 69.5641 70.3339 70.5527C66.8728 73.8784 62.6027 76.3499 57.8381 77.6081ZM75.2333 64.352C70.3339 64.3066 65.6142 62.3743 62.1082 58.8693C60.6699 57.4314 59.4562 55.7688 58.5573 53.9713C60.6249 54.5106 62.7825 54.7806 64.985 54.7806C70.0642 54.7806 74.9636 53.2524 79.0989 50.5117C79.009 55.5441 77.6156 60.2624 75.2333 64.352ZM50.5114 14.6524C31.0036 14.6524 15.1816 30.5148 15.1816 49.9725C15.1816 69.4293 31.0486 85.2917 50.5114 85.2917C70.0192 85.2917 85.8412 69.4293 85.8412 49.9725C85.8412 30.5148 69.9743 14.6524 50.5114 14.6524Z" fill="#2E3C7B"/>
<ellipse cx="50.3335" cy="48.7866" rx="10.6694" ry="10.6664" fill="#ADD9FC"/>
<path d="M58.5039 48.5548C58.5039 53.1923 54.7432 56.953 50.1026 56.953C45.4619 56.953 41.7012 53.1923 41.7012 48.5548C41.7012 43.9172 45.4619 40.1565 50.1026 40.1565C54.7432 40.1565 58.5039 43.9172 58.5039 48.5548Z" stroke="#EEDE6D" stroke-width="5"/>
<path d="M7.69727 7.86185C7.69727 6.95576 8.43087 6.2243 9.33204 6.2243H91.6118V92.0478H9.33204C8.43087 92.0478 7.69727 91.3163 7.69727 90.4102V7.86185Z" stroke="#2E3C7B" stroke-width="6"/>
<path d="M91.0712 179.033H9.14852C8.22074 179.033 7.47852 178.291 7.47852 177.363V93.6555C7.47852 92.728 8.22074 91.986 9.14852 91.986H91.0712C91.999 91.986 92.7412 92.728 92.7412 93.6555V177.363C92.7412 178.291 91.999 179.033 91.0712 179.033Z" fill="#485FAC"/>
<path d="M16.989 106.177C19.5253 106.177 21.5815 104.121 21.5815 101.586C21.5815 99.05 19.5253 96.9945 16.989 96.9945C14.4526 96.9945 12.3965 99.05 12.3965 101.586C12.3965 104.121 14.4526 106.177 16.989 106.177Z" fill="#2E3C7B"/>
<ellipse cx="17.0352" cy="101.632" rx="1.85555" ry="1.85503" fill="#7C8BB1"/>
<path d="M16.989 175.74C19.5253 175.74 21.5815 173.685 21.5815 171.149C21.5815 168.613 19.5253 166.558 16.989 166.558C14.4526 166.558 12.3965 168.613 12.3965 171.149C12.3965 173.685 14.4526 175.74 16.989 175.74Z" fill="#2E3C7B"/>
<ellipse cx="17.0352" cy="171.195" rx="1.85555" ry="1.85503" fill="#7C8BB1"/>
<path d="M83.3249 106.177C85.8613 106.177 87.9174 104.121 87.9174 101.586C87.9174 99.05 85.8613 96.9945 83.3249 96.9945C80.7886 96.9945 78.7324 99.05 78.7324 101.586C78.7324 104.121 80.7886 106.177 83.3249 106.177Z" fill="#2E3C7B"/>
<ellipse cx="83.3712" cy="101.632" rx="1.85555" ry="1.85503" fill="#7C8BB1"/>
<path d="M83.3249 175.74C85.8613 175.74 87.9174 173.685 87.9174 171.149C87.9174 168.613 85.8613 166.558 83.3249 166.558C80.7886 166.558 78.7324 168.613 78.7324 171.149C78.7324 173.685 80.7886 175.74 83.3249 175.74Z" fill="#2E3C7B"/>
<ellipse cx="83.3712" cy="171.195" rx="1.85555" ry="1.85503" fill="#7C8BB1"/>
<path fill-rule="evenodd" clip-rule="evenodd" d="M50.5094 104.539C68.1599 104.539 82.468 118.843 82.468 136.488C82.468 154.133 68.1599 168.437 50.5094 168.437C32.8589 168.437 18.5508 154.133 18.5508 136.488C18.5508 118.843 32.8589 104.539 50.5094 104.539Z" fill="#ADD9FC"/>
<path fill-rule="evenodd" clip-rule="evenodd" d="M68.9388 110.38C72.6246 115.593 74.8271 121.974 74.8271 128.804C74.8271 146.464 60.4884 160.753 42.8685 160.753C35.9913 160.753 29.6535 158.597 24.4395 154.867C30.2379 163.045 39.767 168.393 50.5547 168.393C68.2196 168.393 82.5134 154.058 82.5134 136.443C82.4684 125.703 77.1195 116.177 68.9388 110.38Z" fill="#7C8BB1"/>
<path fill-rule="evenodd" clip-rule="evenodd" d="M22.8659 143.857C26.3719 140.398 31.0466 138.42 36.0359 138.42C38.1036 138.42 40.0813 138.735 42.0141 139.409C40.1712 140.487 38.4632 141.835 36.89 143.363C33.2941 146.958 30.9118 151.496 29.9229 156.35C26.5967 152.89 24.1245 148.621 22.8659 143.857ZM78.153 129.164C74.647 132.623 69.9723 134.601 64.983 134.601C62.9154 134.601 60.9376 134.286 59.0048 133.612C60.8477 132.534 62.5558 131.186 64.129 129.658C67.7249 126.063 70.1072 121.524 71.096 116.671C74.4223 120.131 76.8944 124.4 78.153 129.164ZM59.3644 124.895C57.926 126.332 56.2629 127.546 54.465 128.444C55.0044 126.378 55.274 124.221 55.274 122.019C55.274 116.941 53.7458 112.043 51.0039 107.909C56.0382 107.999 60.7578 109.392 64.8482 111.774C64.8482 116.671 62.8704 121.389 59.3644 124.895ZM43.1379 108.853C46.5989 112.357 48.5767 117.031 48.5767 122.019C48.5767 124.086 48.262 126.063 47.5878 127.995C46.509 126.153 45.1606 124.446 43.6323 122.872C40.0364 119.277 35.4966 116.896 30.6421 115.907C34.1031 112.582 38.3733 110.111 43.1379 108.853ZM25.7876 122.153C30.687 122.198 35.4067 124.131 38.9127 127.636C40.351 129.074 41.5647 130.737 42.4636 132.534C40.396 131.995 38.2384 131.725 36.0359 131.725C30.9567 131.725 26.0573 133.252 21.922 135.994C22.0119 130.916 23.4053 126.243 25.7876 122.153ZM41.6096 148.081C43.048 146.643 44.7111 145.43 46.509 144.531C45.9696 146.599 45.6999 148.755 45.6999 150.958C45.6999 156.035 47.2282 160.933 49.9701 165.067C44.9358 164.977 40.2162 163.584 36.1258 161.203C36.1708 156.305 38.1036 151.586 41.6096 148.081ZM57.8361 164.124C54.3751 160.619 52.3973 155.945 52.3973 150.958C52.3973 148.89 52.712 146.913 53.3862 144.981C54.465 146.824 55.8134 148.531 57.3417 150.103C60.9376 153.698 65.4325 156.08 70.3319 157.069C66.8709 160.394 62.6007 162.866 57.8361 164.124ZM75.2313 150.868C70.3319 150.822 65.6123 148.89 62.1063 145.385C60.6679 143.947 59.4543 142.285 58.5553 140.487C60.623 141.026 62.7805 141.296 64.983 141.296C70.0622 141.296 74.9616 139.768 79.0969 137.028C79.007 142.06 77.6136 146.778 75.2313 150.868ZM50.5095 101.168C31.0017 101.168 15.1797 117.031 15.1797 136.488C15.1797 155.945 31.0466 171.807 50.5095 171.807C70.0173 171.807 85.8393 155.945 85.8393 136.488C85.8393 117.031 69.9723 101.168 50.5095 101.168Z" fill="#2E3C7B"/>
<ellipse cx="50.3315" cy="135.302" rx="10.6694" ry="10.6664" fill="#ADD9FC"/>
<path d="M58.502 135.071C58.502 139.708 54.7412 143.469 50.1006 143.469C45.46 143.469 41.6992 139.708 41.6992 135.071C41.6992 130.433 45.46 126.672 50.1006 126.672C54.7412 126.672 58.502 130.433 58.502 135.071Z" stroke="#EEDE6D" stroke-width="5"/>
<path d="M7.69531 94.3778C7.69531 93.4717 8.42892 92.7402 9.33008 92.7402H91.6099V178.564H9.33008C8.42892 178.564 7.69531 177.832 7.69531 176.926V94.3778Z" stroke="#2E3C7B" stroke-width="6"/>
<path d="M175.278 92.5168H93.3555C92.4278 92.5168 91.6855 91.7748 91.6855 90.8473V7.13957C91.6855 6.21206 92.4278 5.47006 93.3555 5.47006H175.278C176.206 5.47006 176.948 6.21206 176.948 7.13957V90.8473C176.948 91.7748 176.206 92.5168 175.278 92.5168Z" fill="#485FAC"/>
<path d="M101.196 19.661C103.732 19.661 105.788 17.6054 105.788 15.0698C105.788 12.5342 103.732 10.4786 101.196 10.4786C98.6596 10.4786 96.6035 12.5342 96.6035 15.0698C96.6035 17.6054 98.6596 19.661 101.196 19.661Z" fill="#2E3C7B"/>
<ellipse cx="101.242" cy="15.1162" rx="1.85557" ry="1.85502" fill="#7C8BB1"/>
<path d="M101.196 89.2242C103.732 89.2242 105.788 87.1687 105.788 84.6331C105.788 82.0974 103.732 80.0419 101.196 80.0419C98.6596 80.0419 96.6035 82.0974 96.6035 84.6331C96.6035 87.1687 98.6596 89.2242 101.196 89.2242Z" fill="#2E3C7B"/>
<ellipse cx="101.242" cy="84.6794" rx="1.85557" ry="1.85503" fill="#7C8BB1"/>
<path d="M167.532 19.661C170.068 19.661 172.124 17.6054 172.124 15.0698C172.124 12.5342 170.068 10.4786 167.532 10.4786C164.996 10.4786 162.939 12.5342 162.939 15.0698C162.939 17.6054 164.996 19.661 167.532 19.661Z" fill="#2E3C7B"/>
<ellipse cx="167.578" cy="15.1162" rx="1.85557" ry="1.85502" fill="#7C8BB1"/>
<path d="M167.532 89.2242C170.068 89.2242 172.124 87.1687 172.124 84.6331C172.124 82.0974 170.068 80.0419 167.532 80.0419C164.996 80.0419 162.939 82.0974 162.939 84.6331C162.939 87.1687 164.996 89.2242 167.532 89.2242Z" fill="#2E3C7B"/>
<ellipse cx="167.578" cy="84.6794" rx="1.85557" ry="1.85503" fill="#7C8BB1"/>
<path fill-rule="evenodd" clip-rule="evenodd" d="M134.716 18.0228C152.367 18.0228 166.675 32.3273 166.675 49.9723C166.675 67.6177 152.367 81.9217 134.716 81.9217C117.066 81.9217 102.758 67.6177 102.758 49.9723C102.758 32.3273 117.066 18.0228 134.716 18.0228Z" fill="#ADD9FC"/>
<path fill-rule="evenodd" clip-rule="evenodd" d="M153.146 23.8645C156.832 29.077 159.034 35.4579 159.034 42.2882C159.034 59.948 144.695 74.2376 127.076 74.2376C120.198 74.2376 113.861 72.0807 108.646 68.351C114.445 76.5294 123.974 81.8767 134.762 81.8767C152.427 81.8767 166.72 67.5422 166.72 49.9273C166.675 39.1876 161.326 29.6612 153.146 23.8645Z" fill="#7C8BB1"/>
<path fill-rule="evenodd" clip-rule="evenodd" d="M107.073 57.3415C110.579 53.8819 115.254 51.9043 120.243 51.9043C122.311 51.9043 124.288 52.2193 126.221 52.8933C124.378 53.9714 122.67 55.3194 121.097 56.8472C117.501 60.4421 115.119 64.9807 114.13 69.8342C110.804 66.3741 108.332 62.1052 107.073 57.3415ZM162.36 42.648C158.854 46.1076 154.179 48.0848 149.19 48.0848C147.122 48.0848 145.145 47.7702 143.212 47.0962C145.055 46.0182 146.763 44.6701 148.336 43.1418C151.932 39.5469 154.314 35.0084 155.303 30.1553C158.629 33.6154 161.101 37.8843 162.36 42.648ZM143.571 38.379C142.133 39.8165 140.47 41.0298 138.672 41.9285C139.211 39.8619 139.481 37.705 139.481 35.5027C139.481 30.4254 137.953 25.5269 135.211 21.3928C140.245 21.4827 144.965 22.8757 149.055 25.2578C149.055 30.1553 147.077 34.8736 143.571 38.379ZM127.345 22.3369C130.806 25.8415 132.784 30.5148 132.784 35.5027C132.784 37.5697 132.469 39.5469 131.795 41.4792C130.716 39.6372 129.368 37.9297 127.839 36.3565C124.243 32.7616 119.704 30.38 114.849 29.3914C118.31 26.0662 122.58 23.5947 127.345 22.3369ZM109.995 35.6375C114.894 35.6824 119.614 37.6151 123.12 41.1197C124.558 42.5581 125.772 44.2207 126.671 46.0181C124.603 45.4789 122.445 45.2089 120.243 45.2089C115.164 45.2089 110.264 46.7367 106.129 49.4778C106.219 44.4 107.612 39.7271 109.995 35.6375ZM125.817 61.5655C127.255 60.1276 128.918 58.9143 130.716 58.0156C130.177 60.0831 129.907 62.2396 129.907 64.4419C129.907 69.5196 131.435 74.4172 134.177 78.5513C129.143 78.4614 124.423 77.0684 120.333 74.6873C120.378 69.7888 122.311 65.0705 125.817 61.5655ZM142.043 77.6081C138.582 74.1031 136.604 69.4293 136.604 64.4419C136.604 62.3744 136.919 60.3976 137.593 58.4649C138.672 60.3078 140.02 62.0149 141.549 63.5876C145.145 67.1825 149.639 69.5641 154.539 70.5527C151.078 73.8784 146.808 76.3499 142.043 77.6081ZM159.438 64.352C154.539 64.3066 149.819 62.3744 146.313 58.8694C144.875 57.4314 143.661 55.7688 142.762 53.9714C144.83 54.5106 146.988 54.7806 149.19 54.7806C154.269 54.7806 159.169 53.2524 163.304 50.5117C163.214 55.5441 161.821 60.2624 159.438 64.352ZM134.716 14.6524C115.209 14.6524 99.3867 30.5148 99.3867 49.9725C99.3867 69.4293 115.254 85.2917 134.716 85.2917C154.224 85.2917 170.046 69.4293 170.046 49.9725C170.046 30.5148 154.179 14.6524 134.716 14.6524Z" fill="#2E3C7B"/>
<ellipse cx="134.539" cy="48.7866" rx="10.6694" ry="10.6664" fill="#ADD9FC"/>
<path d="M142.709 48.5548C142.709 53.1923 138.948 56.953 134.308 56.953C129.667 56.953 125.906 53.1923 125.906 48.5548C125.906 43.9173 129.667 40.1566 134.308 40.1566C138.948 40.1566 142.709 43.9173 142.709 48.5548Z" stroke="#EEDE6D" stroke-width="5"/>
<path d="M91.9414 6.2243H175.856V92.0478H91.9414V6.2243Z" stroke="#2E3C7B" stroke-width="6"/>
<path d="M259.177 92.5168H177.254C176.326 92.5168 175.584 91.7748 175.584 90.8473V7.13957C175.584 6.21206 176.326 5.47006 177.254 5.47006H259.177C260.105 5.47006 260.847 6.21206 260.847 7.13957V90.8473C260.847 91.7748 260.105 92.5168 259.177 92.5168Z" fill="#485FAC"/>
<path d="M185.094 19.661C187.631 19.661 189.687 17.6054 189.687 15.0698C189.687 12.5342 187.631 10.4786 185.094 10.4786C182.558 10.4786 180.502 12.5342 180.502 15.0698C180.502 17.6054 182.558 19.661 185.094 19.661Z" fill="#2E3C7B"/>
<ellipse cx="185.141" cy="15.1162" rx="1.85557" ry="1.85502" fill="#7C8BB1"/>
<path d="M185.094 89.2242C187.631 89.2242 189.687 87.1687 189.687 84.6331C189.687 82.0974 187.631 80.0419 185.094 80.0419C182.558 80.0419 180.502 82.0974 180.502 84.6331C180.502 87.1687 182.558 89.2242 185.094 89.2242Z" fill="#2E3C7B"/>
<ellipse cx="185.141" cy="84.6794" rx="1.85557" ry="1.85503" fill="#7C8BB1"/>
<path d="M251.43 19.661C253.967 19.661 256.023 17.6054 256.023 15.0698C256.023 12.5342 253.967 10.4786 251.43 10.4786C248.894 10.4786 246.838 12.5342 246.838 15.0698C246.838 17.6054 248.894 19.661 251.43 19.661Z" fill="#2E3C7B"/>
<ellipse cx="251.477" cy="15.1162" rx="1.85556" ry="1.85502" fill="#7C8BB1"/>
<path d="M251.43 89.2242C253.967 89.2242 256.023 87.1687 256.023 84.6331C256.023 82.0974 253.967 80.0419 251.43 80.0419C248.894 80.0419 246.838 82.0974 246.838 84.6331C246.838 87.1687 248.894 89.2242 251.43 89.2242Z" fill="#2E3C7B"/>
<ellipse cx="251.477" cy="84.6794" rx="1.85556" ry="1.85503" fill="#7C8BB1"/>
<path fill-rule="evenodd" clip-rule="evenodd" d="M218.615 18.0228C236.265 18.0228 250.573 32.3273 250.573 49.9723C250.573 67.6177 236.265 81.9217 218.615 81.9217C200.964 81.9217 186.656 67.6177 186.656 49.9723C186.656 32.3273 200.964 18.0228 218.615 18.0228Z" fill="#ADD9FC"/>
<path fill-rule="evenodd" clip-rule="evenodd" d="M237.044 23.8645C240.73 29.077 242.933 35.4579 242.933 42.2882C242.933 59.948 228.594 74.2376 210.974 74.2376C204.097 74.2376 197.759 72.0807 192.545 68.351C198.343 76.5294 207.872 81.8767 218.66 81.8767C236.325 81.8767 250.619 67.5422 250.619 49.9273C250.574 39.1876 245.225 29.6612 237.044 23.8645Z" fill="#7C8BB1"/>
<path fill-rule="evenodd" clip-rule="evenodd" d="M190.971 57.3415C194.477 53.8819 199.152 51.9043 204.141 51.9043C206.209 51.9043 208.187 52.2193 210.12 52.8933C208.277 53.9714 206.569 55.3194 204.995 56.8472C201.4 60.4421 199.017 64.9807 198.028 69.8342C194.702 66.3741 192.23 62.1052 190.971 57.3415ZM246.258 42.648C242.752 46.1076 238.078 48.0848 233.088 48.0848C231.021 48.0848 229.043 47.7702 227.11 47.0962C228.953 46.0182 230.661 44.6701 232.234 43.1418C235.83 39.5469 238.213 35.0084 239.201 30.1553C242.528 33.6154 245 37.8843 246.258 42.648ZM227.47 38.379C226.031 39.8165 224.368 41.0298 222.57 41.9285C223.11 39.8619 223.379 37.705 223.379 35.5027C223.379 30.4254 221.851 25.5269 219.109 21.3928C224.144 21.4827 228.863 22.8757 232.954 25.2578C232.954 30.1553 230.976 34.8736 227.47 38.379ZM211.243 22.3369C214.704 25.8415 216.682 30.5148 216.682 35.5027C216.682 37.5697 216.367 39.5469 215.693 41.4792C214.614 39.6372 213.266 37.9297 211.738 36.3565C208.142 32.7616 203.602 30.38 198.748 29.3914C202.209 26.0662 206.479 23.5947 211.243 22.3369ZM193.893 35.6375C198.792 35.6824 203.512 37.6151 207.018 41.1197C208.456 42.5581 209.67 44.2207 210.569 46.0181C208.501 45.4789 206.344 45.2089 204.141 45.2089C199.062 45.2089 194.163 46.7367 190.027 49.4778C190.117 44.4 191.511 39.7271 193.893 35.6375ZM209.715 61.5655C211.153 60.1276 212.817 58.9143 214.614 58.0156C214.075 60.0831 213.805 62.2396 213.805 64.4419C213.805 69.5196 215.334 74.4172 218.076 78.5513C213.041 78.4614 208.322 77.0684 204.231 74.6873C204.276 69.7888 206.209 65.0705 209.715 61.5655ZM225.942 77.6081C222.481 74.1031 220.503 69.4293 220.503 64.4419C220.503 62.3744 220.817 60.3976 221.492 58.4649C222.57 60.3078 223.919 62.0149 225.447 63.5876C229.043 67.1825 233.538 69.5641 238.437 70.5527C234.976 73.8784 230.706 76.3499 225.942 77.6081ZM243.337 64.352C238.437 64.3066 233.718 62.3744 230.212 58.8694C228.773 57.4314 227.56 55.7688 226.661 53.9714C228.728 54.5106 230.886 54.7806 233.088 54.7806C238.168 54.7806 243.067 53.2524 247.202 50.5117C247.112 55.5441 245.719 60.2624 243.337 64.352ZM218.615 14.6524C199.107 14.6524 183.285 30.5148 183.285 49.9725C183.285 69.4293 199.152 85.2917 218.615 85.2917C238.123 85.2917 253.945 69.4293 253.945 49.9725C253.945 30.5148 238.078 14.6524 218.615 14.6524Z" fill="#2E3C7B"/>
<ellipse cx="218.437" cy="48.7866" rx="10.6694" ry="10.6664" fill="#ADD9FC"/>
<path d="M226.607 48.5548C226.607 53.1923 222.847 56.953 218.206 56.953C213.565 56.953 209.805 53.1923 209.805 48.5548C209.805 43.9173 213.565 40.1566 218.206 40.1566C222.847 40.1566 226.607 43.9173 226.607 48.5548Z" stroke="#EEDE6D" stroke-width="5"/>
<path d="M175.84 6.2243H259.754V92.0478H175.84V6.2243Z" stroke="#2E3C7B" stroke-width="6"/>
<path d="M175.278 179.033H93.3555C92.4278 179.033 91.6855 178.291 91.6855 177.363V93.6555C91.6855 92.728 92.4278 91.986 93.3555 91.986H175.278C176.206 91.986 176.948 92.728 176.948 93.6555V177.363C176.948 178.291 176.206 179.033 175.278 179.033Z" fill="#485FAC"/>
<path d="M101.196 106.177C103.732 106.177 105.788 104.121 105.788 101.586C105.788 99.05 103.732 96.9945 101.196 96.9945C98.6596 96.9945 96.6035 99.05 96.6035 101.586C96.6035 104.121 98.6596 106.177 101.196 106.177Z" fill="#2E3C7B"/>
<ellipse cx="101.242" cy="101.632" rx="1.85557" ry="1.85503" fill="#7C8BB1"/>
<path d="M101.196 175.74C103.732 175.74 105.788 173.685 105.788 171.149C105.788 168.613 103.732 166.558 101.196 166.558C98.6596 166.558 96.6035 168.613 96.6035 171.149C96.6035 173.685 98.6596 175.74 101.196 175.74Z" fill="#2E3C7B"/>
<ellipse cx="101.242" cy="171.195" rx="1.85557" ry="1.85503" fill="#7C8BB1"/>
<path d="M167.532 106.177C170.068 106.177 172.124 104.121 172.124 101.586C172.124 99.05 170.068 96.9945 167.532 96.9945C164.996 96.9945 162.939 99.05 162.939 101.586C162.939 104.121 164.996 106.177 167.532 106.177Z" fill="#2E3C7B"/>
<ellipse cx="167.578" cy="101.632" rx="1.85557" ry="1.85503" fill="#7C8BB1"/>
<path d="M167.532 175.74C170.068 175.74 172.124 173.685 172.124 171.149C172.124 168.613 170.068 166.558 167.532 166.558C164.996 166.558 162.939 168.613 162.939 171.149C162.939 173.685 164.996 175.74 167.532 175.74Z" fill="#2E3C7B"/>
<ellipse cx="167.578" cy="171.195" rx="1.85557" ry="1.85503" fill="#7C8BB1"/>
<path fill-rule="evenodd" clip-rule="evenodd" d="M134.716 104.539C152.367 104.539 166.675 118.843 166.675 136.488C166.675 154.134 152.367 168.438 134.716 168.438C117.066 168.438 102.758 154.134 102.758 136.488C102.758 118.843 117.066 104.539 134.716 104.539Z" fill="#ADD9FC"/>
<path fill-rule="evenodd" clip-rule="evenodd" d="M153.146 110.38C156.832 115.593 159.034 121.974 159.034 128.804C159.034 146.464 144.695 160.754 127.076 160.754C120.198 160.754 113.861 158.597 108.646 154.867C114.445 163.045 123.974 168.393 134.762 168.393C152.427 168.393 166.72 154.058 166.72 136.443C166.675 125.704 161.326 116.177 153.146 110.38Z" fill="#7C8BB1"/>
<path fill-rule="evenodd" clip-rule="evenodd" d="M107.073 143.857C110.579 140.398 115.254 138.42 120.243 138.42C122.311 138.42 124.288 138.735 126.221 139.409C124.378 140.487 122.67 141.835 121.097 143.363C117.501 146.958 115.119 151.497 114.13 156.35C110.804 152.89 108.332 148.621 107.073 143.857ZM162.36 129.164C158.854 132.623 154.179 134.601 149.19 134.601C147.122 134.601 145.145 134.286 143.212 133.612C145.055 132.534 146.763 131.186 148.336 129.658C151.932 126.063 154.314 121.524 155.303 116.671C158.629 120.131 161.101 124.4 162.36 129.164ZM143.571 124.895C142.133 126.332 140.47 127.546 138.672 128.444C139.211 126.378 139.481 124.221 139.481 122.019C139.481 116.941 137.953 112.043 135.211 107.909C140.245 107.999 144.965 109.392 149.055 111.774C149.055 116.671 147.077 121.389 143.571 124.895ZM127.345 108.853C130.806 112.357 132.784 117.031 132.784 122.019C132.784 124.086 132.469 126.063 131.795 127.995C130.716 126.153 129.368 124.446 127.839 122.872C124.243 119.277 119.704 116.896 114.849 115.907C118.31 112.582 122.58 110.111 127.345 108.853ZM109.995 122.153C114.894 122.198 119.614 124.131 123.12 127.636C124.558 129.074 125.772 130.737 126.671 132.534C124.603 131.995 122.445 131.725 120.243 131.725C115.164 131.725 110.264 133.253 106.129 135.994C106.219 130.916 107.612 126.243 109.995 122.153ZM125.817 148.081C127.255 146.643 128.918 145.43 130.716 144.531C130.177 146.599 129.907 148.755 129.907 150.958C129.907 156.035 131.435 160.933 134.177 165.067C129.143 164.977 124.423 163.584 120.333 161.203C120.378 156.305 122.311 151.586 125.817 148.081ZM142.043 164.124C138.582 160.619 136.604 155.945 136.604 150.958C136.604 148.89 136.919 146.914 137.593 144.981C138.672 146.824 140.02 148.531 141.549 150.104C145.145 153.698 149.639 156.08 154.539 157.069C151.078 160.394 146.808 162.866 142.043 164.124ZM159.438 150.868C154.539 150.822 149.819 148.89 146.313 145.385C144.875 143.947 143.661 142.285 142.762 140.487C144.83 141.026 146.988 141.297 149.19 141.297C154.269 141.297 159.169 139.768 163.304 137.028C163.214 142.06 161.821 146.778 159.438 150.868ZM134.716 101.168C115.209 101.168 99.3867 117.031 99.3867 136.488C99.3867 155.945 115.254 171.808 134.716 171.808C154.224 171.808 170.046 155.945 170.046 136.488C170.046 117.031 154.179 101.168 134.716 101.168Z" fill="#2E3C7B"/>
<ellipse cx="134.539" cy="135.303" rx="10.6694" ry="10.6664" fill="#ADD9FC"/>
<path d="M142.709 135.071C142.709 139.708 138.948 143.469 134.308 143.469C129.667 143.469 125.906 139.708 125.906 135.071C125.906 130.433 129.667 126.672 134.308 126.672C138.948 126.672 142.709 130.433 142.709 135.071Z" stroke="#EEDE6D" stroke-width="5"/>
<path d="M91.9414 92.7402H175.856V178.564H91.9414V92.7402Z" stroke="#2E3C7B" stroke-width="6"/>
<path d="M259.177 179.033H177.254C176.326 179.033 175.584 178.291 175.584 177.363V93.6555C175.584 92.728 176.326 91.986 177.254 91.986H259.177C260.105 91.986 260.847 92.728 260.847 93.6555V177.363C260.847 178.291 260.105 179.033 259.177 179.033Z" fill="#485FAC"/>
<path d="M185.094 106.177C187.631 106.177 189.687 104.121 189.687 101.586C189.687 99.05 187.631 96.9945 185.094 96.9945C182.558 96.9945 180.502 99.05 180.502 101.586C180.502 104.121 182.558 106.177 185.094 106.177Z" fill="#2E3C7B"/>
<ellipse cx="185.141" cy="101.632" rx="1.85557" ry="1.85503" fill="#7C8BB1"/>
<path d="M185.094 175.74C187.631 175.74 189.687 173.685 189.687 171.149C189.687 168.613 187.631 166.558 185.094 166.558C182.558 166.558 180.502 168.613 180.502 171.149C180.502 173.685 182.558 175.74 185.094 175.74Z" fill="#2E3C7B"/>
<ellipse cx="185.141" cy="171.195" rx="1.85557" ry="1.85503" fill="#7C8BB1"/>
<path d="M251.43 106.177C253.967 106.177 256.023 104.121 256.023 101.586C256.023 99.05 253.967 96.9945 251.43 96.9945C248.894 96.9945 246.838 99.05 246.838 101.586C246.838 104.121 248.894 106.177 251.43 106.177Z" fill="#2E3C7B"/>
<ellipse cx="251.477" cy="101.632" rx="1.85556" ry="1.85503" fill="#7C8BB1"/>
<path d="M251.43 175.74C253.967 175.74 256.023 173.685 256.023 171.149C256.023 168.613 253.967 166.558 251.43 166.558C248.894 166.558 246.838 168.613 246.838 171.149C246.838 173.685 248.894 175.74 251.43 175.74Z" fill="#2E3C7B"/>
<ellipse cx="251.477" cy="171.195" rx="1.85556" ry="1.85503" fill="#7C8BB1"/>
<path fill-rule="evenodd" clip-rule="evenodd" d="M218.615 104.539C236.265 104.539 250.573 118.843 250.573 136.488C250.573 154.134 236.265 168.438 218.615 168.438C200.964 168.438 186.656 154.134 186.656 136.488C186.656 118.843 200.964 104.539 218.615 104.539Z" fill="#ADD9FC"/>
<path fill-rule="evenodd" clip-rule="evenodd" d="M237.044 110.38C240.73 115.593 242.933 121.974 242.933 128.804C242.933 146.464 228.594 160.754 210.974 160.754C204.097 160.754 197.759 158.597 192.545 154.867C198.343 163.045 207.872 168.393 218.66 168.393C236.325 168.393 250.619 154.058 250.619 136.443C250.574 125.704 245.225 116.177 237.044 110.38Z" fill="#7C8BB1"/>
<path fill-rule="evenodd" clip-rule="evenodd" d="M190.971 143.857C194.477 140.398 199.152 138.42 204.141 138.42C206.209 138.42 208.187 138.735 210.12 139.409C208.277 140.487 206.569 141.835 204.995 143.363C201.4 146.958 199.017 151.497 198.028 156.35C194.702 152.89 192.23 148.621 190.971 143.857ZM246.258 129.164C242.752 132.623 238.078 134.601 233.088 134.601C231.021 134.601 229.043 134.286 227.11 133.612C228.953 132.534 230.661 131.186 232.234 129.658C235.83 126.063 238.213 121.524 239.201 116.671C242.528 120.131 245 124.4 246.258 129.164ZM227.47 124.895C226.031 126.332 224.368 127.546 222.57 128.444C223.11 126.378 223.379 124.221 223.379 122.019C223.379 116.941 221.851 112.043 219.109 107.909C224.144 107.999 228.863 109.392 232.954 111.774C232.954 116.671 230.976 121.389 227.47 124.895ZM211.243 108.853C214.704 112.357 216.682 117.031 216.682 122.019C216.682 124.086 216.367 126.063 215.693 127.995C214.614 126.153 213.266 124.446 211.738 122.872C208.142 119.277 203.602 116.896 198.748 115.907C202.209 112.582 206.479 110.111 211.243 108.853ZM193.893 122.153C198.792 122.198 203.512 124.131 207.018 127.636C208.456 129.074 209.67 130.737 210.569 132.534C208.501 131.995 206.344 131.725 204.141 131.725C199.062 131.725 194.163 133.253 190.027 135.994C190.117 130.916 191.511 126.243 193.893 122.153ZM209.715 148.081C211.153 146.643 212.817 145.43 214.614 144.531C214.075 146.599 213.805 148.755 213.805 150.958C213.805 156.035 215.334 160.933 218.076 165.067C213.041 164.977 208.322 163.584 204.231 161.203C204.276 156.305 206.209 151.586 209.715 148.081ZM225.942 164.124C222.481 160.619 220.503 155.945 220.503 150.958C220.503 148.89 220.817 146.914 221.492 144.981C222.57 146.824 223.919 148.531 225.447 150.104C229.043 153.698 233.538 156.08 238.437 157.069C234.976 160.394 230.706 162.866 225.942 164.124ZM243.337 150.868C238.437 150.822 233.718 148.89 230.212 145.385C228.773 143.947 227.56 142.285 226.661 140.487C228.728 141.026 230.886 141.297 233.088 141.297C238.168 141.297 243.067 139.768 247.202 137.028C247.112 142.06 245.719 146.778 243.337 150.868ZM218.615 101.168C199.107 101.168 183.285 117.031 183.285 136.488C183.285 155.945 199.152 171.808 218.615 171.808C238.123 171.808 253.945 155.945 253.945 136.488C253.945 117.031 238.078 101.168 218.615 101.168Z" fill="#2E3C7B"/>
<ellipse cx="218.437" cy="135.303" rx="10.6694" ry="10.6664" fill="#ADD9FC"/>
<path d="M226.607 135.071C226.607 139.708 222.847 143.469 218.206 143.469C213.565 143.469 209.805 139.708 209.805 135.071C209.805 130.433 213.565 126.672 218.206 126.672C222.847 126.672 226.607 130.433 226.607 135.071Z" stroke="#EEDE6D" stroke-width="5"/>
<path d="M175.84 92.7402H259.754V178.564H175.84V92.7402Z" stroke="#2E3C7B" stroke-width="6"/>
<path d="M343.38 92.5168H261.457C260.529 92.5168 259.787 91.7748 259.787 90.8473V7.13957C259.787 6.21206 260.529 5.47006 261.457 5.47006H343.38C344.308 5.47006 345.05 6.21206 345.05 7.13957V90.8473C345.05 91.7748 344.308 92.5168 343.38 92.5168Z" fill="#485FAC"/>
<path d="M269.298 19.661C271.834 19.661 273.89 17.6054 273.89 15.0698C273.89 12.5342 271.834 10.4786 269.298 10.4786C266.761 10.4786 264.705 12.5342 264.705 15.0698C264.705 17.6054 266.761 19.661 269.298 19.661Z" fill="#2E3C7B"/>
<ellipse cx="269.344" cy="15.1162" rx="1.85556" ry="1.85502" fill="#7C8BB1"/>
<path d="M269.298 89.2242C271.834 89.2242 273.89 87.1687 273.89 84.6331C273.89 82.0974 271.834 80.0419 269.298 80.0419C266.761 80.0419 264.705 82.0974 264.705 84.6331C264.705 87.1687 266.761 89.2242 269.298 89.2242Z" fill="#2E3C7B"/>
<ellipse cx="269.344" cy="84.6794" rx="1.85556" ry="1.85503" fill="#7C8BB1"/>
<path d="M335.634 19.661C338.17 19.661 340.226 17.6054 340.226 15.0698C340.226 12.5342 338.17 10.4786 335.634 10.4786C333.097 10.4786 331.041 12.5342 331.041 15.0698C331.041 17.6054 333.097 19.661 335.634 19.661Z" fill="#2E3C7B"/>
<ellipse cx="335.68" cy="15.1162" rx="1.85559" ry="1.85502" fill="#7C8BB1"/>
<path d="M335.634 89.2242C338.17 89.2242 340.226 87.1687 340.226 84.6331C340.226 82.0974 338.17 80.0419 335.634 80.0419C333.097 80.0419 331.041 82.0974 331.041 84.6331C331.041 87.1687 333.097 89.2242 335.634 89.2242Z" fill="#2E3C7B"/>
<ellipse cx="335.68" cy="84.6794" rx="1.85559" ry="1.85503" fill="#7C8BB1"/>
<path fill-rule="evenodd" clip-rule="evenodd" d="M302.818 18.0228C320.469 18.0228 334.777 32.3273 334.777 49.9723C334.777 67.6177 320.469 81.9217 302.818 81.9217C285.167 81.9217 270.859 67.6177 270.859 49.9723C270.859 32.3273 285.167 18.0228 302.818 18.0228Z" fill="#ADD9FC"/>
<path fill-rule="evenodd" clip-rule="evenodd" d="M321.247 23.8645C324.933 29.077 327.136 35.4579 327.136 42.2882C327.136 59.948 312.797 74.2376 295.177 74.2376C288.3 74.2376 281.962 72.0807 276.748 68.351C282.546 76.5294 292.076 81.8767 302.863 81.8767C320.528 81.8767 334.822 67.5422 334.822 49.9273C334.777 39.1876 329.428 29.6612 321.247 23.8645Z" fill="#7C8BB1"/>
<path fill-rule="evenodd" clip-rule="evenodd" d="M275.175 57.3415C278.681 53.8819 283.355 51.9043 288.345 51.9043C290.412 51.9043 292.39 52.2193 294.323 52.8933C292.48 53.9714 290.772 55.3194 289.199 56.8472C285.603 60.4421 283.22 64.9807 282.232 69.8342C278.905 66.3741 276.433 62.1052 275.175 57.3415ZM330.462 42.648C326.956 46.1076 322.281 48.0848 317.292 48.0848C315.224 48.0848 313.246 47.7702 311.313 47.0962C313.156 46.0182 314.864 44.6701 316.438 43.1418C320.034 39.5469 322.416 35.0084 323.405 30.1553C326.731 33.6154 329.203 37.8843 330.462 42.648ZM311.673 38.379C310.235 39.8165 308.572 41.0298 306.774 41.9285C307.313 39.8619 307.583 37.705 307.583 35.5027C307.583 30.4254 306.054 25.5269 303.313 21.3928C308.347 21.4827 313.066 22.8757 317.157 25.2578C317.157 30.1553 315.179 34.8736 311.673 38.379ZM295.446 22.3369C298.908 25.8415 300.885 30.5148 300.885 35.5027C300.885 37.5697 300.571 39.5469 299.896 41.4792C298.818 39.6372 297.469 37.9297 295.941 36.3565C292.345 32.7616 287.805 30.38 282.951 29.3914C286.412 26.0662 290.682 23.5947 295.446 22.3369ZM278.096 35.6375C282.996 35.6824 287.715 37.6151 291.221 41.1197C292.66 42.5581 293.873 44.2207 294.772 46.0181C292.705 45.4789 290.547 45.2089 288.345 45.2089C283.265 45.2089 278.366 46.7367 274.231 49.4778C274.321 44.4 275.714 39.7271 278.096 35.6375ZM293.918 61.5655C295.357 60.1276 297.02 58.9143 298.818 58.0156C298.278 60.0831 298.009 62.2396 298.009 64.4419C298.009 69.5196 299.537 74.4172 302.279 78.5513C297.244 78.4614 292.525 77.0684 288.434 74.6873C288.479 69.7888 290.412 65.0705 293.918 61.5655ZM310.145 77.6081C306.684 74.1031 304.706 69.4293 304.706 64.4419C304.706 62.3744 305.021 60.3976 305.695 58.4649C306.774 60.3078 308.122 62.0149 309.65 63.5876C313.246 67.1825 317.741 69.5641 322.641 70.5527C319.179 73.8784 314.909 76.3499 310.145 77.6081ZM327.54 64.352C322.641 64.3066 317.921 62.3744 314.415 58.8694C312.977 57.4314 311.763 55.7688 310.864 53.9714C312.932 54.5106 315.089 54.7806 317.292 54.7806C322.371 54.7806 327.27 53.2524 331.406 50.5117C331.316 55.5441 329.922 60.2624 327.54 64.352ZM302.818 14.6524C283.31 14.6524 267.488 30.5148 267.488 49.9725C267.488 69.4293 283.355 85.2917 302.818 85.2917C322.326 85.2917 338.148 69.4293 338.148 49.9725C338.148 30.5148 322.281 14.6524 302.818 14.6524Z" fill="#2E3C7B"/>
<ellipse cx="302.64" cy="48.7866" rx="10.6694" ry="10.6664" fill="#ADD9FC"/>
<path d="M310.811 48.5548C310.811 53.1923 307.05 56.953 302.409 56.953C297.769 56.953 294.008 53.1923 294.008 48.5548C294.008 43.9173 297.769 40.1566 302.409 40.1566C307.05 40.1566 310.811 43.9173 310.811 48.5548Z" stroke="#EEDE6D" stroke-width="5"/>
<path d="M260.084 6.2243H342.364C343.265 6.2243 343.998 6.95576 343.998 7.86185V90.4102C343.998 91.3163 343.265 92.0478 342.364 92.0478H260.084V6.2243Z" stroke="#2E3C7B" stroke-width="6"/>
<path d="M343.38 179.033H261.457C260.529 179.033 259.787 178.291 259.787 177.363V93.6555C259.787 92.728 260.529 91.986 261.457 91.986H343.38C344.308 91.986 345.05 92.728 345.05 93.6555V177.363C345.05 178.291 344.308 179.033 343.38 179.033Z" fill="#485FAC"/>
<path d="M269.298 106.177C271.834 106.177 273.89 104.121 273.89 101.586C273.89 99.05 271.834 96.9945 269.298 96.9945C266.761 96.9945 264.705 99.05 264.705 101.586C264.705 104.121 266.761 106.177 269.298 106.177Z" fill="#2E3C7B"/>
<ellipse cx="269.344" cy="101.632" rx="1.85556" ry="1.85503" fill="#7C8BB1"/>
<path d="M269.298 175.74C271.834 175.74 273.89 173.685 273.89 171.149C273.89 168.613 271.834 166.558 269.298 166.558C266.761 166.558 264.705 168.613 264.705 171.149C264.705 173.685 266.761 175.74 269.298 175.74Z" fill="#2E3C7B"/>
<ellipse cx="269.344" cy="171.195" rx="1.85556" ry="1.85503" fill="#7C8BB1"/>
<path d="M335.634 106.177C338.17 106.177 340.226 104.121 340.226 101.586C340.226 99.05 338.17 96.9945 335.634 96.9945C333.097 96.9945 331.041 99.05 331.041 101.586C331.041 104.121 333.097 106.177 335.634 106.177Z" fill="#2E3C7B"/>
<ellipse cx="335.68" cy="101.632" rx="1.85559" ry="1.85503" fill="#7C8BB1"/>
<path d="M335.634 175.74C338.17 175.74 340.226 173.685 340.226 171.149C340.226 168.613 338.17 166.558 335.634 166.558C333.097 166.558 331.041 168.613 331.041 171.149C331.041 173.685 333.097 175.74 335.634 175.74Z" fill="#2E3C7B"/>
<ellipse cx="335.68" cy="171.195" rx="1.85559" ry="1.85503" fill="#7C8BB1"/>
<path fill-rule="evenodd" clip-rule="evenodd" d="M302.818 104.539C320.469 104.539 334.777 118.843 334.777 136.488C334.777 154.134 320.469 168.438 302.818 168.438C285.167 168.438 270.859 154.134 270.859 136.488C270.859 118.843 285.167 104.539 302.818 104.539Z" fill="#ADD9FC"/>
<path fill-rule="evenodd" clip-rule="evenodd" d="M321.247 110.38C324.933 115.593 327.136 121.974 327.136 128.804C327.136 146.464 312.797 160.754 295.177 160.754C288.3 160.754 281.962 158.597 276.748 154.867C282.546 163.045 292.076 168.393 302.863 168.393C320.528 168.393 334.822 154.058 334.822 136.443C334.777 125.704 329.428 116.177 321.247 110.38Z" fill="#7C8BB1"/>
<path fill-rule="evenodd" clip-rule="evenodd" d="M275.175 143.857C278.681 140.398 283.355 138.42 288.345 138.42C290.412 138.42 292.39 138.735 294.323 139.409C292.48 140.487 290.772 141.835 289.199 143.363C285.603 146.958 283.22 151.497 282.232 156.35C278.905 152.89 276.433 148.621 275.175 143.857ZM330.462 129.164C326.956 132.623 322.281 134.601 317.292 134.601C315.224 134.601 313.246 134.286 311.313 133.612C313.156 132.534 314.864 131.186 316.438 129.658C320.034 126.063 322.416 121.524 323.405 116.671C326.731 120.131 329.203 124.4 330.462 129.164ZM311.673 124.895C310.235 126.332 308.572 127.546 306.774 128.444C307.313 126.378 307.583 124.221 307.583 122.019C307.583 116.941 306.054 112.043 303.313 107.909C308.347 107.999 313.066 109.392 317.157 111.774C317.157 116.671 315.179 121.389 311.673 124.895ZM295.446 108.853C298.908 112.357 300.885 117.031 300.885 122.019C300.885 124.086 300.571 126.063 299.896 127.995C298.818 126.153 297.469 124.446 295.941 122.872C292.345 119.277 287.805 116.896 282.951 115.907C286.412 112.582 290.682 110.111 295.446 108.853ZM278.096 122.153C282.996 122.198 287.715 124.131 291.221 127.636C292.66 129.074 293.873 130.737 294.772 132.534C292.705 131.995 290.547 131.725 288.345 131.725C283.265 131.725 278.366 133.253 274.231 135.994C274.321 130.916 275.714 126.243 278.096 122.153ZM293.918 148.081C295.357 146.643 297.02 145.43 298.818 144.531C298.278 146.599 298.009 148.755 298.009 150.958C298.009 156.035 299.537 160.933 302.279 165.067C297.244 164.977 292.525 163.584 288.434 161.203C288.479 156.305 290.412 151.586 293.918 148.081ZM310.145 164.124C306.684 160.619 304.706 155.945 304.706 150.958C304.706 148.89 305.021 146.914 305.695 144.981C306.774 146.824 308.122 148.531 309.65 150.104C313.246 153.698 317.741 156.08 322.641 157.069C319.179 160.394 314.909 162.866 310.145 164.124ZM327.54 150.868C322.641 150.822 317.921 148.89 314.415 145.385C312.977 143.947 311.763 142.285 310.864 140.487C312.932 141.026 315.089 141.297 317.292 141.297C322.371 141.297 327.27 139.768 331.406 137.028C331.316 142.06 329.922 146.778 327.54 150.868ZM302.818 101.168C283.31 101.168 267.488 117.031 267.488 136.488C267.488 155.945 283.355 171.808 302.818 171.808C322.326 171.808 338.148 155.945 338.148 136.488C338.148 117.031 322.281 101.168 302.818 101.168Z" fill="#2E3C7B"/>
<ellipse cx="302.64" cy="135.303" rx="10.6694" ry="10.6664" fill="#ADD9FC"/>
<path d="M310.811 135.071C310.811 139.708 307.05 143.469 302.409 143.469C297.769 143.469 294.008 139.708 294.008 135.071C294.008 130.433 297.769 126.672 302.409 126.672C307.05 126.672 310.811 130.433 310.811 135.071Z" stroke="#EEDE6D" stroke-width="5"/>
<path d="M260.084 92.7402H342.364C343.265 92.7402 343.998 93.4717 343.998 94.3778V176.926C343.998 177.832 343.265 178.564 342.364 178.564H260.084V92.7402Z" stroke="#2E3C7B" stroke-width="6"/>
</svg>
