<svg width="188" height="99" viewBox="0 0 188 99" fill="none" xmlns="http://www.w3.org/2000/svg">
<path d="M93.6446 96.1484H5.66266C4.66626 96.1484 3.86914 95.3567 3.86914 94.3671V5.05724C3.86914 4.06766 4.66626 3.276 5.66266 3.276H93.6446C94.641 3.276 95.4382 4.06766 95.4382 5.05724V94.3671C95.4382 95.3567 94.641 96.1484 93.6446 96.1484Z" fill="#485FAC"/>
<path d="M14.0826 18.4166C16.8065 18.4166 19.0147 16.2235 19.0147 13.5182C19.0147 10.8129 16.8065 8.61975 14.0826 8.61975C11.3586 8.61975 9.15039 10.8129 9.15039 13.5182C9.15039 16.2235 11.3586 18.4166 14.0826 18.4166Z" fill="#434459"/>
<ellipse cx="14.1315" cy="13.5677" rx="1.9928" ry="1.97917" fill="#7C8BB1"/>
<path d="M14.0826 90.8754C16.8065 90.8754 19.0147 88.6823 19.0147 85.9769C19.0147 83.2716 16.8065 81.0785 14.0826 81.0785C11.3586 81.0785 9.15039 83.2716 9.15039 85.9769C9.15039 88.6823 11.3586 90.8754 14.0826 90.8754Z" fill="#434459"/>
<ellipse cx="14.1315" cy="86.0264" rx="1.9928" ry="1.97918" fill="#7C8BB1"/>
<path d="M83.563 18.4166C86.287 18.4166 88.4952 16.2235 88.4952 13.5182C88.4952 10.8129 86.287 8.61975 83.563 8.61975C80.8391 8.61975 78.6309 10.8129 78.6309 13.5182C78.6309 16.2235 80.8391 18.4166 83.563 18.4166Z" fill="#434459"/>
<ellipse cx="83.6139" cy="13.5677" rx="1.99279" ry="1.97917" fill="#7C8BB1"/>
<path d="M83.563 90.8754C86.287 90.8754 88.4952 88.6823 88.4952 85.9769C88.4952 83.2716 86.287 81.0785 83.563 81.0785C80.8391 81.0785 78.6309 83.2716 78.6309 85.9769C78.6309 88.6823 80.8391 90.8754 83.563 90.8754Z" fill="#434459"/>
<ellipse cx="83.6139" cy="86.0264" rx="1.99279" ry="1.97918" fill="#7C8BB1"/>
<path fill-rule="evenodd" clip-rule="evenodd" d="M50.0822 16.6688C69.0382 16.6688 84.4045 31.9306 84.4045 50.7565C84.4045 69.5828 69.0382 84.8441 50.0822 84.8441C31.1262 84.8441 15.7598 69.5828 15.7598 50.7565C15.7598 31.9306 31.1262 16.6688 50.0822 16.6688Z" fill="#ADD9FC"/>
<path fill-rule="evenodd" clip-rule="evenodd" d="M69.8746 22.9015C73.8331 28.4629 76.1985 35.2708 76.1985 42.5582C76.1985 61.3999 60.7993 76.6458 41.8761 76.6458C34.4903 76.6458 27.6837 74.3446 22.084 70.3653C28.3113 79.0909 38.5452 84.7962 50.1308 84.7962C69.1023 84.7962 84.4532 69.5023 84.4532 50.7086C84.4049 39.2501 78.6604 29.0862 69.8746 22.9015Z" fill="#7C8BB1"/>
<path fill-rule="evenodd" clip-rule="evenodd" d="M20.3934 58.6189C24.1587 54.9278 29.1792 52.8178 34.5375 52.8178C36.7581 52.8178 38.8821 53.1539 40.9579 53.873C38.9787 55.0232 37.1443 56.4615 35.4547 58.0916C31.5928 61.927 29.0344 66.7693 27.9723 71.9476C24.4001 68.256 21.7451 63.7014 20.3934 58.6189ZM79.7697 42.942C76.0044 46.6331 70.9839 48.7426 65.6256 48.7426C63.405 48.7426 61.281 48.407 59.2052 47.6879C61.1844 46.5377 63.0188 45.0994 64.7084 43.4689C68.5703 39.6334 71.1288 34.7912 72.1908 29.6133C75.763 33.3049 78.4181 37.8595 79.7697 42.942ZM59.5914 38.3874C58.0467 39.9211 56.2606 41.2155 54.3296 42.1744C54.9089 39.9695 55.1985 37.6682 55.1985 35.3185C55.1985 29.9014 53.5573 24.6751 50.6126 20.2644C56.0192 20.3602 61.0879 21.8465 65.4808 24.388C65.4808 29.6133 63.3568 34.6473 59.5914 38.3874ZM42.1647 21.2716C45.8818 25.0107 48.0058 29.9968 48.0058 35.3185C48.0058 37.5239 47.6679 39.6334 46.9438 41.695C45.7852 39.7298 44.337 37.9079 42.6957 36.2295C38.8339 32.394 33.9582 29.853 28.7447 28.7983C32.4618 25.2505 37.0477 22.6136 42.1647 21.2716ZM23.5312 35.4624C28.793 35.5103 33.8617 37.5723 37.627 41.3114C39.1718 42.8461 40.4752 44.62 41.4406 46.5377C39.22 45.9624 36.9029 45.6743 34.5375 45.6743C29.0826 45.6743 23.8208 47.3043 19.3797 50.2289C19.4762 44.8113 20.9727 39.8257 23.5312 35.4624ZM40.5234 63.1256C42.0682 61.5914 43.8543 60.297 45.7852 59.3381C45.206 61.544 44.9163 63.8448 44.9163 66.1945C44.9163 71.612 46.5576 76.8374 49.5023 81.2482C44.0957 81.1523 39.027 79.666 34.6341 77.1255C34.6823 71.8992 36.7581 66.8652 40.5234 63.1256ZM57.9501 80.2418C54.2331 76.5023 52.109 71.5157 52.109 66.1945C52.109 63.9886 52.447 61.8796 53.1711 59.8175C54.3296 61.7837 55.7778 63.605 57.4191 65.2831C61.281 69.1185 66.1083 71.6595 71.3701 72.7143C67.6531 76.2625 63.0671 78.8994 57.9501 80.2418ZM76.6319 66.0986C71.3701 66.0501 66.3014 63.9886 62.5361 60.249C60.9914 58.7148 59.688 56.9409 58.7225 55.0232C60.9431 55.5985 63.2602 55.8867 65.6256 55.8867C71.0805 55.8867 76.3423 54.2561 80.7835 51.3321C80.6869 56.7012 79.1904 61.7353 76.6319 66.0986ZM50.0816 13.0729C29.1309 13.0729 12.1387 29.9968 12.1387 50.7567C12.1387 71.5157 29.1792 88.4396 50.0816 88.4396C71.0322 88.4396 88.0245 71.5157 88.0245 50.7567C88.0245 29.9968 70.9839 13.0729 50.0816 13.0729Z" fill="#2E3C7B"/>
<ellipse cx="49.8902" cy="49.4915" rx="11.4586" ry="11.3802" fill="#ADD9FC"/>
<path d="M58.849 49.2442C58.849 54.2691 54.7427 58.3718 49.6413 58.3718C44.5398 58.3718 40.4336 54.2691 40.4336 49.2442C40.4336 44.2193 44.5398 40.1166 49.6413 40.1166C54.7427 40.1166 58.849 44.2193 58.849 49.2442Z" stroke="#EEDE6D" stroke-width="5"/>
<path d="M3.88086 5.82792C3.88086 4.76899 4.74932 3.88 5.85843 3.88H94.4458V95.8488H5.85843C4.74932 95.8488 3.88086 94.9598 3.88086 93.9008V5.82792Z" stroke="#2E3C7B" stroke-width="6"/>
<path d="M185.047 96.1485H97.065C96.0686 96.1485 95.2715 95.3568 95.2715 94.3672V5.05736C95.2715 4.06778 96.0686 3.27612 97.065 3.27612H185.047C186.043 3.27612 186.841 4.06778 186.841 5.05736V94.3672C186.841 95.3568 186.043 96.1485 185.047 96.1485Z" fill="#485FAC"/>
<path d="M105.485 18.4167C108.209 18.4167 110.417 16.2236 110.417 13.5183C110.417 10.813 108.209 8.61987 105.485 8.61987C102.761 8.61987 100.553 10.813 100.553 13.5183C100.553 16.2236 102.761 18.4167 105.485 18.4167Z" fill="#434459"/>
<ellipse cx="105.534" cy="13.5678" rx="1.99279" ry="1.97917" fill="#7C8BB1"/>
<path d="M105.485 90.8755C108.209 90.8755 110.417 88.6824 110.417 85.977C110.417 83.2717 108.209 81.0786 105.485 81.0786C102.761 81.0786 100.553 83.2717 100.553 85.977C100.553 88.6824 102.761 90.8755 105.485 90.8755Z" fill="#434459"/>
<ellipse cx="105.536" cy="86.0265" rx="1.99279" ry="1.97918" fill="#7C8BB1"/>
<path d="M174.086 18.4167C176.81 18.4167 179.019 16.2236 179.019 13.5183C179.019 10.813 176.81 8.61987 174.086 8.61987C171.362 8.61987 169.154 10.813 169.154 13.5183C169.154 16.2236 171.362 18.4167 174.086 18.4167Z" fill="#434459"/>
<ellipse cx="174.137" cy="13.5678" rx="1.9928" ry="1.97917" fill="#7C8BB1"/>
<path d="M174.086 90.8755C176.81 90.8755 179.019 88.6824 179.019 85.977C179.019 83.2717 176.81 81.0786 174.086 81.0786C171.362 81.0786 169.154 83.2717 169.154 85.977C169.154 88.6824 171.362 90.8755 174.086 90.8755Z" fill="#434459"/>
<ellipse cx="174.137" cy="86.0265" rx="1.9928" ry="1.97918" fill="#7C8BB1"/>
<path fill-rule="evenodd" clip-rule="evenodd" d="M141.484 16.6689C160.44 16.6689 175.807 31.9307 175.807 50.7566C175.807 69.583 160.44 84.8443 141.484 84.8443C122.528 84.8443 107.162 69.583 107.162 50.7566C107.162 31.9307 122.528 16.6689 141.484 16.6689Z" fill="#ADD9FC"/>
<path fill-rule="evenodd" clip-rule="evenodd" d="M161.277 22.9016C165.235 28.463 167.601 35.271 167.601 42.5583C167.601 61.4 152.202 76.646 133.278 76.646C125.893 76.646 119.086 74.3447 113.486 70.3654C119.714 79.0911 129.948 84.7963 141.533 84.7963C160.505 84.7963 175.856 69.5024 175.856 50.7087C175.807 39.2503 170.063 29.0863 161.277 22.9016Z" fill="#7C8BB1"/>
<path fill-rule="evenodd" clip-rule="evenodd" d="M111.796 58.6191C115.561 54.9279 120.582 52.8179 125.94 52.8179C128.16 52.8179 130.284 53.154 132.36 53.8732C130.381 55.0233 128.547 56.4616 126.857 58.0917C122.995 61.9272 120.437 66.7694 119.375 71.9478C115.802 68.2561 113.147 63.7015 111.796 58.6191ZM171.172 42.9421C167.407 46.6333 162.386 48.7428 157.028 48.7428C154.807 48.7428 152.683 48.4072 150.608 47.688C152.587 46.5379 154.421 45.0996 156.111 43.469C159.973 39.6335 162.531 34.7913 163.593 29.6134C167.165 33.305 169.82 37.8596 171.172 42.9421ZM150.994 38.3875C149.449 39.9212 147.663 41.2157 145.732 42.1745C146.311 39.9696 146.601 37.6684 146.601 35.3187C146.601 29.9016 144.96 24.6753 142.015 20.2645C147.422 20.3604 152.49 21.8466 156.883 24.3881C156.883 29.6134 154.759 34.6475 150.994 38.3875ZM133.567 21.2718C137.284 25.0109 139.408 29.997 139.408 35.3187C139.408 37.524 139.07 39.6335 138.346 41.6951C137.188 39.7299 135.739 37.9081 134.098 36.2296C130.236 32.3941 125.361 29.8531 120.147 28.7984C123.864 25.2506 128.45 22.6137 133.567 21.2718ZM114.934 35.4625C120.195 35.5104 125.264 37.5725 129.029 41.3116C130.574 42.8462 131.878 44.6201 132.843 46.5379C130.622 45.9625 128.305 45.6744 125.94 45.6744C120.485 45.6744 115.223 47.3045 110.782 50.229C110.879 44.8114 112.375 39.8258 114.934 35.4625ZM131.926 63.1257C133.471 61.5916 135.257 60.2971 137.188 59.3382C136.608 61.5441 136.319 63.8449 136.319 66.1946C136.319 71.6122 137.96 76.8375 140.905 81.2483C135.498 81.1524 130.429 79.6662 126.036 77.1256C126.085 71.8993 128.16 66.8653 131.926 63.1257ZM149.352 80.242C145.635 76.5024 143.511 71.5158 143.511 66.1946C143.511 63.9887 143.849 61.8797 144.573 59.8176C145.732 61.7838 147.18 63.6052 148.821 65.2832C152.683 69.1186 157.511 71.6596 162.772 72.7144C159.055 76.2627 154.469 78.8996 149.352 80.242ZM168.034 66.0987C162.772 66.0503 157.704 63.9887 153.938 60.2491C152.394 58.715 151.09 56.9411 150.125 55.0233C152.345 55.5986 154.663 55.8868 157.028 55.8868C162.483 55.8868 167.745 54.2562 172.186 51.3322C172.089 56.7013 170.593 61.7354 168.034 66.0987ZM141.484 13.073C120.533 13.073 103.541 29.997 103.541 50.7569C103.541 71.5158 120.582 88.4398 141.484 88.4398C162.435 88.4398 179.427 71.5158 179.427 50.7569C179.427 29.997 162.386 13.073 141.484 13.073Z" fill="#2E3C7B"/>
<ellipse cx="141.293" cy="49.4917" rx="11.4586" ry="11.3802" fill="#ADD9FC"/>
<path d="M150.251 49.2443C150.251 54.2692 146.145 58.3719 141.044 58.3719C135.942 58.3719 131.836 54.2692 131.836 49.2443C131.836 44.2194 135.942 40.1167 141.044 40.1167C146.145 40.1167 150.251 44.2194 150.251 49.2443Z" stroke="#EEDE6D" stroke-width="5"/>
<path d="M93.5645 5.88013C93.5645 4.77556 94.4599 3.88013 95.5645 3.88013H182.129C183.234 3.88013 184.129 4.77555 184.129 5.88013V93.8489C184.129 94.9535 183.234 95.8489 182.129 95.8489H95.5644C94.4599 95.8489 93.5645 94.9535 93.5645 93.8489V5.88013Z" stroke="#2E3C7B" stroke-width="6"/>
</svg>
