<svg width="264" height="188" viewBox="0 0 264 188" fill="none" xmlns="http://www.w3.org/2000/svg">
<path fill-rule="evenodd" clip-rule="evenodd" d="M241.656 12.1827L241.723 142.804C241.723 151.518 234.662 158.564 225.928 158.564H23.9824V170.25H235.699C245.504 170.25 253.468 162.303 253.468 152.52L253.401 28.8442C253.367 21.1646 248.482 14.6536 241.656 12.1827Z" fill="#2E3C7B"/>
<path fill-rule="evenodd" clip-rule="evenodd" d="M242.56 143.737L242.493 12.3812C240.619 11.7134 238.578 11.3127 236.403 11.3127H23.916L23.9829 159.597H226.732C235.466 159.597 242.56 152.485 242.56 143.737Z" fill="#485FAC"/>
<rect x="31.9473" y="67.8769" width="36.7572" height="4.20464" fill="#2E3C7B"/>
<rect x="31.998" y="71.3631" width="36.7572" height="0.840912" fill="#0F204E"/>
<rect x="31.9473" y="62.5345" width="36.7572" height="4.20464" fill="#2E3C7B"/>
<rect x="31.998" y="66.0207" width="36.7572" height="0.840912" fill="#0F204E"/>
<rect x="31.9473" y="57.1922" width="36.7572" height="4.20464" fill="#2E3C7B"/>
<rect x="31.998" y="60.6783" width="36.7572" height="0.840927" fill="#0F204E"/>
<rect x="31.9473" y="51.8498" width="36.7572" height="4.20465" fill="#2E3C7B"/>
<rect x="31.998" y="55.3359" width="36.7572" height="0.840935" fill="#0F204E"/>
<rect x="31.9473" y="46.5075" width="36.7572" height="4.20465" fill="#2E3C7B"/>
<rect x="31.998" y="49.9937" width="36.7572" height="0.840919" fill="#0F204E"/>
<rect x="31.9473" y="41.1652" width="36.7572" height="4.20462" fill="#2E3C7B"/>
<rect x="31.998" y="44.6513" width="36.7572" height="0.840904" fill="#0F204E"/>
<rect x="31.9473" y="73.343" width="36.7572" height="4.20464" fill="#2E3C7B"/>
<rect x="31.998" y="76.8291" width="36.7572" height="0.840904" fill="#0F204E"/>
<rect x="31.9473" y="78.809" width="36.7572" height="4.20463" fill="#2E3C7B"/>
<rect x="31.998" y="82.2951" width="36.7572" height="0.840919" fill="#0F204E"/>
<rect x="31.9473" y="84.275" width="36.7572" height="4.20465" fill="#2E3C7B"/>
<rect x="31.998" y="87.7612" width="36.7572" height="0.840935" fill="#0F204E"/>
<rect x="31.9473" y="89.7408" width="36.7572" height="4.20465" fill="#2E3C7B"/>
<rect x="31.998" y="93.227" width="36.7572" height="0.840919" fill="#0F204E"/>
<ellipse cx="37.6366" cy="121.634" rx="4.01549" ry="4.00675" fill="#EEDE6D"/>
<ellipse cx="51.0214" cy="121.634" rx="4.0155" ry="4.00675" fill="#EEDE6D"/>
<ellipse cx="64.4061" cy="121.634" rx="4.01549" ry="4.00675" fill="#EEDE6D"/>
<rect x="32.6172" y="95.2566" width="36.1394" height="18.0305" fill="#2E3C7B"/>
<path fill-rule="evenodd" clip-rule="evenodd" d="M111.804 21.8454C127.699 21.8454 140.585 34.7031 140.585 50.5635C140.585 66.4243 127.699 79.2816 111.804 79.2816C95.9087 79.2816 83.0234 66.4243 83.0234 50.5635C83.0234 34.7031 95.9087 21.8454 111.804 21.8454Z" fill="#ADD9FC"/>
<path fill-rule="evenodd" clip-rule="evenodd" d="M128.4 27.0963C131.72 31.7817 133.703 37.5173 133.703 43.6567C133.703 59.5304 120.79 72.3748 104.923 72.3748C98.7293 72.3748 93.0217 70.436 88.3262 67.0836C93.548 74.4348 102.13 79.2413 111.844 79.2413C127.753 79.2413 140.625 66.3565 140.625 50.5232C140.585 40.8697 135.768 32.3068 128.4 27.0963Z" fill="#7C8BB1"/>
<path fill-rule="evenodd" clip-rule="evenodd" d="M98.7705 52.3002C94.2774 52.3002 90.0676 54.0778 86.9102 57.1875C88.0436 61.4694 90.2699 65.3065 93.2654 68.4166C94.1559 64.054 96.3013 59.9745 99.5396 56.7432C100.647 55.6697 101.829 54.6949 103.085 53.8576C104.046 55.7321 105.607 57.2494 107.515 58.1572C106.159 58.9174 104.9 59.8767 103.79 60.9843C100.633 64.1348 98.892 68.3758 98.8515 72.7789C102.535 74.9192 106.785 76.1713 111.319 76.2521C108.85 72.5361 107.474 68.1339 107.474 63.5697C107.474 61.8023 107.667 60.0678 108.054 58.3937C109.164 58.8398 110.375 59.0854 111.645 59.0854C112.536 59.0854 113.398 58.9644 114.217 58.7379C113.733 60.3031 113.505 61.9036 113.505 63.5697C113.505 68.0527 115.286 72.2538 118.403 75.4043C122.694 74.2734 126.539 72.0518 129.656 69.0625C125.244 68.1739 121.196 66.0332 117.958 62.8019C116.696 61.5061 115.571 60.1089 114.644 58.6092C116.63 57.9587 118.33 56.6797 119.509 55.0079C120.255 56.2988 121.183 57.4981 122.248 58.5608C125.406 61.7113 129.656 63.4481 134.068 63.4889C136.214 59.8129 137.468 55.5719 137.549 51.0485C133.825 53.5119 129.413 54.8856 124.839 54.8856C123.164 54.8856 121.517 54.7124 119.924 54.3665C120.768 52.9395 121.253 51.2751 121.253 49.4979C121.253 49.1524 121.235 48.8113 121.199 48.4753C122.384 48.7404 123.594 48.8669 124.839 48.8669C129.332 48.8669 133.542 47.0897 136.699 43.98C135.566 39.6981 133.34 35.861 130.344 32.7509C129.454 37.1131 127.308 41.1926 124.07 44.4239C123.083 45.3809 122.037 46.2592 120.932 47.0317C120.394 45.0071 119.208 43.2456 117.609 41.9809C118.38 41.4301 119.107 40.8136 119.779 40.1428C122.937 36.9919 124.718 32.7509 124.718 28.3486C121.034 26.2075 116.784 24.9554 112.25 24.8746C114.719 28.5906 116.096 32.9936 116.096 37.5574C116.096 38.6806 116.017 39.7907 115.861 40.8803C114.588 40.259 113.157 39.9103 111.645 39.9103C111.042 39.9103 110.453 39.9656 109.881 40.0715C110.004 39.2479 110.064 38.4112 110.064 37.5574C110.064 33.074 108.283 28.8733 105.166 25.7232C100.875 26.8538 97.0299 29.0753 93.9131 32.0642C98.2848 32.9528 102.373 35.0935 105.611 38.3248C106.363 39.097 107.066 39.9051 107.708 40.7493C105.818 41.5975 104.252 43.0379 103.248 44.8336C102.685 44.042 102.052 43.2955 101.361 42.6063C98.2038 39.4562 93.9535 37.719 89.5413 37.6786C87.3959 41.3546 86.1411 45.5548 86.0601 50.1191C89.7842 47.6552 94.1964 46.2819 98.7705 46.2819C100.03 46.2819 101.274 46.3798 102.491 46.5755C102.196 47.4968 102.036 48.4788 102.036 49.4979C102.036 50.6339 102.234 51.7239 102.598 52.7352C101.353 52.4406 100.082 52.3002 98.7705 52.3002ZM79.9883 50.5638C79.9883 33.074 94.2369 18.8159 111.805 18.8159C129.332 18.8159 143.621 33.074 143.621 50.5638C143.621 68.0527 129.373 82.3108 111.805 82.3108C94.2774 82.3108 79.9883 68.0527 79.9883 50.5638Z" fill="#434459"/>
<path d="M118.754 49.2894C118.754 53.3138 115.483 56.5854 111.436 56.5854C107.39 56.5854 104.119 53.3138 104.119 49.2894C104.119 45.2651 107.39 41.9934 111.436 41.9934C115.483 41.9934 118.754 45.2651 118.754 49.2894Z" stroke="#EEDE6D" stroke-width="5"/>
<path fill-rule="evenodd" clip-rule="evenodd" d="M111.804 89.3753C127.699 89.3753 140.585 102.233 140.585 118.093C140.585 133.954 127.699 146.812 111.804 146.812C95.9087 146.812 83.0234 133.954 83.0234 118.093C83.0234 102.233 95.9087 89.3753 111.804 89.3753Z" fill="#ADD9FC"/>
<path fill-rule="evenodd" clip-rule="evenodd" d="M128.4 94.6262C131.72 99.3116 133.703 105.047 133.703 111.187C133.703 127.06 120.79 139.905 104.923 139.905C98.7293 139.905 93.0217 137.966 88.3262 134.613C93.548 141.965 102.13 146.771 111.844 146.771C127.753 146.771 140.625 133.886 140.625 118.053C140.585 108.4 135.768 99.8367 128.4 94.6262Z" fill="#7C8BB1"/>
<path fill-rule="evenodd" clip-rule="evenodd" d="M98.7705 119.83C94.2774 119.83 90.0676 121.608 86.9102 124.717C88.0436 128.999 90.2699 132.836 93.2654 135.947C94.1559 131.584 96.3013 127.504 99.5396 124.273C100.647 123.2 101.829 122.225 103.085 121.387C104.046 123.262 105.607 124.779 107.515 125.687C106.159 126.447 104.9 127.407 103.79 128.514C100.633 131.665 98.892 135.906 98.8515 140.309C102.535 142.449 106.785 143.701 111.319 143.782C108.85 140.066 107.474 135.664 107.474 131.1C107.474 129.332 107.667 127.598 108.054 125.924C109.164 126.37 110.375 126.615 111.645 126.615C112.536 126.615 113.398 126.494 114.217 126.268C113.733 127.833 113.505 129.433 113.505 131.1C113.505 135.583 115.286 139.784 118.403 142.934C122.694 141.803 126.539 139.582 129.656 136.592C125.244 135.704 121.196 133.563 117.958 130.332C116.696 129.036 115.571 127.639 114.644 126.139C116.63 125.489 118.33 124.21 119.509 122.538C120.255 123.829 121.183 125.028 122.248 126.091C125.406 129.241 129.656 130.978 134.068 131.019C136.214 127.343 137.468 123.102 137.549 118.578C133.825 121.042 129.413 122.415 124.839 122.415C123.164 122.415 121.517 122.242 119.924 121.896C120.768 120.469 121.253 118.805 121.253 117.028C121.253 116.682 121.235 116.341 121.199 116.005C122.384 116.27 123.594 116.397 124.839 116.397C129.332 116.397 133.542 114.62 136.699 111.51C135.566 107.228 133.34 103.391 130.344 100.281C129.454 104.643 127.308 108.722 124.07 111.954C123.083 112.911 122.037 113.789 120.932 114.562C120.394 112.537 119.208 110.775 117.609 109.511C118.38 108.96 119.107 108.343 119.779 107.673C122.937 104.522 124.718 100.281 124.718 95.8785C121.034 93.7373 116.784 92.4852 112.25 92.4044C114.719 96.1204 116.096 100.523 116.096 105.087C116.096 106.21 116.017 107.321 115.861 108.41C114.588 107.789 113.157 107.44 111.645 107.44C111.042 107.44 110.453 107.495 109.881 107.601C110.004 106.778 110.064 105.941 110.064 105.087C110.064 100.604 108.283 96.4031 105.166 93.253C100.875 94.3836 97.0299 96.6051 93.9131 99.594C98.2848 100.483 102.373 102.623 105.611 105.855C106.363 106.627 107.066 107.435 107.708 108.279C105.818 109.127 104.252 110.568 103.248 112.363C102.685 111.572 102.052 110.825 101.361 110.136C98.2038 106.986 93.9535 105.249 89.5413 105.208C87.3959 108.884 86.1411 113.085 86.0601 117.649C89.7842 115.185 94.1964 113.812 98.7705 113.812C100.03 113.812 101.274 113.91 102.491 114.105C102.196 115.027 102.036 116.009 102.036 117.028C102.036 118.164 102.234 119.254 102.598 120.265C101.353 119.97 100.082 119.83 98.7705 119.83ZM79.9883 118.094C79.9883 100.604 94.2369 86.3457 111.805 86.3457C129.332 86.3457 143.621 100.604 143.621 118.094C143.621 135.583 129.373 149.841 111.805 149.841C94.2774 149.841 79.9883 135.583 79.9883 118.094Z" fill="#434459"/>
<path d="M118.754 116.819C118.754 120.844 115.483 124.115 111.436 124.115C107.39 124.115 104.119 120.844 104.119 116.819C104.119 112.795 107.39 109.523 111.436 109.523C115.483 109.523 118.754 112.795 118.754 116.819Z" stroke="#EEDE6D" stroke-width="5"/>
<path fill-rule="evenodd" clip-rule="evenodd" d="M186.583 21.8454C202.479 21.8454 215.364 34.7031 215.364 50.5635C215.364 66.4243 202.479 79.2816 186.583 79.2816C170.688 79.2816 157.803 66.4243 157.803 50.5635C157.803 34.7031 170.688 21.8454 186.583 21.8454Z" fill="#ADD9FC"/>
<path fill-rule="evenodd" clip-rule="evenodd" d="M203.18 27.0963C206.499 31.7817 208.482 37.5173 208.482 43.6567C208.482 59.5304 195.57 72.3748 179.702 72.3748C173.509 72.3748 167.801 70.436 163.105 67.0836C168.327 74.4348 176.909 79.2413 186.624 79.2413C202.532 79.2413 215.404 66.3565 215.404 50.5232C215.364 40.8697 210.547 32.3068 203.18 27.0963Z" fill="#7C8BB1"/>
<path fill-rule="evenodd" clip-rule="evenodd" d="M173.55 52.3002C169.057 52.3002 164.847 54.0778 161.689 57.1875C162.823 61.4694 165.049 65.3065 168.045 68.4166C168.935 64.054 171.081 59.9745 174.319 56.7432C175.426 55.6697 176.608 54.6949 177.864 53.8576C178.825 55.7321 180.386 57.2494 182.294 58.1572C180.938 58.9174 179.679 59.8767 178.569 60.9843C175.412 64.1348 173.671 68.3758 173.631 72.7789C177.314 74.9192 181.565 76.1713 186.098 76.2521C183.629 72.5361 182.253 68.1339 182.253 63.5697C182.253 61.8023 182.446 60.0678 182.834 58.3937C183.943 58.8398 185.155 59.0854 186.424 59.0854C187.315 59.0854 188.178 58.9644 188.997 58.7379C188.512 60.3031 188.284 61.9036 188.284 63.5697C188.284 68.0527 190.065 72.2538 193.182 75.4043C197.473 74.2734 201.318 72.0518 204.435 69.0625C200.023 68.1739 195.975 66.0332 192.737 62.8019C191.475 61.5061 190.35 60.1089 189.423 58.6092C191.409 57.9587 193.109 56.6797 194.288 55.0079C195.034 56.2988 195.963 57.4981 197.028 58.5608C200.185 61.7113 204.435 63.4481 208.848 63.4889C210.993 59.8129 212.248 55.5719 212.329 51.0485C208.605 53.5119 204.192 54.8856 199.618 54.8856C197.943 54.8856 196.296 54.7124 194.703 54.3665C195.548 52.9395 196.032 51.2751 196.032 49.4979C196.032 49.1524 196.014 48.8113 195.978 48.4753C197.164 48.7404 198.373 48.8669 199.618 48.8669C204.111 48.8669 208.321 47.0897 211.479 43.98C210.345 39.6981 208.119 35.861 205.123 32.7509C204.233 37.1131 202.088 41.1926 198.849 44.4239C197.862 45.3809 196.816 46.2592 195.712 47.0317C195.173 45.0071 193.987 43.2456 192.389 41.9809C193.159 41.4301 193.886 40.8136 194.558 40.1428C197.716 36.9919 199.497 32.7509 199.497 28.3486C195.813 26.2075 191.563 24.9554 187.029 24.8746C189.499 28.5906 190.875 32.9936 190.875 37.5574C190.875 38.6806 190.797 39.7907 190.64 40.8803C189.367 40.259 187.936 39.9103 186.424 39.9103C185.821 39.9103 185.232 39.9656 184.66 40.0715C184.784 39.2479 184.843 38.4112 184.843 37.5574C184.843 33.074 183.062 28.8733 179.946 25.7232C175.655 26.8538 171.809 29.0753 168.692 32.0642C173.064 32.9528 177.152 35.0935 180.391 38.3248C181.142 39.097 181.846 39.9051 182.487 40.7493C180.597 41.5975 179.031 43.0379 178.027 44.8336C177.464 44.042 176.831 43.2955 176.14 42.6063C172.983 39.4562 168.733 37.719 164.321 37.6786C162.175 41.3546 160.92 45.5548 160.839 50.1191C164.563 47.6552 168.976 46.2819 173.55 46.2819C174.81 46.2819 176.053 46.3798 177.27 46.5755C176.975 47.4968 176.815 48.4788 176.815 49.4979C176.815 50.6339 177.014 51.7239 177.377 52.7352C176.132 52.4406 174.861 52.3002 173.55 52.3002ZM154.768 50.5638C154.768 33.074 169.016 18.8159 186.584 18.8159C204.111 18.8159 218.401 33.074 218.401 50.5638C218.401 68.0527 204.152 82.3108 186.584 82.3108C169.057 82.3108 154.768 68.0527 154.768 50.5638Z" fill="#434459"/>
<path d="M193.533 49.2894C193.533 53.3138 190.262 56.5854 186.216 56.5854C182.169 56.5854 178.898 53.3138 178.898 49.2894C178.898 45.2651 182.169 41.9934 186.216 41.9934C190.262 41.9934 193.533 45.2651 193.533 49.2894Z" stroke="#EEDE6D" stroke-width="5"/>
<path fill-rule="evenodd" clip-rule="evenodd" d="M186.583 89.3753C202.479 89.3753 215.364 102.233 215.364 118.093C215.364 133.954 202.479 146.812 186.583 146.812C170.688 146.812 157.803 133.954 157.803 118.093C157.803 102.233 170.688 89.3753 186.583 89.3753Z" fill="#ADD9FC"/>
<path fill-rule="evenodd" clip-rule="evenodd" d="M203.18 94.6262C206.499 99.3116 208.482 105.047 208.482 111.187C208.482 127.06 195.57 139.905 179.702 139.905C173.509 139.905 167.801 137.966 163.105 134.613C168.327 141.965 176.909 146.771 186.624 146.771C202.532 146.771 215.404 133.886 215.404 118.053C215.364 108.4 210.547 99.8367 203.18 94.6262Z" fill="#7C8BB1"/>
<path fill-rule="evenodd" clip-rule="evenodd" d="M173.55 119.83C169.057 119.83 164.847 121.608 161.689 124.717C162.823 128.999 165.049 132.836 168.045 135.947C168.935 131.584 171.081 127.504 174.319 124.273C175.426 123.2 176.608 122.225 177.864 121.387C178.825 123.262 180.386 124.779 182.294 125.687C180.938 126.447 179.679 127.407 178.569 128.514C175.412 131.665 173.671 135.906 173.631 140.309C177.314 142.449 181.565 143.701 186.098 143.782C183.629 140.066 182.253 135.664 182.253 131.1C182.253 129.332 182.446 127.598 182.834 125.924C183.943 126.37 185.155 126.615 186.424 126.615C187.315 126.615 188.178 126.494 188.997 126.268C188.512 127.833 188.284 129.433 188.284 131.1C188.284 135.583 190.065 139.784 193.182 142.934C197.473 141.803 201.318 139.582 204.435 136.592C200.023 135.704 195.975 133.563 192.737 130.332C191.475 129.036 190.35 127.639 189.423 126.139C191.409 125.489 193.109 124.21 194.288 122.538C195.034 123.829 195.963 125.028 197.028 126.091C200.185 129.241 204.435 130.978 208.848 131.019C210.993 127.343 212.248 123.102 212.329 118.578C208.605 121.042 204.192 122.415 199.618 122.415C197.943 122.415 196.296 122.242 194.703 121.896C195.548 120.469 196.032 118.805 196.032 117.028C196.032 116.682 196.014 116.341 195.978 116.005C197.164 116.27 198.373 116.397 199.618 116.397C204.111 116.397 208.321 114.62 211.479 111.51C210.345 107.228 208.119 103.391 205.123 100.281C204.233 104.643 202.088 108.722 198.849 111.954C197.862 112.911 196.816 113.789 195.712 114.562C195.173 112.537 193.987 110.775 192.389 109.511C193.159 108.96 193.886 108.343 194.558 107.673C197.716 104.522 199.497 100.281 199.497 95.8785C195.813 93.7373 191.563 92.4852 187.029 92.4044C189.499 96.1204 190.875 100.523 190.875 105.087C190.875 106.21 190.797 107.321 190.64 108.41C189.367 107.789 187.936 107.44 186.424 107.44C185.821 107.44 185.232 107.495 184.66 107.601C184.784 106.778 184.843 105.941 184.843 105.087C184.843 100.604 183.062 96.4031 179.946 93.253C175.655 94.3836 171.809 96.6051 168.692 99.594C173.064 100.483 177.152 102.623 180.391 105.855C181.142 106.627 181.846 107.435 182.487 108.279C180.597 109.127 179.031 110.568 178.027 112.363C177.464 111.572 176.831 110.825 176.14 110.136C172.983 106.986 168.733 105.249 164.321 105.208C162.175 108.884 160.92 113.085 160.839 117.649C164.563 115.185 168.976 113.812 173.55 113.812C174.81 113.812 176.053 113.91 177.27 114.105C176.975 115.027 176.815 116.009 176.815 117.028C176.815 118.164 177.014 119.254 177.377 120.265C176.132 119.97 174.861 119.83 173.55 119.83ZM154.768 118.094C154.768 100.604 169.016 86.3457 186.584 86.3457C204.111 86.3457 218.401 100.604 218.401 118.094C218.401 135.583 204.152 149.841 186.584 149.841C169.057 149.841 154.768 135.583 154.768 118.094Z" fill="#434459"/>
<path d="M193.533 116.819C193.533 120.844 190.262 124.115 186.216 124.115C182.169 124.115 178.898 120.844 178.898 116.819C178.898 112.795 182.169 109.523 186.216 109.523C190.262 109.523 193.533 112.795 193.533 116.819Z" stroke="#EEDE6D" stroke-width="5"/>
<path fill-rule="evenodd" clip-rule="evenodd" d="M189.56 169.806V178.297C189.56 180.333 186.415 181.935 182.608 181.935H103.895C100.005 181.935 96.9434 180.289 96.9434 178.297V169.806H189.56Z" fill="#2E3C7B"/>
<rect x="101.092" y="180.41" width="8.83615" height="2.37076" transform="rotate(-90 101.092 180.41)" fill="#EEDE6D"/>
<rect x="107.02" y="180.41" width="8.83615" height="2.37076" transform="rotate(-90 107.02 180.41)" fill="#EEDE6D"/>
<rect x="112.945" y="180.41" width="8.83615" height="2.37075" transform="rotate(-90 112.945 180.41)" fill="#EEDE6D"/>
<rect x="118.873" y="180.41" width="8.83615" height="2.37077" transform="rotate(-90 118.873 180.41)" fill="#EEDE6D"/>
<rect x="124.799" y="180.41" width="8.83615" height="2.37073" transform="rotate(-90 124.799 180.41)" fill="#EEDE6D"/>
<rect x="130.727" y="180.41" width="8.83615" height="2.37079" transform="rotate(-90 130.727 180.41)" fill="#EEDE6D"/>
<rect x="136.654" y="180.41" width="8.83615" height="2.37079" transform="rotate(-90 136.654 180.41)" fill="#EEDE6D"/>
<rect x="142.58" y="180.41" width="8.83615" height="2.37073" transform="rotate(-90 142.58 180.41)" fill="#EEDE6D"/>
<rect x="148.508" y="180.41" width="8.83615" height="2.37073" transform="rotate(-90 148.508 180.41)" fill="#EEDE6D"/>
<rect x="159.76" y="180.41" width="8.83615" height="2.37074" transform="rotate(-90 159.76 180.41)" fill="#EEDE6D"/>
<rect x="154.434" y="180.41" width="8.83615" height="2.37077" transform="rotate(-90 154.434 180.41)" fill="#EEDE6D"/>
<rect x="165.688" y="180.41" width="8.83615" height="2.37073" transform="rotate(-90 165.688 180.41)" fill="#EEDE6D"/>
<rect x="171.746" y="180.41" width="8.83615" height="2.37077" transform="rotate(-90 171.746 180.41)" fill="#EEDE6D"/>
<rect x="177.805" y="180.41" width="8.83615" height="2.37076" transform="rotate(-90 177.805 180.41)" fill="#EEDE6D"/>
<rect x="183.863" y="180.41" width="8.83615" height="2.37077" transform="rotate(-90 183.863 180.41)" fill="#EEDE6D"/>
<path fill-rule="evenodd" clip-rule="evenodd" d="M89.0196 169.806C89.5719 169.806 90.0196 170.254 90.0196 170.806V178.297C90.0196 180.333 89.1672 181.935 88.1355 181.935H66.8021C65.7477 181.935 64.918 180.289 64.918 178.297V170.806C64.918 170.254 65.3657 169.806 65.918 169.806H89.0196Z" fill="#2E3C7B"/>
<rect x="67.5156" y="180.203" width="9.52995" height="1.73114" rx="0.86557" transform="rotate(-90 67.5156 180.203)" fill="#EEDE6D"/>
<rect x="71.8418" y="180.203" width="9.52995" height="1.73115" rx="0.865574" transform="rotate(-90 71.8418 180.203)" fill="#EEDE6D"/>
<rect x="76.1699" y="180.203" width="9.52995" height="1.73116" rx="0.865578" transform="rotate(-90 76.1699 180.203)" fill="#EEDE6D"/>
<rect x="80.498" y="180.203" width="9.52995" height="1.73115" rx="0.865574" transform="rotate(-90 80.498 180.203)" fill="#EEDE6D"/>
<rect x="84.8262" y="180.203" width="9.52995" height="1.73114" rx="0.86557" transform="rotate(-90 84.8262 180.203)" fill="#EEDE6D"/>
<rect x="195.619" y="169.806" width="7.79016" height="8.66356" fill="#2E3C7B"/>
<path d="M203.41 174.138H210.2C210.753 174.138 211.2 174.586 211.2 175.138V177.47C211.2 178.022 210.753 178.47 210.2 178.47H203.41V174.138Z" fill="#2E3C7B"/>
<path d="M5.19336 3.59909C5.19336 3.04681 5.64107 2.59909 6.19336 2.59909H24.236V8.66361H6.19336C5.64108 8.66361 5.19336 8.21589 5.19336 7.66361V3.59909Z" fill="#2E3C7B"/>
<rect x="11.252" y="67.576" width="8.65574" height="8.66359" fill="#0F204E"/>
<rect x="11.252" y="82.3042" width="8.65574" height="19.9262" fill="#0F204E"/>
<rect x="21.6387" y="175.005" width="8.65574" height="6.93086" rx="1" fill="#2E3C7B"/>
<rect x="13.8496" y="2.59909" width="10.3869" height="179.336" fill="#2E3C7B"/>
</svg>
