<svg width="302" height="144" viewBox="0 0 302 144" fill="none" xmlns="http://www.w3.org/2000/svg">
<g clip-path="url(#clip0_33_5921)">
<mask id="mask0_33_5921" style="mask-type:alpha" maskUnits="userSpaceOnUse" x="0" y="-12" width="311" height="156">
<path fill-rule="evenodd" clip-rule="evenodd" d="M0 -12H310.653V143.878H0V-12Z" fill="white"/>
</mask>
<g mask="url(#mask0_33_5921)">
<path fill-rule="evenodd" clip-rule="evenodd" d="M282.471 97.0826V15.0315C280.205 14.1675 277.738 13.6497 275.108 13.6497H19V117.509H263.296C273.895 117.552 282.471 108.397 282.471 97.0826Z" fill="#485FAC"/>
<path fill-rule="evenodd" clip-rule="evenodd" d="M281.853 14.9111V94.9488C281.853 105.984 273.298 114.905 262.716 114.905H19.2109V129.704H274.514C286.394 129.704 296.043 119.641 296.043 107.252V36.0093C296.043 26.2847 290.124 18.0399 281.853 14.9111Z" fill="#2E3C7B"/>
<path fill-rule="evenodd" clip-rule="evenodd" d="M95.5296 34.4102C111.417 34.4102 124.295 47.38 124.295 63.3786C124.295 79.3777 111.417 92.3471 95.5296 92.3471C79.6424 92.3471 66.7637 79.3777 66.7637 63.3786C66.7637 47.38 79.6424 34.4102 95.5296 34.4102Z" fill="#ADD9FC"/>
<path fill-rule="evenodd" clip-rule="evenodd" d="M168.09 34.6642C183.977 34.6642 196.856 47.634 196.856 63.6326C196.856 79.6317 183.977 92.6011 168.09 92.6011C152.203 92.6011 139.324 79.6317 139.324 63.6326C139.324 47.634 152.203 34.6642 168.09 34.6642Z" fill="#ADD9FC"/>
<path fill-rule="evenodd" clip-rule="evenodd" d="M240.666 35.187C256.553 35.187 269.432 48.1568 269.432 64.1555C269.432 80.1545 256.553 93.1239 240.666 93.1239C224.779 93.1239 211.9 80.1545 211.9 64.1555C211.9 48.1568 224.779 35.187 240.666 35.187Z" fill="#ADD9FC"/>
<path fill-rule="evenodd" clip-rule="evenodd" d="M112.118 39.7068C115.436 44.433 117.418 50.2185 117.418 56.4115C117.418 72.4236 104.512 85.38 88.6524 85.38C82.4622 85.38 76.7576 83.4243 72.0645 80.0426C77.2836 87.4579 85.8607 92.3063 95.5707 92.3063C111.471 92.3063 124.337 79.3092 124.337 63.3379C124.296 53.6002 119.482 44.9627 112.118 39.7068Z" fill="#7C8BB1"/>
<path fill-rule="evenodd" clip-rule="evenodd" d="M184.679 39.9608C187.996 44.687 189.979 50.4726 189.979 56.6655C189.979 72.6777 177.073 85.634 161.213 85.634C155.023 85.634 149.318 83.6783 144.625 80.2966C149.844 87.7119 158.421 92.5604 168.131 92.5604C184.031 92.5604 196.897 79.5633 196.897 63.5919C196.857 53.8543 192.042 45.2167 184.679 39.9608Z" fill="#7C8BB1"/>
<path fill-rule="evenodd" clip-rule="evenodd" d="M257.253 40.4836C260.571 45.2099 262.553 50.9954 262.553 57.1884C262.553 73.2005 249.647 86.1568 233.787 86.1568C227.597 86.1568 221.892 84.2011 217.199 80.8194C222.418 88.2347 230.996 93.0832 240.706 93.0832C256.606 93.0832 269.471 80.0861 269.471 64.1147C269.431 54.3771 264.616 45.7395 257.253 40.4836Z" fill="#7C8BB1"/>
<rect x="26.2656" y="33.29" width="28.8106" height="4.20484" fill="#2E3C7B"/>
<rect x="26.3066" y="36.7761" width="28.8106" height="0.840977" fill="#0F204E"/>
<rect x="26.2656" y="38.7563" width="28.8106" height="4.20485" fill="#2E3C7B"/>
<rect x="26.3066" y="42.2424" width="28.8106" height="0.840981" fill="#0F204E"/>
<rect x="26.2656" y="44.2227" width="28.8106" height="4.20486" fill="#2E3C7B"/>
<rect x="26.3066" y="47.7089" width="28.8106" height="0.840973" fill="#0F204E"/>
<rect x="26.2656" y="49.689" width="28.8106" height="4.20485" fill="#2E3C7B"/>
<rect x="26.3066" y="53.1752" width="28.8106" height="0.840958" fill="#0F204E"/>
<rect x="26.2656" y="55.1553" width="28.8106" height="4.20484" fill="#2E3C7B"/>
<rect x="26.3066" y="58.6414" width="28.8106" height="0.840958" fill="#0F204E"/>
<path fill-rule="evenodd" clip-rule="evenodd" d="M82.2922 65.1304C77.8013 65.1304 73.5936 66.9235 70.4379 70.0603C71.5707 74.3795 73.7959 78.2501 76.7899 81.3874C77.6799 76.9867 79.8242 72.8716 83.0609 69.6122C84.1678 68.5293 85.349 67.546 86.6042 66.7014C87.5645 68.5922 89.1248 70.1228 91.0321 71.0385C89.6765 71.8053 88.4185 72.7729 87.309 73.8902C84.1533 77.0682 82.4136 81.3462 82.3731 85.7876C86.0548 87.9466 90.3029 89.2097 94.8343 89.2912C92.3663 85.5428 90.9907 81.1022 90.9907 76.4982C90.9907 74.7154 91.1842 72.9657 91.5712 71.277C92.6799 71.7271 93.8911 71.9748 95.1597 71.9748C96.0504 71.9748 96.9127 71.8527 97.7311 71.6242C97.2467 73.2031 97.019 74.8176 97.019 76.4982C97.019 81.0203 98.7992 85.258 101.914 88.436C106.203 87.2951 110.047 85.0543 113.162 82.0388C108.752 81.1425 104.706 78.9831 101.469 75.7237C100.209 74.4166 99.0837 73.0072 98.1571 71.4944C100.142 70.8383 101.842 69.5481 103.02 67.8618C103.766 69.1639 104.694 70.3736 105.758 71.4456C108.914 74.6236 113.162 76.3755 117.572 76.4167C119.716 72.7086 120.97 68.4306 121.051 63.8678C117.329 66.3527 112.919 67.7384 108.347 67.7384C106.673 67.7384 105.027 67.5637 103.435 67.2147C104.279 65.7753 104.763 64.0964 104.763 62.3036C104.763 61.9552 104.745 61.6111 104.709 61.2722C105.894 61.5396 107.102 61.6672 108.347 61.6672C112.838 61.6672 117.046 59.8745 120.202 56.7377C119.069 52.4185 116.844 48.5479 113.85 45.4107C112.96 49.8109 110.815 53.926 107.579 57.1855C106.592 58.1508 105.547 59.0368 104.443 59.816C103.904 57.7738 102.719 55.9968 101.121 54.7212C101.891 54.1656 102.618 53.5437 103.29 52.8671C106.446 49.6887 108.226 45.4107 108.226 40.9701C104.544 38.8103 100.296 37.5472 95.7648 37.4657C98.2328 41.2141 99.6084 45.6555 99.6084 50.2591C99.6084 51.3921 99.5302 52.5119 99.3739 53.6109C98.1016 52.9842 96.6715 52.6325 95.1597 52.6325C94.5575 52.6325 93.9682 52.6883 93.3967 52.7951C93.5203 51.9643 93.5801 51.1203 93.5801 50.2591C93.5801 45.7366 91.7999 41.4993 88.6846 38.3218C84.396 39.4622 80.5525 41.703 77.4372 44.718C81.8067 45.6144 85.893 47.7738 89.1296 51.0332C89.8808 51.8121 90.5836 52.6273 91.2251 53.4788C89.3357 54.3345 87.7707 55.7873 86.7673 57.5987C86.2043 56.8002 85.5717 56.0472 84.8815 55.352C81.7258 52.1745 77.4777 50.4221 73.0677 50.3813C70.9234 54.0894 69.6692 58.3263 69.5883 62.9303C73.3104 60.4449 77.7204 59.0597 82.2922 59.0597C83.5514 59.0597 84.7943 59.1584 86.0105 59.3558C85.7154 60.2852 85.5562 61.2757 85.5562 62.3036C85.5562 63.4496 85.7541 64.5491 86.1174 65.5692C84.8731 65.272 83.6027 65.1304 82.2922 65.1304ZM63.5195 63.3789C63.5195 45.7366 77.7609 31.3542 95.3198 31.3542C112.838 31.3542 127.12 45.7366 127.12 63.3789C127.12 81.0203 112.879 95.4026 95.3198 95.4026C77.8013 95.4026 63.5195 81.0203 63.5195 63.3789Z" fill="#2E3C7B"/>
<path fill-rule="evenodd" clip-rule="evenodd" d="M154.851 65.3843C150.36 65.3843 146.152 67.1774 142.996 70.3142C144.129 74.6334 146.355 78.504 149.348 81.6412C150.239 77.2406 152.383 73.1255 155.62 69.866C156.726 68.7832 157.908 67.7999 159.163 66.9553C160.123 68.8461 161.683 70.3767 163.591 71.2924C162.235 72.0592 160.977 73.0268 159.868 74.1441C156.712 77.322 154.972 81.6001 154.932 86.0415C158.613 88.2005 162.862 89.4635 167.393 89.545C164.925 85.7966 163.549 81.356 163.549 76.752C163.549 74.9693 163.743 73.2196 164.13 71.5309C165.238 71.981 166.45 72.2287 167.718 72.2287C168.609 72.2287 169.471 72.1066 170.29 71.8781C169.805 73.457 169.578 75.0714 169.578 76.752C169.578 81.2741 171.358 85.5118 174.473 88.6898C178.762 87.549 182.605 85.3081 185.721 82.2927C181.311 81.3964 177.265 79.237 174.028 75.9775C172.767 74.6705 171.642 73.261 170.716 71.7483C172.701 71.0922 174.4 69.802 175.578 68.1157C176.324 69.4178 177.252 70.6275 178.317 71.6995C181.472 74.8774 185.721 76.6294 190.13 76.6706C192.275 72.9625 193.529 68.6845 193.61 64.1217C189.888 66.6066 185.478 67.9922 180.906 67.9922C179.231 67.9922 177.586 67.8175 175.993 67.4686C176.837 66.0292 177.322 64.3503 177.322 62.5575C177.322 62.2091 177.304 61.865 177.268 61.5261C178.452 61.7935 179.661 61.9211 180.906 61.9211C185.397 61.9211 189.605 60.1284 192.76 56.9916C191.627 52.6724 189.402 48.8018 186.408 45.6646C185.518 50.0648 183.374 54.1799 180.137 57.4393C179.151 58.4047 178.105 59.2907 177.001 60.0699C176.463 58.0277 175.278 56.2507 173.68 54.9751C174.45 54.4195 175.177 53.7976 175.849 53.121C179.004 49.9426 180.785 45.6646 180.785 41.224C177.103 39.0642 172.855 37.8011 168.323 37.7196C170.791 41.468 172.167 45.9094 172.167 50.513C172.167 51.646 172.089 52.7658 171.933 53.8648C170.66 53.2382 169.23 52.8864 167.718 52.8864C167.116 52.8864 166.527 52.9422 165.955 53.049C166.079 52.2182 166.139 51.3742 166.139 50.513C166.139 45.9905 164.359 41.7532 161.243 38.5757C156.955 39.7161 153.111 41.9569 149.996 44.9719C154.365 45.8683 158.452 48.0277 161.688 51.2871C162.439 52.066 163.142 52.8812 163.784 53.7327C161.894 54.5883 160.329 56.0412 159.326 57.8526C158.763 57.0541 158.13 56.3011 157.44 55.6059C154.284 52.4283 150.036 50.676 145.626 50.6352C143.482 54.3433 142.228 58.5802 142.147 63.1841C145.869 60.6988 150.279 59.3135 154.851 59.3135C156.11 59.3135 157.353 59.4123 158.569 59.6097C158.274 60.5391 158.115 61.5296 158.115 62.5575C158.115 63.7035 158.313 64.803 158.676 65.8231C157.432 65.5259 156.161 65.3843 154.851 65.3843ZM136.078 63.6327C136.078 45.9905 150.319 31.6082 167.878 31.6082C185.397 31.6082 199.679 45.9905 199.679 63.6327C199.679 81.2741 185.437 95.6565 167.878 95.6565C150.36 95.6565 136.078 81.2741 136.078 63.6327Z" fill="#2E3C7B"/>
<path fill-rule="evenodd" clip-rule="evenodd" d="M227.427 65.9073C222.936 65.9073 218.728 67.7004 215.573 70.8372C216.706 75.1564 218.931 79.027 221.925 82.1642C222.815 77.7636 224.959 73.6485 228.196 70.389C229.303 69.3061 230.484 68.3228 231.739 67.4782C232.699 69.3691 234.26 70.8996 236.167 71.8153C234.811 72.5821 233.553 73.5498 232.444 74.6671C229.288 77.845 227.548 82.1231 227.508 86.5645C231.19 88.7235 235.438 89.9865 239.969 90.068C237.501 86.3196 236.126 81.879 236.126 77.275C236.126 75.4922 236.319 73.7426 236.706 72.0539C237.815 72.5039 239.026 72.7517 240.295 72.7517C241.185 72.7517 242.047 72.6296 242.866 72.4011C242.381 73.98 242.154 75.5944 242.154 77.275C242.154 81.7971 243.934 86.0348 247.049 89.2128C251.338 88.072 255.181 85.8311 258.297 82.8157C253.887 81.9194 249.841 79.76 246.604 76.5005C245.343 75.1934 244.219 73.784 243.292 72.2713C245.277 71.6152 246.977 70.325 248.155 68.6387C248.901 69.9408 249.828 71.1505 250.893 72.2225C254.049 75.4004 258.297 77.1524 262.707 77.1936C264.851 73.4855 266.105 69.2075 266.186 64.6446C262.464 67.1296 258.054 68.5152 253.482 68.5152C251.808 68.5152 250.162 68.3405 248.569 67.9916C249.414 66.5522 249.898 64.8733 249.898 63.0805C249.898 62.7321 249.88 62.388 249.844 62.0491C251.029 62.3165 252.237 62.4441 253.482 62.4441C257.973 62.4441 262.181 60.6514 265.336 57.5146C264.204 53.1954 261.978 49.3248 258.984 46.1875C258.094 50.5878 255.95 54.7029 252.713 57.9623C251.727 58.9276 250.682 59.8136 249.577 60.5928C249.039 58.5506 247.854 56.7737 246.256 55.498C247.026 54.9424 247.753 54.3206 248.425 53.644C251.581 50.4656 253.361 46.1875 253.361 41.7469C249.679 39.5871 245.431 38.3241 240.9 38.2426C243.368 41.991 244.743 46.4324 244.743 51.036C244.743 52.169 244.665 53.2887 244.509 54.3878C243.236 53.7611 241.806 53.4094 240.295 53.4094C239.692 53.4094 239.103 53.4652 238.532 53.572C238.655 52.7412 238.715 51.8972 238.715 51.036C238.715 46.5135 236.935 42.2762 233.819 39.0986C229.531 40.239 225.687 42.4799 222.572 45.4949C226.941 46.3912 231.028 48.5506 234.264 51.8101C235.016 52.589 235.718 53.4042 236.36 54.2557C234.471 55.1114 232.906 56.5642 231.902 58.3756C231.339 57.5771 230.706 56.8241 230.016 56.1289C226.861 52.9513 222.612 51.1989 218.202 51.1582C216.058 54.8662 214.804 59.1031 214.723 63.7071C218.445 61.2218 222.855 59.8365 227.427 59.8365C228.686 59.8365 229.929 59.9353 231.145 60.1327C230.85 61.0621 230.691 62.0526 230.691 63.0805C230.691 64.2265 230.889 65.326 231.252 66.3461C230.008 66.0489 228.737 65.9073 227.427 65.9073ZM208.654 64.1557C208.654 46.5135 222.896 32.1311 240.455 32.1311C257.973 32.1311 272.255 46.5135 272.255 64.1557C272.255 81.7971 258.013 96.1795 240.455 96.1795C222.936 96.1795 208.654 81.7971 208.654 64.1557Z" fill="#2E3C7B"/>
<path d="M102.263 62.0933C102.263 66.1865 98.973 69.4747 94.951 69.4747C90.929 69.4747 87.6387 66.1865 87.6387 62.0933C87.6387 58.0001 90.929 54.7119 94.951 54.7119C98.973 54.7119 102.263 58.0001 102.263 62.0933Z" stroke="#EEDE6D" stroke-width="5"/>
<path d="M174.824 62.3472C174.824 66.4404 171.533 69.7286 167.512 69.7286C163.49 69.7286 160.199 66.4404 160.199 62.3472C160.199 58.254 163.49 54.9658 167.512 54.9658C171.533 54.9658 174.824 58.254 174.824 62.3472Z" stroke="#EEDE6D" stroke-width="5"/>
<path d="M247.398 62.8702C247.398 66.9634 244.108 70.2516 240.086 70.2516C236.064 70.2516 232.773 66.9634 232.773 62.8702C232.773 58.777 236.064 55.4888 240.086 55.4888C244.108 55.4888 247.398 58.777 247.398 62.8702Z" stroke="#EEDE6D" stroke-width="5"/>
<ellipse cx="30.0235" cy="87.5327" rx="3.7579" ry="3.78437" fill="#EEDE6D"/>
<ellipse cx="40.461" cy="87.5327" rx="3.7579" ry="3.78437" fill="#EEDE6D"/>
<ellipse cx="50.9005" cy="87.5327" rx="3.7579" ry="3.78437" fill="#EEDE6D"/>
<rect x="26.7227" y="62.0054" width="28.393" height="18.0809" fill="#2E3C7B"/>
<rect x="54.2812" y="62.0054" width="0.835087" height="18.0809" fill="#0F204E"/>
<rect width="28.393" height="0.840965" transform="matrix(1 0 0 -1 26.7227 80.0862)" fill="#0F204E"/>
<path fill-rule="evenodd" clip-rule="evenodd" d="M241 129V138.8C241 141.15 237.366 143 232.969 143H142.031C137.537 143 134 141.1 134 138.8V129H241Z" fill="#1D2C74"/>
<rect x="138.793" y="141.239" width="10.1992" height="2.73894" transform="rotate(-90 138.793 141.239)" fill="#EEDE6D"/>
<rect x="145.641" y="141.239" width="10.1992" height="2.73894" transform="rotate(-90 145.641 141.239)" fill="#EEDE6D"/>
<rect x="152.488" y="141.239" width="10.1992" height="2.73892" transform="rotate(-90 152.488 141.239)" fill="#EEDE6D"/>
<rect x="159.336" y="141.239" width="10.1992" height="2.73893" transform="rotate(-90 159.336 141.239)" fill="#EEDE6D"/>
<rect x="166.182" y="141.239" width="10.1992" height="2.73893" transform="rotate(-90 166.182 141.239)" fill="#EEDE6D"/>
<rect x="173.029" y="141.239" width="10.1992" height="2.73895" transform="rotate(-90 173.029 141.239)" fill="#EEDE6D"/>
<rect x="179.877" y="141.239" width="10.1992" height="2.73898" transform="rotate(-90 179.877 141.239)" fill="#EEDE6D"/>
<rect x="186.725" y="141.239" width="10.1992" height="2.73892" transform="rotate(-90 186.725 141.239)" fill="#EEDE6D"/>
<rect x="193.572" y="141.239" width="10.1992" height="2.73894" transform="rotate(-90 193.572 141.239)" fill="#EEDE6D"/>
<rect x="206.572" y="141.239" width="10.1992" height="2.73894" transform="rotate(-90 206.572 141.239)" fill="#EEDE6D"/>
<rect x="200.42" y="141.239" width="10.1992" height="2.73896" transform="rotate(-90 200.42 141.239)" fill="#EEDE6D"/>
<rect x="213.42" y="141.239" width="10.1992" height="2.73896" transform="rotate(-90 213.42 141.239)" fill="#EEDE6D"/>
<rect x="220.42" y="141.239" width="10.1992" height="2.73896" transform="rotate(-90 220.42 141.239)" fill="#EEDE6D"/>
<rect x="227.42" y="141.239" width="10.1992" height="2.73896" transform="rotate(-90 227.42 141.239)" fill="#EEDE6D"/>
<rect x="234.42" y="141.239" width="10.1992" height="2.73896" transform="rotate(-90 234.42 141.239)" fill="#EEDE6D"/>
<rect x="248" y="129" width="9" height="10" fill="#2E3C7B"/>
<path d="M257 134H265C265.552 134 266 134.448 266 135V138C266 138.552 265.552 139 265 139H257V134Z" fill="#2E3C7B"/>
<rect x="6" y="37" width="10" height="10" fill="#0F204E"/>
<rect x="6" y="54" width="10" height="23" fill="#0F204E"/>
<path fill-rule="evenodd" clip-rule="evenodd" d="M125 129C125.552 129 126 129.448 126 130V138.8C126 141.15 125.015 143 123.823 143H99.1767C97.9586 143 97 141.1 97 138.8V130C97 129.448 97.4477 129 98 129H125Z" fill="#1D2C74"/>
<rect x="100" y="141" width="11" height="2" rx="1" transform="rotate(-90 100 141)" fill="#EEDE6D"/>
<rect x="105" y="141" width="11" height="2" rx="1" transform="rotate(-90 105 141)" fill="#EEDE6D"/>
<rect x="110" y="141" width="11" height="2" rx="1" transform="rotate(-90 110 141)" fill="#EEDE6D"/>
<rect x="115" y="141" width="11" height="2" rx="1" transform="rotate(-90 115 141)" fill="#EEDE6D"/>
<rect x="120" y="141" width="11" height="2" rx="1" transform="rotate(-90 120 141)" fill="#EEDE6D"/>
<rect x="18" y="135" width="10" height="8" rx="1" fill="#2E3C7B"/>
<rect x="9" y="5" width="12" height="138" fill="#2E3C7B"/>
<path d="M-1 6C-1 5.44772 -0.552285 5 0 5H21V12H3.57628e-07C-0.552284 12 -1 11.5523 -1 11V6Z" fill="#2E3C7B"/>
</g>
</g>
<defs>
<clipPath id="clip0_33_5921">
<rect width="302" height="144" rx="1" fill="white"/>
</clipPath>
</defs>
</svg>
