<svg width="133" height="40" viewBox="0 0 162 50" fill="none"
     xmlns="http://www.w3.org/2000/svg">
    <path fill-rule="evenodd" clip-rule="evenodd"
          d="M52.7861 42.0291C56.0245 42.0291 59.5378 43.1299 63.4276 46.5464C63.8173 46.8884 64.3361 46.4633 63.9954 46.0381C60.1737 41.2537 56.6389 40.3429 53.1137 39.5734C48.8007 38.6305 46.5832 36.2246 45.0375 33.5836C44.7303 33.0588 44.5917 33.1514 44.5642 33.8271C44.5295 34.6524 44.5881 35.7461 44.7746 36.8219C44.6 36.8291 44.4255 36.8279 44.2486 36.8279C38.0803 36.8279 33.0787 31.8689 33.0787 25.7521C33.0787 19.6364 38.0803 14.6786 44.2498 14.6786C50.418 14.6786 55.4196 19.6364 55.4196 25.7521C55.4196 26.1879 55.3981 26.6189 55.3479 27.0405C54.5326 26.8944 52.9272 26.8778 51.8011 26.974C51.378 27.0108 51.4377 27.2068 51.7581 27.2638C55.4507 27.9252 57.9861 30.1945 58.5671 34.3116C58.5791 34.4066 58.7058 34.4339 58.7548 34.3519C60.3249 31.7549 61.1519 28.7815 61.1468 25.7521C61.1468 16.5014 53.5811 9 44.2498 9C34.9173 9 27.3516 16.5003 27.3516 25.7521C27.3516 35.0051 34.9173 42.5065 44.2498 42.5065C46.7243 42.5065 49.182 42.0291 52.7861 42.0291ZM54.0437 35.9468C54.7956 36.5761 55.0239 37.3254 54.6271 37.8539C54.4059 38.1436 54.0473 38.3039 53.6169 38.3039C53.1971 38.304 52.7906 38.1578 52.4682 37.8907C51.7844 37.2981 51.5836 36.3386 52.0294 35.7936C52.204 35.5798 52.4873 35.4623 52.8268 35.4623C53.2392 35.4623 53.6719 35.6344 54.0437 35.9468ZM57.5128 34.346C57.6227 35.0799 57.3896 35.3839 57.1541 35.3839C56.8971 35.3839 56.5756 35.087 56.1966 34.4992C55.8213 33.9197 55.6838 33.2547 55.8703 32.9186C55.9922 32.6966 56.2492 32.5992 56.5732 32.7215C57.2008 32.9554 57.4458 33.9078 57.5128 34.346ZM80.9355 30.5104L78.987 28.1864C78.9413 28.1317 78.9122 28.0651 78.9033 27.9944C78.8943 27.9238 78.9059 27.8522 78.9365 27.7878C78.9671 27.7235 79.0156 27.6692 79.0762 27.6313C79.1368 27.5933 79.207 27.5734 79.2786 27.5737H83.3538C83.5474 27.0013 83.6574 26.3898 83.6574 25.7533C83.6574 22.8439 81.4722 20.3347 78.4741 20.3347C75.4761 20.3347 73.2909 22.8439 73.2909 25.7533C73.2909 28.6626 75.4761 31.1374 78.4741 31.1374C79.3826 31.1374 80.2146 30.907 80.9367 30.5092L80.9355 30.5104ZM89.7504 34.4351C89.962 34.6678 89.7886 35.0407 89.4694 35.0407H85.0225C84.9332 35.0408 84.8449 35.0214 84.7639 34.9838C84.6829 34.9463 84.6113 34.8915 84.554 34.8234L83.8008 33.9244C82.2148 34.9462 80.3645 35.4891 78.4741 35.4872C73.0602 35.4872 68.6563 31.1208 68.6563 25.7533C68.6563 20.3858 73.0602 16.0193 78.4741 16.0193C83.8881 16.0193 88.292 20.3858 88.292 25.7533C88.292 27.6889 87.7182 29.4915 86.732 31.0091L89.7504 34.4351ZM130.835 16.4694H127.205C127.077 16.4697 126.955 16.5202 126.864 16.6099C126.774 16.6996 126.723 16.8211 126.723 16.9479V34.5621C126.723 34.8269 126.938 35.0407 127.205 35.0407H130.835C131.102 35.0407 131.318 34.8269 131.318 34.5621V16.9468C131.318 16.8195 131.267 16.6975 131.177 16.6075C131.086 16.5175 130.963 16.467 130.835 16.467V16.4694ZM124.727 16.4694H120.667C120.564 16.469 120.463 16.5014 120.38 16.5619C120.297 16.6223 120.235 16.7077 120.204 16.8054L116.991 27.2151L113.459 16.7936C113.426 16.6985 113.365 16.6159 113.283 16.5575C113.201 16.4991 113.102 16.4679 113.001 16.4682H110.168C110.067 16.4678 109.968 16.499 109.886 16.5574C109.803 16.6158 109.741 16.6984 109.709 16.7936L106.178 27.2151L102.964 16.8054C102.934 16.7075 102.872 16.6219 102.789 16.5612C102.706 16.5005 102.605 16.4679 102.502 16.4682H98.4409C98.3647 16.4683 98.2895 16.4864 98.2216 16.5208C98.1536 16.5553 98.0949 16.6052 98.05 16.6665C98.0053 16.7272 97.9758 16.7978 97.9641 16.8722C97.9525 16.9465 97.959 17.0226 97.9831 17.094L103.948 34.7177C104.014 34.9124 104.199 35.0431 104.406 35.0431H107.629C107.837 35.0431 108.021 34.9124 108.087 34.7189L111.584 24.4221L115.081 34.7177C115.147 34.9124 115.332 35.0431 115.539 35.0431H118.763C118.971 35.0431 119.155 34.9124 119.221 34.7177L125.186 17.094C125.21 17.0227 125.216 16.9467 125.205 16.8723C125.193 16.798 125.164 16.7274 125.12 16.6665C125.075 16.6051 125.016 16.5551 124.948 16.5207C124.88 16.4862 124.804 16.4682 124.728 16.4682L124.727 16.4694ZM96.4458 16.9479V34.5621C96.4458 34.8269 96.2306 35.0407 95.9629 35.0407H92.3336C92.2057 35.0407 92.0831 34.9903 91.9926 34.9006C91.902 34.8109 91.851 34.6892 91.8507 34.5621V16.9468C91.8507 16.6819 92.0659 16.467 92.3336 16.467H95.9629C96.2294 16.467 96.4458 16.6808 96.4458 16.9468V16.9479Z"
          fill="#FF8C00"/>
</svg>
