<svg width="30" height="30" viewBox="0 0 30 30" fill="none" xmlns="http://www.w3.org/2000/svg">
<path d="M12.0522 7.02601C12.8024 6.7114 13.117 5.81596 12.7782 5.08992L11.5924 2.5972C11.2535 1.89561 10.4307 1.58075 9.70466 1.89561C7.64757 2.76685 5.88088 3.90431 4.47721 5.28377C2.75893 6.90501 1.59728 8.7685 0.968046 10.8256C0.338816 12.9071 0 15.7384 0 19.3444V26.7742C0 27.5728 0.653431 28.2262 1.45207 28.2262H10.9631C11.7618 28.2262 12.4152 27.5728 12.4152 26.7742V17.2631C12.4152 16.4642 11.7618 15.811 10.9631 15.811H6.41331C6.46171 13.3665 7.04254 11.4064 8.10739 9.92991C8.97863 8.74454 10.2855 7.77649 12.0522 7.02601Z" fill="#3E5293"/>
<path d="M29.1374 7.02612C29.8876 6.7115 30.202 5.81606 29.8634 5.09003L28.6775 2.62175C28.3387 1.91992 27.5159 1.6053 26.7898 1.91992C24.7569 2.79116 23.0142 3.92861 21.5866 5.28388C19.8681 6.92956 18.6825 8.79305 18.053 10.8501C17.4237 12.8828 17.1094 15.7146 17.1094 19.3448V26.7745C17.1094 27.5732 17.7628 28.2266 18.5614 28.2266H28.0725C28.8711 28.2266 29.5246 27.5732 29.5246 26.7745V17.2635C29.5246 16.4646 28.8711 15.8114 28.0725 15.8114H23.4985C23.5469 13.3668 24.128 11.4068 25.1926 9.93026C26.0638 8.74464 27.3707 7.7766 29.1374 7.02612Z" fill="#3E5293"/>
</svg>
