<svg width="97" height="40" viewBox="0 0 97 40" fill="none" xmlns="http://www.w3.org/2000/svg">
<path d="M25.3149 10.5339L14.4261 6.08361C14.1533 5.97216 13.8467 5.9721 13.5739 6.08361L2.68506 10.5339C2.27033 10.7034 2 11.102 2 11.5441V16.954C2 24.4032 6.57383 31.1039 13.5801 33.9189C13.8492 34.027 14.1507 34.027 14.4199 33.9189C21.4261 31.1039 26 24.4032 26 16.954V11.5441C26 11.102 25.7297 10.7034 25.3149 10.5339ZM23.7778 16.954C23.7778 23.2866 20 29.1161 14 31.7182C8.16033 29.1856 4.22222 23.4582 4.22222 16.954V12.2742L14 8.278L23.7778 12.2742V16.954ZM12.7719 20.6407L17.5477 15.9396C17.9816 15.5125 18.6851 15.5125 19.119 15.9396C19.5529 16.3668 19.5529 17.0593 19.1189 17.4864L13.5576 22.9609C13.1236 23.3881 12.4201 23.388 11.9862 22.9609L8.881 19.9042C8.44706 19.477 8.44706 18.7845 8.881 18.3574C9.31494 17.9303 10.0184 17.9302 10.4523 18.3574L12.7719 20.6407Z" fill="#9CABC1"/>
<path d="M43.219 16.102C42.335 16.102 41.485 15.9603 40.669 15.677C39.8643 15.3937 39.241 15.0197 38.799 14.555L39.292 13.586C39.7227 14.0167 40.295 14.368 41.009 14.64C41.723 14.9007 42.4597 15.031 43.219 15.031C44.2843 15.031 45.0833 14.8383 45.616 14.453C46.1487 14.0563 46.415 13.5463 46.415 12.923C46.415 12.447 46.2677 12.0673 45.973 11.784C45.6897 11.5007 45.3383 11.2853 44.919 11.138C44.4997 10.9793 43.916 10.8093 43.168 10.628C42.2727 10.4013 41.5587 10.186 41.026 9.982C40.4933 9.76667 40.0343 9.44367 39.649 9.013C39.275 8.58233 39.088 7.99867 39.088 7.262C39.088 6.66133 39.2467 6.11733 39.564 5.63C39.8813 5.13133 40.3687 4.73467 41.026 4.44C41.6833 4.14533 42.4993 3.998 43.474 3.998C44.154 3.998 44.817 4.09433 45.463 4.287C46.1203 4.46833 46.687 4.72333 47.163 5.052L46.738 6.055C46.2393 5.72633 45.7067 5.48267 45.14 5.324C44.5733 5.154 44.018 5.069 43.474 5.069C42.4313 5.069 41.6437 5.273 41.111 5.681C40.5897 6.07767 40.329 6.59333 40.329 7.228C40.329 7.704 40.4707 8.08933 40.754 8.384C41.0487 8.66733 41.4113 8.88833 41.842 9.047C42.284 9.19433 42.8733 9.35867 43.61 9.54C44.4827 9.75533 45.1853 9.97067 45.718 10.186C46.262 10.39 46.721 10.7073 47.095 11.138C47.469 11.5573 47.656 12.1297 47.656 12.855C47.656 13.4557 47.4917 14.0053 47.163 14.504C46.8457 14.9913 46.3527 15.3823 45.684 15.677C45.0153 15.9603 44.1937 16.102 43.219 16.102ZM53.678 16.102C52.794 16.102 51.944 15.9603 51.128 15.677C50.3233 15.3937 49.7 15.0197 49.258 14.555L49.751 13.586C50.1817 14.0167 50.754 14.368 51.468 14.64C52.182 14.9007 52.9187 15.031 53.678 15.031C54.7433 15.031 55.5423 14.8383 56.075 14.453C56.6077 14.0563 56.874 13.5463 56.874 12.923C56.874 12.447 56.7267 12.0673 56.432 11.784C56.1487 11.5007 55.7973 11.2853 55.378 11.138C54.9587 10.9793 54.375 10.8093 53.627 10.628C52.7317 10.4013 52.0177 10.186 51.485 9.982C50.9523 9.76667 50.4933 9.44367 50.108 9.013C49.734 8.58233 49.547 7.99867 49.547 7.262C49.547 6.66133 49.7057 6.11733 50.023 5.63C50.3403 5.13133 50.8277 4.73467 51.485 4.44C52.1423 4.14533 52.9583 3.998 53.933 3.998C54.613 3.998 55.276 4.09433 55.922 4.287C56.5793 4.46833 57.146 4.72333 57.622 5.052L57.197 6.055C56.6983 5.72633 56.1657 5.48267 55.599 5.324C55.0323 5.154 54.477 5.069 53.933 5.069C52.8903 5.069 52.1027 5.273 51.57 5.681C51.0487 6.07767 50.788 6.59333 50.788 7.228C50.788 7.704 50.9297 8.08933 51.213 8.384C51.5077 8.66733 51.8703 8.88833 52.301 9.047C52.743 9.19433 53.3323 9.35867 54.069 9.54C54.9417 9.75533 55.6443 9.97067 56.177 10.186C56.721 10.39 57.18 10.7073 57.554 11.138C57.928 11.5573 58.115 12.1297 58.115 12.855C58.115 13.4557 57.9507 14.0053 57.622 14.504C57.3047 14.9913 56.8117 15.3823 56.143 15.677C55.4743 15.9603 54.6527 16.102 53.678 16.102ZM60.856 4.1H62.114V14.912H68.778V16H60.856V4.1ZM43.219 36.102C42.335 36.102 41.485 35.9603 40.669 35.677C39.8643 35.3937 39.241 35.0197 38.799 34.555L39.292 33.586C39.7227 34.0167 40.295 34.368 41.009 34.64C41.723 34.9007 42.4597 35.031 43.219 35.031C44.2843 35.031 45.0833 34.8383 45.616 34.453C46.1487 34.0563 46.415 33.5463 46.415 32.923C46.415 32.447 46.2677 32.0673 45.973 31.784C45.6897 31.5007 45.3383 31.2853 44.919 31.138C44.4997 30.9793 43.916 30.8093 43.168 30.628C42.2727 30.4013 41.5587 30.186 41.026 29.982C40.4933 29.7667 40.0343 29.4437 39.649 29.013C39.275 28.5823 39.088 27.9987 39.088 27.262C39.088 26.6613 39.2467 26.1173 39.564 25.63C39.8813 25.1313 40.3687 24.7347 41.026 24.44C41.6833 24.1453 42.4993 23.998 43.474 23.998C44.154 23.998 44.817 24.0943 45.463 24.287C46.1203 24.4683 46.687 24.7233 47.163 25.052L46.738 26.055C46.2393 25.7263 45.7067 25.4827 45.14 25.324C44.5733 25.154 44.018 25.069 43.474 25.069C42.4313 25.069 41.6437 25.273 41.111 25.681C40.5897 26.0777 40.329 26.5933 40.329 27.228C40.329 27.704 40.4707 28.0893 40.754 28.384C41.0487 28.6673 41.4113 28.8883 41.842 29.047C42.284 29.1943 42.8733 29.3587 43.61 29.54C44.4827 29.7553 45.1853 29.9707 45.718 30.186C46.262 30.39 46.721 30.7073 47.095 31.138C47.469 31.5573 47.656 32.1297 47.656 32.855C47.656 33.4557 47.4917 34.0053 47.163 34.504C46.8457 34.9913 46.3527 35.3823 45.684 35.677C45.0153 35.9603 44.1937 36.102 43.219 36.102ZM57.928 31.903H50.448C50.516 32.8323 50.873 33.586 51.519 34.164C52.165 34.7307 52.981 35.014 53.967 35.014C54.5223 35.014 55.0323 34.9177 55.497 34.725C55.9617 34.521 56.364 34.2263 56.704 33.841L57.384 34.623C56.9873 35.099 56.4887 35.4617 55.888 35.711C55.2987 35.9603 54.647 36.085 53.933 36.085C53.015 36.085 52.199 35.8923 51.485 35.507C50.7823 35.1103 50.2327 34.5663 49.836 33.875C49.4393 33.1837 49.241 32.4017 49.241 31.529C49.241 30.6563 49.428 29.8743 49.802 29.183C50.1873 28.4917 50.7087 27.9533 51.366 27.568C52.0347 27.1827 52.7827 26.99 53.61 26.99C54.4373 26.99 55.1797 27.1827 55.837 27.568C56.4943 27.9533 57.01 28.4917 57.384 29.183C57.758 29.863 57.945 30.645 57.945 31.529L57.928 31.903ZM53.61 28.027C52.7487 28.027 52.0233 28.3047 51.434 28.86C50.856 29.404 50.5273 30.118 50.448 31.002H56.789C56.7097 30.118 56.3753 29.404 55.786 28.86C55.208 28.3047 54.4827 28.027 53.61 28.027ZM64.1078 36.085C63.2238 36.085 62.4304 35.8923 61.7278 35.507C61.0364 35.1217 60.4924 34.5833 60.0958 33.892C59.6991 33.1893 59.5008 32.4017 59.5008 31.529C59.5008 30.6563 59.6991 29.8743 60.0958 29.183C60.4924 28.4917 61.0364 27.9533 61.7278 27.568C62.4304 27.1827 63.2238 26.99 64.1078 26.99C64.8784 26.99 65.5641 27.143 66.1648 27.449C66.7768 27.7437 67.2584 28.18 67.6098 28.758L66.7088 29.37C66.4141 28.928 66.0401 28.5993 65.5868 28.384C65.1334 28.1573 64.6404 28.044 64.1078 28.044C63.4618 28.044 62.8781 28.1913 62.3568 28.486C61.8468 28.7693 61.4444 29.1773 61.1498 29.71C60.8664 30.2427 60.7248 30.849 60.7248 31.529C60.7248 32.2203 60.8664 32.8323 61.1498 33.365C61.4444 33.8863 61.8468 34.2943 62.3568 34.589C62.8781 34.8723 63.4618 35.014 64.1078 35.014C64.6404 35.014 65.1334 34.9063 65.5868 34.691C66.0401 34.4757 66.4141 34.147 66.7088 33.705L67.6098 34.317C67.2584 34.895 66.7768 35.337 66.1648 35.643C65.5528 35.9377 64.8671 36.085 64.1078 36.085ZM78.0389 27.058V36H76.8829V34.368C76.5655 34.912 76.1292 35.337 75.5739 35.643C75.0185 35.9377 74.3839 36.085 73.6699 36.085C72.5025 36.085 71.5789 35.762 70.8989 35.116C70.2302 34.4587 69.8959 33.501 69.8959 32.243V27.058H71.1029V32.124C71.1029 33.0647 71.3352 33.7787 71.7999 34.266C72.2645 34.7533 72.9275 34.997 73.7889 34.997C74.7295 34.997 75.4719 34.7137 76.0159 34.147C76.5599 33.569 76.8319 32.77 76.8319 31.75V27.058H78.0389ZM82.5753 28.809C82.8587 28.2083 83.278 27.755 83.8333 27.449C84.4 27.143 85.097 26.99 85.9243 26.99V28.163L85.6353 28.146C84.6947 28.146 83.958 28.435 83.4253 29.013C82.8927 29.591 82.6263 30.4013 82.6263 31.444V36H81.4193V27.058H82.5753V28.809ZM95.8128 31.903H88.3328C88.4008 32.8323 88.7578 33.586 89.4038 34.164C90.0498 34.7307 90.8658 35.014 91.8518 35.014C92.4071 35.014 92.9171 34.9177 93.3818 34.725C93.8464 34.521 94.2488 34.2263 94.5888 33.841L95.2688 34.623C94.8721 35.099 94.3734 35.4617 93.7728 35.711C93.1834 35.9603 92.5318 36.085 91.8178 36.085C90.8998 36.085 90.0838 35.8923 89.3698 35.507C88.6671 35.1103 88.1174 34.5663 87.7208 33.875C87.3241 33.1837 87.1258 32.4017 87.1258 31.529C87.1258 30.6563 87.3128 29.8743 87.6868 29.183C88.0721 28.4917 88.5934 27.9533 89.2508 27.568C89.9194 27.1827 90.6674 26.99 91.4948 26.99C92.3221 26.99 93.0644 27.1827 93.7218 27.568C94.3791 27.9533 94.8948 28.4917 95.2688 29.183C95.6428 29.863 95.8298 30.645 95.8298 31.529L95.8128 31.903ZM91.4948 28.027C90.6334 28.027 89.9081 28.3047 89.3188 28.86C88.7408 29.404 88.4121 30.118 88.3328 31.002H94.6738C94.5944 30.118 94.2601 29.404 93.6708 28.86C93.0928 28.3047 92.3674 28.027 91.4948 28.027Z" fill="#9CABC1"/>
</svg>
