<svg width="140" height="140" viewBox="0 0 140 140" fill="none" xmlns="http://www.w3.org/2000/svg">
<circle cx="70" cy="70" r="70" fill="#F3F8FF"/>
<path d="M31 97V38.5C31 37.7044 31.3161 36.9413 31.8787 36.3787C32.4413 35.8161 33.2044 35.5 34 35.5H50.5V97H31Z" fill="#3E5293"/>
<path d="M47.5 53.5H40C39.2044 53.5 38.4413 53.1839 37.8787 52.6213C37.3161 52.0587 37 51.2957 37 50.5V44.5C37 43.7044 37.3161 42.9413 37.8787 42.3787C38.4413 41.8161 39.2044 41.5 40 41.5H47.5V53.5Z" fill="#E4E8EF"/>
<path d="M47.5 71.5H40C39.2044 71.5 38.4413 71.1839 37.8787 70.6213C37.3161 70.0587 37 69.2956 37 68.5V62.5C37 61.7043 37.3161 60.9413 37.8787 60.3787C38.4413 59.8161 39.2044 59.5 40 59.5H47.5V71.5Z" fill="#E4E8EF"/>
<path d="M47.5 89.5H40C39.2044 89.5 38.4413 89.1839 37.8787 88.6213C37.3161 88.0587 37 87.2956 37 86.5V80.5C37 79.7044 37.3161 78.9413 37.8787 78.3787C38.4413 77.8161 39.2044 77.5 40 77.5H47.5V89.5Z" fill="#E4E8EF"/>
<path d="M50.5 104.5H28C27.6022 104.5 27.2206 104.342 26.9393 104.061C26.658 103.779 26.5 103.398 26.5 103V100C26.5 98.8065 26.9741 97.6619 27.818 96.818C28.6619 95.9741 29.8065 95.5 31 95.5H50.5V104.5Z" fill="#2E396D"/>
<path d="M109 97V38.5C109 37.7044 108.684 36.9413 108.121 36.3787C107.559 35.8161 106.796 35.5 106 35.5H89.5V97H109Z" fill="#3E5293"/>
<path d="M92.5 53.5H100C100.796 53.5 101.559 53.1839 102.121 52.6213C102.684 52.0587 103 51.2957 103 50.5V44.5C103 43.7044 102.684 42.9413 102.121 42.3787C101.559 41.8161 100.796 41.5 100 41.5H92.5V53.5Z" fill="#E4E8EF"/>
<path d="M92.5 71.5H100C100.796 71.5 101.559 71.1839 102.121 70.6213C102.684 70.0587 103 69.2956 103 68.5V62.5C103 61.7043 102.684 60.9413 102.121 60.3787C101.559 59.8161 100.796 59.5 100 59.5H92.5V71.5Z" fill="#E4E8EF"/>
<path d="M92.5 89.5H100C100.796 89.5 101.559 89.1839 102.121 88.6213C102.684 88.0587 103 87.2956 103 86.5V80.5C103 79.7044 102.684 78.9413 102.121 78.3787C101.559 77.8161 100.796 77.5 100 77.5H92.5V89.5Z" fill="#E4E8EF"/>
<path d="M89.5 104.5H112C112.398 104.5 112.779 104.342 113.061 104.061C113.342 103.779 113.5 103.398 113.5 103V100C113.5 98.8065 113.026 97.6619 112.182 96.818C111.338 95.9741 110.193 95.5 109 95.5H89.5V104.5Z" fill="#2E396D"/>
<path d="M43 49H47.5C47.8978 49 48.2794 48.842 48.5607 48.5607C48.842 48.2794 49 47.8978 49 47.5C49 47.1022 48.842 46.7206 48.5607 46.4393C48.2794 46.158 47.8978 46 47.5 46H43C42.6022 46 42.2206 46.158 41.9393 46.4393C41.658 46.7206 41.5 47.1022 41.5 47.5C41.5 47.8978 41.658 48.2794 41.9393 48.5607C42.2206 48.842 42.6022 49 43 49Z" fill="#E5A30E"/>
<path d="M43 67H47.5C47.8978 67 48.2794 66.842 48.5607 66.5607C48.842 66.2794 49 65.8978 49 65.5C49 65.1022 48.842 64.7206 48.5607 64.4393C48.2794 64.158 47.8978 64 47.5 64H43C42.6022 64 42.2206 64.158 41.9393 64.4393C41.658 64.7206 41.5 65.1022 41.5 65.5C41.5 65.8978 41.658 66.2794 41.9393 66.5607C42.2206 66.842 42.6022 67 43 67Z" fill="#E5A30E"/>
<path d="M43 85H47.5C47.8978 85 48.2794 84.842 48.5607 84.5607C48.842 84.2794 49 83.8978 49 83.5C49 83.1022 48.842 82.7206 48.5607 82.4393C48.2794 82.158 47.8978 82 47.5 82H43C42.6022 82 42.2206 82.158 41.9393 82.4393C41.658 82.7206 41.5 83.1022 41.5 83.5C41.5 83.8978 41.658 84.2794 41.9393 84.5607C42.2206 84.842 42.6022 85 43 85Z" fill="#E5A30E"/>
<path d="M97 49H92.5C92.1022 49 91.7206 48.842 91.4393 48.5607C91.158 48.2794 91 47.8978 91 47.5C91 47.1022 91.158 46.7206 91.4393 46.4393C91.7206 46.158 92.1022 46 92.5 46H97C97.3978 46 97.7794 46.158 98.0607 46.4393C98.342 46.7206 98.5 47.1022 98.5 47.5C98.5 47.8978 98.342 48.2794 98.0607 48.5607C97.7794 48.842 97.3978 49 97 49Z" fill="#EFA143"/>
<path d="M97 67H92.5C92.1022 67 91.7206 66.842 91.4393 66.5607C91.158 66.2794 91 65.8978 91 65.5C91 65.1022 91.158 64.7206 91.4393 64.4393C91.7206 64.158 92.1022 64 92.5 64H97C97.3978 64 97.7794 64.158 98.0607 64.4393C98.342 64.7206 98.5 65.1022 98.5 65.5C98.5 65.8978 98.342 66.2794 98.0607 66.5607C97.7794 66.842 97.3978 67 97 67Z" fill="#EFA143"/>
<path d="M97 85H92.5C92.1022 85 91.7206 84.842 91.4393 84.5607C91.158 84.2794 91 83.8978 91 83.5C91 83.1022 91.158 82.7206 91.4393 82.4393C91.7206 82.158 92.1022 82 92.5 82H97C97.3978 82 97.7794 82.158 98.0607 82.4393C98.342 82.7206 98.5 83.1022 98.5 83.5C98.5 83.8978 98.342 84.2794 98.0607 84.5607C97.7794 84.842 97.3978 85 97 85Z" fill="#EFA143"/>
<path d="M50.5 26.5H89.5C90.2957 26.5 91.0587 26.8161 91.6213 27.3787C92.1839 27.9413 92.5 28.7044 92.5 29.5V107.5H47.5V29.5C47.5 28.7044 47.8161 27.9413 48.3787 27.3787C48.9413 26.8161 49.7044 26.5 50.5 26.5Z" fill="#3E5293"/>
<path d="M83.5 32.5H56.5C54.8431 32.5 53.5 33.8431 53.5 35.5V41.5C53.5 43.1569 54.8431 44.5 56.5 44.5H83.5C85.1569 44.5 86.5 43.1569 86.5 41.5V35.5C86.5 33.8431 85.1569 32.5 83.5 32.5Z" fill="#E4E8EF"/>
<path d="M83.5 50.5H56.5C54.8431 50.5 53.5 51.8431 53.5 53.5V59.5C53.5 61.1569 54.8431 62.5 56.5 62.5H83.5C85.1569 62.5 86.5 61.1569 86.5 59.5V53.5C86.5 51.8431 85.1569 50.5 83.5 50.5Z" fill="#E4E8EF"/>
<path d="M83.5 68.5H56.5C54.8431 68.5 53.5 69.8431 53.5 71.5V77.5C53.5 79.1569 54.8431 80.5 56.5 80.5H83.5C85.1569 80.5 86.5 79.1569 86.5 77.5V71.5C86.5 69.8431 85.1569 68.5 83.5 68.5Z" fill="#E4E8EF"/>
<path d="M83.5 86.5H56.5C54.8431 86.5 53.5 87.8431 53.5 89.5V95.5C53.5 97.1568 54.8431 98.5 56.5 98.5H83.5C85.1569 98.5 86.5 97.1568 86.5 95.5V89.5C86.5 87.8431 85.1569 86.5 83.5 86.5Z" fill="#E4E8EF"/>
<path d="M47.5 104.5H92.5C93.6935 104.5 94.8381 104.974 95.682 105.818C96.5259 106.662 97 107.807 97 109V112C97 112.398 96.842 112.779 96.5607 113.061C96.2794 113.342 95.8978 113.5 95.5 113.5H44.5C44.1022 113.5 43.7206 113.342 43.4393 113.061C43.158 112.779 43 112.398 43 112V109C43 107.807 43.4741 106.662 44.318 105.818C45.1619 104.974 46.3065 104.5 47.5 104.5Z" fill="#2E396D"/>
<path d="M62.5 40H59.5C59.1022 40 58.7206 39.842 58.4393 39.5607C58.158 39.2794 58 38.8978 58 38.5C58 38.1022 58.158 37.7206 58.4393 37.4393C58.7206 37.158 59.1022 37 59.5 37H62.5C62.8978 37 63.2794 37.158 63.5607 37.4393C63.842 37.7206 64 38.1022 64 38.5C64 38.8978 63.842 39.2794 63.5607 39.5607C63.2794 39.842 62.8978 40 62.5 40Z" fill="#E5A30E"/>
<path d="M80.5 40H74.5C74.1022 40 73.7206 39.842 73.4393 39.5607C73.158 39.2794 73 38.8978 73 38.5C73 38.1022 73.158 37.7206 73.4393 37.4393C73.7206 37.158 74.1022 37 74.5 37H80.5C80.8978 37 81.2793 37.158 81.5607 37.4393C81.842 37.7206 82 38.1022 82 38.5C82 38.8978 81.842 39.2794 81.5607 39.5607C81.2793 39.842 80.8978 40 80.5 40Z" fill="#EFA143"/>
<path d="M62.5 58H59.5C59.1022 58 58.7206 57.842 58.4393 57.5607C58.158 57.2794 58 56.8978 58 56.5C58 56.1022 58.158 55.7206 58.4393 55.4393C58.7206 55.158 59.1022 55 59.5 55H62.5C62.8978 55 63.2794 55.158 63.5607 55.4393C63.842 55.7206 64 56.1022 64 56.5C64 56.8978 63.842 57.2794 63.5607 57.5607C63.2794 57.842 62.8978 58 62.5 58Z" fill="#E5A30E"/>
<path d="M80.5 58H74.5C74.1022 58 73.7206 57.842 73.4393 57.5607C73.158 57.2794 73 56.8978 73 56.5C73 56.1022 73.158 55.7206 73.4393 55.4393C73.7206 55.158 74.1022 55 74.5 55H80.5C80.8978 55 81.2793 55.158 81.5607 55.4393C81.842 55.7206 82 56.1022 82 56.5C82 56.8978 81.842 57.2794 81.5607 57.5607C81.2793 57.842 80.8978 58 80.5 58Z" fill="#EFA143"/>
<path d="M62.5 76H59.5C59.1022 76 58.7206 75.842 58.4393 75.5607C58.158 75.2794 58 74.8978 58 74.5C58 74.1022 58.158 73.7206 58.4393 73.4393C58.7206 73.158 59.1022 73 59.5 73H62.5C62.8978 73 63.2794 73.158 63.5607 73.4393C63.842 73.7206 64 74.1022 64 74.5C64 74.8978 63.842 75.2794 63.5607 75.5607C63.2794 75.842 62.8978 76 62.5 76Z" fill="#E5A30E"/>
<path d="M80.5 76H74.5C74.1022 76 73.7206 75.842 73.4393 75.5607C73.158 75.2794 73 74.8978 73 74.5C73 74.1022 73.158 73.7206 73.4393 73.4393C73.7206 73.158 74.1022 73 74.5 73H80.5C80.8978 73 81.2793 73.158 81.5607 73.4393C81.842 73.7206 82 74.1022 82 74.5C82 74.8978 81.842 75.2794 81.5607 75.5607C81.2793 75.842 80.8978 76 80.5 76Z" fill="#EFA143"/>
<path d="M62.5 94H59.5C59.1022 94 58.7206 93.842 58.4393 93.5607C58.158 93.2794 58 92.8978 58 92.5C58 92.1022 58.158 91.7206 58.4393 91.4393C58.7206 91.158 59.1022 91 59.5 91H62.5C62.8978 91 63.2794 91.158 63.5607 91.4393C63.842 91.7206 64 92.1022 64 92.5C64 92.8978 63.842 93.2794 63.5607 93.5607C63.2794 93.842 62.8978 94 62.5 94Z" fill="#E5A30E"/>
<path d="M80.5 94H74.5C74.1022 94 73.7206 93.842 73.4393 93.5607C73.158 93.2794 73 92.8978 73 92.5C73 92.1022 73.158 91.7206 73.4393 91.4393C73.7206 91.158 74.1022 91 74.5 91H80.5C80.8978 91 81.2793 91.158 81.5607 91.4393C81.842 91.7206 82 92.1022 82 92.5C82 92.8978 81.842 93.2794 81.5607 93.5607C81.2793 93.842 80.8978 94 80.5 94Z" fill="#EFA143"/>
</svg>
