<svg width="140" height="140" viewBox="0 0 140 140" fill="none" xmlns="http://www.w3.org/2000/svg">
<circle cx="70" cy="70" r="70" fill="#F3F8FF"/>
<g clip-path="url(#clip0_33_182)">
<path d="M86.4136 65.751L85.6899 66.4747H85.6905C85.3259 66.8324 84.9833 67.2087 84.6592 67.5328C83.2111 68.9562 81.8838 70.024 80.4597 70.0171C80.4597 70.0171 77.7584 70.0041 77.7371 70.0034V70.0041C75.8564 69.9951 73.9668 70.6729 73.9434 70.6811L60.0086 76.1413C56.6846 77.3676 57.6843 82.7214 61.9512 82.0107L68.1042 81.1785L85.6466 100.937L94.0484 92.5144C97.9266 88.6431 94.5558 85.8422 97.6739 82.729C97.6753 82.7269 100.116 80.2893 100.116 80.2893L100.534 79.8712C97.6368 76.9749 89.5969 68.9343 86.4136 65.751Z" fill="#EFA143"/>
<path d="M61.8847 79.4818C77.0356 73.5458 77.8197 72.9875 80.6082 73.0006V72.9999C80.6309 73.0006 83.4839 73.0143 83.4839 73.0143C84.9876 73.0219 86.3898 71.8944 87.9189 70.3913V70.3906C88.2609 70.0487 88.6234 69.6518 89.0079 69.2735L89.4714 68.8093L86.4131 65.751L85.6894 66.4747H85.6901C85.3255 66.8324 84.9828 67.2087 84.6587 67.5328C83.2106 68.9562 81.8833 70.024 80.4592 70.0171C80.4592 70.0171 77.7579 70.0041 77.7367 70.0034V70.0041C75.8559 69.9951 73.9663 70.6729 73.9429 70.6811L60.0081 76.1413C57.3227 77.1314 57.4607 80.8139 59.8605 81.8192C60.0603 80.8222 60.7202 79.9117 61.8847 79.4818Z" fill="#FFDD94"/>
<path d="M85.403 102.764C86.5895 101.575 86.582 99.6558 85.3934 98.4686L68.2025 81.174C68.1497 81.1212 68.0755 81.0965 68.0014 81.1068L61.9397 81.9802C57.6728 82.6908 56.798 77.4469 60.0081 76.3222L69.5278 72.4111L65.1126 70.6814C65.0893 70.6732 63.1996 69.9948 61.3189 70.0044L61.3182 70.0037C61.2976 70.0037 58.5957 70.0167 58.5957 70.0167C57.1716 70.0236 55.8443 68.9566 54.3962 67.5331H54.3969C54.0728 67.209 53.7294 66.8328 53.3655 66.475V66.4743L52.6143 65.7231C37.0597 81.277 47.7577 70.5798 38.4941 79.8433C39.1609 80.5101 41.3829 82.7293 41.3829 82.7293C44.5002 85.8425 41.1295 88.6427 45.0077 92.514L54.0885 101.581L54.0817 101.588L64.2585 111.764C65.4464 112.953 67.3731 112.953 68.5617 111.765C69.7502 110.576 69.7502 108.649 68.5617 107.46L72.4234 111.322C73.6312 112.529 75.6444 112.566 76.8289 111.336C77.9769 110.144 77.9632 108.246 76.7877 107.071L78.3594 108.643C79.5665 109.85 81.5805 109.887 82.7642 108.657C83.913 107.464 83.8986 105.567 82.723 104.391L81.1335 102.801L81.1362 102.799C82.3275 103.952 84.2275 103.94 85.403 102.764Z" fill="#FFDD94"/>
<path d="M59.8295 102.435L59.8377 102.427L48.7814 91.3865C44.0593 86.6733 48.1627 83.2628 44.3669 79.4718C44.3649 79.4704 42.3049 77.4118 41.6155 76.7231C40.5945 77.7442 41.1445 77.1949 38.4961 79.8433C39.1628 80.51 41.3841 82.7292 41.3841 82.7292C44.5015 85.8425 41.1314 88.6426 45.0096 92.5139L54.0898 101.581L54.0836 101.588L64.2597 111.764C65.4483 112.953 67.375 112.953 68.5629 111.765C68.6646 111.663 68.7545 111.555 68.8383 111.443L59.8295 102.435Z" fill="#EFA143"/>
<path d="M65.4811 90.4453C64.7787 89.7333 63.632 89.7257 62.9199 90.4281C62.2079 91.1306 62.2003 92.2773 62.9028 92.9893L77.1637 107.445L78.3612 108.643C79.5683 109.85 81.5816 109.887 82.766 108.657C82.8807 108.538 82.9809 108.41 83.0729 108.278L65.4811 90.4453Z" fill="#EFA143"/>
<path d="M70.1901 86.542C69.4876 85.8299 68.341 85.8224 67.6289 86.5248C66.9168 87.2273 66.9093 88.374 67.6117 89.086L81.1496 102.809C82.341 103.951 84.232 103.937 85.4041 102.763C85.5393 102.627 85.6581 102.481 85.7625 102.328L70.1901 86.542Z" fill="#EFA143"/>
<path d="M60.9243 94.5172C60.2233 93.8045 59.0766 93.7942 58.3631 94.4959C57.6504 95.197 57.6408 96.3437 58.3419 97.0564L69.0103 107.907L72.4256 111.322C73.6328 112.529 75.646 112.566 76.8305 111.337C76.9369 111.226 77.0303 111.107 77.1168 110.986L60.9243 94.5172Z" fill="#EFA143"/>
<path d="M102.539 82.0592C102.981 82.5014 103.698 82.5014 104.141 82.0592L114.168 72.0321C114.61 71.5899 114.61 70.8731 114.168 70.4309C113.776 70.0395 95.7861 52.0494 95.9097 52.173C95.4675 51.7301 94.7507 51.7301 94.3085 52.173L84.2814 62.2001C83.8385 62.6423 83.8385 63.3591 84.2814 63.8013C84.8849 64.4049 103.1 82.6195 102.539 82.0592Z" fill="#3E5293"/>
<path d="M86.627 64.7454L96.8539 54.5185C97.1519 54.2205 97.5721 54.121 97.9532 54.2164L95.9097 52.173C95.4675 51.7308 94.7507 51.7308 94.3085 52.173L84.2814 62.2C83.8385 62.6422 83.8385 63.3591 84.2814 63.8013L86.3248 65.8448C86.2287 65.4637 86.329 65.0434 86.627 64.7454Z" fill="#2E396D"/>
<path d="M36.46 82.0592C36.0178 82.5014 35.3009 82.5014 34.8587 82.0592L24.8316 72.0321C24.3895 71.5899 24.3895 70.8731 24.8316 70.4309C25.223 70.0395 43.2132 52.0494 43.0896 52.173C43.5318 51.7301 44.2486 51.7301 44.6908 52.173L54.7179 62.2001C55.1608 62.6423 55.1608 63.3591 54.7179 63.8013C54.1143 64.4049 35.8997 82.6195 36.46 82.0592Z" fill="#3E5293"/>
<path d="M38.0297 79.6998L27.1917 68.8618C27.0488 68.7189 26.95 68.55 26.8923 68.3701L24.8316 70.4307C24.3895 70.8729 24.3895 71.5898 24.8316 72.032L34.8587 82.0591C35.3009 82.5013 36.0178 82.5013 36.46 82.0591L38.5206 79.9985C38.3414 79.9408 38.1718 79.8419 38.0297 79.6998Z" fill="#2E396D"/>
<path d="M110.277 34.7263C110.827 34.201 110.523 33.2857 109.763 33.1779L103.892 32.3422C103.59 32.299 103.329 32.1136 103.194 31.8451L100.568 26.6342C100.228 25.9592 99.2459 25.9592 98.906 26.6342L96.2803 31.8451C96.145 32.1136 95.8841 32.299 95.582 32.3422L89.7105 33.1779C88.9504 33.2857 88.6469 34.201 89.1969 34.7263L93.4458 38.783C93.6642 38.991 93.7638 39.2918 93.7123 39.5864L92.7091 45.3144C92.5793 46.0559 93.3737 46.6217 94.0542 46.2715L99.3057 43.5668C99.5755 43.4281 99.8982 43.4281 100.168 43.5668L105.42 46.2715C106.099 46.6217 106.894 46.0559 106.764 45.3144L105.761 39.5864C105.709 39.2918 105.81 38.991 106.028 38.783L110.277 34.7263Z" fill="#FECA57"/>
<path d="M100.123 38.5382C100.176 38.2436 100.075 37.9435 99.857 37.7348L95.6088 33.6781C95.1872 33.2757 95.2682 32.6467 95.6692 32.3247C95.6404 32.3316 95.6115 32.3384 95.582 32.3426L89.7105 33.1782C88.9504 33.286 88.6469 34.2013 89.1969 34.7266L93.4451 38.7833C93.6635 38.9913 93.7631 39.2921 93.7116 39.5867L92.7084 45.3147C92.5786 46.0562 93.3731 46.622 94.0535 46.2719L99.237 43.6022L100.123 38.5382Z" fill="#F4B537"/>
<path d="M96.1227 32.1294L101.994 31.2937C102.287 31.2519 102.539 31.0754 102.677 30.8213L100.568 26.6342C100.228 25.9592 99.2455 25.9592 98.9057 26.6342L96.2799 31.8451C96.2195 31.9653 96.133 32.0683 96.0293 32.1493C96.0595 32.1417 96.0904 32.1342 96.1227 32.1294Z" fill="#F4B537"/>
<path d="M49.8035 34.7264C50.3535 34.2012 50.0501 33.2859 49.2899 33.1781L43.4184 32.3424C43.117 32.2992 42.8561 32.1138 42.7208 31.8453L40.0951 26.6336C39.7552 25.9594 38.7726 25.9594 38.4327 26.6336L35.807 31.8453C35.6724 32.1131 35.4115 32.2992 35.1093 32.3417L29.2378 33.1781C28.4777 33.2859 28.1742 34.2012 28.7242 34.7264L32.9732 38.7831C33.1915 38.9912 33.2911 39.292 33.2396 39.5865L32.2364 45.3145C32.1066 46.0561 32.9011 46.6219 33.5809 46.2717L38.8323 43.567C39.1029 43.4283 39.4249 43.4283 39.6954 43.567L44.9469 46.2717C45.6267 46.6219 46.4211 46.0561 46.2914 45.3145L45.2882 39.5865C45.2367 39.292 45.3362 38.9912 45.5546 38.7831L49.8035 34.7264Z" fill="#FECA57"/>
<path d="M39.6515 38.5382C39.703 38.2436 39.6027 37.9435 39.3851 37.7348L35.1361 33.6781C34.7152 33.2757 34.7955 32.6467 35.1972 32.3247C35.1684 32.3316 35.1389 32.3384 35.1093 32.3426L29.2378 33.1782C28.4777 33.286 28.1742 34.2013 28.7242 34.7266L32.9732 38.7833C33.1915 38.9913 33.2911 39.2921 33.2396 39.5867L32.2364 45.3147C32.1066 46.0562 32.9011 46.622 33.5816 46.2719L38.765 43.6022L39.6515 38.5382Z" fill="#F4B537"/>
<path d="M35.65 32.1296L41.5215 31.2939C41.814 31.252 42.0667 31.0756 42.2054 30.8215L40.0954 26.6336C39.7555 25.9594 38.7729 25.9594 38.433 26.6336L35.8073 31.8453C35.7468 31.9654 35.6603 32.0678 35.5566 32.1495C35.5875 32.1419 35.6178 32.1344 35.65 32.1296Z" fill="#F4B537"/>
<path d="M85.2362 37.8384C86.0574 37.0542 85.6042 35.6878 84.4692 35.5264L75.7028 34.2788C75.2524 34.2143 74.8623 33.9369 74.6611 33.5372L70.7404 25.7555C70.233 24.7482 68.7663 24.7482 68.2589 25.7555L64.3381 33.5372C64.1369 33.9369 63.7469 34.2143 63.2965 34.2788L54.5301 35.5264C53.3951 35.6878 52.9419 37.0542 53.7631 37.8384L60.1063 43.8953C60.4325 44.2063 60.5815 44.6554 60.5046 45.0949L59.007 53.6477C58.8134 54.7546 59.9999 55.5992 61.0148 55.0766L68.8556 51.0385C69.2586 50.8311 69.7407 50.8311 70.1437 51.0385L77.9845 55.0766C78.9994 55.5992 80.1859 54.7546 79.9923 53.6477L78.4947 45.0949C78.4178 44.6554 78.5668 44.2063 78.8929 43.8953L85.2362 37.8384Z" fill="#FECA57"/>
<path d="M69.2187 33.3105C69.6691 33.2459 70.0585 32.9692 70.2603 32.5689L72.2173 28.6845L70.7417 25.756C70.2343 24.748 68.7676 24.748 68.2601 25.756L64.3394 33.5371C64.2268 33.7609 64.0538 33.9442 63.8457 34.0754L69.2187 33.3105Z" fill="#F4B537"/>
<path d="M64.928 52.6796L66.4255 44.1268C66.5024 43.6873 66.3534 43.2389 66.0273 42.9272L59.684 36.8703C59.0159 36.2324 59.191 35.21 59.89 34.7637L54.5301 35.5265C53.3951 35.6879 52.9419 37.0543 53.7631 37.8385L60.1063 43.8954C60.4325 44.2064 60.5815 44.6555 60.5046 45.0949L59.007 53.6471C58.8134 54.7547 59.9999 55.5992 61.0148 55.076L64.9163 53.0669C64.9019 52.9433 64.9046 52.8135 64.928 52.6796Z" fill="#F4B537"/>
</g>
<defs>
<clipPath id="clip0_33_182">
<rect width="90" height="90" fill="white" transform="translate(24.5 25)"/>
</clipPath>
</defs>
</svg>
