<svg width="140" height="140" viewBox="0 0 140 140" fill="none" xmlns="http://www.w3.org/2000/svg">
<circle cx="70" cy="70" r="70" fill="#F3F8FF"/>
<g clip-path="url(#clip0_33_211)">
<path d="M26.5 48.5C26.5 46.9087 27.1321 45.3826 28.2574 44.2574C29.3826 43.1321 30.9087 42.5 32.5 42.5H106C107.193 42.5 108.338 42.9741 109.182 43.818C110.026 44.6619 110.5 45.8065 110.5 47V59H26.5V48.5Z" fill="#2E396D"/>
<path d="M92.5 47C92.5003 50.097 91.862 53.1608 90.625 56H49.375C48.0385 52.9346 47.4021 49.6098 47.5122 46.2675C47.6222 42.9252 48.4759 39.6494 50.0111 36.6785C51.5463 33.7076 53.7244 31.1163 56.3871 29.0931C59.0497 27.0698 62.1298 25.6655 65.4034 24.9823C68.677 24.2992 72.0617 24.3543 75.3113 25.1437C78.5609 25.9331 81.5936 27.4369 84.189 29.5458C86.7843 31.6546 88.8769 34.3155 90.3146 37.3348C91.7523 40.3541 92.4988 43.6559 92.5 47Z" fill="#EFA143"/>
<path d="M76.5055 46.301C76.9565 45.6803 77.2647 44.9676 77.4081 44.2139C77.5515 43.4602 77.5264 42.6841 77.3348 41.9412C77.1432 41.1982 76.7896 40.5069 76.2996 39.9166C75.8095 39.3262 75.195 38.8516 74.5 38.5265V36.5C74.5 36.1022 74.342 35.7206 74.0607 35.4393C73.7794 35.158 73.3978 35 73 35C72.6022 35 72.2206 35.158 71.9393 35.4393C71.658 35.7206 71.5 36.1022 71.5 36.5V38H68.5V36.5C68.5 36.1022 68.342 35.7206 68.0607 35.4393C67.7794 35.158 67.3978 35 67 35C66.6022 35 66.2206 35.158 65.9393 35.4393C65.658 35.7206 65.5 36.1022 65.5 36.5V38H62.5C62.1022 38 61.7206 38.158 61.4393 38.4393C61.158 38.7206 61 39.1022 61 39.5C61 39.8978 61.158 40.2794 61.4393 40.5607C61.7206 40.842 62.1022 41 62.5 41H65.5V53H62.5C62.1022 53 61.7206 53.158 61.4393 53.4393C61.158 53.7206 61 54.1022 61 54.5C61 54.8978 61.158 55.2794 61.4393 55.5607C61.7206 55.842 62.1022 56 62.5 56L74.5 55.9235C75.5657 55.7752 76.5596 55.3012 77.3456 54.5663C78.1315 53.8315 78.6712 52.8717 78.8908 51.8184C79.1103 50.765 78.999 49.6696 78.572 48.6819C78.145 47.6943 77.4233 46.8627 76.5055 46.301ZM68.5 41H72.25C72.8467 41 73.419 41.2371 73.841 41.659C74.2629 42.081 74.5 42.6533 74.5 43.25C74.5 43.8467 74.2629 44.419 73.841 44.841C73.419 45.2629 72.8467 45.5 72.25 45.5H68.5V41ZM73.75 53H68.5V48.5H73.75C74.3467 48.5 74.919 48.7371 75.341 49.159C75.7629 49.581 76 50.1533 76 50.75C76 51.3467 75.7629 51.919 75.341 52.341C74.919 52.7629 74.3467 53 73.75 53Z" fill="#FFDD94"/>
<path d="M94 47.0001C94.0005 50.0852 93.4046 53.1412 92.245 56.0001H88.975C90.4927 52.7992 91.1761 49.2665 90.9614 45.7305C90.7468 42.1946 89.6411 38.7704 87.7474 35.7766C85.8537 32.7828 83.2334 30.3168 80.1303 28.6079C77.0273 26.899 73.5424 26.0029 70 26.0029C66.4576 26.0029 62.9727 26.899 59.8696 28.6079C56.7666 30.3168 54.1463 32.7828 52.2526 35.7766C50.3589 38.7704 49.2532 42.1946 49.0386 45.7305C48.8239 49.2665 49.5073 52.7992 51.025 56.0001H47.755C46.4258 52.7179 45.8393 49.1823 46.0377 45.6467C46.2361 42.1112 47.2143 38.6634 48.9024 35.5505C50.5904 32.4376 52.9464 29.7368 55.8013 27.6419C58.6562 25.5469 61.9394 24.1097 65.4152 23.4332C68.8911 22.7567 72.4737 22.8578 75.9059 23.7292C79.3381 24.6006 82.535 26.2207 85.2672 28.4733C87.9994 30.7259 90.1994 33.5552 91.7092 36.7584C93.219 39.9615 94.0013 43.459 94 47.0001Z" fill="#FFDD94"/>
<path d="M110.5 59V107C110.5 108.193 110.026 109.338 109.182 110.182C108.338 111.026 107.193 111.5 106 111.5H32.5C30.9087 111.5 29.3826 110.868 28.2574 109.743C27.1321 108.617 26.5 107.091 26.5 105.5V48.5C26.499 49.2882 26.6535 50.0689 26.9547 50.7973C27.2559 51.5257 27.6978 52.1875 28.2552 52.7448C28.8125 53.3022 29.4743 53.7441 30.2027 54.0453C30.9311 54.3465 31.7118 54.501 32.5 54.5H106C107.193 54.5 108.338 54.9741 109.182 55.818C110.026 56.6619 110.5 57.8065 110.5 59Z" fill="#3E5293"/>
<path d="M95.5 75.5H110.5C111.296 75.5 112.059 75.8161 112.621 76.3787C113.184 76.9413 113.5 77.7044 113.5 78.5V90.5C113.5 91.2956 113.184 92.0587 112.621 92.6213C112.059 93.1839 111.296 93.5 110.5 93.5H95.5C93.9087 93.5 92.3826 92.8679 91.2574 91.7426C90.1321 90.6174 89.5 89.0913 89.5 87.5V81.5C89.5 79.9087 90.1321 78.3826 91.2574 77.2574C92.3826 76.1321 93.9087 75.5 95.5 75.5Z" fill="#2E396D"/>
<path d="M98.5 87.5C100.157 87.5 101.5 86.1569 101.5 84.5C101.5 82.8431 100.157 81.5 98.5 81.5C96.8431 81.5 95.5 82.8431 95.5 84.5C95.5 86.1569 96.8431 87.5 98.5 87.5Z" fill="#F7D33C"/>
</g>
<defs>
<clipPath id="clip0_33_211">
<rect width="90" height="90" fill="white" transform="translate(25 23)"/>
</clipPath>
</defs>
</svg>
