<svg width="80" height="80" viewBox="0 0 80 80" fill="none" xmlns="http://www.w3.org/2000/svg">
<circle cx="40" cy="40" r="40" fill="#027CEF"/>
<path fill-rule="evenodd" clip-rule="evenodd" d="M30.58 41.9588C31.1534 41.2011 43.2666 33.799 44.6242 32.9714C45.6892 32.3069 48.3108 30.2786 49.4928 30.4535C49.4928 31.2811 44.5422 35.1162 43.7581 36.0021L37.1339 42.0404C36.9457 42.2161 36.7463 42.3796 36.5371 42.5299C36.0806 42.903 35.8465 43.2177 35.3667 43.5791C34.0091 44.7447 34.0793 44.2318 33.8687 46.6098C33.7516 47.9853 33.6229 49.3492 33.4941 50.713L30.5332 41.9588H30.58ZM20.0468 38.8697C20.4798 40.0354 22.6099 40.3385 24.3303 40.8863C30.58 42.903 28.8244 41.0029 31.0364 47.8804C31.446 49.1743 32.277 52.31 32.9909 53.126C35.039 53.2892 35.472 52.0302 36.4434 51.1094C37.3209 50.1885 38.2635 49.3315 39.264 48.5449C39.7672 48.9878 40.4343 49.4191 41.0312 49.8388L46.6489 53.9886C50.6164 56.8795 50.4642 53.1609 51.5644 48.0436C51.9389 46.3067 56.0117 27.9939 56 26.6767C56 23.8791 53.0507 25.3478 52.1144 25.6975C50.5227 26.3037 49.013 26.8632 47.433 27.5043C44.3082 28.67 41.2185 29.8357 38.0702 31.083C34.922 32.3302 31.8791 33.4143 28.7776 34.6616L21.7555 37.3893C20.8427 37.6924 20.1521 38.112 20 38.8697H20.0468Z" fill="white"/>
</svg>
