<svg width="42" height="42" viewBox="0 0 42 42" fill="none" xmlns="http://www.w3.org/2000/svg">
<path d="M41 0H1C0.447715 0 0 0.447717 0 1V41C0 41.5523 0.447717 42 1 42H41C41.5523 42 42 41.5523 42 41V1C42 0.447715 41.5523 0 41 0Z" fill="#027CEF"/>
<path fill-rule="evenodd" clip-rule="evenodd" d="M29.3535 16.7136C29.6201 22.7771 25.1016 29.531 17.1035 29.531C14.7622 29.5342 12.4695 28.8625 10.5 27.5964C12.7783 27.8694 15.0719 27.2277 16.8779 25.8123C15.9784 25.7954 15.1066 25.4977 14.3846 24.9609C13.6626 24.424 13.1266 23.6748 12.8516 22.8181C13.4977 22.9436 14.164 22.9202 14.7998 22.7498C13.8152 22.5508 12.9309 22.0145 12.2994 21.2332C11.6679 20.452 11.3289 19.4749 11.3408 18.4704C11.9408 18.8011 12.6111 18.9839 13.2959 19.0036C12.3835 18.3952 11.7376 17.4616 11.4899 16.3933C11.2422 15.325 11.4114 14.2024 11.9629 13.2546C13.0457 14.5859 14.3965 15.6743 15.9276 16.4493C17.4587 17.2243 19.1357 17.6684 20.8496 17.7527C20.6381 16.8298 20.7361 15.863 21.1285 15.0013C21.5209 14.1397 22.1859 13.4311 23.0209 12.9848C23.8559 12.5386 24.8146 12.3794 25.749 12.5319C26.6834 12.6844 27.5417 13.1402 28.1914 13.8288C29.1547 13.6347 30.0789 13.2812 30.9258 12.7829C30.6043 13.7794 29.9313 14.6249 29.0322 15.1618C29.8868 15.0597 30.7211 14.8292 31.5069 14.4782C30.9317 15.3486 30.2019 16.1063 29.3535 16.7136Z" fill="white"/>
</svg>
