<svg width="42" height="42" viewBox="0 0 42 42" fill="none" xmlns="http://www.w3.org/2000/svg">
<path d="M41 0H1C0.447715 0 0 0.447717 0 1V41C0 41.5523 0.447717 42 1 42H41C41.5523 42 42 41.5523 42 41V1C42 0.447715 41.5523 0 41 0Z" fill="#027CEF"/>
<path fill-rule="evenodd" clip-rule="evenodd" d="M22.7913 25.84C22.846 24.9992 23.222 23.6867 24.1585 24.4044C24.7159 24.8975 25.2325 25.4347 25.7034 26.0109C25.9692 26.337 26.3085 26.5957 26.6935 26.7656C27.0784 26.9355 27.4981 27.0118 27.9182 26.9884C28.9411 27.0286 29.9655 26.9829 30.9808 26.8517C32.4778 26.3117 29.8255 23.8234 29.1761 23.2697C28.8914 23.0123 28.6199 22.7408 28.3626 22.4562C28.2068 22.3258 28.1017 22.145 28.0655 21.9452C28.0292 21.7453 28.0642 21.5391 28.1643 21.3624L29.1692 19.9474C29.762 19.2014 30.3165 18.4256 30.8304 17.6232C31.22 17.0011 31.9993 15.7775 30.9876 15.5724C29.9492 15.5175 28.9087 15.5175 27.8704 15.5724C26.5032 15.5724 26.763 15.4289 26.0794 17.008C25.6282 18.0607 24.22 20.5353 23.4749 20.8156C22.1077 21.3419 23.1741 16.3312 22.5931 15.463C22.2376 14.9367 20.597 15.005 19.8587 15.0119C18.97 15.0119 17.7395 15.0734 17.4798 15.8048C17.5618 15.8732 17.4798 15.8048 17.6302 15.8868C17.7904 15.9298 17.9479 15.9823 18.1018 16.0441C18.2642 16.1387 18.4023 16.2697 18.5052 16.4269C18.9222 17.1105 18.8743 19.9269 18.5052 20.6105C17.8558 21.8957 15.9554 18.2931 15.6341 17.6505C15.1692 16.7414 14.9847 15.8458 14.4583 15.5998C13.4207 15.4883 12.3754 15.4677 11.3343 15.5382C10.8011 15.5382 10.343 15.6271 10.5413 16.2628C10.6438 16.5773 10.8899 17.0285 11.0335 17.3497C12.0152 19.479 13.206 21.5055 14.5882 23.3995C15.9895 25.2589 18.0608 26.9064 20.679 26.9269C22.5725 26.9679 22.7093 27.0499 22.7913 25.84Z" fill="white"/>
</svg>
