<svg width="42" height="42" viewBox="0 0 42 42" fill="none" xmlns="http://www.w3.org/2000/svg">
<path d="M41 0H1C0.447715 0 0 0.447717 0 1V41C0 41.5523 0.447717 42 1 42H41C41.5523 42 42 41.5523 42 41V1C42 0.447715 41.5523 0 41 0Z" fill="#027CEF"/>
<path fill-rule="evenodd" clip-rule="evenodd" d="M31.302 16.2764C31.1243 14.7451 30.7552 14.3008 30.5022 14.0957C29.8331 13.7366 29.0805 13.562 28.3216 13.5899C26.7014 13.4805 23.9671 13.4121 21.0003 13.4121C18.0335 13.4121 15.2991 13.4805 13.679 13.5899C12.9201 13.562 12.1674 13.7366 11.4983 14.0957C11.2385 14.3008 10.8762 14.7793 10.6917 16.2764C10.4387 19.4204 10.4387 22.5796 10.6917 25.7236C10.8762 27.2549 11.2385 27.6992 11.4983 27.9043C12.1674 28.2634 12.9201 28.438 13.679 28.4101C15.2991 28.5195 18.0335 28.5879 21.0003 28.5879C23.9671 28.5879 26.7014 28.5195 28.3216 28.4101C29.0805 28.438 29.8331 28.2634 30.5022 27.9043C30.7552 27.6992 31.1243 27.2207 31.302 25.7236C31.5686 22.5802 31.5686 19.4198 31.302 16.2764ZM18.4983 24.3017V17.7324L24.8352 21.0342L18.4983 24.3017Z" fill="white"/>
</svg>
